/* XPM */
static char *image[] = {
"48 48 295 2",
"   c None",
"00 c #975a00",
"10 c #ec8d00",
"20 c #bb6f00",
"30 c #774700",
"40 c #6b3f00",
"50 c #ab6600",
"60 c #e88a00",
"70 c #e28600",
"80 c #dd8400",
"90 c #e08500",
":0 c #e58800",
";0 c #ef8e00",
"A0 c #704300",
"B0 c #a96400",
"C0 c #ce810e",
"D0 c #d79839",
"E0 c #dfab5d",
"F0 c #da9f48",
"G0 c #d28c23",
"H0 c #f39100",
"I0 c #e78900",
"J0 c #f19000",
"K0 c #d17d00",
"L0 c #cc7b02",
"M0 c #e3b777",
"N0 c #f6e7d2",
"O0 c #faf3e8",
"P0 c #edd1a8",
"Q0 c #cd7a00",
"R0 c #e18600",
"S0 c #d08617",
"T0 c #f1dcbd",
"U0 c #fbf5ed",
"V0 c #d99c41",
"W0 c #f79300",
"X0 c #cc7a00",
"Y0 c #efd7b3",
"Z0 c #fdfcf9",
"a0 c #cd7d06",
"b0 c #f69200",
"c0 c #e58900",
"d0 c #cf8311",
"e0 c #fbf7ef",
"f0 c #e4b97a",
"g0 c #d37e00",
"h0 c #b76d00",
"i0 c #d99c42",
"j0 c #edd1a7",
"k0 c #d27d00",
"l0 c #613900",
"m0 c #f69300",
"n0 c #e08139",
"o0 c #ffc1c1",
"p0 c #f4e2c7",
"q0 c #ce7b00",
"r0 c #db8300",
"s0 c #f99400",
"t0 c #cf8414",
"u0 c #fed3d2",
"v0 c #fe4747",
"w0 c #ff9d9d",
"x0 c #efd7b2",
"y0 c #e68900",
"z0 c #bc7000",
"01 c #d58309",
"11 c #ffe3e3",
"21 c #ff9191",
"31 c #dba34f",
"41 c #fb9600",
"51 c #f08f00",
"61 c #f0dab9",
"71 c #ff6a6a",
"81 c #6e4100",
"91 c #8c5400",
":1 c #d9922a",
";1 c #fe5252",
"A1 c #ff5f5f",
"B1 c #f3f3f3",
"C1 c #f0d9b6",
"D1 c #fe9700",
"E1 c #fd9700",
"F1 c #fd9600",
"G1 c #f6e9d6",
"H1 c #fffdfd",
"I1 c #ff5d5d",
"J1 c #ff5353",
"K1 c #fff7f7",
"L1 c #515151",
"M1 c #d57f00",
"N1 c #d47e00",
"O1 c #ff6969",
"P1 c #ff4848",
"Q1 c #d4d4d4",
"R1 c #e3e3e3",
"S1 c #efd6b0",
"T1 c #c17300",
"U1 c #a05f00",
"V1 c #eed3ac",
"W1 c #fe8f8f",
"X1 c #ffe5e5",
"Y1 c #f0f0f0",
"Z1 c #bababa",
"a1 c #5d5d5d",
"b1 c #d0d0d0",
"c1 c #f59200",
"d1 c #fa9500",
"e1 c #fb9500",
"f1 c #ff9a9a",
"g1 c #ffd4d4",
"h1 c #fcfcfc",
"i1 c #f9f9f9",
"j1 c #f1f1f1",
"k1 c #b9b9b9",
"l1 c #545454",
"m1 c #d1d1d1",
"n1 c #ee9d27",
"o1 c #f5970b",
"p1 c #ffb8b8",
"q1 c #ff4747",
"r1 c #ffd2d2",
"s1 c #ebebeb",
"t1 c #ededed",
"u1 c #e6e6e6",
"v1 c #bfbfbf",
"w1 c #eaeaea",
"x1 c #ecb96e",
"y1 c #f7a730",
"z1 c #fed1d1",
"02 c #f24343",
"12 c #987474",
"22 c #474747",
"32 c #969696",
"42 c #555555",
"52 c #626262",
"62 c #dddddd",
"72 c #f1d9b8",
"82 c #895200",
"92 c #fab550",
":2 c #bdb0b0",
";2 c #4a4a4a",
"A2 c #e0e0e0",
"B2 c #6b6b6b",
"C2 c #4e4e4e",
"D2 c #4d4d4d",
"E2 c #6c6c6c",
"F2 c #e5e5e5",
"G2 c #fdfaf6",
"H2 c #cb7800",
"I2 c #fabe64",
"J2 c #c1c1c1",
"K2 c #fdfdfd",
"L2 c #f8f8f8",
"M2 c #f29000",
"N2 c #fec470",
"O2 c #d7d7d7",
"P2 c #dfdfdf",
"Q2 c #fb9806",
"R2 c #febb59",
"S2 c #606060",
"T2 c #818181",
"U2 c #d8d8d8",
"V2 c #fffefe",
"W2 c #e8900d",
"X2 c #feb243",
"Y2 c #5f5f5f",
"Z2 c #d5d5d5",
"a2 c #949494",
"b2 c #bdbdbd",
"c2 c #fdf1df",
"d2 c #ba7715",
"e2 c #fea520",
"f2 c #c6c6c6",
"g2 c #797979",
"h2 c #dbdbdb",
"i2 c #fed598",
"j2 c #a96500",
"k2 c #eeeeee",
"l2 c #535353",
"m2 c #f4f4f4",
"n2 c #ffb548",
"o2 c #a96b0f",
"p2 c #959595",
"q2 c #7c7c7c",
"r2 c #ff9d0c",
"s2 c #e7e7e7",
"t2 c #505050",
"u2 c #fbfbfb",
"v2 c #e89315",
"w2 c #fe9c0b",
"x2 c #fffdfc",
"y2 c #f7f7f7",
"z2 c #666666",
"03 c #b5b5b5",
"13 c #ffb240",
"23 c #97661d",
"33 c #f19f25",
"43 c #ffd79c",
"53 c #cbcbcb",
"63 c #fffbf6",
"73 c #ff9802",
"83 c #efefef",
"93 c #575757",
":3 c #ececec",
";3 c #ffbb57",
"A3 c #de9426",
"B3 c #ffab30",
"C3 c #feb74d",
"D3 c #a9a9a9",
"E3 c #787878",
"F3 c #ffefd9",
"G3 c #ff9c09",
"H3 c #fff0da",
"I3 c #777777",
"J3 c #ff9904",
"K3 c #fbaa32",
"L3 c #d69029",
"M3 c #fff1de",
"N3 c #d9d9d9",
"O3 c #4f4f4f",
"P3 c #b6b6b6",
"Q3 c #fea92b",
"R3 c #fef4e4",
"S3 c #fffffe",
"T3 c #ffb03d",
"U3 c #ffa014",
"V3 c #825718",
"W3 c #ffa929",
"X3 c #fffbf4",
"Y3 c #875b19",
"Z3 c #ffc672",
"a3 c #ffecd1",
"b3 c #ff9903",
"c3 c #ff9b08",
"d3 c #fba931",
"e3 c #a46e1f",
"f3 c #fea623",
"g3 c #fe9d0d",
"h3 c #ffeacc",
"i3 c #fffbf5",
"j3 c #ff9d0d",
"k3 c #efa22f",
"l3 c #895c1a",
"m3 c #ff9801",
"n3 c #ffecd0",
"o3 c #fffefd",
"p3 c #ffad36",
"q3 c #f7a731",
"r3 c #fe9e0f",
"s3 c #ffad34",
"t3 c #fecd84",
"u3 c #ffefd7",
"v3 c #fefefe",
"w3 c #ffffff",
"x3 c #fff9f1",
"y3 c #ffddaa",
"z3 c #ffb64a",
"04 c #ff9d0e",
"14 c #fe9801",
"24 c #ffa92b",
"34 c #bf8126",
"44 c #e49a2c",
"54 c #ffaa2d",
"64 c #ff9a05",
"74 c #ffa31a",
"84 c #fdab32",
"94 c #ffa521",
":4 c #db932a",
";4 c #ffac31",
"A4 c #ffa520",
"B4 c #ff9b07",
"C4 c #fe9800",
"D4 c #ff9800",
"E4 c #ffa117",
"F4 c #fea92a",
"G4 c #ab7321",
"H4 c #b67b24",
"I4 c #f8a731",
"J4 c #ffac32",
"K4 c #ffa828",
"L4 c #ffa41d",
"M4 c #ffa118",
"N4 c #ffa115",
"O4 c #ffa116",
"P4 c #fea31b",
"Q4 c #ffa724",
"R4 c #ffab2f",
"S4 c #fead33",
"T4 c #d38e29",
"U4 c #c48425",
"V4 c #eda02e",
"W4 c #ffad33",
"X4 c #f3a430",
"Y4 c #d69129",
"Z4 c #9d691d",
"                                          Z4Y4X4W4V4U4                                          ",
"                                  T4W4S4R4Q4P4O4N4M4L4K4J4W4I4H4                                ",
"                            G4W4F4E4D4C4D4D4C4D4D4D4D4D4D4D4B4A4;4W4                            ",
"                        :4W494D4D4D4D4D4D4D4D4D4D4D4D4D4D4D4D4D4D4D4R4W4                        ",
"                      8474D4D4D4D4D4D4D4D4D4D4D4D4D4D4D4D4D4D4D4D4D4D4645444                    ",
"                  342414D4D4D4D4D4D404z3y3x3w3w3w3v3w3u3t3s3D4C4D4D4C4D4D4r3J4                  ",
"                q374D4D4D4D4D4D4p3o3w3w3w3w3w3w3w3w3w3w3w3w3w3n3m3D4D4D4D4D4D4J4l3              ",
"              k3j3D4D4D4D4D4z3i3w3w3w3w3w3w3w3w3w3v3w3w3v3w3w3v3w3h3g3D4D4C4D4D4f3e3            ",
"            d3c3C4D4D4C4b3a3w3w3w3w3w3w3w3w3w3w3w3v3w3w3v3w3w3v3w3w3v3Z3D4C4D4D4C4A4Y3          ",
"          Y4b3D4D4D4D4E4w3w3w3w3w3w3w3w3w3w3w3w3w3w3w3w3w3w3w3w3w3w3w3w3X3D4D4D4D4D4W3          ",
"        V3U3D4D4D4D4T3S3w3w3w3w3w3w3w3w3w3w3w3w3w3v3w3w3v3w3w3v3w3w3v3w3w3R3D4D4C4D4D4Q3        ",
"        f3C4D4D4C4L4w3v3w3w3w3w3w3w3w3w3w3w3w3w3w3v3w3w3v3P3O3O3N3w3v3w3w3v3M3D4C4D4D4C4L3      ",
"      K3D4D4D4D4J3w3w3w3w3w3w3w3w3w3w3w3w3w3w3w3w3w3w3w3w3O3O3O3I3w3w3w3w3w3w3H3D4D4D4D404      ",
"      G3D4D4D4D4F3w3w3w3w3w3w3w3w3w3w3w3w3w3w3w3w3v3w3w3E3O3O3O3D3w3v3w3w3v3w3w3C3D4D4C4D4B3    ",
"    A3D4D4C4D4;3v3w3w3v3w3w3w3w3w3w3w3w3w3w3w3w3w3v3w3:3O3O3O39383w3v3w3w3v3w3w3v373D4C4D4m3    ",
"    j3D4D4D4D463w3w3w3w3w3w3w3w3w3w3w3w3w3w3w3w3w3w3w3O3O3O3O353w3w3w3w3w3w3w3w3w343D4D4D4D433  ",
"  23C4D4D4D413w3w3w3w3w3w3w3w3w3w3w3w3w3w3w3w3w3w3v303O3O3O3z2y2w3w3v3w3w3v3w3w3v3x2D4C4D4D4w2  ",
"  v2C4D4D4C4o3w3v3w3w3v3w3w3w3w3w3w3w3w3w3w3w3w3w3u2O3O3O3t2s2v3w3w3v3w3w3v3w3w3v3w3T3C4D4D4C4  ",
"  B4D4D4D4r2w3w3w3w3w3w3w3w3w3w3w3w3w3w3w3w3w3w3w3q2O3O3O3p2w3w3w3w3w3w3w3w3w3w3w3w3w3D4D4D4D4o2",
"  C4C4D4D4n2w3w3w3w3w3w3w3w3w3w3w3w3w3w3w3w3w3w3m2O3O3O3l2k2w3v3w3w3v3w3w3v3w3w3v3w3w3C4D4D4C4j2",
"  C4C4D4D4i2w3w3v3w3w3v3w3w3w3w3w3w3w3w3w3w3h2g2O3O3O3O3f2w3w3v3w3w3v3w3w3v3w3w3v3w3w3e2D4D4C4j2",
"d2D4D4D4D4c2w3w3w3w3w3w3w3w3w3w3w3w3w3w3w3b2O3a2Z2Y2O393y2w3w3w3w3w3w3w3w3w3w3w3w3w3w3X2D4D4D4j2",
"W2C4C4D4D4V2w3w3w3w3w3w3w3w3w3w3w3w3w3w3u2O3U2w3w3v3T2S2v3w3w3v3w3w3v3w3w3v3w3w3v3w3w3R2D4D4C4j2",
"Q2C4C4D4D4v3w3w3v3w3w3v3w3w3w3w3w3w3w3w3P2O3w3w3w3v3O2O3v3w3w3v3w3w3v3w3w3v3w3w3v3w3w3N2D4D4C4j2",
"M2D4D4D4D4w3w3w3w3w3w3w3w3w3w3w3w3w3w3L293O3K2w3w3w3J2O3w3w3w3w3w3w3w3w3w3w3w3w3w3w3w3I2D4D4D4j2",
"H2D4D4D4C4G2w3w3w3w3w3w3w3w3w3w3w3F2E2O3D2C2B2v3w3A2;2:2w3w3w3w3w3w3w3w3w3w3w3w3w3w3w392D4D4D4j2",
"82C4C4D4D472w3w3v3w3w3v3w3w3w36252O3O3O34232522222221202z1w3w3v3w3w3v3w3w3v3w3w3v3w3w3y1D4D4C4j2",
"  D4D4D4D4x1w3w3w3w3w3w3w3w1t2O3O3O3O3v1u1t1u1u1u1u1s1r1q1p1w3w3w3w3w3w3w3w3w3w3w3w3w3o1D4D4D4j2",
"  D4D4D4C4n1w3w3w3w3w3m152O3O3O3l1k1u1j1K2w3w3i1y2h1w3w3g1q1f1w3w3w3w3w3w3w3w3w3w3w3w3e1D4D4D4j2",
"  d1C4D4D4c1w3w3v3b193O3O3O3a1Z1u1Y1w3w3w3w3w3w3w3v3w3w3v3X1q1W1w3w3v3w3w3v3w3w3v3w3V1C4D4D4C4U1",
"  T1D4D4D4D4S1w3R1O3O3O3O3Q1u1j1w3w3w3w3w3w3w3w3w3w3w3w3w3w3w3P1O1w3w3w3w3w3w3w3w3w3N1D4D4D4D4  ",
"    D4D4C4D4M1w3y2L1Y2f2u1m2v3w3w3w3w3w3w3w3w3w3w3w3w3w3w3w3w3K1J1I1H1w3w3w3w3w3w3G1F1D4D4D4D4  ",
"    E1D4D4C4D1C1K2u1u1B1w3w3w3w3w3w3w3w3w3w3w3w3w3v3w3w3v3w3w3v3H1A1;1K1w3v3w3w3v3:1D4C4D4D491  ",
"    81D4D4D4D4M1w3w3w3w3w3w3w3w3w3w3w3w3w3w3w3w3w3w3w3w3w3w3w3w3w3w371P1w3w3w3w36151D4D4D4D4    ",
"      D4C4D4D44131w3w3w3w3w3w3w3w3w3w3w3w3w3w3w3w3w3w3w3w3w3w3w3w3w3w321q111w3w301D4D4D4D4z0    ",
"        D4C4D4D4y0x0w3v3w3w3w3w3w3w3w3w3w3w3w3w3w3v3w3w3v3w3w3v3w3w3v3w3w0v0u0t0d1D4D4C4s0      ",
"        r0D4D4D4D4q0p0w3w3w3w3w3w3w3w3w3w3w3w3w3w3w3w3w3w3w3w3w3w3w3w3w3w3o0n0m0D4D4D4D4l0      ",
"          D4D4D4D4D4k0j0w3w3w3w3w3w3w3w3w3w3w3w3w3w3w3w3w3w3w3w3w3w3w3w3w3i0y0D4D4D4D4h0        ",
"            D4D4C4D4D4g0f0v3w3w3w3w3w3w3w3w3w3w3w3v3w3w3v3w3w3v3w3w3v3e0d0c0D4D4C4D4b0          ",
"              D4D4D4D4D4M1a0Z0w3w3w3w3w3w3w3w3w3w3w3w3w3w3w3w3w3w3w3Y0X0W0D4D4D4D4e1            ",
"                D4D4D4D4D451X0V0U0w3w3w3w3w3w3w3w3w3w3w3w3w3w3w3T0S0N1e1D4D4D4D4s0              ",
"                  D4D4C4D4D4D1R0Q0t0P0O0w3w3w3w3w3v3w3w3v3N0M0L0K0J0C4D4D4C4D4I0                ",
"                    H0D4D4D4D4D4D4c1X0X0X0X0G0F0E0D0C0X0X0X0N1E1D4D4D4D4D4D4B0                  ",
"                      A0D4D4D4D4D4D4D4D4m0;0:090807060M2d1D4D4D4D4D4D4D4e1                      ",
"                          50D4D4D4D4D4D4D4D4D4D4D4C4D4D4C4D4D4C4D4D4J040                        ",
"                              30D4D4D4D4D4D4D4D4D4D4D4D4D4D4D4D4c1                              ",
"                                      20E1D4D4D4D4D4D4D41000                                    ",
"                                                                                                "};
