/* XPM */
static char *image[] = {
"48 48 168 2",
"   c None",
"00 c #876d1e",
"10 c #fecc35",
"20 c #fec210",
"30 c #edb305",
"40 c #fdc826",
"50 c #bf9005",
"60 c #fecb34",
"70 c #fec61f",
"80 c #fec416",
"90 c #fdc92a",
":0 c #fec10c",
";0 c #fec823",
"A0 c #fecc34",
"B0 c #fec10b",
"C0 c #fec61d",
"D0 c #fecb32",
"E0 c #fec109",
"F0 c #fecd37",
"G0 c #fdc418",
"H0 c #fdcf44",
"I0 c #fdcc39",
"J0 c #efe4c3",
"K0 c #ece8de",
"L0 c #fac936",
"M0 c #f7d776",
"N0 c #ebebea",
"O0 c #f1dea8",
"P0 c #fdc10d",
"Q0 c #fecd39",
"R0 c #ebe9e3",
"S0 c #f9ca3e",
"T0 c #f3de9f",
"U0 c #eee3c2",
"V0 c #fcc211",
"W0 c #fad256",
"X0 c #ebe9e2",
"Y0 c #f5d267",
"Z0 c #f0e4c2",
"a0 c #f8d66d",
"b0 c #ebeae5",
"c0 c #d1d1d1",
"d0 c #999999",
"e0 c #cbcbcb",
"f0 c #f2da93",
"g0 c #fdce40",
"h0 c #efe4c6",
"i0 c #d8d8d8",
"j0 c #fac834",
"k0 c #f7d778",
"l0 c #dfdfdf",
"m0 c #eee2be",
"n0 c #fcce45",
"o0 c #ede7d4",
"p0 c #ebeaea",
"q0 c #f7ce52",
"r0 c #fdcd38",
"s0 c #f4db91",
"t0 c #c7c7c7",
"u0 c #e0e0e0",
"v0 c #e4e4e4",
"w0 c #a7a7a7",
"x0 c #b2b2b2",
"y0 c #d6d6d6",
"z0 c #8b8b8b",
"01 c #eee3c3",
"11 c #fdc210",
"21 c #fdc006",
"31 c #fccf47",
"41 c #b1b1b1",
"51 c #f5d168",
"61 c #fecc38",
"71 c #fecd38",
"81 c #fea812",
"91 c #a5a5a5",
":1 c #868686",
";1 c #919191",
"A1 c #939393",
"B1 c #a8a8a8",
"C1 c #fe9b00",
"D1 c #febd05",
"E1 c #a98825",
"F1 c #febe29",
"G1 c #aaaaaa",
"H1 c #c5c5c5",
"I1 c #dedede",
"J1 c #fea902",
"K1 c #fec006",
"L1 c #a96400",
"M1 c #d2d2d2",
"N1 c #bababa",
"O1 c #d7d7d7",
"P1 c #febf06",
"Q1 c #a96809",
"R1 c #ababab",
"S1 c #c8c8c8",
"T1 c #c1c1c1",
"U1 c #fe9907",
"V1 c #a76a0f",
"W1 c #fd9700",
"X1 c #858585",
"Y1 c #979797",
"Z1 c #929292",
"a1 c #d9d9d9",
"b1 c #e7e7e7",
"c1 c #9d9d9d",
"d1 c #cdcdcd",
"e1 c #fe9e11",
"f1 c #d58614",
"g1 c #fe9c0c",
"h1 c #f5be6d",
"i1 c #c0c0c0",
"j1 c #e3e3e3",
"k1 c #b9b9b9",
"l1 c #989898",
"m1 c #fe9802",
"n1 c #ac6d10",
"o1 c #f5c37a",
"p1 c #959595",
"q1 c #e2e2e2",
"r1 c #c6c6c6",
"s1 c #c9c9c9",
"t1 c #ea9517",
"u1 c #7c766e",
"v1 c #b7b7b7",
"w1 c #8d8d8d",
"x1 c #969696",
"y1 c #8e8e8e",
"z1 c #b8b8b8",
"02 c #e9e9e9",
"12 c #a1a1a1",
"22 c #909090",
"32 c #a6a6a6",
"42 c #b4b4b4",
"52 c #adadad",
"62 c #9a9a9a",
"72 c #e1e1e1",
"82 c #cfcfcf",
"92 c #8c8c8c",
":2 c #acacac",
";2 c #b3b3b3",
"A2 c #888888",
"B2 c #848484",
"C2 c #9e9e9e",
"D2 c #dcdcdc",
"E2 c #eaeaea",
"F2 c #e6e6e6",
"G2 c #dbdbdb",
"H2 c #ebebeb",
"I2 c #f9a222",
"J2 c #fd9d11",
"K2 c #fd9b0a",
"L2 c #fd9b0c",
"M2 c #fda31f",
"N2 c #b5771a",
"O2 c #f09817",
"P2 c #fea015",
"Q2 c #fe9906",
"R2 c #fea119",
"S2 c #fea017",
"T2 c #fe9804",
"U2 c #fe9700",
"V2 c #fd9f13",
"W2 c #d68815",
"X2 c #e89316",
"Y2 c #fe9c0d",
"Z2 c #fda018",
"a2 c #af6f11",
"                                                a2                                              ",
"                                              Z2Y2X2                                            ",
"                                          W2V2U2U2T2S2                                          ",
"                                        R2Q2U2U2U2U2U2P2O2                                      ",
"                                    N2M2L2K2K2K2K2K2K2K2J2I2                                    ",
"            H2H2H2H2H2H2H2H2H2H2H2H2H2H2H2H2H2H2H2H2H2H2H2H2H2H2H2H2H2H2H2H2H2H2H2H2G2          ",
"          F2H2H2H2H2H2H2H2H2H2H2H2H2H2H2H2H2H2H2H2H2H2H2H2H2H2H2H2H2H2H2H2H2H2H2H2H2H2          ",
"          H2H2H2H2H2H2H2H2H2H2H2H2H2H2H2H2H2H2H2H2E2H2H2E2H2H2E2H2H2E2H2H2E2H2H2E2H2H2          ",
"          H2H2H2H2H2H2H2H2H2H2H2H2H2H2H2H2H2H2H2H2H2H2H2H2H2H2H2H2H2H2H2H2H2H2H2H2H2H2          ",
"          H2H2H2H2H2H2H2H2H2H2H2H2H2H2H2H2D2C2B2B2A2;2H2H2H2H2H2H2H2H2H2H2H2H2H2H2H2H2          ",
"          H2H2H2H2H2H2H2H2H2H2H2H2H2H2:2B2B2B2B2B2B2B2B29282H2E2H2H2E2H2H2E2H2H2E2H2H2          ",
"          H2H2H2H2H2H2H2H2H2H2H2H272B2B2B2B26252423222B2B2B212E2H2H2H2H2H2H2H2H2H2H2H2          ",
"          H2H2H2H2H2H2H2H2H2H2H202B2B2B2z1H2H2H2H2H2H2H2y1B2B2x1H2H2H2H2H2H2H2H2H2H2H2          ",
"          H2H2H2H2H2H2H2H2H2H2H2w1B2B2G2H2H2H2F2G2E2H2H2E242B2B2v1H2E2H2H2E2H2H2E2H2H2u1        ",
"        t1H2H2H2H2H2H2H2H2H2H2s1B2B2D2H2H2r1B2B2B2B2y1q1H2H2p1B2B2H2H2H2H2H2H2H2H2H2H2o1n1      ",
"      R2m1H2H2H2H2H2H2H2H2H2H2B2B2l1H2H2k1B2B2B2B2B2B2B2j1H2H2B2B2i1H2H2H2H2H2H2H2H2H2h1g1R2    ",
"  f1e1U2U2H2H2H2H2H2H2H2H2H2F2B2B2d1H2E2B2B2c1b1H2a1B2B2Z1H2H2Y1B2X1E2H2H2E2H2H2E2H2H2h1W1m1S2  ",
"V1U1U2U2U2H2H2H2H2H2H2H2H2H2a1B2B2H2H2T1B2B202H2H2H2S1B2B2H2H2R1B2B2H2H2H2H2H2H2H2H2H2h1U2U2U2Q1",
"P1U2U2U2U2H2H2H2H2H2H2H2H2H2O1B2B2H2H2N1B2B2H2H2H2H2M1B2B2H2H242B2B2H2H2H2H2H2H2H2H2H2h1U2U2U2L1",
"K1P1J1U2U2H2H2H2H2H2H2H2H2H272B2B2D2H2I1B2B2H1H2H2E2Z1B2B202H2G1B2B2E2H2H2E2H2H2E2H2H2h1W1U2F1E1",
"K1K1K1D1C1H2H2H2H2H2H2H2H2H2H2B2B2B1H2H2A1B2B2;1B1:1B2B2B2A291B2B2A1H2H2H2H2H2H2H2H2H2h1817161E1",
"K1K1K1K1K151H2H2H2H2H2H2H2H2H2C2B2B2H2H2H2:1B2B2B2B2B241B2B2B2B2X1H2H2H2H2H2H2H2H2H2H231717171E1",
"K1K1K1K1K1211101H2H2H2H2H2H2H2H2B2B2z0E2H2H2y0x0w0i1v0H2u0v1w0t0E2H2E2H2H2E2H2H2E2s07171r07171E1",
"K1K1K1K1K1K1K1K1q0p0H2H2H2H2H2H2H1B2B2w1u0H2H2H2H2H2H2H2H2H2H2H2H2H2H2H2H2H2H2o0n0617161617161E1",
"K1K1K1K1K1K1K1K1K1K1m0H2H2H2H2H2H2T1B2B2B2w1l0H2H2H2H2H2H2H2H2H2H2H2H2H2H2H2k07171717171717171E1",
"K1K1K1K1K1K1K121K1K121j0H2H2H2H2H2H2i0A2B2B2B2B2B2B2B2B2B2B2B2d1H2H2H2H2h0g0717171717171717171E1",
"K1K1K1K1K1K1K1K1K1K1K1K1K1f0H2H2H2H2H2H2e0d0X1B2B2B2B2B2B2B2B2c0H2H2b0a07161617161617161617161E1",
"K1K1K1K1K1K1K1K1K1K1K1K1K1K111H2H2H2H2H2H2H2H2H2H2H2H2H2H2H2H2H2H2Z071717171717171717171717171E1",
"K1K1K1K1K1K1K121K1K121K1K121K1K1Y0H2H2H2H2H2H2H2H2H2H2H2H2H2H2X0W07171717171717171717171717171E1",
"K1K1K1K1K1K1K1K1K1K1K1K1K1K1K1K1K1V0U0H2H2H2H2H2H2H2H2H2H2p0T061617161617161617161617161617161E1",
"K1K1K1K1K1K1K1K1K1K1K1K1K1K1K1K1K1K1K1S0H2H2H2H2H2H2H2H2R0Q07171717171717171717171717171717171E1",
"K1K1K1K1K1K1K121K1K121K1K121K1K121K1K121P0O0H2H2H2H2N0M071717171717171717171717171717171717171E1",
"K1K1K1K1K1K1K1K1K1K1K1K1K1K1K1K1K1K1K1K1K1K1L0K0H2J0I07161617161617161617161617161617161617161E1",
"K1K1K1K1K1K1K1K1K1K1K1K1K1K1K1K1K1K1K1K1K1K1K1K1H071717171717171717171717171717171717171717171E1",
"K1K1K1K1K1K1K121K1K121K1K121K1K121K1K121K1K1G0F07171717171717171717171717171717171717171717171E1",
"K1K1K1K1K1K1K1K1K1K1K1K1K1K1K1K1K1K1K1K1E0D061617161617161617161617161617161617161617161617161E1",
"K1K1K1K1K1K1K1K1K1K1K1K1K1K1K1K1K1K1K1C0717171717171717171717171717171717171717171717171717171E1",
"K1K1K1K1K1K1K121K1K121K1K121K1K121B0A0r07171r0717171717171717171717171717171717171717171717171E1",
"K1K1K1K1K1K1K1K1K1K1K1K1K1K1K1K1;0617161617161617161617161617161617161617161617161617161617161E1",
"K1K1K1K1K1K1K1K1K1K1K1K1K1K1:07171717171717171717171717171717171717171717171717171717171717171E1",
"K1K1K1K1K1K1K121K1K121K1K1907171r07171r07171r0717171717171717171717171717171717171717171717171E1",
"K1K1K1K1K1K1K1K1K1K1K1807161617161617161617161617161617161617161617161617161617161617161617161E1",
"K1K1K1K1K1K1K1K1K1K1A0717171717171717171717171717171717171717171717171717171717171717171717171E1",
"K1K1K1K1K1K1K1217071r07171r07171r07171r07171r0717171717171717171717171717171717171717171717171E1",
"K1K1K1K1K1K1:060717161717161617161617161617161617161617161617161617161617161617161617161617161E1",
"50K1K1K1K1407171717171717171717171717171717171717171717171717171717171717171717171717171717171E1",
"  30K120107171r07171r07171r07171r07171r07171r071717171717171717171717171717171717171717171717100",
"                                                                                                "};
