/* XPM */
static char *image[] = {
"48 48 165 2",
"   c None",
"00 c #727272",
"10 c #898989",
"20 c #838383",
"30 c #4e4e4e",
"40 c #6f6f6f",
"50 c #a4a4a4",
"60 c #a3a3a3",
"70 c #a7a7a7",
"80 c #656565",
"90 c #989898",
":0 c #a8a8a8",
";0 c #8c8c8c",
"A0 c #696969",
"B0 c #676767",
"C0 c #b1b1b1",
"D0 c #b2b2b2",
"E0 c #4d4d4d",
"F0 c #686868",
"G0 c #808080",
"H0 c #dbdbdb",
"I0 c #434343",
"J0 c #494949",
"K0 c #c7c9cc",
"L0 c #8ca2bb",
"M0 c #8ca4be",
"N0 c #cccccc",
"O0 c #b5b5b5",
"P0 c #d9d9d9",
"Q0 c #92a6bd",
"R0 c #c0cad5",
"S0 c #d0d0d0",
"T0 c #d4d4d4",
"U0 c #bbc1c8",
"V0 c #7493b4",
"W0 c #d6d9dd",
"X0 c #9cacbf",
"Y0 c #a3b6ca",
"Z0 c #c8cbce",
"a0 c #c9d0d8",
"b0 c #c3c7cb",
"c0 c #96a9bd",
"d0 c #d2d5d7",
"e0 c #dadbdb",
"f0 c #6f8fb2",
"g0 c #c4cdd6",
"h0 c #d3d4d4",
"i0 c #c2c6cb",
"j0 c #507aaa",
"k0 c #ced4db",
"l0 c #bac1c8",
"m0 c #c1cad5",
"n0 c #8ba2ba",
"o0 c #9daec0",
"p0 c #698db4",
"q0 c #cfcfcf",
"r0 c #c6cfd7",
"s0 c #d6d6d6",
"t0 c #d7d7d7",
"u0 c #6e8fb2",
"v0 c #cfd5dc",
"w0 c #99aabe",
"x0 c #c7ced5",
"y0 c #a9b6c3",
"z0 c #4b77a9",
"01 c #b0becf",
"11 c #c1c5ca",
"21 c #7593b4",
"31 c #8ca5c0",
"41 c #557fac",
"51 c #c0c4ca",
"61 c #849cb9",
"71 c #adb8c4",
"81 c #7897b9",
"91 c #849fbd",
":1 c #aabbce",
";1 c #668bb3",
"A1 c #567eab",
"B1 c #b8c4d0",
"C1 c #567fac",
"D1 c #6488b0",
"E1 c #547dab",
"F1 c #4e79a9",
"G1 c #bbc6d3",
"H1 c #6a8eb5",
"I1 c #e1e1e1",
"J1 c #5c83ae",
"K1 c #cacbcd",
"L1 c #6288b2",
"M1 c #b1c0d0",
"N1 c #dfe0e2",
"O1 c #d0d1d3",
"P1 c #6689b0",
"Q1 c #b7bfc8",
"R1 c #d7d9da",
"S1 c #aebecf",
"T1 c #dedede",
"U1 c #d1d1d1",
"V1 c #5980ad",
"W1 c #7492b4",
"X1 c #a3b1c2",
"Y1 c #aebac7",
"Z1 c #b7c4d2",
"a1 c #bec3c9",
"b1 c #8da3bb",
"c1 c #4f7aaa",
"d1 c #90a5bc",
"e1 c #6a8cb1",
"f1 c #7694b5",
"g1 c #6f91b6",
"h1 c #d0d5dc",
"i1 c #d5d5d5",
"j1 c #cdcdce",
"k1 c #517baa",
"l1 c #a3b1c1",
"m1 c #537dab",
"n1 c #a8b9cc",
"o1 c #e2e2e2",
"p1 c #d2d2d2",
"q1 c #cecece",
"r1 c #cdcdcd",
"s1 c #acb7c4",
"t1 c #4f7aa9",
"u1 c #829bb8",
"v1 c #e0e1e2",
"w1 c #5880ad",
"x1 c #c1cbd6",
"y1 c #6186af",
"z1 c #6588af",
"02 c #5780ac",
"12 c #aebdce",
"22 c #4b78a9",
"32 c #678bb3",
"42 c #85a0bf",
"52 c #acbcce",
"62 c #5c84af",
"72 c #507baa",
"82 c #d5d9dd",
"92 c #4b77a8",
":2 c #a7b9cc",
";2 c #e3e3e4",
"A2 c #a2b5cb",
"B2 c #e2e3e3",
"C2 c #ccd3da",
"D2 c #b8c5d3",
"E2 c #9fb3c9",
"F2 c #839fbe",
"G2 c #6d8fb5",
"H2 c #5880ae",
"I2 c #4e79aa",
"J2 c #4976a8",
"K2 c #4c78a9",
"L2 c #6d90b6",
"M2 c #dcdee0",
"N2 c #e5e5e5",
"O2 c #979797",
"P2 c #e3e3e3",
"Q2 c #e4e4e4",
"R2 c #dcdcdc",
"S2 c #9b9b9b",
"T2 c #e7e7e7",
"U2 c #e6e6e6",
"V2 c #b8b8b8",
"W2 c #e9e9e9",
"X2 c #dddddd",
"    X2W2W2W2W2W2W2W2W2W2W2W2W2W2W2W2W2W2W2W2W2W2W2W2W2W2W2W2W2W2W2W2W2W2W2W2W2W2W2W2W2W2W2W2V2  ",
"  W2U2U2U2U2U2U2U2U2U2U2U2U2U2U2U2U2U2U2U2U2U2U2U2U2U2U2U2U2U2U2U2U2U2U2U2U2U2U2U2U2U2U2U2U2T2S2",
"R2Q2Q2Q2Q2P2Q2Q2P2Q2Q2P2Q2Q2Q2Q2Q2Q2Q2Q2Q2Q2Q2Q2Q2Q2Q2Q2Q2Q2Q2Q2Q2Q2Q2Q2Q2Q2Q2Q2Q2Q2Q2Q2Q2Q2Q2O2",
"N2Q2Q2Q2Q2Q2Q2Q2Q2Q2Q2Q2Q2Q2Q2Q2Q2Q2Q2Q2Q2Q2Q2Q2Q2Q2Q2Q2Q2Q2Q2Q2Q2Q2Q2Q2Q2Q2Q2Q2Q2Q2Q2Q2Q2Q2Q2O2",
"Q2Q2Q2Q2Q2Q2Q2Q2Q2Q2Q2Q2Q2Q2Q2Q2Q2Q2Q2Q2Q2Q2Q2Q2Q2Q2Q2Q2Q2Q2Q2Q2Q2Q2Q2Q2Q2Q2Q2Q2Q2Q2Q2Q2Q2Q2Q2O2",
"Q2P2Q2Q2Q2Q2Q2P2Q2Q2P2Q2Q2P2P2Q2P2P2Q2P2M2Q2L2K2J2I2H2G2F2E2D2C2B2Q2P2P2Q2P2P2Q2P2P2Q2P2P2Q2P2O2",
"Q2Q2Q2Q2Q2Q2Q2Q2Q2Q2Q2Q2Q2Q2Q2Q2Q2Q2A2J2J2Q2J2J2J2J2J2J2J2J2J2J2J2;2Q2Q2Q2Q2Q2Q2Q2Q2Q2Q2Q2Q2Q2O2",
"Q2Q2Q2Q2Q2Q2Q2Q2Q2Q2Q2Q2Q2Q2Q2Q2:292J2J2J282J2J2J2J2J2J2J2J2J2J2J272J2J26252Q2Q2Q2Q2Q2Q2Q2Q2Q2O2",
"Q2P2Q2Q2Q2Q2Q2P2Q2Q2P2Q2Q2P2P242J2J2J2J2J232J2J2J2J2J2J2J2J2J2J2J2J2J2J2J2J22212P2P2Q2P2P2Q2P2O2",
"Q2Q2Q2Q2Q2Q2Q2Q2Q2Q2Q2Q2Q2Q2Q2J2J2J2J2J2J2J2J2J2J2J2J2J2J2J2J2J2J2J2J2J202z1y1J2J2x1Q2Q2Q2Q2Q2O2",
"Q2Q2Q2Q2Q2Q2Q2Q2Q2Q2Q2Q2;2w1v1J2J2J2J2J2J2J2J2J2J2u1t1J2J2J2J2J2K2s1r1q1q1q1q1q1p1o1Q2Q2Q2Q2Q2O2",
"Q2P2Q2Q2Q2Q2Q2P2Q2Q2P2Q2J2J2n1K2J2J2J2J2J2J2J2m1l1J2J2J2J2J2J2k1j1i1P2P2Q2P2P2Q2P2P2Q2P2P2Q2P2O2",
"Q2Q2Q2Q2Q2Q2Q2Q2Q2Q2Q2h1J2J2g1f1J2J2J2J2J2J2e1d1J2J2J2c1q1r1b1a1o1Q2Q2Q2Q2Q2Q2Q2Q2Q2Q2Q2Q2Q2Q2O2",
"Q2Q2Q2Q2Q2Q2Q2Q2Q2Q2Q2Z1J2J2K2Y1J2J2J2J2J2X1W1J2J2J2J2J2J2V1U1T1Q2Q2Q2Q2Q2Q2Q2Q2Q2Q2Q2Q2Q2Q2Q2O2",
"Q2Q2Q2Q2Q2Q2Q2Q2Q2Q2Q2S1J2J2J2R1J2J2J292Q1P1J2J2J2J2J2J2k1O1Q2Q2Q2Q2Q2Q2Q2Q2Q2Q2Q2Q2Q2Q2Q2Q2Q2O2",
"Q2Q2Q2Q2Q2Q2Q2Q2Q2Q2N1M1J2J2J2L1J2J2J2K1J1J2J2J2J2J2J2J2j1I1Q2Q2Q2Q2Q2Q2Q2Q2Q2Q2Q2Q2Q2Q2Q2Q2Q2O2",
"Q2Q2Q2Q2Q2Q2Q2Q2Q2Q2H1G1J2J2J2J2F1E1r1D1J2J2J2J2J2J2C1q1I1Q2Q2Q2Q2Q2Q2Q2Q2Q2Q2Q2Q2Q2Q2Q2Q2Q2Q2O2",
"Q2Q2Q2Q2Q2Q2Q2Q2Q2Q2J2B1J2J2J2J2A1j1;1J2J2J2J2J2J2F1q1Q2Q2Q2Q2Q2Q2Q2Q2Q2Q2Q2Q2Q2Q2Q2Q2Q2Q2Q2Q2O2",
"Q2Q2Q2Q2Q2Q2Q2Q2Q2:1J291J2J2J2J2q181J2J2J2J27161J251P2Q2Q2Q2Q2Q2Q2Q2Q2Q2Q2Q2Q2Q2Q2Q2Q2Q2Q2Q2Q2O2",
"Q2Q2Q2Q2Q2Q2Q2Q2Q222J241J2J2F1r131J2J2J2J2J2J221q1T1Q2Q2Q2Q2Q2Q2Q2Q2Q2Q2Q2Q2Q2Q2Q2Q2Q2Q2Q2Q2Q2O2",
"Q2Q2Q2Q2Q2Q2Q2Q2Q2J2J2J2J2J21101J2J2J2J2J2J2J2z0P2Q2Q2Q2Q2Q2Q2Q2Q2Q2Q2Q2Q2Q2Q2Q2Q2Q2Q2Q2Q2Q2Q2O2",
"Q2Q2Q2Q2Q2Q2Q2Q2v1J2J2J2J2y0x0J2J2J2J2J2J2J2J2w0P2Q2Q2Q2Q2Q2Q2Q2Q2Q2Q2Q2Q2Q2Q2Q2Q2Q2Q2Q2Q2Q2Q2O2",
"Q2Q2Q2Q2Q2Q2Q2Q2v0J2J2J2u0t0K2J292J2J2J2J2J2J2s0Q2Q2Q2Q2Q2Q2Q2Q2Q2Q2Q2Q2Q2Q2Q2Q2Q2Q2Q2Q2Q2Q2Q2O2",
"Q2Q2Q2Q2Q2Q2Q2Q2r0J2J272q0p0J2J2J2o0J2J2J2J2n0Q2Q2Q2Q2Q2Q2Q2Q2Q2Q2Q2Q2Q2Q2Q2Q2Q2Q2Q2Q2Q2Q2Q2Q2O2",
"Q2Q2Q2Q2Q2Q2Q2Q2m0J2J2l0k0J2J2J2J2j0i0J2J2J2h0Q2Q2Q2Q2Q2Q2Q2Q2Q2Q2Q2Q2Q2Q2Q2Q2Q2Q2Q2Q2Q2Q2Q2Q2O2",
"Q2Q2Q2Q2Q2Q2Q2Q2g0J2f0e0J2J2J2J2J2J2d011c0b0I1Q2Q2Q2Q2Q2Q2Q2Q2Q2Q2Q2Q2Q2Q2Q2Q2Q2Q2Q2Q2Q2Q2Q2Q2O2",
"Q2Q2Q2Q2Q2Q2Q2Q2a0J2Z0Y0J2J2J2J2J2X0I1X2p1X2Q2Q2Q2Q2Q2Q2Q2Q2Q2Q2Q2Q2Q2Q2Q2Q2Q2Q2Q2Q2Q2Q2Q2Q2Q2O2",
"Q2Q2Q2Q2Q2Q2Q2Q2W0V0I1J2J2J2J2J2U0T0Q2Q2Q2Q2Q2Q2Q2Q2Q2Q2Q2Q2Q2Q2Q2Q2Q2Q2Q2Q2Q2Q2Q2Q2Q2Q2Q2Q2Q2O2",
"Q2Q2Q2Q2Q2Q2Q2Q2o1S0R0J2J2J2Q0q1P0Q2Q2Q2Q2Q2Q2Q2Q2Q2Q2Q2Q2Q2Q2Q2Q2Q2Q2Q2Q2Q2Q2Q2Q2Q2Q2Q2Q2Q2Q2O2",
"Q2Q2Q2Q2Q2Q2Q2Q2O0N0M0L0K0q1p1o1Q2Q2Q2Q2Q2Q2Q2Q2Q2Q2Q2Q2Q2Q2Q2Q2Q2Q2Q2Q2Q2Q2Q2Q2Q2Q2Q2Q2Q2Q2Q2O2",
"Q2Q2Q2Q2Q2Q2Q2Q2J0I0p1q0X2Q2Q2Q2Q2Q2Q2Q2Q2Q2Q2Q2Q2Q2Q2Q2Q2Q2Q2Q2Q2Q2Q2Q2Q2Q2Q2Q2Q2Q2Q2Q2Q2Q2Q2O2",
"Q2Q2Q2Q2Q2Q2Q2H0I0I0o1Q2Q2Q2Q2Q2Q2Q2Q2Q2Q2Q2Q2Q2Q2Q2Q2Q2Q2Q2Q2Q2Q2Q2Q2Q2Q2Q2Q2Q2Q2Q2Q2Q2Q2Q2Q2O2",
"Q2Q2Q2Q2Q2Q2Q2G0I0F0Q2Q2Q2Q2Q2Q2Q2Q2Q2Q2Q2Q2Q2Q2Q2Q2Q2Q2Q2Q2Q2Q2Q2Q2Q2Q2Q2Q2Q2Q2Q2Q2Q2Q2Q2Q2Q2O2",
"Q2Q2Q2Q2Q2Q2Q2E0I0D0Q2Q2Q2Q2Q2Q2Q2Q2Q2Q2Q2Q2Q2Q2Q2Q2Q2Q2Q2Q2Q2Q2Q2Q2Q2Q2Q2Q2Q2Q2Q2Q2Q2Q2Q2Q2Q2O2",
"Q2Q2Q2Q2Q2Q2Q2I0I0X2Q2Q2Q2Q2Q2Q2Q2Q2Q2Q2Q2Q2Q2Q2Q2Q2Q2Q2Q2Q2Q2Q2Q2Q2Q2Q2Q2Q2Q2Q2Q2Q2Q2Q2Q2Q2Q2O2",
"Q2Q2Q2Q2Q2Q2C0B0r1Q2Q2Q2Q2Q2Q2Q2Q2Q2Q2Q2Q2Q2Q2Q2Q2Q2Q2Q2Q2Q2Q2Q2Q2Q2Q2Q2Q2Q2Q2Q2Q2Q2Q2Q2Q2Q2Q2O2",
"Q2Q2Q2Q2Q2Q2A0q1o1Q2Q2Q2Q2Q2Q2Q2Q2Q2Q2Q2Q2Q2Q2Q2Q2Q2Q2Q2Q2Q2Q2Q2Q2Q2Q2Q2Q2Q2Q2Q2Q2Q2Q2Q2Q2Q2Q2O2",
"O0Q2Q2Q2Q2Q2U1P2Q2Q2Q2Q2Q2Q2Q2Q2Q2Q2Q2Q2Q2Q2Q2Q2Q2Q2Q2Q2Q2Q2Q2Q2Q2Q2Q2Q2Q2Q2Q2Q2Q2Q2Q2Q2Q2Q2Q2O2",
"S2R2Q2Q2Q2Q2Q2Q2Q2Q2Q2Q2Q2Q2Q2Q2Q2Q2Q2Q2Q2Q2Q2Q2Q2Q2Q2Q2Q2Q2Q2Q2Q2Q2Q2Q2Q2Q2Q2Q2Q2Q2Q2Q2Q2Q2Q2;0",
":09090909090909090909090909090909090909090909090909090909090909090909090909090909090909090909080",
":07060606060606060606060606060606060606060606060606060606060606060606060606060606060606060605040",
":0:0:0:0:0:0:0:0:0:0:0:0:0:0:0:0:0:0:0:0:0:0:0:0:0:0:0:0:0:0:0:0:0:0:0:0:0:0:0:0:0:0:0:0:0:0:040",
":0:0:0:0:0:0:0:0:0:0:0:0:0:0:0:0:0:0:0:0:0:0:0:0:0:0:0:0:0:0:0:0:0:0:0:0:0:0:0:0:0:0:0:0:0:0:040",
":0:0:0:0:0:0:0:0:0:0:0:0:0:0:0:0:0:0:0:0:0:0:0:0:0:0:0:0:0:0:0:0:0:0:0:0:0:0:0:0:0:0:0:0:0:0:040",
"70:0:0:0:0:0:0:0:0:0:0:0:0:0:0:0:0:0:0:0:0:0:0:0:0:0:0:0:0:0:0:0:0:0:0:0:0:0:0:0:0:0:0:0:0:0:040",
"30:0:0:0:0:0:0:0:0:0:0:0:0:0:0:0:0:0:0:0:0:0:0:0:0:0:0:0:0:0:0:0:0:0:0:0:0:0:0:0:0:0:0:0:0:0:040",
"    201010101010101010101010101010101010101010101010101010101010101010101010101010101010101000  ",
"                                                                                                "};
