/* XPM */
static char *image[] = {
"48 48 173 2",
"   c None",
"00 c #5d3489",
"10 c #6f3ea3",
"20 c #522e7a",
"30 c #563080",
"40 c #452665",
"50 c #512d79",
"60 c #6f3ea5",
"70 c #3a2056",
"80 c #653896",
"90 c #6d3da1",
":0 c #663997",
";0 c #723fa8",
"A0 c #4e2b73",
"B0 c #4b296f",
"C0 c #693b9c",
"D0 c #7c59a2",
"E0 c #ad96c4",
"F0 c #f0ecf4",
"G0 c #cec2dc",
"H0 c #987eb6",
"I0 c #6d4697",
"J0 c #7642ae",
"K0 c #9174b0",
"L0 c #61388f",
"M0 c #653d92",
"N0 c #ebe6f1",
"O0 c #c2b1d3",
"P0 c #623791",
"Q0 c #301b47",
"R0 c #694195",
"S0 c #fdfcfd",
"T0 c #dbd1e5",
"U0 c #623792",
"V0 c #5e348b",
"W0 c #613690",
"X0 c #f7f5f9",
"Y0 c #d9cfe4",
"Z0 c #7240a8",
"a0 c #d0c4de",
"b0 c #7f5ca4",
"c0 c #7448a3",
"d0 c #f1ecf7",
"e0 c #a885cc",
"f0 c #9c75c5",
"g0 c #a683cb",
"h0 c #cbb7e1",
"i0 c #efe9f6",
"j0 c #f2eff6",
"k0 c #af9ac6",
"l0 c #7c49b3",
"m0 c #f9f8fb",
"n0 c #b599d4",
"o0 c #f0eaf6",
"p0 c #ded0ec",
"q0 c #a480ca",
"r0 c #af8fd0",
"s0 c #7d49b3",
"t0 c #7c48b3",
"u0 c #b89bd6",
"v0 c #7345a5",
"w0 c #703ea6",
"x0 c #e9e0f2",
"y0 c #9b7ebb",
"z0 c #7f5da5",
"01 c #eee7f5",
"11 c #dad1e5",
"21 c #693a9a",
"31 c #e5deec",
"41 c #e4d9ef",
"51 c #ab95c4",
"61 c #6b3c9f",
"71 c #8d60bd",
"81 c #e5dcf0",
"91 c #ebe4f4",
":1 c #7642af",
";1 c #6b3b9d",
"A1 c #9f85bb",
"B1 c #723fa7",
"C1 c #7a47b2",
"D1 c #7441ac",
"E1 c #663b95",
"F1 c #7541ad",
"G1 c #6d3da0",
"H1 c #8869aa",
"I1 c #e7e1ee",
"J1 c #6e4898",
"K1 c #60368e",
"L1 c #653895",
"M1 c #713fa7",
"N1 c #6b4099",
"O1 c #d4c8e0",
"P1 c #8657b9",
"Q1 c #f4f0f7",
"R1 c #baa3d4",
"S1 c #7742b0",
"T1 c #713fa6",
"U1 c #cec1dd",
"V1 c #7440ab",
"W1 c #6e3da2",
"X1 c #633892",
"Y1 c #643894",
"Z1 c #6e3da3",
"a1 c #8150b6",
"b1 c #ab8ace",
"c1 c #f4f0f9",
"d1 c #cfbce3",
"e1 c #946ac1",
"f1 c #7a45b1",
"g1 c #8251b6",
"h1 c #cebae2",
"i1 c #f7f4fa",
"j1 c #ae8ed0",
"k1 c #723fa9",
"l1 c #7d59a5",
"m1 c #c8bad8",
"n1 c #baa9ce",
"o1 c #7953a3",
"p1 c #7340aa",
"q1 c #b092d1",
"r1 c #f2edf7",
"s1 c #8c5fbd",
"t1 c #6e41a0",
"u1 c #a27ec9",
"v1 c #b89cd6",
"w1 c #ad8ccf",
"x1 c #b598d4",
"y1 c #563678",
"z1 c #4f2c75",
"02 c #9268c0",
"12 c #ffffff",
"22 c #804eb5",
"32 c #c5afdd",
"42 c #fefefe",
"52 c #553378",
"62 c #faf9fc",
"72 c #f1ebf7",
"82 c #a380ca",
"92 c #9a72c4",
":2 c #7247a1",
";2 c #7843b0",
"A2 c #7945b2",
"B2 c #7b4eac",
"C2 c #8253b6",
"D2 c #804eb6",
"E2 c #8354b7",
"F2 c #7a46b2",
"G2 c #8251b7",
"H2 c #4e326c",
"I2 c #7b46b2",
"J2 c #523472",
"K2 c #814fb6",
"L2 c #7944b1",
"M2 c #7843b1",
"N2 c #7e4bb5",
"O2 c #8453b8",
"P2 c #774da6",
"Q2 c #5d3c81",
"R2 c #8253b5",
"S2 c #8352b7",
"T2 c #7f4db5",
"U2 c #7e4bb4",
"V2 c #7d4ab4",
"W2 c #7f4cb5",
"X2 c #8150b7",
"Y2 c #8454b8",
"Z2 c #6e4699",
"a2 c #66418e",
"b2 c #7c4fac",
"c2 c #8555b9",
"d2 c #8153b3",
"e2 c #72499e",
"f2 c #492e65",
"                        f2e2d2c2c2c2c2c2c2c2c2c2c2c2c2c2c2c2c2c2c2c2b2a2                        ",
"                  Z2c2Y2X2W2V2V2V2V2V2V2V2V2V2V2V2V2V2V2V2V2V2V2V2V2U2T2S2c2R2Q2                ",
"              P2O2N2M2M2M2M2M2M2M2M2M2M2M2M2M2M2M2M2M2M2M2M2M2M2M2M2M2M2M2M2L2K2Y2J2            ",
"            c2I2M2M2M2M2M2M2M2M2M2M2M2M2M2M2M2M2M2M2M2M2M2M2M2M2M2M2M2M2M2M2M2M2M2K2c2          ",
"        H2G2M2M2M2M2M2M2M2M2M2M2M2M2M2M2M2M2M2M2M2M2M2M2M2M2M2M2M2M2M2M2M2M2M2M2M2M2F2E2        ",
"        D2M2M2M2M2M2M2M2M2M2M2M2M2M2M2M2M2M2M2M2M2M2M2M2M2M2M2M2M2M2M2M2M2M2M2M2M2M2M2M2C2      ",
"      O2M2M2M2M2M2M2M2M2M2M2M2M2M2M2M2M2M2M2M2M2M2M2M2M2M2M2M2M2M2M2M2M2M2M2M2M2M2M2M2M2M2c2    ",
"    B2M2M2M2M2M2M2M2M2M2M2M2M2M2M2M2M2M2M2M2M2M2M2M2M2M2M2M2M2M2M2M2M2M2M2M2M2M2M2M2M2M2M2A2    ",
"    F2M2;2M2M2M2M2M2M2M2M2M2M2M2M2M2M2M2M2M2M2M2M2M2M2M2M2M2M2M2M2M2M2M2M2M2M2M2M2M2M2M2M2M2K2  ",
"  :2M2M2M2M2M2M2M2M2M292M2M2M2M2M2M2M2M2M2M282M2M2M2M2M2M2M2M2M2M2M2M2M2M2M2M2M2M2M2M2M2M2M2M2  ",
"  F2M2M2M2M2M2M2M2M2M272M2M2M2M2M2M2M2M2M2M262M2M2M2M2M2M2M2M2M2M2M2M2M2M2M2M2M2M2M2M2M2M2M2M252",
"  M2M2M2;2M2M2M2M2M2L24232M2M2M2M2M2M2M2M2221202M2M2M2M2M2M2M2M2M2M2M2M2M2M2M2M2M2M2M2M2M2M2M2z1",
"y1M2M2M2M2M2M2M2M2M2x11212M2M2M2M2M2M2w11212121212v1M2M2M2u1M2M2M2M2M2M2M2M2M2M2M2M2M2M2M2M2M2z1",
"t1M2M2M2M2M2M2M2M2s1r11212q1M2M2M2M2M2p1o1n112m1l1k1M2M2j1i1h1g1M2M2M2M2M2M2M2M2M2M2M2M2M2M2M2z1",
"f1M2M2M2M2M2e1d142121242121212c1b1a1M2M2Z1Y112X1W1;2M2M2V1U1T1S1M2M2M2M2M2M2M2M2M2M2M2M2M2M2M2z1",
"M2M2M2M2M2M2M2R112121212121212Q1P1M2M2M2M2M2O1;2M2M2M2M2M2N1M2M2M2M2M2M2M2M2M2M2M2M2M2M2M2M2M2z1",
"M2M2M2M2M2S1M1L1K1J1I11212H1K1K1G1F1M2M2M2M2E1M2M2M2M2M2M2D1M2M2C1M2M2M2M2M2M2M2M2M2M2M2M2M2M2z1",
"M2M2M2M2M2M2M2M2M2B1A14212;1S1M2M2M2M2M2M2M2:1M2M2M2M2M2M2M2M2M2S1918171M2M2M2M2M2M2M2M2M2M2M2z1",
"M2M2M2M2M2M2M2M2M2M2611251M2M2M2M2M2M2M2M2M2M2M2M2M2M2M2M2M2M2M2M2K1121241M2M2M2M2M2M2M2M2M2M2z1",
"M2M2M2M2M2M2M2M2M2M2S13121M2M2M2M2M2M2M2M2M2M2M2M2M2M2M2M2M2M2M2M2S111121201M2M2M2M2M2M2M2M2M2z1",
"M2M2M2M2M2M2M2M2M2M2M2z0M2M2M2M2M2M2M2M2M2M2M2M2M2M2M2M2M2M2M2M2M2M2y0121242x0M2M2M2M2M2M2M2M2z1",
"M2M2M2M2M2M2M2M2M2M2M2w0M2M2M2M2M2M2M2M2M2M2M2M2M2M2M2M2M2M2M2M2M2M2v012121212u0M2M2M2M2M2M2M2z1",
"M2M2M2M2M2M2M2M2M2M2M2M2M2M2M2M2M2M2M2M2M2M2M2M2M2M2M2M2M2M2M2M2M2M2F11212421212t0M2M2M2M2M2M2z1",
"M2M2M2M2M2M2M2M2M2M2M2M2M2M2M2M2M2M2M2M2M2M2M2M2M2M2M2M2M2M2M2M2M2M2s01212421212r0M2M2M2M2M2M2z1",
"M2M2M2M2M2M2M2M2M2M2M2M2M2M2M2M2M2M2M2M2M2M2M2M2M2M2M2M2M2M2M2M2M2M2q01212121212i1M2M2M2M2M2M2z1",
"M2M2M2M2M2M2M2M2M2M2M2M2M2M2M2M2M2M2M2M2M2M2M2M2M2M2M2M2M2M2M2M2M2M2p0121212121212M2M2M2M2M2M2z1",
"M2M2M2M2M2M2M2M2M2M2M2M2M2M2M2M2M2M2M2M2M2M2M2M2M2M2M2M2M2M2M2M2M2M242121242121242M2M2M2M2M2M2z1",
"M2M2M2M2M2M2M2M2M2M2M2M2M2M2M2M2M2M2M2M2M2M2M2M2M2M2M2M2M2M2M2M2M2o012121212121212M2M2M2M2M2M2z1",
"M2M2M2M2M2M2M2M2M2M2M2M2M2M2M2M2M2M2M2M2M2M2M2M2M2M2M2M2M2M2M2M2j11212121212121212M2M2M2M2M2M2z1",
"M2M2M2M2M2M2M2M2M2M2M2M2M2M2M2M2M2M2M2O2M2M2M2M2M2M2M2M2M2M2M2n01212421212421212m0M2M2M2M2M2M2z1",
"M2M2M2M2M2M2M2M2M2M2M2M2M2M2M2M2M2M2M222r1M2M2M2M2M2M2M2M2l042121212121212121212k0M2M2M2M2M2M2z1",
"M2M2M2M2M2M2M2M2M2M2M2M2M2M2M2M2M2M2M2V1j012i0h0g0f0e0h1d01212121212121212121212c0M2M2M2M2M2M2z1",
"M2M2M2M2M2M2M2M2M2M2M2M2M2M2M2M2M2M2M2M2b0121212124212124212124212124212124212a0D1M2M2M2M2M2M2z1",
"Z0M2M2M2M2M2M2M2M2M2M2M2M2M2M2M2M2M2M2M2T1Y012121212121212121212121212121212X0W0M2M2M2M2M2M2M2z1",
"V0M2M2M2M2M2M2M2M2M2M2M2M2M2M2M2M2M2M2M2M2U0T01212121212121212121212121212S0R0M2M2M2M2M2M2M2M2z1",
"Q0M2M2M2M2M2M2M2M2M2M2M2M2M2M2M2M2M2M2M2M2M2P0O0124212124212124212124212N0M0V1M2M2M2M2M2M2M2M2z1",
"  M2M2M2M2M2M2M2M2M2M2M2M2M2M2M2M2M2M2M2M2M2M2P0L0X0121212121212121212K0K1J0M2M2M2M2M2M2M2M2M2z1",
"  F1M2M2M2M2M2M2M2M2M2M2M2M2M2M2M2M2M2M2M2M2M2M2w0K1I0H0G0N0F0T0E0D0K1C0M2M2M2M2M2M2M2M2M2M2M2B0",
"  A0M2M2M2M2M2M2M2M2M2M2M2M2M2M2M2M2M2M2M2M2M2M2M2M2;0:0P0K1K1W0L190;2M2M2M2M2M2M2M2M2M2M2M2M2  ",
"    M2M2M2M2M2M2M2M2M2M2M2M2M2M2M2M2M2M2M2M2M2M2M2M2M2M2M2M2M2M2M2M2M2M2M2M2M2M2M2M2M2M2M2M280  ",
"    70M2M2M2M2M2M2M2M2M2M2M2M2M2M2M2M2M2M2M2M2M2M2M2M2M2M2M2M2M2M2M2M2M2M2M2M2M2M2M2M2M2M2M2    ",
"      60M2M2M2M2M2M2M2M2M2M2M2M2M2M2M2M2M2M2M2M2M2M2M2M2M2M2M2M2M2M2M2M2M2M2M2M2M2M2M2M2M2Q0    ",
"        F1M2M2M2M2M2M2M2M2M2M2M2M2M2M2M2M2M2M2M2M2M2M2M2M2M2M2M2M2M2M2M2M2M2M2M2M2M2M2M250      ",
"          60M2M2M2M2M2M2M2M2M2M2M2M2M2M2M2M2M2M2M2M2M2M2M2M2M2M2M2M2M2M2M2M2M2M2M2M2M240        ",
"            30M2M2M2M2M2M2M2M2M2M2M2M2M2M2M2M2M2M2M2M2M2M2M2M2M2M2M2M2M2M2M2M2M2M2F1            ",
"                D1M2M2M2M2M2M2M2M2M2M2M2M2M2M2M2M2M2M2M2M2M2M2M2M2M2M2M2M2M2M2M220              ",
"                    7010M2M2M2M2M2M2M2M2M2M2M2M2M2M2M2M2M2M2M2M2M2M2M2M2M200                    ",
"                                                                                                "};
