/* XPM */
static char *image[] = {
"48 48 157 2",
"   c None",
"00 c #5a9339",
"10 c #84d955",
"20 c #568d37",
"30 c #2d4b1e",
"40 c #45722c",
"50 c #79c64d",
"60 c #7fd151",
"70 c #76c24b",
"80 c #2f4f20",
"90 c #609e3d",
":0 c #1b2a12",
";0 c #7ac84e",
"A0 c #213415",
"B0 c #578f37",
"C0 c #568c38",
"D0 c #1c2c12",
"E0 c #6cb246",
"F0 c #6bb045",
"G0 c #7ccc4f",
"H0 c #355522",
"I0 c #2a441c",
"J0 c #5c973a",
"K0 c #6baf44",
"L0 c #7fd051",
"M0 c #1a2811",
"N0 c #578f39",
"O0 c #73bc49",
"P0 c #1c2e13",
"Q0 c #233817",
"R0 c #81d452",
"S0 c #273e19",
"T0 c #406729",
"U0 c #81d252",
"V0 c #7dcd50",
"W0 c #66a841",
"X0 c #83d754",
"Y0 c #76c24c",
"Z0 c #436d2b",
"a0 c #29401a",
"b0 c #63a13f",
"c0 c #406829",
"d0 c #2d4a1e",
"e0 c #538535",
"f0 c #84d954",
"g0 c #63a23f",
"h0 c #3e6528",
"i0 c #66a541",
"j0 c #619f3e",
"k0 c #69ab43",
"l0 c #1f3114",
"m0 c #2a431b",
"n0 c #243918",
"o0 c #2e4a1d",
"p0 c #7ecf50",
"q0 c #578d38",
"r0 c #71b848",
"s0 c #446f2b",
"t0 c #273f1a",
"u0 c #365723",
"v0 c #78c54d",
"w0 c #1d2f13",
"x0 c #4f8033",
"y0 c #3d6227",
"z0 c #49782f",
"01 c #335121",
"11 c #273d1a",
"21 c #7ccb4f",
"31 c #599139",
"41 c #426d2a",
"51 c #304d1f",
"61 c #253c18",
"71 c #568e37",
"81 c #77c34c",
"91 c #385a24",
":1 c #2f4b1f",
";1 c #273e1a",
"A1 c #223516",
"B1 c #406929",
"C1 c #83d653",
"D1 c #203415",
"E1 c #3b6127",
"F1 c #629f3e",
"G1 c #48732e",
"H1 c #4d7f31",
"I1 c #243a18",
"J1 c #589038",
"K1 c #46702d",
"L1 c #578f38",
"M1 c #253a18",
"N1 c #426d2b",
"O1 c #4d7c31",
"P1 c #82d653",
"Q1 c #192810",
"R1 c #1b2b12",
"S1 c #1d2e13",
"T1 c #46712d",
"U1 c #1e2f14",
"V1 c #273d19",
"W1 c #2a431c",
"X1 c #2c461d",
"Y1 c #2d481e",
"Z1 c #3b5f26",
"a1 c #4b7a31",
"b1 c #5a933a",
"c1 c #69ac44",
"d1 c #77c24c",
"e1 c #243917",
"f1 c #4a7930",
"g1 c #436b2a",
"h1 c #192710",
"i1 c #80d152",
"j1 c #203315",
"k1 c #1f3115",
"l1 c #314e20",
"m1 c #223616",
"n1 c #263c19",
"o1 c #1b2a11",
"p1 c #213416",
"q1 c #3d6328",
"r1 c #7ccd50",
"s1 c #80d252",
"t1 c #192811",
"u1 c #538835",
"v1 c #395d25",
"w1 c #29421b",
"x1 c #28401b",
"y1 c #283f1a",
"z1 c #29411b",
"02 c #2b451d",
"12 c #2e491e",
"22 c #538635",
"32 c #4e8133",
"42 c #233717",
"52 c #7bc94e",
"62 c #84d854",
"72 c #2b441c",
"82 c #1c2d12",
"92 c #67a742",
":2 c #253b18",
";2 c #85d955",
"A2 c #7ed051",
"B2 c #3b6026",
"C2 c #6cb245",
"D2 c #6aad44",
"E2 c #74bf4a",
"F2 c #78c44d",
"G2 c #589138",
"H2 c #81d453",
"I2 c #63a43f",
"J2 c #82d553",
"K2 c #4c7d31",
"L2 c #70b848",
"M2 c #83d854",
"N2 c #85da55",
"O2 c #7ece50",
"P2 c #64a440",
"                                                                                                ",
"                                    P2O2N2N2N2N2N2N2M2L2K2                                      ",
"                J2            I2N2N2N2N2N2N2N2N2N2N2N2N2N2N2H2                                  ",
"              G2N2F2      E2N2N2N2N2N2N2N2N2N2N2N2N2N2N2N2N2N2D2                                ",
"              C2N2N2    N2N2N2N2N2N2N2N2N2N2N2N2N2N2N2N2N2N2N2B2                                ",
"              A2N2N2N2N2N2N2N2N2N2N2N2N2N2N2N2N2N2;2N2N2;2N2N2:2                                ",
"              N2N2N2N2N2N2N2N2N2N2N2N2N2N2N2N2N2N2N2N2N2N2N29282                                ",
"              N2N2N2N2N2N2N2N2N2N2N2N2N2N2N2N2N2N2N2N2N2N2N272                                  ",
"              N2N2N2N2N2N2N2N2N2N2N2N2N2N2N2N262N2;2N2N2;25242                                  ",
"            32N2N2N2N2N2N2N2N2N2N2N2N2221202z1y1x1w1v1A2N2u1t1                                  ",
"            s1N2N2N2N2N2N2N2N2N2r1q1z1p1              o1n1m1                                    ",
"            N2N2N2N2N2N2N2N2N2N2l1k1                                                            ",
"            N2N2N2N2N2N2N2N2N2N2N2                                      j1i1N2                  ",
"            N2N2N2N2N2N2N2N2N2N2N2A2                                  h1g1N2N2N2                ",
"            N2N2N2N2N2N2N2N2N2N2N2H2f1                                e1N2N2N2N2N2              ",
"            d1c1b1a1Z112Y1X172W1z1V1U1                              t1T1N2N2N2N2N2N2            ",
"              S1S1R1Q1                                              e1P1N2N2N2N2N2N2N2          ",
"                                                                  t1O1N2N2N2N2N2N2N2N2N2N1      ",
"                                                                  M1H2N2N2N2N2N2N2N2N2N2N2L1    ",
"                                                                t1K1N2N2N2N2N2N2N2N2N2N2N2N2J1  ",
"                                                                I1N2N2N2N2N2N2N2N2N2N2N2N2N2N2H1",
"                                                              t1G1N2N2N2N2N2N2N2N2N2N2F1E1      ",
"                                                              D1C1N2N2N2N2N2N2N2N2N2N2B1        ",
"      U1A1I1;1:191R1                                            81716151N2N2N2N2N2N2N241        ",
"    3121N2N2N2N2N211                                                  01N2N2N2N2N2N2N2          ",
"    N2N2N2N2N2N2N2z0                                                  y0N2N2N2N2N2N2N2          ",
"    N2N2N2N2N2N2N252                                                R1x0N2N2N2N2N2N2N2          ",
"    N2N2N2N2N2N2N2N2w0                                              A181N2N2N2N2N2N2N2          ",
"    v0N2N2N2N2N2N2N2u0                                              t0N2N2N2N2N2N2N2N2          ",
"    s0N2N2N2N2N2N2N2r0S1                                          R1q0N2N2N2N2N2N2N2p0          ",
"      N2N2N2N2N2N2N2N2o0                                          n162N2N2N2N2N2N2N2            ",
"      N2N2N2N2N2N2N2N252n0        m0l0                          S1k0N2N2N2N2N2N2N2N2            ",
"        N2N2N2N2N2N2N2N2j0m1      N2i0R1                        h0N2N2N2N2N2N2N2N2g0            ",
"        f0N2N2N2N2N2N2N2N2e042    N2N2:1                      d0N2N2N2N2N2N2N2N2N2              ",
"        c0N2N2N2N2N2N2N2N2N2b0a0Z0N2N2Y0l0                  91X0N2N2N2N2N2N2N2N2W0              ",
"          V0N2N2N2N2N2N2N2N2N2U0r0N2N2N2T0                S0N2N2N2N2N2N2N2N2N2N2                ",
"            N2N2N2N2N2N2N2N2N2N2N2N2N2N2R0Q0              P0O0N2N2N2N2N2N2N2N2                  ",
"              N2N2N2N2N2N2N2N2N2N2N2N2N2N2N0M0              Q0L0N2N2N2N2N2N2K0                  ",
"              J0N2N2N2N2N2N2N2N2N2N2N2N2N2N2I0                H0N2N2N2N2N2G0                    ",
"                F0N2N2N2N2N2N2N2N2N2N2N2N2N2E0S1              D0C0N2N2N2N2                      ",
"                  B0N2N2N2N2N2N2N2N2N2N2N2N2N2u0                A0J2N2;0                        ",
"                      f0N2N2N2N2N2N2N2N2N2N2N2;0:0                  90                          ",
"                        X0N2N2N2N2N2N2N2N2N2N2N280                                              ",
"                          J1N2N2N2N2N2N2N2N2N270                                                ",
"                          60N2N2N2N2N2N25040                                                    ",
"                        30N2N2N2N2N220                                                          ",
"                        10N2N200                                                                ",
"                        G2                                                                      "};
