/* XPM */
static char *image[] = {
"48 48 102 2",
"   c None",
"00 c #999999",
"10 c #d4d4d4",
"20 c #dadada",
"30 c #d0d0d0",
"40 c #e0e0e0",
"50 c #e1e1e1",
"60 c #dedede",
"70 c #dbdbdb",
"80 c #dddddd",
"90 c #dfdfdf",
":0 c #e3e3e3",
";0 c #b6b4b4",
"A0 c #f44e41",
"B0 c #e86157",
"C0 c #c6c6c6",
"D0 c #f24e42",
"E0 c #e95e54",
"F0 c #d7d7d7",
"G0 c #df8a83",
"H0 c #d2bebc",
"I0 c #ef6d63",
"J0 c #e89790",
"K0 c #eba39e",
"L0 c #e9b5b1",
"M0 c #e4dfdf",
"N0 c #f26358",
"O0 c #ec9b95",
"P0 c #e4e3e3",
"Q0 c #eaafaa",
"R0 c #f1695f",
"S0 c #f07269",
"T0 c #e7c1be",
"U0 c #bbbbbb",
"V0 c #c8c8c8",
"W0 c #d1d1d1",
"X0 c #d3d3d3",
"Y0 c #c1c1c1",
"Z0 c #bfbfbf",
"a0 c #cbcbcb",
"b0 c #cecece",
"c0 c #b6b6b6",
"d0 c #979797",
"e0 c #e4e4e4",
"f0 c #828282",
"g0 c #c4c4c4",
"h0 c #7d6665",
"i0 c #bc9a97",
"j0 c #f44a3d",
"k0 c #dc4338",
"l0 c #d13f35",
"m0 c #e9473b",
"n0 c #f24a3d",
"o0 c #d74136",
"p0 c #d24035",
"q0 c #ef493c",
"r0 c #cc3e34",
"s0 c #cb564e",
"t0 c #f34a3e",
"u0 c #c53c32",
"v0 c #c64239",
"w0 c #c94c43",
"x0 c #c43c32",
"y0 c #e09993",
"z0 c #fdf9f8",
"01 c #ca3e33",
"11 c #efcecb",
"21 c #f9eceb",
"31 c #de4438",
"41 c #f0c8c5",
"51 c #ee867e",
"61 c #fef3f2",
"71 c #f9a39c",
"81 c #fde7e6",
"91 c #f6695f",
":1 c #fefaf9",
";1 c #ffffff",
"A1 c #fefefe",
"B1 c #f55448",
"C1 c #f54e42",
"D1 c #fccfcc",
"E1 c #fde4e1",
"F1 c #f9968e",
"G1 c #f55a4e",
"H1 c #fcd8d5",
"I1 c #fde0de",
"J1 c #f77066",
"K1 c #f54b3d",
"L1 c #a33129",
"M1 c #f65448",
"N1 c #a3332a",
"O1 c #f44b3e",
"P1 c #f44b3d",
"Q1 c #f54b3e",
"R1 c #df635a",
"S1 c #a44943",
"T1 c #f6685d",
"U1 c #f66257",
"V1 c #f66358",
"W1 c #bf544d",
"X1 c #f76f65",
"Y1 c #e9695f",
"    Y1X1X1X1X1X1X1X1X1X1X1X1X1X1X1X1X1X1X1X1X1X1X1X1X1X1X1X1X1X1X1X1X1X1X1X1X1X1X1X1X1X1X1X1W1  ",
"  X1V1U1U1U1U1U1U1U1U1U1U1U1U1U1U1U1U1U1U1U1U1U1U1U1U1U1U1U1U1U1U1U1U1U1U1U1U1U1U1U1U1U1U1U1T1S1",
"R1Q1Q1Q1P1Q1Q1Q1Q1Q1Q1Q1Q1Q1O1Q1Q1O1Q1Q1O1Q1Q1O1Q1Q1O1Q1Q1O1Q1Q1O1Q1Q1O1Q1Q1O1Q1Q1O1Q1Q1O1Q1Q1N1",
"M1Q1Q1Q1Q1Q1Q1Q1Q1Q1Q1Q1Q1Q1Q1Q1Q1Q1Q1Q1Q1Q1Q1Q1Q1Q1Q1Q1Q1Q1Q1Q1Q1Q1Q1Q1Q1Q1Q1Q1Q1Q1Q1Q1Q1Q1Q1L1",
"Q1Q1P1Q1K1K1Q1Q1J1I1H1G1Q1Q1Q1Q1Q1Q1Q1Q1Q1Q1Q1Q1Q1Q1Q1Q1Q1Q1Q1Q1Q1Q1Q1Q1Q1F1E1D1C1Q1Q1Q1Q1Q1Q1L1",
"Q1Q1Q1Q1O1Q1Q1B1A1;1;1:1Q1Q1Q1Q1Q1Q1Q1Q1Q1Q1Q1Q1Q1Q1Q1Q1Q1Q1Q1Q1Q1Q1Q1Q191A1;1;181Q1Q1Q1Q1Q1Q1L1",
"Q1Q1Q1Q1Q1Q1Q171;1;1;1;1Q1Q1Q1Q1Q1Q1Q1Q1Q1Q1Q1Q1Q1Q1Q1Q1Q1Q1Q1Q1Q1Q1Q1Q161;1;1;1;1Q1Q1Q1Q1Q1Q1L1",
"Q1Q1O1Q1K1Q1Q151;1;1;1;1Q1Q1Q1Q1Q1Q1Q1Q1Q1Q1Q1Q1Q1Q1Q1Q1Q1Q1Q1Q1Q1Q1Q1Q141A1;1;1A1Q1Q1Q1Q1Q1Q1L1",
"Q1Q1Q1Q1O1Q1Q13121;1;111Q1Q1Q1Q1Q1Q1Q1Q1Q1Q1Q1Q1Q1Q1Q1Q1Q1Q1Q1Q1Q1Q1Q1Q101z0;1;1y0Q1Q1Q1Q1Q1Q1L1",
"Q1Q1Q1Q1Q1Q1Q1Q1x0w0v0u0Q1Q1Q1Q1Q1Q1Q1Q1Q1Q1Q1Q1Q1Q1Q1Q1Q1Q1Q1Q1Q1Q1Q1Q1t0x0s0x0r0Q1Q1Q1Q1Q1Q1L1",
"Q1Q1O1Q1K1Q1Q1Q1q0p0o0n0Q1Q1Q1Q1Q1Q1Q1Q1Q1Q1Q1Q1Q1Q1Q1Q1Q1Q1Q1Q1Q1Q1Q1Q1Q1m0l0k0j0Q1Q1Q1Q1Q1Q1L1",
"Q1Q1Q1Q1O1Q1Q1Q1Q1Q1Q1Q1Q1Q1Q1Q1Q1Q1Q1Q1Q1Q1Q1Q1Q1Q1Q1Q1Q1Q1Q1Q1Q1Q1Q1Q1Q1Q1Q1Q1Q1Q1Q1Q1Q1Q1Q1L1",
"Q1Q1Q1Q1Q1Q1Q1Q1Q1Q1Q1Q1Q1Q1Q1Q1Q1Q1Q1Q1Q1Q1Q1Q1Q1Q1Q1Q1Q1Q1Q1Q1Q1Q1Q1Q1Q1Q1Q1Q1Q1Q1Q1Q1Q1Q1Q1L1",
"i0i0i0i0i0i0i0i0i0i0i0i0i0i0i0i0i0i0i0i0i0i0i0i0i0i0i0i0i0i0i0i0i0i0i0i0i0i0i0i0i0i0i0i0i0i0i0h0",
"g0g0g0g0g0g0g0g0g0g0g0g0g0g0g0g0g0g0g0g0g0g0g0g0g0g0g0g0g0g0g0g0g0g0g0g0g0g0g0g0g0g0g0g0g0g0g0f0",
"e0e0e0e0e0e0e0e0e0e0e0e0e0e0e0e0e0e0e0e0e0e0e0e0e0e0e0e0e0e0e0e0e0e0e0e0e0e0e0e0e0e0e0e0e0e0e0d0",
"e0e0e0e0e0e0c0c0c0c0c0c0c0b0e0e0c0c0c0c0c0c0c0e0e0a0c0c0c0c0c0c0Z0e0e0c0c0c0c0c0c0c0e0e0e0e0e0d0",
"e0e0e0e0e0e0c0c0c0c0c0c0c0b0e0e0c0c0c0c0c0c0c0e0e0a0c0c0c0c0c0c0Z0e0e0c0c0c0c0c0c0c0e0e0e0e0e0d0",
"e0e0e0e0e0e0c0c0c0c0c0c0c0b0e0e0c0c0c0c0c0c0c0e0e0a0c0c0c0c0c0c0Z0e0e0c0c0c0c0c0c0c0e0e0e0e0e0d0",
"e0e0e0e0e0e0c0c0c0c0c0c0c0b0e0e0c0c0c0c0c0c0c0e0e0a0c0c0c0c0c0c0Z0e0e0c0c0c0c0c0c0c0e0e0e0e0e0d0",
"e0e0e0e0e0e0c0c0c0c0c0c0c0b0e0e0c0c0c0c0c0c0c0e0e0a0c0c0c0c0c0c0Z0e0e0c0c0c0c0c0c0c0e0e0e0e0e0d0",
"e0e0e0e0e0e0c0c0c0c0c0c0c0b0e0e0c0c0c0c0c0c0c0e0e0a0c0c0c0c0c0c0Z0e0e0c0c0c0c0c0c0c0e0e0e0e0e0d0",
"e0e0e0e0e0e0c0c0c0c0c0c0c0b0e0e0c0c0c0c0c0c0c0e0e0a0c0c0c0c0c0c0Z0e0e0c0c0c0c0c0c0c0e0e0e0e0e0d0",
"e0e0e0e0e0e0Y0Y0Y0Y0Y0Y0Y0X0e0e0Y0Y0Y0Y0Y0Y0Y0e0e0W0Y0Y0Y0Y0Y0Y0V0e0e0Y0Y0Y0Y0Y0Y0Y0e0e0e0e0e0d0",
"e0e0e0e0e0e0e0e0e0e0e0e0e0e0e0e0e0e0e0e0e0e0e0e0e0e0e0e0e0e0e0e0e0e0e0e0e0e0e0e0e0e0e0e0e0e0e0d0",
"e0e0e0e0e0e0e0e0e0e0e0e0e0e0e0e0e0e0e0e0e0e0e0e0e0e0e0e0e0e0e0e0e0e0e0e0e0e0e0e0e0e0e0e0e0e0e0d0",
"e0e0e0e0e0e0U0U0U0U0U0U0U0W0e0e0U0U0U0U0U0U0U0e0e0e0e0T0S0R0Q0P0e0e0e0U0U0U0U0U0U0U0e0e0e0e0e0d0",
"e0e0e0e0e0e0c0c0c0c0c0c0c0b0e0e0c0c0c0c0c0c0c0e0e0e0O0Q1Q1Q1Q1N0e0e0e0c0c0c0c0c0c0c0e0e0e0e0e0d0",
"e0e0e0e0e0e0c0c0c0c0c0c0c0b0e0e0c0c0c0c0c0c0c0e0e0M0Q1Q1Q1Q1Q1Q1L0e0e0c0c0c0c0c0c0c0e0e0e0e0e0d0",
"e0e0e0e0e0e0c0c0c0c0c0c0c0b0e0e0c0c0c0c0c0c0c0e0e0K0Q1Q1Q1Q1Q1Q1S0e0e0c0c0c0c0c0c0c0e0e0e0e0e0d0",
"e0e0e0e0e0e0c0c0c0c0c0c0c0b0e0e0c0c0c0c0c0c0c0e0e0J0Q1Q1Q1Q1Q1Q1I0e0e0c0c0c0c0c0c0c0e0e0e0e0e0d0",
"e0e0e0e0e0e0c0c0c0c0c0c0c0b0e0e0c0c0c0c0c0c0c0e0e0H0Q1Q1Q1Q1Q1Q1G0e0e0c0c0c0c0c0c0c0e0e0e0e0e0d0",
"e0e0e0e0e0e0c0c0c0c0c0c0c0b0e0e0c0c0c0c0c0c0c0e0e0F0E0Q1Q1Q1Q1D0C0e0e0c0c0c0c0c0c0c0e0e0e0e0e0d0",
"e0e0e0e0e0e0c0c0c0c0c0c0c0b0e0e0c0c0c0c0c0c0c0e0e0e0c0B0Q1Q1A0;0:0e0e0c0c0c0c0c0c0c0e0e0e0e0e0d0",
"e0e0e0e0e0e0e0e0e0e0e0e0e0e0e0e0e0e0e0e0e0e0e0e0e0e090c0c0c0c0F0e0e0e0e0e0e0e0e0e0e0e0e0e0e0e0d0",
"e0e0e0e0e0e0e0e0e0e0e0e0e0e0e0e0e0e0e0e0e0e0e0e0e0e0e0e08070e0e0e0e0e0e0e0e0e0e0e0e0e0e0e0e0e0d0",
"e0e0e0e0e0e06060606060606050e0e060606060606060e0e04060606060606090e0e060606060606060e0e0e0e0e0d0",
"e0e0e0e0e0e0c0c0c0c0c0c0c0b0e0e0c0c0c0c0c0c0c0e0e0a0c0c0c0c0c0c0Z0e0e0c0c0c0c0c0c0c0e0e0e0e0e0d0",
"e0e0e0e0e0e0c0c0c0c0c0c0c0b0e0e0c0c0c0c0c0c0c0e0e0a0c0c0c0c0c0c0Z0e0e0c0c0c0c0c0c0c0e0e0e0e0e0d0",
"e0e0e0e0e0e0c0c0c0c0c0c0c0b0e0e0c0c0c0c0c0c0c0e0e0a0c0c0c0c0c0c0Z0e0e0c0c0c0c0c0c0c0e0e0e0e0e0d0",
"e0e0e0e0e0e0c0c0c0c0c0c0c0b0e0e0c0c0c0c0c0c0c0e0e0a0c0c0c0c0c0c0Z0e0e0c0c0c0c0c0c0c0e0e0e0e0e0d0",
"e0e0e0e0e0e0c0c0c0c0c0c0c0b0e0e0c0c0c0c0c0c0c0e0e0a0c0c0c0c0c0c0Z0e0e0c0c0c0c0c0c0c0e0e0e0e0e0d0",
"e0e0e0e0e0e0c0c0c0c0c0c0c0b0e0e0c0c0c0c0c0c0c0e0e0a0c0c0c0c0c0c0Z0e0e0c0c0c0c0c0c0c0e0e0e0e0e0d0",
"e0e0e0e0e0e0c0c0c0c0c0c0c0b0e0e0c0c0c0c0c0c0c0e0e0a0c0c0c0c0c0c0Z0e0e0c0c0c0c0c0c0c0e0e0e0e0e0d0",
"70e0e0e0e0e03030303030303070e0e030303030303030e0e02030303030303010e0e030303030303030e0e0e0e0e0d0",
"  e0e0e0e0e0e0e0e0e0e0e0e0e0e0e0e0e0e0e0e0e0e0e0e0e0e0e0e0e0e0e0e0e0e0e0e0e0e0e0e0e0e0e0e0e0e0d0",
"  00e0e0e0e0e0e0e0e0e0e0e0e0e0e0e0e0e0e0e0e0e0e0e0e0e0e0e0e0e0e0e0e0e0e0e0e0e0e0e0e0e0e0e0e0e0  ",
"                                                                                                "};
