/* XPM */
static char *image[] = {
"48 48 70 2",
"   c None",
"00 c #222222",
"10 c #3c3c3c",
"20 c #2e2e2e",
"30 c #4b4b4b",
"40 c #464646",
"50 c #4c4c4c",
"60 c #585858",
"70 c #484848",
"80 c #414141",
"90 c #494949",
":0 c #f9f9f9",
";0 c #7a7a7a",
"A0 c #626262",
"B0 c #4a4a4a",
"C0 c #5e5e5e",
"D0 c #ababab",
"E0 c #636363",
"F0 c #aaaaaa",
"G0 c #595959",
"H0 c #8d8d8d",
"I0 c #575757",
"J0 c #434343",
"K0 c #5c5c5c",
"L0 c #949494",
"M0 c #3e3e3e",
"N0 c #969696",
"O0 c #3d3d3d",
"P0 c #e7e7e7",
"Q0 c #a2a2a2",
"R0 c #676767",
"S0 c #828282",
"T0 c #a0a0a0",
"U0 c #989898",
"V0 c #e1e1e1",
"W0 c #afafaf",
"X0 c #c1c1c1",
"Y0 c #bebebe",
"Z0 c #4e4e4e",
"a0 c #b6b6b6",
"b0 c #b2b2b2",
"c0 c #b3b3b3",
"d0 c #404040",
"e0 c #b8b8b8",
"f0 c #a7a7a7",
"g0 c #424242",
"h0 c #cbcbcb",
"i0 c #9c9c9c",
"j0 c #c2c2c2",
"k0 c #fefefe",
"l0 c #c5c5c5",
"m0 c #7d7d7d",
"n0 c #dfdfdf",
"o0 c #ffffff",
"p0 c #6a6a6a",
"q0 c #868686",
"r0 c #707070",
"s0 c #555555",
"t0 c #343434",
"u0 c #515151",
"v0 c #3f3f3f",
"w0 c #4f4f4f",
"x0 c #5d5d5d",
"y0 c #5a5a5a",
"z0 c #5b5b5b",
"01 c #444444",
"11 c #474747",
"21 c #5f5f5f",
"31 c #606060",
"41 c #565656",
"      41313131313131313131313131313131313131313131313131313131313131313131313131313131312111    ",
"  0131z0y0y0y0y0y0y0y0y0y0y0y0y0y0y0y0y0y0y0y0y0y0y0y0y0y0y0y0y0y0y0y0y0y0y0y0y0y0y0y0y0y0x031  ",
"  y0w0w0w0w0w0w0w0w0w0w0w0w0w0w0w0w0w0w0w0w0w0w0w0w0w0w0w0w0w0w0w0w0w0w0w0w0w0w0w0w0w0w0w0w0w0v0",
"u0w0w0w0w0w0w0w0w0w0w0w0w0w0w0w0w0w0w0w0w0w0w0w0w0w0w0w0w0w0w0w0w0w0w0w0w0w0w0w0w0w0w0w0w0w0w0t0",
"s0w0w0w0w0w0w0w0w0w0w0w0w0w0w0w0w0w0w0w0w0w0w0w0w0w0w0w0w0w0w0w0w0w0w0w0w0w0w0w0w0w0w0w0w0w0w0t0",
"w0w0w0w0w0w0w0r0q0w0w0w0w0w0w0w0w0w0w0w0w0w0w0w0w0w0w0w0w0w0w0w0w0w0w0w0w0w0w0w0w0w0w0w0w0w0w0t0",
"w0w0w0w0w0w0p0o0o0n0w0w0w0w0w0w0w0w0w0w0w0w0w0w0w0w0w0w0w0w0w0w0w0w0w0w0w0w0w0w0w0w0w0w0w0w0w0t0",
"w0w0w0w0w0m0o0o0o0o0l0w0w0w0w0w0w0w0w0w0w0w0w0w0w0w0w0w0w0w0w0w0w0w0w0w0w0w0w0w0w0w0w0w0w0w0w0t0",
"w0w0w0w0w0k0o0o0k0o0o0j0w0w0w0w0w0w0w0w0w0w0w0w0w0w0w0w0w0w0w0w0w0w0w0w0w0w0w0w0w0w0w0w0w0w0w0t0",
"w0w0w0w0w0i0o0o0o0o0o0o0h0w0w0w0w0w0w0w0w0w0w0w0w0w0w0w0w0w0w0w0w0w0w0w0w0w0w0w0w0w0w0w0w0w0w0t0",
"w0w0w0w0w0g0f0o0o0o0o0o0o0e0w0w0w0w0w0w0w0w0w0w0w0w0w0w0w0w0w0w0w0w0w0w0w0w0w0w0w0w0w0w0w0w0w0t0",
"w0w0w0w0w0w0d0c0k0o0o0k0o0o0b0w0w0w0w0w0w0w0w0w0w0w0w0w0w0w0w0w0w0w0w0w0w0w0w0w0w0w0w0w0w0w0w0t0",
"w0w0w0w0w0w0w0d0a0o0o0o0o0o0o0b0w0w0w0w0w0w0w0w0w0w0w0w0w0w0w0w0w0w0w0w0w0w0w0w0w0w0w0w0w0w0w0t0",
"w0w0w0w0w0w0w0Z0d0Y0o0o0o0o0o0o0b0w0w0w0w0w0w0w0w0w0w0w0w0w0w0w0w0w0w0w0w0w0w0w0w0w0w0w0w0w0w0t0",
"w0w0w0w0w0w0w0w0Z0d0X0k0o0o0o0o0o0W0w0w0w0w0w0w0w0w0w0w0w0w0w0w0w0w0w0w0w0w0w0w0w0w0w0w0w0w0w0t0",
"w0w0w0w0w0w0w0w0w0w0v0h0o0o0o0o0o0o0w0w0w0w0w0w0w0w0w0w0w0w0w0w0w0w0w0w0w0w0w0w0w0w0w0w0w0w0w0t0",
"w0w0w0w0w0w0w0w0w0w0Z0m0V0o0o0o0o0o0w0w0w0w0w0w0w0w0w0w0w0w0w0w0w0w0w0w0w0w0w0w0w0w0w0w0w0w0w0t0",
"w0w0w0w0w0w0w0w0w0w0U0T0S0n0o0o0o0R0w0w0w0w0w0w0w0w0w0w0w0w0w0w0w0w0w0w0w0w0w0w0w0w0w0w0w0w0w0t0",
"w0w0w0w0w0w0w0w0w0Q0Q0Q0Q0S0P0o0x0O0w0w0w0w0w0w0w0w0w0w0w0w0w0w0w0w0w0w0w0w0w0w0w0w0w0w0w0w0w0t0",
"w0w0w0w0w0w0w0w0N0Q0Q0Q0Q0T0S0g0M0w0w0w0w0w0w0w0w0w0w0w0w0w0w0w0w0w0w0w0w0w0w0w0w0w0w0w0w0w0w0t0",
"w0w0w0w0w0w0w0L0Q0Q0Q0Q0Q0Q0K0J0w0w0w0w0w0w0w0w0w0w0w0w0w0w0w0w0w0w0w0w0w0w0w0w0w0w0w0w0w0w0w0t0",
"w0w0w0w0w0w0T0Q0Q0Q0Q0Q0Q0I001w0w0w0w0s0o0o0o0o0o0o0o0o0o0o0o0o0o0h0w0w0w0w0w0w0w0w0w0w0w0w0w0t0",
"w0w0w0w0w0H0Q0Q0Q0Q0Q0Q0G001w0w0w0w0w0F0o0o0o0o0o0k0o0o0k0o0o0k0o0o0w0w0w0w0w0w0w0w0w0w0w0w0w0t0",
"w0w0w0w0w0i0Q0Q0Q0Q0Q0E0J0w0w0w0w0w0w0D0o0o0o0o0o0k0o0o0k0o0o0k0o0o0w0w0w0w0w0w0w0w0w0w0w0w0w0t0",
"w0w0w0w0w001Q0Q0Q0Q0C0J0w0w0w0w0w0w0w0D0o0o0o0o0o0o0o0o0o0o0o0o0o0o0w0w0w0w0w0w0w0w0w0w0w0w0w0t0",
"w0w0w0w0w0B001T0Q0A0J0w0w0w0w0w0w0w0w0;0o0o0o0o0o0o0o0o0o0o0o0o0o0:0w0w0w0w0w0w0w0w0w0w0w0w0w0t0",
"w0w0w0w0w0w090v080g0w0w0w0w0w0w0w0w0w01170606060606060606060606041v0w0w0w0w0w0w0w0w0w0w0w0w0w0t0",
"w0w0w0w0w0w0w05070w0w0w0w0w0w0w0w0w0w0w040010101010101010101010101w0w0w0w0w0w0w0w0w0w0w0w0w0w0t0",
"w0w0w0w0w0w0w0w0w0w0w0w0w0w0w0w0w0w0w0w0w0w0w0w0w0w0w0w0w0w0w0w0w0w0w0w0w0w0w0w0w0w0w0w0w0w0w0t0",
"w0w0w0w0w0w0w0w0w0w0w0w0w0w0w0w0w0w0w0w0w0w0w0w0w0w0w0w0w0w0w0w0w0w0w0w0w0w0w0w0w0w0w0w0w0w0w0t0",
"w0w0w0w0w0w0w0w0w0w0w0w0w0w0w0w0w0w0w0w0w0w0w0w0w0w0w0w0w0w0w0w0w0w0w0w0w0w0w0w0w0w0w0w0w0w0w0t0",
"w0w0w0w0w0w0w0w0w0w0w0w0w0w0w0w0w0w0w0w0w0w0w0w0w0w0w0w0w0w0w0w0w0w0w0w0w0w0w0w0w0w0w0w0w0w0w0t0",
"w0w0w0w0w0w0w0w0w0w0w0w0w0w0w0w0w0w0w0w0w0w0w0w0w0w0w0w0w0w0w0w0w0w0w0w0w0w0w0w0w0w0w0w0w0w0w0t0",
"w0w0w0w0w0w0w0w0w0w0w0w0w0w0w0w0w0w0w0w0w0w0w0w0w0w0w0w0w0w0w0w0w0w0w0w0w0w0w0w0w0w0w0w0w0w0w0t0",
"w0w0w0w0w0w0w0w0w0w0w0w0w0w0w0w0w0w0w0w0w0w0w0w0w0w0w0w0w0w0w0w0w0w0w0w0w0w0w0w0w0w0w0w0w0w0w0t0",
"w0w0w0w0w0w0w0w0w0w0w0w0w0w0w0w0w0w0w0w0w0w0w0w0w0w0w0w0w0w0w0w0w0w0w0w0w0w0w0w0w0w0w0w0w0w0w0t0",
"w0w0w0w0w0w0w0w0w0w0w0w0w0w0w0w0w0w0w0w0w0w0w0w0w0w0w0w0w0w0w0w0w0w0w0w0w0w0w0w0w0w0w0w0w0w0w0t0",
"w0w0w0w0w0w0w0w0w0w0w0w0w0w0w0w0w0w0w0w0w0w0w0w0w0w0w0w0w0w0w0w0w0w0w0w0w0w0w0w0w0w0w0w0w0w0w0t0",
"w0w0w0w0w0w0w0w0w0w0w0w0w0w0w0w0w0w0w0w0w0w0w0w0w0w0w0w0w0w0w0w0w0w0w0w0w0w0w0w0w0w0w0w0w0w0w0t0",
"w0w0w0w0w0w0w0w0w0w0w0w0w0w0w0w0w0w0w0w0w0w0w0w0w0w0w0w0w0w0w0w0w0w0w0w0w0w0w0w0w0w0w0w0w0w0w0t0",
"w0w0w0w0w0w0w0w0w0w0w0w0w0w0w0w0w0w0w0w0w0w0w0w0w0w0w0w0w0w0w0w0w0w0w0w0w0w0w0w0w0w0w0w0w0w0w0t0",
"w0w0w0w0w0w0w0w0w0w0w0w0w0w0w0w0w0w0w0w0w0w0w0w0w0w0w0w0w0w0w0w0w0w0w0w0w0w0w0w0w0w0w0w0w0w0w0t0",
"w0w0w0w0w0w0w0w0w0w0w0w0w0w0w0w0w0w0w0w0w0w0w0w0w0w0w0w0w0w0w0w0w0w0w0w0w0w0w0w0w0w0w0w0w0w0w0t0",
"11w0w0w0w0w0w0w0w0w0w0w0w0w0w0w0w0w0w0w0w0w0w0w0w0w0w0w0w0w0w0w0w0w0w0w0w0w0w0w0w0w0w0w0w0w0w0t0",
"  w0w0w0w0w0w0w0w0w0w0w0w0w0w0w0w0w0w0w0w0w0w0w0w0w0w0w0w0w0w0w0w0w0w0w0w0w0w0w0w0w0w0w0w0w0w0t0",
"  30w0w0w0w0w0w0w0w0w0w0w0w0w0w0w0w0w0w0w0w0w0w0w0w0w0w0w0w0w0w0w0w0w0w0w0w0w0w0w0w0w0w0w0w0w020",
"    10w0w0w0w0w0w0w0w0w0w0w0w0w0w0w0w0w0w0w0w0w0w0w0w0w0w0w0w0w0w0w0w0w0w0w0w0w0w0w0w0w0w0w000  ",
"                                                                                                "};
