/* XPM */
static char * button_images_xpm[] = {
"80 10 10 1",
" 	c #AAAAAA",
".	c #000000",
"+	c #A4A4A4",
"@	c #5A5A5A",
"#	c #121212",
"$	c #555555",
"%	c #141414",
"&	c #060606",
"*	c #505050",
"=	c #545454",
"                                                                                ",
"      .      .          ..        ..      +@.#@+   $.    .$       ..      ..    ",
"     ..      ..        ....      ....    +%....%+  ...  ...      .@@.    .@@.   ",
"    ...      ...      ......    ......   @.&**&.@   ......       .  .    .  .   ",
"   ....      ....    ........  ........  #.*  *.#    ....        .       .  .   ",
"   ....      ....                        #.*  *.#    ....    ......     ......  ",
"    ...      ...     ........  ..$  $..  @.&**&.@   ......   ......     ......  ",
"     ..      ..      ........    =..=    +%....%+  ...  ...  ..@@..     ..@@..  ",
"      .      .                 ..$  $..   +@.#@+   $.    .$  ......     ......  ",
"                                                                                "};
