/* XPM */
static char * chars_mask_xpm[] = {
"475 5 21 1",
" 	c #000000",
".	c #FFFFFF",
"+	c #6D6D6D",
"@	c #585858",
"#	c #FDFDFD",
"$	c #EEEEEE",
"%	c #5E5E5E",
"&	c #7E7E7E",
"*	c #BFBFBF",
"=	c #DBDBDB",
"-	c #969696",
";	c #EAEAEA",
">	c #A7A7A7",
",	c #F9F9F9",
"'	c #AEAEAE",
")	c #676767",
"!	c #E3E3E3",
"~	c #F4F4F4",
"{	c #8D8D8D",
"]	c #454545",
"^	c #7C7C7C",
"  .   . .  . . +..@  . .  .     .    .    .                              .   .   ..   ..   ..   . .  ...   .   ...   .    .               .       .    .#.  ...   .   ..    ..  ..   ...  ...  ..   . .  ...    .  . .  .   .  . .  .  ...  ..   ..   ..    ..  ...  . .  . . .  .  . .  . .  ...  ..   .     ..   .        .         .           .         .       .     .     .  .    ..                                       .                                  .    .    .   . . .... ",
"  .   . . .... $.%     . . .    .   .      .   .    .                    .  . .   .     .    .  . .  .    .      .  . .  . .   .    .    .   ...   .     . .  .  . .  . .  .    . .  .    .   .     . .   .     .  . .  .   .... .. .  . .  . . .  .  . .  .     .   . .  . . .  .  . .  . .    .  .    .      .  . .        .    ..  .     ..    .   .&   .    *   .              .     .   ..   ..    .   ..    ..   ..   ..  ...  . .  . . .  .  . .  . .  ...   .    .    .  . .  .  . ",
"  .        ..   =.-   .   .         .      .  ...  ...       ...        .   . .   .    .    .   ...  ..   ..     .   .    ..            .           .   ;  . ..  ...  ..   .    . .  ..   ..  . ..  ...   .     .  ..   .   .>>. . ..  . .  ..  .  .  ..    .    .   . .  . . .>>.   .    .    .   .     .     .                 . .  ..   .     ..  .&.  ...  , .  ..    .     .  . .   .  .>>.  . .  . .  . .  . .  .    .>    .   . .  . . .  .   .    ..   >.  .           .      .. . ",
"          .... '..)  .   . .        .      .   .    .    .             .    . .   .   .      .    .    .  . .   .   . .    .   .    .    .   ...   .       .     . .  . .  .    . .  .    .   .  .  . .   .   . .  . .  .   .  . .  .  . .  .   . ..  . .    .   .   . .  . . ....  . .   .   .    .      .    .                 . .  . .  .    . .  .     .    !~  . .   .   . .  ..    .  .  .  . .  . .  ..    ..  .     >.   .   . .  . . .>>.   .     .  .>    .    .    .       . .. ",
"  .       . .   {]   . . .. .        .    .   . .       .          .   .     .   ...  ...  ..     .  ..    .    .    .    .        .      .       .     .   ...  . .  ..    ..  ..   ...  .    ..   . .  ...   .   . .  ... .  . .  .  ...  .    ...  . .  ..    .   ...   .  .  .  . .   .   ...  ..     .   ..       ...        ..  ..    ..   ..   ..   .   .~^  . .   .    .   . .   .  .  .  . .   .   .      .  .    ..    .   ...   .   ..   . .   .   ...   .    .    .       .... "};
