/* XPM */
static char *image[] = {
"38 48 39 1",
"  c None",
"0 c #474747",
"1 c #363636",
"2 c #464646",
"3 c #444444",
"4 c #6a7d48",
"5 c #718848",
"6 c #acda59",
"7 c #c2f95c",
"8 c #3e3e3e",
"9 c #b1dc64",
": c #c7f969",
"; c #c6f969",
"A c #a6c66a",
"B c #b8de70",
"C c #414141",
"D c #3f3f3f",
"E c #aad954",
"F c #c0f956",
"G c #c0f857",
"H c #c0f957",
"I c #b8df71",
"J c #ccf979",
"K c #ccfa79",
"L c #cdfa79",
"M c #525350",
"N c #535450",
"O c #313131",
"P c #2d2d2d",
"Q c #4e4e4e",
"R c #4f4f4f",
"S c #3b3b3b",
"T c #8d8d8d",
"U c #8e8e8e",
"V c #505050",
"W c #979797",
"X c #575757",
"Y c #a5a5a5",
"Z c #606060",
"       ZYYYYYYYYYYYYYYYYYYYYYYY       ",
"       XWWWWWWWWWWWWWWWWWWWWWWW       ",
"       VUUUUUTUUUUUUUUUUUUUUUUU       ",
"       VUUUUUUUUUUUUUUUUUUUUUUU       ",
"       VUUUTUUUUTUUUUUUUUUUUUUU       ",
" SRRRRRQRRRRRRRRRRRRRRRQRRRRRRRRRRRRR ",
"PRRRRRRRRRRRRRRRRRRRRRRRRRRRRRRRRRRRRO",
"QRRRRRRRRRRQRRRRRRRRRRRRRRRRRRRRRRRRRO",
"RRRRRRRQRRRRRRRRRRRRRRRQRRRRRRRRRRRRRO",
"RRRRNNNNNNNNNNNNNNNNNNNNNNNNNNNNNNMRRO",
"RRRRLLKLLLLLLLJKLLLLLLLLLLLLLLKLLLIRRO",
"RRRRHHGFHGHHHHHHHHHHHFHGHHGHGHGHHHERRO",
"RRRRHHHHHHHHHHHHHHHHHHHHHHHHHHHHHHERRO",
"RRRRHHHGHGHFHHHHHHHHHHHHHHHHHHGHHHERRO",
"RQRRHHHHFGHFFHHGHHHHHFHGHHGGHHHHHHERRO",
"RRRRHHHHHHHHHHHHHHHHHHHHHHHHHHHHHHERRO",
"RRRRHHHGHGHFHHHHHHHHHHHHHHHHHHGHHHERRO",
"RQRRHHHHFGHFFHHGHHHHHFHGHHGGHHHHHHERRO",
"RRRRHHHHHHHHHHHHHHHHHHHHHHHHHHHHHHERRO",
"RRRRDDDDDDDDDDDDDDDDDDDDDDDDDDDDDDCRRO",
"RQRRQQQQQQQQQQQQQQQQQQQQQQQQQQQQQQQRRO",
"RRRRBBBBBBBBBBBBBBBBBBBBBBBBBBBBBBARRO",
"RRRR;;;;::;:;;;;::;;;;;;;;;;;;;:;;9RRO",
"RQRRHHHHFGHFFHHGHHHHHFHGHHGGHHHHHHERRO",
"RRRRHHHHHHHHHHHHHHHHHHHHHHHHHHHHHHERRO",
"RRRRHHGHHHHHHHHHHFHHHFHGHHHHGHGHHHERRO",
"RQRRHHHHFGHFFHHGHHHHHFHGHHGGHHHHHHERRO",
"RRRRHHHHHHHHHHHHHHHHHHHHHHHHHHHHHHERRO",
"RRRRHHGHHHHHHHHHHFHHHFHGHHHHGHGHHHERRO",
"RQRRHHHHFGHFFHHGHHHHHFHGHHGGHHHHHHERRO",
"RRRRHHHHHHHHHHHHHHHHHHHHHHHHHHHHHHERRO",
"RRRRDDDDD8DD8DDDDDDDDDDDDDDDDDDDDDCRRO",
"RQRRRRRRRRRQRRRRRRRRRRRRRRRRRRRRRRRRRO",
"RRRRLLLLLLLLLLLLLLLLLLLLLLLLLLLLLLIRRO",
"RRRR7777777777777777777777777777776RRO",
"RQRRHHHHFGHFFHHGHHHHHFHGHHGGHHHHHHERRO",
"RRRRHHHHHHHHHHHHHHHHHHHHHHHHHHHHHHERRO",
"RRRRHHGHHHHHHHHHHFHHHFHGHHHHGHGHHHERRO",
"RQRRHHHHFGHFFHHGHHHHHFHGHHGGHHHHHHERRO",
"RRRRHHHHHHHHHHHHHHHHHHHHHHHHHHHHHHERRO",
"RRRRHHGHHHHHHHHHHFHHHFHGHHHHGHGHHHERRO",
"RQRRHHHHFGHFFHHGHHHHHFHGHHGGHHHHHHERRO",
"RRRR5555555555555555555555555555554RRO",
"RRRR3333333333333333333333333333332RRO",
"QQRRRRRRRRRQRRRRRRRRRRRRRRRRRRRRRRRRRO",
"1RRRRRRRRRRRRRRRRRRRRRRRRRRRRRRRRRRRRO",
" 0RRRRRRRRRQRRRRRRRRRRRRRRRRRRRRRRRRR ",
"                                      "};
