/* XPM */
static char *image[] = {
"48 48 356 2",
"   c None",
"00 c #6d6e68",
"10 c #6e6f6a",
"20 c #efefea",
"30 c #908ed9",
"40 c #abaae8",
"50 c #f5f5e7",
"60 c #332eee",
"70 c #534ff7",
"80 c #adada3",
"90 c #f9faf8",
":0 c #9e9e9e",
";0 c #cccbdb",
"A0 c #5855ea",
"B0 c #e2e2ef",
"C0 c #3430ef",
"D0 c #5450f8",
"E0 c #c9c8d5",
"F0 c #5b58ec",
"G0 c #d6d6e4",
"H0 c #e1e1ed",
"I0 c #2b26f2",
"J0 c #7370ea",
"K0 c #fdfdf7",
"L0 c #9593f1",
"M0 c #aaa9f8",
"N0 c #5956d7",
"O0 c #fafbf8",
"P0 c #9b9ae5",
"Q0 c #c5c4ec",
"R0 c #fafaf7",
"S0 c #a6a5cf",
"T0 c #0701fe",
"U0 c #b1aff6",
"V0 c #f5f5ee",
"W0 c #413cf5",
"X0 c #7875f8",
"Y0 c #fefff4",
"Z0 c #6461ed",
"a0 c #4c47fb",
"b0 c #393939",
"c0 c #d7d7cd",
"d0 c #d7d8d0",
"e0 c #d1d1d2",
"f0 c #d5d6ce",
"g0 c #d8d9cf",
"h0 c #d2d2d3",
"i0 c #121212",
"j0 c #bfbfbf",
"k0 c #9d9d9d",
"l0 c #50504f",
"m0 c #cecddc",
"n0 c #e4e4ee",
"o0 c #fbfbf9",
"p0 c #fffffe",
"q0 c #dddce7",
"r0 c #c8c8d6",
"s0 c #acada1",
"t0 c #504ceb",
"u0 c #342ff0",
"v0 c #a5a3e4",
"w0 c #f9f9f1",
"x0 c #d8d8d9",
"y0 c #e9e9e1",
"z0 c #9492d6",
"01 c #2c27ea",
"11 c #5f5bf3",
"21 c #fafaf8",
"31 c #dfdfee",
"41 c #6663ec",
"51 c #0300fc",
"61 c #504cf4",
"71 c #dcddd4",
"81 c #e9e9e0",
"91 c #3f3be7",
":1 c #726ef5",
";1 c #a7a7a7",
"A1 c #fcfcf6",
"B1 c #bbbaec",
"C1 c #7471fa",
"D1 c #deded7",
"E1 c #f7f7ef",
"F1 c #6b68f6",
"G1 c #c6c4f4",
"H1 c #141414",
"I1 c #101010",
"J1 c #595959",
"K1 c #e8e8e8",
"L1 c #f0f0ec",
"M1 c #f7f8eb",
"N1 c #fefef7",
"O1 c #767676",
"P1 c #2b2b2b",
"Q1 c #303030",
"R1 c #8e8e8e",
"S1 c #f8f8f2",
"T1 c #f6f6e9",
"U1 c #f6f6ea",
"V1 c #f9f9ed",
"W1 c #e9e9e4",
"X1 c #6d6e69",
"Y1 c #9897d8",
"Z1 c #3b37eb",
"a1 c #3f3bea",
"b1 c #3d38ec",
"c1 c #9896f0",
"d1 c #ececec",
"e1 c #4c4c4c",
"f1 c #4d4d4d",
"g1 c #4e4e4e",
"h1 c #454545",
"i1 c #343434",
"j1 c #fafbf4",
"k1 c #8c8adf",
"l1 c #3c38eb",
"m1 c #3e3bea",
"n1 c #3d3aed",
"o1 c #9b9ae0",
"p1 c #6f6f6a",
"q1 c #a8a7e8",
"r1 c #4844f8",
"s1 c #4946f9",
"t1 c #a09ef9",
"u1 c #7d7d7d",
"v1 c #686868",
"w1 c #696969",
"x1 c #606060",
"y1 c #5d5d5d",
"z1 c #545454",
"02 c #232323",
"12 c #333333",
"22 c #cacaca",
"32 c #e0e0e0",
"42 c #fefef8",
"52 c #9d9bef",
"62 c #4845f8",
"72 c #4c49f8",
"82 c #4945f9",
"92 c #a2a1e6",
":2 c #61615c",
";2 c #131313",
"A2 c #666666",
"B2 c #f8f8f3",
"C2 c #fffffc",
"D2 c #cfcfcf",
"E2 c #2e2e2e",
"F2 c #848484",
"G2 c #d1d1d1",
"H2 c #ebebe6",
"I2 c #555556",
"J2 c #111111",
"K2 c #585858",
"L2 c #f0f0f0",
"M2 c #656565",
"N2 c #e1e1e1",
"O2 c #e9e9e9",
"P2 c #b9b9b9",
"Q2 c #151515",
"R2 c #717171",
"S2 c #161616",
"T2 c #2a2a2a",
"U2 c #f1f1f1",
"V2 c #fafaf6",
"W2 c #fffff6",
"X2 c #dbdbdc",
"Y2 c #d8d8d8",
"Z2 c #fcfcf1",
"a2 c #fefefa",
"b2 c #9f9f9f",
"c2 c #eaeae4",
"d2 c #a4a3cf",
"e2 c #5f5cef",
"f2 c #dfdfd7",
"g2 c #eaeae2",
"h2 c #5552e9",
"i2 c #b6b5df",
"j2 c #424242",
"k2 c #efefee",
"l2 c #c9c9d5",
"m2 c #5855d7",
"n2 c #0601fe",
"o2 c #4c48fc",
"p2 c #e3e4da",
"q2 c #e6e6e6",
"r2 c #f4f5ec",
"s2 c #413df5",
"t2 c #0600fc",
"u2 c #6663e3",
"v2 c #dedeeb",
"w2 c #a6a69c",
"x2 c #605cec",
"y2 c #3b36fd",
"z2 c #b2b0f6",
"03 c #f5f5f6",
"13 c #f3f3f3",
"23 c #efefef",
"33 c #dddddd",
"43 c #e3e3e3",
"53 c #fbfaf3",
"63 c #a8a6ed",
"73 c #3530f8",
"83 c #6966ef",
"93 c #4d4d4c",
":3 c #d7d7e4",
";3 c #f0effb",
"A3 c #fefefc",
"B3 c #e4e4e4",
"C3 c #ececf7",
"D3 c #c2c2ce",
"E3 c #434342",
"F3 c #171717",
"G3 c #d5d5d5",
"H3 c #ededed",
"I3 c #7a7a7a",
"J3 c #b3b3b3",
"K3 c #eaeaea",
"L3 c #dedede",
"M3 c #444444",
"N3 c #6b6b6b",
"O3 c #d4d4d4",
"P3 c #d9d9d9",
"Q3 c #f7f7f7",
"R3 c #363636",
"S3 c #c9c9c9",
"T3 c #ecede4",
"U3 c #f6f7ee",
"V3 c #fafafa",
"W3 c #f4f4f4",
"X3 c #e7e7e7",
"Y3 c #dcdcdc",
"Z3 c #6a6a6a",
"a3 c #dbdbdb",
"b3 c #dadada",
"c3 c #e5e5e5",
"d3 c #f2f2f2",
"e3 c #f9f9f9",
"f3 c #f9f9fa",
"g3 c #ecece4",
"h3 c #f6f6ee",
"i3 c #d6d6d6",
"j3 c #e7e7df",
"k3 c #3e3ae6",
"l3 c #6562f7",
"m3 c #5a5a5a",
"n3 c #ffffff",
"o3 c #fbfbf0",
"p3 c #4f4ce9",
"q3 c #504cf2",
"r3 c #fcfcf4",
"s3 c #bebebe",
"t3 c #474747",
"u3 c #f6f6f4",
"v3 c #9594d5",
"w3 c #0400fc",
"x3 c #c4c4f4",
"y3 c #fffffd",
"z3 c #fdfdfe",
"04 c #dbdcd4",
"14 c #ebebe5",
"24 c #fdfdf9",
"34 c #abaadf",
"44 c #0500fe",
"54 c #b1b0ee",
"64 c #fdfdfb",
"74 c #b1b1b1",
"84 c #404040",
"94 c #353535",
":4 c #adadad",
";4 c #dedee8",
"A4 c #2d28ea",
"B4 c #706df6",
"C4 c #f7f7f1",
"D4 c #8381e2",
"E4 c #a1a0f0",
"F4 c #fffffb",
"G4 c #f5f5ef",
"H4 c #5956e5",
"I4 c #3f3af8",
"J4 c #eeeef7",
"K4 c #ebebeb",
"L4 c #323232",
"M4 c #1d1d1d",
"N4 c #8a8a8a",
"O4 c #cacad7",
"P4 c #625ef2",
"Q4 c #e9e9f7",
"R4 c #f4f5e7",
"S4 c #342fee",
"T4 c #544ff7",
"U4 c #fcfcfd",
"V4 c #dad9e9",
"W4 c #625ef0",
"X4 c #c3c3cf",
"Y4 c #797979",
"Z4 c #222222",
"a4 c #202020",
"b4 c #494948",
"c4 c #a6a69b",
"d4 c #eaeae9",
"e4 c #f4f4e7",
"f4 c #3733ed",
"g4 c #5753f7",
"h4 c #fffff9",
"i4 c #f6f6f6",
"j4 c #dddddc",
"k4 c #98988e",
"l4 c #434343",
"m4 c #1b1b1b",
"n4 c #3e3e3e",
"o4 c #919191",
"p4 c #f5f5f5",
"q4 c #fbfbfb",
"r4 c #f8f8eb",
"s4 c #3530f0",
"t4 c #5350f8",
"u4 c #fffffa",
"v4 c #fefefe",
"w4 c #fdfdfd",
"x4 c #fcfcfc",
"y4 c #f8f8f8",
"z4 c #eeeeee",
"05 c #d2d2d2",
"15 c #868686",
"25 c #272727",
"35 c #1e1e1e",
"45 c #292929",
"55 c #646464",
"65 c #a3a3a3",
"75 c #c7c7c7",
"85 c #d7d7d7",
"95 c #e2e2e2",
":5 c #e8e8e3",
";5 c #9998e0",
"A5 c #abaae6",
"B5 c #eaebe6",
"C5 c #dfdfdf",
"D5 c #d3d3d3",
"E5 c #c0c0c0",
"F5 c #9a9a9a",
"G5 c #5e5e5e",
"H5 c #282828",
"I5 c #1f1f1f",
"J5 c #212121",
"K5 c #181818",
"L5 c #3b3b3b",
"M5 c #4b4b4b",
"N5 c #575757",
"O5 c #61625c",
"P5 c #60605c",
"Q5 c #565656",
"R5 c #4a4a4a",
"S5 c #3a3a3a",
"T5 c #262626",
"U5 c #191919",
"V5 c #1a1a1a",
"W5 c #1c1c1c",
"                                              W5W5                                              ",
"                                  V5U5T5S5R5Q5P5O5N5M5L5T5K5U5                                  ",
"                            J5I5H5G5F5E5D5C5B5A5;5:595857565554535I5                            ",
"                        3525L51505z4y4x4w4v4u4t4s4r4w4v4w4q4p4C5o4n425V5                        ",
"                      m4l4k4j4i4x4w4w4w4w4w4h4g4f4e4w4w4w4w4v4v4x4d4c4b4K5                      ",
"                  a4Z4Y4X4W4V4U4w4w4x4w4w4w4h4T4S4R4w4w4w4w4w4w4w4Q4P4O4N4Z4M4                  ",
"                J5L4F5K4J4I4H4G4w4w4w4w4w4w4F4E4D4C4w4w4w4w4x4w4u4B4A4;4y4:49435                ",
"              W58474p4x46454443424w4w4w4w4w4v41404z3w4w4w4w4w4y3x3w3v3u3w4v475t3U5              ",
"            J584s3i4w4w4w4r3q3p3o3w4x4w4v4v4n315m3n3v4v4w4x4w4F4l3k3j3x4w4w4x4i3t335            ",
"          a4L474i4w4x4w4w4U4h3g3f3x4e3d3c3b3a3Z3l4C5Y3X3W3V3w4U4U3T3f3w4w4x4w4w4S3R3W5          ",
"          Z4F5p4w4x4w4w4x4w4w4v4Q3X3P305D5O3Y3N3M3L3O3D5D5a3K3e3v4w4w4x4w4w4x4w4n3J3Z4          ",
"        m4I3K4x4w4w4w4w4x4x4n3H385O3O3O3G3G3Y3N3M3C5G3G3O3O3G3P3d3v4x4w4w4w4w4w4w4q4o4F3        ",
"      35E3D3C364w4w4x4x4w4x4B3D5G3G3G3G3G3G3Y3N3M3C5G3G3O3O3O3O305K3x4w4w4w4w4w4A3;3:393K5      ",
"      25k483736353U4w4x4x443O3G3G3G3G3G3G3G3Y3N3M3C5G3O3i3L3L3L3L3332313W3W303h4z2y2x2w2H5      ",
"    J5L5j4v2u2t2s2r2w4v4q2O3O3G3G3G3G3G3G3G3Y3N3M3C5G3O3a3y4q4q4q4V3x4q2i3i3p2o2n2m2l2k2j2M4    ",
"    I515i4x4C4i2h2g2v42305G3G3G3G3G3G3G3G3G3Y3N3M3C5G3O3Y3V3w4w4w4w4w4v4a3O3f2e2d2c2q4n3b2M4    ",
"    H505x4w4w4a2Z2f3e3Y2O3G3G3G3G3G3G3G3G3G3Y3N3M3C5G3O3Y3V3w4w4w4w4x4w4p4G3X2W2V2w4w4v4U2T2S2  ",
"  V5G5z4w4w4w4w4w4w4K3G3G3G3G3G3G3G3G3G3G3G3Y3N3M3C5G3O3Y3V3w4w4w4w4w4x4x495Y3v4w4w4x4w4n3R2Q2  ",
"  U5F5y4w4x4w4w4x4V333O3G3G3G3G3G3G3G3G3G3G3Y3N3M3C5G3O3Y3V3w4w4w4w4w4w4w42333v4w4w4w4w4v4P2Q2  ",
"  T5E5x4w4w4w4w4w4i4O3O3G3G3G3G3G3G3G3G3G3G3Y3N3M3C5G3O3Y3V3w4w4w4w4w4w4w4e3C5v4w4w4w4x4w4L3H5  ",
"  S5D5w4w4w4w4w4w4K4D5G3G3G3G3G3G3G3G3G3G3O3Y3N3M3C5O3O3Y3V3w4w4w4w4w4w4w4v4q2v4w4w4w4w4w4O2M3  ",
"  R5C5v4w4w4w4w4v4N2O3G3G3G3G3G3G3G3G3G3O3G3Y2M284Y2G3O333V3w4w4w4w4w4w4w4w423w4x4w4w4w4w4L2K2J2",
"  I2H2u4h4h4F4U4v4a3O3G3G3G3G3G3G3G3O3O3O3G2F2E2H5I3D2b343n3n3n3n3n3n3n3w4w4p4w4U4C2h4h4h4B2A2;2",
"W5:2928272625242n3Y2O3G3G3G3G3G3G3G3G3L33222120202T2z1y1x1w1Z3Z3Z3Z3v1u1Q3w4y4w4C2t1s172r1q1p1Q2",
"W5:2o1n1m1l1k1j1n3Y2O3G3G3G3G3G3G3G3Y2V3n3B3i1J5J525h1g1g1f1f1f1f1f1e1y1d1v4Q3w4C2c1b1a1Z1Y1X1Q2",
"  N5W1V1U1T1S1x4v4a3O3G3G3G3G3G3G3G3Y2e3w4i4R1Q1P1O13313131313131313d3p4e3w413w4U4N1M1U1T1L1A2;2",
"  M595w4w4w4w4w4v443D5G3G3G3G3G3G3G3Y2e3w4w4d3G222K1q4w4w4w4w4w4w4w4w4w4w4v4d1v4x4w4w4w4w4U2J1I1",
"  L585v4w4w4w4w4w4H3D5O3G3G3G3G3G3G3Y2e3w4w4w4w4w4w4w4w4w4w4w4w4w4w4w4w4w4v495v4w4w4w4w4w4K3h1  ",
"  T575w4w4w4w4w4w4y4G3O3G3G3G3G3G3G3Y2e3w4w4x4w4w4w4x4w4w4w4w4w4w4w4w4w4w4y433v4w4w4w4w4w495H5  ",
"  K565q4w4w4w4w4x4q4C5O3G3G3G3G3G3G3Y2e3w4w4w4w4w4w4w4w4w4w4w4w4w4w4w4w4w4H3b3v4w4w4w4x4n3s3H1  ",
"  U555i4w4w4x4w4w4w4d1G3G3G3G3G3G3G3Y2e3w4w4w4w4w4w4w4w4w4w4w4w4w4w4w4x4q432P3v4w4w4w4w4n3O1;2  ",
"    45C5v4w4w4y3F4w4q4a3O3G3G3G3G3G3Y2e3w4w4w4w4w4w4w4w4w4w4w4w4w4w4x4w4d3D5P3y3C2w4x4v4y4P1H1  ",
"    35o4x4w4u4G1F1E1v4p405G3G3G3G3G3Y2e3w4w4w4w4w4w4w4w4w4w4w4w4w4x4w4w4Y2O3D1C1B1A1z3n3;1W5    ",
"    I5n4d4Q4:1w39181e3e3K185P3P3P3P3Y3V3w4w4w4w4w4w4w4w4w4w4w4w4x4w4w4C5O3O3716151413121M3m4    ",
"      25c41101z0y0P3G3G385K3w4w4w4w4w4x4x4w4w4w4w4w4w4w4w4w4w4x4w4x4c3O3G3O3x0w0v0u0t0s045      ",
"      V5b4r0q0u3v4Y3O3O3O3O3q2n3w4w4w4w4x4w4w4w4w4w4w4w4w4w4x4w4w432O3O3G3O3P3p0o0n0m0l0Q2      ",
"        K5N4y4w4v433O3G3G3G3D533Q3x4w4w4x4w4w4w4w4w4w4x4w4w4x4p4P3O3G3G3G3O3Y2v4w4n3k0S2        ",
"          Z4:4n3v433O3G3G3O3G3O385q213w4v4v4w4w4w4w4v4v4x4U243G3O3G3G3O3G3O3Y2v4n3j002i0        ",
"          M49475v433G20505h0g0f0e005O3Y243H313i4i413K4N285O30505d0c005050505i3n3i3b0V5          ",
"            35t3i3x4w4w4w4h4a0Z0Y0v4v4v4w4w4x4x4x4x4w4w4v4v4v4y3X0W0V0v4v4n3n343g1W5            ",
"              U5t3S3n3w4A3U0T0S0R0w4w4w4w4w4U4C2C2U4w4w4w4w4w4C2Q0t2P0O0w4n3i3g1Q2              ",
"                35R3J3q4;3y2N0c2w4w4w4w4w4w4C2M0L0N1w4w4w4w4w4w4K0J0I0H0n3j0b0W5                ",
"                  W5Z4o4G0F0E0q4w4x4w4w4w4w4u4D0C0T1w4w4w4w4w4x4z3B0A0;0:002V5                  ",
"                      F393c4k2n3v4w4w4x4w4w4h4g4f4e4w4w4w4x4w4v4n39080l0S2i0                    ",
"                        K5H5j2b2U2n3v4w4w4w4h4706050w4w4w4n3n3y4;1M345Q2                        ",
"                            M4M4T2R2P2L3O2L2B2403020U2K395s3O1P1W5m4                            ",
"                                S2H1Q2H5M3K2A21000A2J1h1H5H1;2H1                                ",
"                                          J2;2Q2Q2;2I1                                          "};
