/* XPM */
static char *image[] = {
"48 48 903 2",
"   c None",
"00 c #646475",
"10 c #65647e",
"20 c #75749d",
"30 c #7d7ca8",
"40 c #545467",
"50 c #606191",
"60 c #605fab",
"70 c #28297c",
"80 c #6162a3",
"90 c #545476",
":0 c #646480",
";0 c #6160a4",
"A0 c #2c2ca6",
"B0 c #2a2bbb",
"C0 c #2c2cae",
"D0 c #5e5ec2",
"E0 c #7f80b8",
"F0 c #434454",
"G0 c #6161a7",
"H0 c #3336b7",
"I0 c #0408a9",
"J0 c #0507aa",
"K0 c #2e2db5",
"L0 c #6162b4",
"M0 c #666797",
"N0 c #616497",
"O0 c #515bbc",
"P0 c #040e94",
"Q0 c #0408b1",
"R0 c #0808a8",
"S0 c #5e5fc9",
"T0 c #6261af",
"U0 c #6567a4",
"V0 c #696a90",
"W0 c #7e7ea9",
"X0 c #636788",
"Y0 c #747fd1",
"Z0 c #545fdb",
"a0 c #2e33d7",
"b0 c #2627cf",
"c0 c #5d5de1",
"d0 c #302fa4",
"e0 c #3737af",
"f0 c #6062c9",
"g0 c #7c84c2",
"h0 c #54618e",
"i0 c #51619c",
"j0 c #505fa0",
"k0 c #525fa3",
"l0 c #6069aa",
"m0 c #556096",
"n0 c #7c82a9",
"o0 c #777cd7",
"p0 c #2b30b0",
"q0 c #0609a2",
"r0 c #5759fc",
"s0 c #2a2ac6",
"t0 c #0806a7",
"u0 c #060aa1",
"v0 c #4e5fb7",
"w0 c #4565a0",
"x0 c #638ed2",
"y0 c #2755a3",
"z0 c #3458b6",
"01 c #3755b7",
"11 c #445cb4",
"21 c #5362a5",
"31 c #3b3c8f",
"41 c #2d2ea2",
"51 c #3535bb",
"61 c #2122b0",
"71 c #4749d2",
"81 c #08089c",
"91 c #0503ac",
":1 c #292ec6",
";1 c #475bbe",
"A1 c #395aa9",
"B1 c #1b46a2",
"C1 c #234fb8",
"D1 c #001187",
"E1 c #001189",
"F1 c #2e4cbc",
"G1 c #4f61b5",
"H1 c #5b5e78",
"I1 c #64659e",
"J1 c #6263b6",
"K1 c #313098",
"L1 c #6362c8",
"M1 c #6263b3",
"N1 c #6364b4",
"O1 c #6362ca",
"P1 c #5e62d0",
"Q1 c #6975d9",
"R1 c #4a58c1",
"S1 c #000687",
"T1 c #000995",
"U1 c #000b96",
"V1 c #000c93",
"W1 c #1733b0",
"X1 c #465bb8",
"Y1 c #6b7190",
"Z1 c #67669f",
"a1 c #6664af",
"b1 c #6463af",
"c1 c #b4b8f5",
"d1 c #b5bafc",
"e1 c #5859b6",
"f1 c #5559c7",
"g1 c #4f5cce",
"h1 c #000986",
"i1 c #000598",
"j1 c #00039c",
"k1 c #00089a",
"l1 c #3046cd",
"m1 c #1b31a9",
"n1 c #4453b0",
"o1 c #878ebc",
"p1 c #46465f",
"q1 c #7f83c0",
"r1 c #535eae",
"s1 c #5058c3",
"t1 c #3637c3",
"u1 c #5055ed",
"v1 c #0920ae",
"w1 c #1532be",
"x1 c #172fc3",
"y1 c #1b2fc2",
"z1 c #1b2fb6",
"02 c #3f4fc9",
"12 c #3c47b0",
"22 c #575cb0",
"32 c #6c6da5",
"42 c #555ea1",
"52 c #4654bd",
"62 c #000690",
"72 c #0409af",
"82 c #0108b9",
"92 c #0007b0",
":2 c #132ed3",
";2 c #1931d3",
"A2 c #1327c4",
"B2 c #2939cc",
"C2 c #3b45cb",
"D2 c #5e63d8",
"E2 c #676acb",
"F2 c #676ab9",
"G2 c #6c6ea7",
"H2 c #585c9b",
"I2 c #404aab",
"J2 c #000a8a",
"K2 c #000faa",
"L2 c #0009b8",
"M2 c #0005c3",
"N2 c #0005cc",
"O2 c #1a21e1",
"P2 c #1c22da",
"Q2 c #1e23d7",
"R2 c #1f23cc",
"S2 c #2126be",
"T2 c #2026ae",
"U2 c #4f5ace",
"V2 c #676fc2",
"W2 c #4c4c5f",
"X2 c #8389c5",
"Y2 c #4755ae",
"Z2 c #000a82",
"a2 c #2d46d6",
"b2 c #0006a8",
"c2 c #0001b2",
"d2 c #0006c9",
"e2 c #0006cb",
"f2 c #0007c1",
"g2 c #0007bc",
"h2 c #0106ba",
"i2 c #0406b9",
"j2 c #0000b0",
"k2 c #1d24cc",
"l2 c #2531c5",
"m2 c #202a9d",
"n2 c #8f8fcf",
"o2 c #717eb2",
"p2 c #566bba",
"q2 c #4c67ce",
"r2 c #1434af",
"s2 c #1f3ecd",
"t2 c #0004a6",
"u2 c #000fb2",
"v2 c #2649db",
"w2 c #2847d5",
"x2 c #2435c9",
"y2 c #030bae",
"z2 c #0304c1",
"03 c #0505c7",
"13 c #0000ae",
"23 c #2125ba",
"33 c #272797",
"43 c #8d8bd6",
"53 c #7d8ebc",
"63 c #556caf",
"73 c #4c6ac2",
"83 c #1b39a9",
"93 c #000c94",
":3 c #2c46cf",
";3 c #2246b8",
"A3 c #12339c",
"B3 c #5366cf",
"C3 c #5b63e0",
"D3 c #2d2dcd",
"E3 c #0805b4",
"F3 c #0708a1",
"G3 c #090796",
"H3 c #a1a0ff",
"I3 c #8e90dd",
"J3 c #9093c8",
"K3 c #71739c",
"L3 c #4f4e5f",
"M3 c #828dc5",
"N3 c #2c3789",
"O3 c #2d34a9",
"P3 c #2b36ac",
"Q3 c #2a3c92",
"R3 c #6f81c1",
"S3 c #8690c3",
"T3 c #8c8ecb",
"U3 c #a3a0fb",
"V3 c #a29eff",
"W3 c #5c5dd3",
"X3 c #010185",
"Y3 c #0808a6",
"Z3 c #3c3cc0",
"a3 c #6f70c2",
"b3 c #9394c2",
"c3 c #8b8ac3",
"d3 c #8788db",
"e3 c #36388d",
"f3 c #868fc8",
"g3 c #7f87a9",
"h3 c #9291bb",
"i3 c #a6a4e5",
"j3 c #a2a2fc",
"k3 c #03047a",
"l3 c #010197",
"m3 c #0000ad",
"n3 c #0303c5",
"o3 c #0506b6",
"p3 c #3d3db7",
"q3 c #aeafff",
"r3 c #8b8cb8",
"s3 c #5e5e78",
"t3 c #8e90b7",
"u3 c #8f90bc",
"v3 c #a2a4f1",
"w3 c #050575",
"x3 c #02008f",
"y3 c #0000a5",
"z3 c #0606c0",
"04 c #0505bf",
"14 c #0807ab",
"24 c #050486",
"34 c #434399",
"44 c #8c8cbc",
"54 c #8f93d3",
"64 c #020469",
"74 c #04038d",
"84 c #0000a2",
"94 c #0000b1",
":4 c #0000b2",
";4 c #0000ab",
"A4 c #000392",
"B4 c #4040a2",
"C4 c #9596d6",
"D4 c #929bc2",
"E4 c #6e7686",
"F4 c #8c92c4",
"G4 c #2c328a",
"H4 c #00018d",
"I4 c #0100a6",
"J4 c #0100a8",
"K4 c #0001a4",
"L4 c #000396",
"M4 c #000982",
"N4 c #201e71",
"O4 c #434784",
"P4 c #5d7bb1",
"Q4 c #517197",
"R4 c #2f3b47",
"S4 c #6c706f",
"T4 c #8d97bb",
"U4 c #4e5aa2",
"V4 c #000882",
"W4 c #00079c",
"X4 c #00059b",
"Y4 c #000591",
"Z4 c #000881",
"a4 c #1c2486",
"b4 c #000047",
"c4 c #00023f",
"d4 c #04215b",
"e4 c #385984",
"f4 c #2c3a47",
"g4 c #4d5150",
"h4 c #636564",
"i4 c #5c5e5d",
"j4 c #575958",
"k4 c #7e7f83",
"l4 c #7188bc",
"m4 c #2c50a6",
"n4 c #1436a4",
"o4 c #1b2ea7",
"p4 c #000376",
"q4 c #000059",
"r4 c #00004a",
"s4 c #000043",
"t4 c #000337",
"u4 c #00062b",
"v4 c #757e8d",
"w4 c #878b8e",
"x4 c #959398",
"y4 c #9d989c",
"z4 c #b2b2b2",
"05 c #3d383e",
"15 c #859dc3",
"25 c #759edc",
"35 c #1d4a9d",
"45 c #00086c",
"55 c #000565",
"65 c #000048",
"75 c #00003e",
"85 c #00003d",
"95 c #00000b",
":5 c #01000b",
";5 c #030007",
"A5 c #9b9b99",
"B5 c #bbbab6",
"C5 c #bbb5b7",
"D5 c #010000",
"E5 c #000002",
"F5 c #8e9cb9",
"G5 c #456797",
"H5 c #214889",
"I5 c #3e5aad",
"J5 c #00095e",
"K5 c #000046",
"L5 c #050744",
"M5 c #000035",
"N5 c #010135",
"O5 c #00002b",
"P5 c #010127",
"Q5 c #000019",
"R5 c #01031a",
"S5 c #000013",
"T5 c #030210",
"U5 c #21221d",
"V5 c #7a7a72",
"W5 c #b3b2b0",
"X5 c #706e6f",
"Y5 c #2d2e28",
"Z5 c #21221c",
"a5 c #2c2c2a",
"b5 c #48494e",
"c5 c #64697d",
"d5 c #89a0c0",
"e5 c #5976a2",
"f5 c #18326b",
"g5 c #000b48",
"h5 c #00023d",
"i5 c #000037",
"j5 c #000233",
"k5 c #00002d",
"l5 c #03022c",
"m5 c #040426",
"n5 c #00001e",
"o5 c #010216",
"p5 c #6f6e69",
"q5 c #b7b7b7",
"r5 c #54534f",
"s5 c #484840",
"t5 c #3c3e33",
"u5 c #353630",
"v5 c #020305",
"w5 c #737278",
"x5 c #686b6f",
"y5 c #636166",
"z5 c #6f6e76",
"06 c #4c5564",
"16 c #4f6074",
"26 c #2c455b",
"36 c #132845",
"46 c #000226",
"56 c #000029",
"66 c #00012a",
"76 c #02012b",
"86 c #020028",
"96 c #040229",
":6 c #000225",
";6 c #010022",
"A6 c #6a6869",
"B6 c #b8b8ba",
"C6 c #8c8c8e",
"D6 c #514f50",
"E6 c #595854",
"F6 c #4f5048",
"G6 c #41423c",
"H6 c #262626",
"I6 c #2f2d32",
"J6 c #504d56",
"K6 c #47464b",
"L6 c #79787d",
"M6 c #636468",
"N6 c #636164",
"O6 c #575558",
"P6 c #505358",
"Q6 c #000207",
"R6 c #2e4044",
"S6 c #607179",
"T6 c #000617",
"U6 c #00021b",
"V6 c #000122",
"W6 c #000026",
"X6 c #000020",
"Y6 c #000022",
"Z6 c #000024",
"a6 c #03001b",
"b6 c #000009",
"c6 c #6e6e70",
"d6 c #b4b4b6",
"e6 c #939194",
"f6 c #52534b",
"g6 c #5b5c56",
"h6 c #464543",
"i6 c #353336",
"j6 c #322d34",
"k6 c #3d3a43",
"l6 c #76777c",
"m6 c #9b9c9e",
"n6 c #737174",
"o6 c #555356",
"p6 c #000202",
"q6 c #8e989a",
"r6 c #505a5c",
"s6 c #424a4c",
"t6 c #4e525d",
"u6 c #00011a",
"v6 c #020121",
"w6 c #00001b",
"x6 c #00001f",
"y6 c #020025",
"z6 c #00001c",
"07 c #010217",
"17 c #000007",
"27 c #555756",
"37 c #aba9aa",
"47 c #8c8a8b",
"57 c #52514f",
"67 c #696864",
"77 c #514e49",
"87 c #5a5752",
"97 c #504f4d",
":7 c #434142",
";7 c #252326",
"A7 c #464449",
"B7 c #7a7780",
"C7 c #7d7e82",
"D7 c #696a6c",
"E7 c #636162",
"F7 c #222723",
"G7 c #aeb2b3",
"H7 c #484c4d",
"I7 c #7a7e81",
"J7 c #040313",
"K7 c #04021a",
"L7 c #020318",
"M7 c #00011d",
"N7 c #000021",
"O7 c #010024",
"P7 c #02021e",
"Q7 c #010214",
"R7 c #3c3f44",
"S7 c #7d7f7e",
"T7 c #9b999a",
"U7 c #8f8d8e",
"V7 c #7f7e7c",
"W7 c #676360",
"X7 c #5e5a57",
"Y7 c #555452",
"Z7 c #5c5a5b",
"a7 c #3d3b3c",
"b7 c #514f52",
"c7 c #87868c",
"d7 c #7c7b80",
"e7 c #767175",
"f7 c #6e6c6d",
"g7 c #525250",
"h7 c #5a5c59",
"i7 c #3c3c3c",
"j7 c #bebebe",
"k7 c #44484b",
"l7 c #45464a",
"m7 c #211f24",
"n7 c #0e0d15",
"o7 c #202430",
"p7 c #000418",
"q7 c #000120",
"r7 c #010020",
"s7 c #020018",
"t7 c #0e0d1d",
"u7 c #737478",
"v7 c #a1a1a1",
"w7 c #a3a3a5",
"x7 c #2c2c2e",
"y7 c #595758",
"z7 c #6b6a68",
"08 c #5a5859",
"18 c #3c3839",
"28 c #110d0e",
"38 c #333237",
"48 c #858388",
"58 c #6b696e",
"68 c #777374",
"78 c #5f5e5c",
"88 c #626061",
"98 c #50524d",
":8 c #000100",
";8 c #949494",
"A8 c #7e7c7d",
"B8 c #2f2f2f",
"C8 c #5a5c5b",
"D8 c #43474a",
"E8 c #18191b",
"F8 c #272526",
"G8 c #21262a",
"H8 c #131925",
"I8 c #000319",
"J8 c #010119",
"K8 c #504f5f",
"L8 c #35343c",
"M8 c #c5c5c7",
"N8 c #b9bbba",
"O8 c #494a4e",
"P8 c #5e5e60",
"Q8 c #646263",
"R8 c #767475",
"S8 c #696564",
"T8 c #353132",
"U8 c #727473",
"V8 c #767873",
"W8 c #646663",
"X8 c #5e5e5c",
"Y8 c #5d5c5a",
"Z8 c #535351",
"a8 c #0b0b09",
"b8 c #8e8e8c",
"c8 c #a6a6a4",
"d8 c #3a3c3b",
"e8 c #4f5150",
"f8 c #1e231f",
"g8 c #252724",
"h8 c #222222",
"i8 c #0e0e0e",
"j8 c #1d221e",
"k8 c #212727",
"l8 c #21252e",
"m8 c #383c47",
"n8 c #5b5c60",
"o8 c #999997",
"p8 c #d8dad5",
"q8 c #9fa49e",
"r8 c #4f5354",
"s8 c #626262",
"t8 c #585657",
"u8 c #838182",
"v8 c #3d3b3e",
"w8 c #3f3e44",
"x8 c #838489",
"y8 c #6c6d6f",
"z8 c #6c716d",
"09 c #5e635f",
"19 c #636562",
"29 c #565455",
"39 c #525051",
"49 c #161513",
"59 c #959490",
"69 c #bcbdb8",
"79 c #2c2e2d",
"89 c #1a1c1b",
"99 c #242623",
":9 c #191b18",
";9 c #242625",
"A9 c #1a1c19",
"B9 c #242720",
"C9 c #484d47",
"D9 c #414747",
"E9 c #161a1b",
"F9 c #626461",
"G9 c #cacdc6",
"H9 c #93968f",
"I9 c #32342f",
"J9 c #505153",
"K9 c #5d5e62",
"L9 c #636363",
"M9 c #757678",
"N9 c #949597",
"O9 c #848484",
"P9 c #3c3c3e",
"Q9 c #a19ba7",
"R9 c #6c6a75",
"S9 c #9d9da5",
"T9 c #6c6e6b",
"U9 c #3e3f43",
"V9 c #3e3d43",
"W9 c #544f55",
"X9 c #140e10",
"Y9 c #97948f",
"Z9 c #a9a8a3",
"a9 c #000000",
"b9 c #626365",
"c9 c #262628",
"d9 c #565759",
"e9 c #303433",
"f9 c #000200",
"g9 c #121911",
"h9 c #424740",
"i9 c #999e9a",
"j9 c #bec0bb",
"k9 c #848681",
"l9 c #242621",
"m9 c #525252",
"n9 c #514e55",
"o9 c #57565c",
"p9 c #747673",
"q9 c #737572",
"r9 c #6b696c",
"s9 c #717576",
"t9 c #909493",
"u9 c #7f8384",
"v9 c #3f4044",
"w9 c #84848c",
"x9 c #5a585d",
"y9 c #726c78",
"z9 c #9e9ca9",
"0: c #64626d",
"1: c #646464",
"2: c #565654",
"3: c #515256",
"4: c #3c3b41",
"5: c #544d54",
"6: c #302a2c",
"7: c #3a3935",
"8: c #8d8e89",
"9: c #757772",
":: c #3b3d3c",
";: c #0d0c11",
"A: c #17161b",
"B: c #727675",
"C: c #717871",
"D: c #bac1b9",
"E: c #c4c9c2",
"F: c #cccecb",
"G: c #d4d4d4",
"H: c #505050",
"I: c #505052",
"J: c #555259",
"K: c #5f5c63",
"L: c #848685",
"M: c #6b6d6a",
"N: c #9a989b",
"O: c #b0b2b1",
"P: c #afb3b2",
"Q: c #a5a6a8",
"R: c #323337",
"S: c #8c8a95",
"T: c #64616a",
"U: c #666465",
"V: c #50504e",
"W: c #4f514e",
"X: c #5c5c5a",
"Y: c #555354",
"Z: c #535154",
"a: c #3a3b3d",
"b: c #4e5251",
"c: c #8f948e",
"d: c #62645f",
"e: c #6d6d6d",
"f: c #69696b",
"g: c #a7aca8",
"h: c #ccd3cc",
"i: c #dde4dd",
"j: c #cacfcb",
"k: c #a2a2a4",
"l: c #8d8b90",
"m: c #515151",
"n: c #505251",
"o: c #58575c",
"p: c #615e65",
"q: c #6a686d",
"r: c #959499",
"s: c #7b7b7d",
"t: c #b9b9bb",
"u: c #c4c4c6",
"v: c #d8dad9",
"w: c #bfbfbf",
"x: c #a2a0a3",
"y: c #302d34",
"z: c #73737b",
"0; c #a19ea5",
"1; c #6f6d72",
"2; c #656066",
"3; c #636361",
"4; c #575755",
"5; c #51504e",
"6; c #606467",
"7; c #171c1f",
"8; c #909790",
"9; c #9a9f99",
":; c #9a9a98",
";; c #adadad",
"A; c #bdc2be",
"B; c #c4cac6",
"C; c #aeb5ae",
"D; c #464845",
"E; c #2e2d32",
"F; c #4c4950",
"G; c #525254",
"H; c #5a5a5c",
"I; c #615f64",
"J; c #777578",
"K; c #7e7c7f",
"L; c #979598",
"M; c #b2b0b3",
"N; c #cdcdcf",
"O; c #e6e6e4",
"P; c #d3d3d3",
"Q; c #45474b",
"R; c #74747c",
"S; c #a29fa8",
"T; c #78727c",
"U; c #a5a0a7",
"V; c #666469",
"W; c #5d5d5f",
"X; c #535152",
"Y; c #5d5b5c",
"Z; c #636469",
"a; c #5b5f62",
"b; c #2c3733",
"c; c #303a32",
"d; c #737371",
"e; c #7a7a78",
"f; c #383e3c",
"g; c #303936",
"h; c #2f342e",
"i; c #565855",
"j; c #504f54",
"k; c #59565d",
"l; c #515153",
"m; c #696768",
"n; c #939192",
"o; c #7d797a",
"p; c #858182",
"q; c #8c8887",
"r; c #afaeac",
"s; c #c6c5c3",
"t; c #d8d7d5",
"u; c #ebebe9",
"v; c #dadad8",
"w; c #626063",
"x; c #74727d",
"y; c #6e6a72",
"z; c #615b67",
"0A c #636069",
"1A c #69686e",
"2A c #a5a3a6",
"3A c #5f5d60",
"4A c #616066",
"5A c #696a6f",
"6A c #000302",
"7A c #5a605e",
"8A c #727270",
"9A c #5d5d5b",
":A c #4f5555",
";A c #575d5d",
"AA c #4f544e",
"BA c #51514f",
"CA c #626166",
"DA c #5e5d62",
"EA c #646265",
"FA c #918f90",
"GA c #9e9a99",
"HA c #8f8b8a",
"IA c #979392",
"JA c #cccbc7",
"KA c #e1e0dc",
"LA c #edece8",
"MA c #e1e0de",
"NA c #d8d8d8",
"OA c #757479",
"PA c #6d6a71",
"QA c #67646b",
"RA c #a7a6ac",
"SA c #828387",
"TA c #666769",
"UA c #484848",
"VA c #6a6a6a",
"WA c #717372",
"XA c #565857",
"YA c #515350",
"ZA c #747472",
"aA c #7a787b",
"bA c #858585",
"cA c #9a9899",
"dA c #a7a3a2",
"eA c #d3cfce",
"fA c #c5c1c0",
"gA c #cfcbca",
"hA c #d1d0ce",
"iA c #d9d8d6",
"jA c #c4c4c4",
"kA c #747378",
"lA c #797880",
"mA c #6f6c77",
"nA c #9b99a3",
"oA c #6c6972",
"pA c #706d74",
"qA c #a8a5ac",
"rA c #5f5e63",
"sA c #000004",
"tA c #6f6f71",
"uA c #747474",
"vA c #8c8c8c",
"wA c #939393",
"xA c #b1b1b1",
"yA c #d4d4d2",
"zA c #e7e6e4",
"0B c #efeeec",
"1B c #f4f2f3",
"2B c #e9e7e8",
"3B c #c4c3c1",
"4B c #b2b1af",
"5B c #a3a3a3",
"6B c #808082",
"7B c #3d3c42",
"8B c #85848c",
"9B c #6b6a6f",
":B c #747476",
";B c #737375",
"AB c #767477",
"BB c #757374",
"CB c #8c8e8d",
"DB c #8b8d8a",
"EB c #a3a3a1",
"FB c #d0d0ce",
"GB c #e1e3e0",
"HB c #e5e7e4",
"IB c #e4e6e5",
"JB c #dcdcdc",
"KB c #b1b3b0",
"LB c #b6b8b7",
"MB c #343436",
"NB c #444348",
"OB c #000005",
"PB c #868688",
"QB c #9e9e9e",
"RB c #989697",
"SB c #959394",
"TB c #929493",
"UB c #939592",
"VB c #949492",
"WB c #9d9d9b",
"XB c #d8dad7",
"YB c #d3d5d2",
"ZB c #bdbfbe",
"aB c #c6c8c7",
"bB c #626463",
"cB c #141517",
"dB c #727272",
"eB c #565752",
"fB c #3a3c39",
"gB c #757575",
"hB c #aeaeb0",
"iB c #aaa8ab",
"jB c #ababab",
"kB c #a7a7a5",
"lB c #888785",
"mB c #575654",
"nB c #626260",
"oB c #6b6b6b",
"pB c #403e43",
"qB c #8d8a93",
"rB c #333532",
"sB c #3d3f3e",
"tB c #595a5c",
"uB c #a4a3a8",
"vB c #9f9ea3",
"wB c #a4a4a6",
"xB c #9f9fa1",
"yB c #403e3f",
"zB c #413f42",
"0C c #3f3f3f",
"1C c #403f44",
"2C c #3d3d45",
"3C c #3f4045",
"4C c #313236",
"5C c #414045",
"                                                                                                ",
"                            5C4C3C2C                                                            ",
"                    1C0CzByBxBwBvBuBtBsBrB                                                      ",
"                qBpBoBnBmBlBkBjBiBhBgBfBeBdB                                                    ",
"                cBbBaBZBYBXBWBVBUBTBSBRBQBPBOB                                                  ",
"            NBMBLBKBJBIBHBGBFBEBDBCBBBAB;B:B9BOB  8B                                            ",
"          7B6B5B4B3B2B1B0BzAyAxAwAvAuAdBgB:BtAsArAqApA  oAnAmA                                  ",
"        lAkAjAiAhAgAfAgAeAdAcAbAaA:BZAYAXAWAVAUATASARAQAPAPA                                    ",
"        OANAMALAKAJAIAHAIAGAFAEADACABAAA;A:A9A8A7A6A5A4A3A2A1A0Az;y;x;                          ",
"      w;NAv;u;t;s;r;q;p;o;n;m;l;k;j;i;h;g;f;e;d;c;b;a;Z;Y;X;W;V;U;T;S;R;  Q;                    ",
"      EAP;O;P;N;M;L;K;J;I;l;H;G;F;E;D;C;B;A;;;:;9;8;7;6;l;5;4;3;EA2;1;0;z:                      ",
"    y:x:w:v:u:t:s:r:q:p:o:G;n:m:l:k:j:i:h:g:f:e:d:c:b:a:Z:Y:X:W:V:U:PAT:                        ",
"  S:R:Q:P:O:t:N:M:L:K:J:I:H:rBUBG:F:E:D:C:B:A:;:::9:8:7:6:5:4:3:2:1:0:z9y9  x9                  ",
"  w9v9u9t9s9r9ABq9p9o9n9m9l9k9j9LBi9h9g9f9e9d9c9b9a9Z9Y9X9W9V9U9T9bBS9R9Q9T;                    ",
"  3CP9O9N9M9:B;BZAL9K9J9I9H9G9F9E9D9C9B9A9;9:99989796959493929m91909z8y8x8                      ",
"  w8v8u8s::B:BgBt8s8J9r8q8p8o8n8m8l8k8j8i8h8g8f8e8d8c8b8a8Z8Y8BAX8W8V8U8                        ",
"  sAT8S8Y;R8BBQ8P8l;O8N9N8M8L8K8J8I8H8G8F8F8E8D8C8B8A8;8:898BA8878685848                        ",
"  382818085;z7Y8y7l;x7w7v7u7t7s7r7q7p7o7n7m7l7k7J9j7B8i7h7BAg7U:f7e7      d7                    ",
"  c7b7a7Z7Y7X7W7V75;U7T7S7R7Q7P7O7N7M7L7K7J7I7b:H7G7e9F7n:H:t8E7D7C7B7                          ",
"    A7;7:797877767574737271707z6O7y6x6w6v6u6t6s6r6q6p6b:l;o6n6:Bm6l6                            ",
"    k6j6i6h6g6f6Y8U:e6d6c6b6a6y6Z6Y6y6X6W6V6U6T6S6R6Q6P6O6N6M6  L6  K6                          ",
"      J6I6H6G6F6E6D6C6B6A617a6;6V6:696867666564636261606z5y5  x5  w5                            ",
"          v5u5t5s5r5e:q5p5a9o5n5n5m5Z6l5k5j5i5h5g5f5e5d5c5                                      ",
"          b5a5Z5Y57:X5W5V5U5T5S5R5Q5P5O5N5M5L5K5J5I5H5G5F5                                      ",
"                E5D5  C5B5A5;5:595S5:6j5i58575655545352515                                      ",
"                      05s8z4y4x4w4v4u4t4L5s4r4q4p4o4n4m4l4                                      ",
"                        k4j4i4h4g4f4e4d4c4b4a4Z4Y4X4W4V4U4T4                                    ",
"                                S4R4Q4P4O4N4M4L4K4J4I4H4G4F4                                    ",
"                                    E4D4C4B4A4;4:49484746454                                    ",
"                                        4434241404z3y3x3w3v3u3          t3s3                    ",
"                                          r3q3p3o3n3m3l3k3j3i3h3    g3f3e3d3c3                  ",
"                                            b3a3Z3Y3Y3l3X3W3V3U3T3S3R3Q3P3O3N3M3                ",
"                                            L3K3J3I3H3G3F3K4E3D3C3B3A3;3:39383736353            ",
"                                                    4333231303z2y2x2w2v2u2t2s2r2q2p2o2          ",
"                                                      n2m2l2k2j2i2h2g2f2e2d2c2b2a2Z2Y2X2        ",
"                                                      W2V2U2T2S2R2Q2P2O2N2e2M2L2K2J2I2H2        ",
"                                                        G2F2E2D2C2B2A2;2:2928272625242          ",
"                                                          32221202z1y1x1w1v1u1t1s1r1q1p1        ",
"                                                          o1n1m1l1k1j1i1h1g1f1e1d1c1b1a1Z1      ",
"                                                          Y1X1W1V1U1T1S1R1Q1P1O1N1M1L1K1J1I1    ",
"                                                          H1G1F1E1D1C1B1A1;1:191817161514131    ",
"                                                            211101z0y0x0w0v0u0E3t0s0r0q0p0o0    ",
"                                                            n0m0l0k0j0i0h0g0f0e0d0c0b0a0Z0Y0X0  ",
"                                                                  W0V0      U0b1T0S0R0Q0P0O0N0  ",
"                                                                                M0L0K0J0I0H0G0F0",
"                                                                                  E0D0C0B0A0;0:0",
"                                                                                    908070605040",
"                                                                                      F030201000"};
