/* XPM */
static char *image[] = {
"48 48 895 2",
"   c None",
"00 c #4d5053",
"10 c #424646",
"20 c #454949",
"30 c #46474d",
"40 c #4f5257",
"50 c #4f5154",
"60 c #424548",
"70 c #454448",
"80 c #47464a",
"90 c #4d5355",
":0 c #43494b",
";0 c #444649",
"A0 c #48474b",
"B0 c #4e5154",
"C0 c #434548",
"D0 c #4e5251",
"E0 c #454948",
"F0 c #343639",
"G0 c #33343c",
"H0 c #44474a",
"I0 c #bdc1c1",
"J0 c #bdbdbd",
"K0 c #9a9c9c",
"L0 c #bec0c1",
"M0 c #bcbebf",
"N0 c #c0bfc1",
"O0 c #bec0c0",
"P0 c #bbbdbd",
"Q0 c #bdbfc0",
"R0 c #bfbec0",
"S0 c #bdc0bd",
"T0 c #91929a",
"U0 c #45484b",
"V0 c #17191c",
"W0 c #16181b",
"X0 c #1f1e20",
"Y0 c #2a2a2a",
"Z0 c #31312f",
"a0 c #353835",
"b0 c #3c3f3c",
"c0 c #4e4c4d",
"d0 c #545452",
"e0 c #5e5e5e",
"f0 c #646464",
"g0 c #747375",
"h0 c #7c7c7c",
"i0 c #8b8b8b",
"j0 c #929292",
"k0 c #9d9b9a",
"l0 c #a1a19f",
"m0 c #a2a4a4",
"n0 c #a9abab",
"o0 c #aaaaaa",
"p0 c #afadae",
"q0 c #b0afb1",
"r0 c #b0afb3",
"s0 c #b1b0b4",
"t0 c #b2b1b5",
"u0 c #afb1b2",
"v0 c #919298",
"w0 c #000200",
"x0 c #020103",
"y0 c #010002",
"z0 c #232525",
"01 c #242327",
"11 c #2c2b2f",
"21 c #242626",
"31 c #474a47",
"41 c #434643",
"51 c #4f4f4f",
"61 c #929696",
"71 c #000007",
"81 c #010006",
"91 c #000000",
":1 c #252426",
";1 c #272727",
"A1 c #333333",
"B1 c #28272b",
"C1 c #242424",
"D1 c #333331",
"E1 c #464443",
"F1 c #474745",
"G1 c #4e514e",
"H1 c #464946",
"I1 c #4e5252",
"J1 c #45434a",
"K1 c #000005",
"L1 c #010004",
"M1 c #000003",
"N1 c #000001",
"O1 c #252521",
"P1 c #242420",
"Q1 c #2d2d29",
"R1 c #272725",
"S1 c #2c2a29",
"T1 c #252324",
"U1 c #262326",
"V1 c #2e2c2d",
"W1 c #4a4849",
"X1 c #464445",
"Y1 c #444444",
"Z1 c #454545",
"a1 c #464849",
"b1 c #0e0f15",
"c1 c #18191f",
"d1 c #1b1920",
"e1 c #1a191b",
"f1 c #1b191a",
"g1 c #1b1b19",
"h1 c #201e1b",
"i1 c #23211e",
"j1 c #242422",
"k1 c #252523",
"l1 c #2a2827",
"m1 c #2d2b2a",
"n1 c #312f2e",
"o1 c #3c3a3b",
"p1 c #403e3f",
"q1 c #444243",
"r1 c #464644",
"s1 c #464646",
"t1 c #464547",
"u1 c #494949",
"v1 c #4b4a4c",
"w1 c #4b4a4e",
"x1 c #4a494d",
"y1 c #46484b",
"z1 c #100e17",
"02 c #0e0c13",
"12 c #181719",
"22 c #1a1a1a",
"32 c #161819",
"42 c #1c1b1d",
"52 c #1e1e1e",
"62 c #222222",
"72 c #222425",
"82 c #323031",
"92 c #383637",
":2 c #3e3e3c",
";2 c #494947",
"A2 c #525051",
"B2 c #5a5859",
"C2 c #626260",
"D2 c #6d6d6b",
"E2 c #767674",
"F2 c #7f7f7f",
"G2 c #878787",
"H2 c #909090",
"I2 c #969696",
"J2 c #9f9f9f",
"K2 c #adadad",
"L2 c #aeb0b1",
"M2 c #b1b3b4",
"N2 c #b0b4b3",
"O2 c #bbbfbf",
"P2 c #e0e1e7",
"Q2 c #0f0d14",
"R2 c #111014",
"S2 c #19181a",
"T2 c #191919",
"U2 c #181818",
"V2 c #171919",
"W2 c #181a1a",
"X2 c #1d1d1b",
"Y2 c #232323",
"Z2 c #232526",
"a2 c #2b2a2c",
"b2 c #313032",
"c2 c #363636",
"d2 c #404040",
"e2 c #474747",
"f2 c #5c595c",
"g2 c #626262",
"h2 c #6c6c6a",
"i2 c #757573",
"j2 c #80807e",
"k2 c #868686",
"l2 c #8e8e8e",
"m2 c #979797",
"n2 c #a0a0a0",
"o2 c #a5a5a5",
"p2 c #a9a9a9",
"q2 c #acacac",
"r2 c #acaeaf",
"s2 c #adafb0",
"t2 c #afb1b1",
"u2 c #b0b2b2",
"v2 c #afb2af",
"w2 c #dcdee1",
"x2 c #2f2d34",
"y2 c #302f33",
"z2 c #2d2d2d",
"03 c #313131",
"13 c #323232",
"23 c #343434",
"33 c #353535",
"43 c #363634",
"53 c #373735",
"63 c #393939",
"73 c #3b3b3b",
"83 c #3d3d3d",
"93 c #3f3f3f",
":3 c #414141",
";3 c #444345",
"A3 c #474648",
"B3 c #49484a",
"C3 c #4c4c4c",
"D3 c #505050",
"E3 c #525250",
"F3 c #545454",
"G3 c #575658",
"H3 c #5b5a5c",
"I3 c #5d5d5d",
"J3 c #5f5f5f",
"K3 c #61615f",
"L3 c #636361",
"M3 c #656565",
"N3 c #666666",
"O3 c #6a6a6a",
"P3 c #6b6b6b",
"Q3 c #6c6c6c",
"R3 c #6d6d6d",
"S3 c #707070",
"T3 c #6e6c73",
"U3 c #6d6f72",
"V3 c #6e7073",
"W3 c #302f31",
"X3 c #c3c0c3",
"Y3 c #c5c5c3",
"Z3 c #c6c6c4",
"a3 c #e7e7e5",
"b3 c #e8e8e6",
"c3 c #eeedef",
"d3 c #f2f1f5",
"e3 c #484a4b",
"f3 c #c4c2c3",
"g3 c #c1c1c1",
"h3 c #c8c8c6",
"i3 c #cdcdcb",
"j3 c #d0d0ce",
"k3 c #d6d6d4",
"l3 c #d9d9d7",
"m3 c #d9d9d5",
"n3 c #dcdcda",
"o3 c #f1f1ef",
"p3 c #f0f2f2",
"q3 c #2e2d2f",
"r3 c #c5c2c5",
"s3 c #c4c1c4",
"t3 c #c9c9c7",
"u3 c #cacac8",
"v3 c #ccccca",
"w3 c #cececc",
"x3 c #cfcfcf",
"y3 c #d1d1cf",
"z3 c #d3d3d1",
"04 c #d5d5d3",
"14 c #d7d7d5",
"24 c #dadad8",
"34 c #e8e8e8",
"44 c #f1f3f3",
"54 c #717374",
"64 c #c1c3c4",
"74 c #c1c3c3",
"84 c #cbcbcb",
"94 c #e4e3e5",
":4 c #e9e9e7",
";4 c #eaeae8",
"A4 c #ededeb",
"B4 c #efefed",
"C4 c #fdfcfe",
"D4 c #fdfdfd",
"E4 c #fafcfd",
"F4 c #f6f8f9",
"G4 c #ecebef",
"H4 c #e6e5e9",
"I4 c #dfdde4",
"J4 c #d9d7de",
"K4 c #c3c2c6",
"L4 c #b7b5bc",
"M4 c #b3b2b6",
"N4 c #b6b5b9",
"O4 c #b7b6ba",
"P4 c #bab8bf",
"Q4 c #bdbcc0",
"R4 c #c1c0c4",
"S4 c #cccbcd",
"T4 c #d4d4d4",
"U4 c #e6e5e7",
"V4 c #f5f4f6",
"W4 c #faf9fd",
"X4 c #fefefe",
"Y4 c #2f2e32",
"Z4 c #727173",
"a4 c #757476",
"b4 c #323135",
"c4 c #50a6d2",
"d4 c #57a9d3",
"e4 c #9e9d9f",
"f4 c #767577",
"g4 c #333236",
"h4 c #55a6d2",
"i4 c #68b1d6",
"j4 c #6fb6d8",
"k4 c #63afd6",
"l4 c #5babd4",
"m4 c #7dbddc",
"n4 c #83c0dd",
"o4 c #a6d1e6",
"p4 c #b9daea",
"q4 c #bbdbec",
"r4 c #60aed5",
"s4 c #4fa5d0",
"t4 c #79787a",
"u4 c #353438",
"v4 c #60acd4",
"w4 c #92c5de",
"x4 c #a4cee4",
"y4 c #c5deec",
"z4 c #c6dfed",
"05 c #a3cee4",
"15 c #6bb3d7",
"25 c #54a7d2",
"35 c #c5e1ee",
"45 c #d2e6f1",
"55 c #ebf3f8",
"65 c #e2eef5",
"75 c #c7e0ee",
"85 c #84bfdd",
"95 c #57a7cf",
":5 c #7c7b7d",
";5 c #83bedc",
"A5 c #8bc2de",
"B5 c #a9d1e6",
"C5 c #dcebf3",
"D5 c #f0f6f9",
"E5 c #eff5f9",
"F5 c #eaf3f8",
"G5 c #d7eaf2",
"H5 c #a2cee5",
"I5 c #66b1d6",
"J5 c #55a9d3",
"K5 c #65b0d5",
"L5 c #d6e8f1",
"M5 c #e4eef5",
"N5 c #ebf3f7",
"O5 c #f7fafd",
"P5 c #fafcfe",
"Q5 c #f6fafc",
"R5 c #e1eff6",
"S5 c #8bc3de",
"T5 c #9b9a9e",
"U5 c #807f83",
"V5 c #39383c",
"W5 c #abd2e7",
"X5 c #c0dcec",
"Y5 c #cde3f0",
"Z5 c #f1f7f9",
"a5 c #fdfdff",
"b5 c #fcfefe",
"c5 c #d9e9f3",
"d5 c #71b6da",
"e5 c #7bbbdb",
"f5 c #94c6e0",
"g5 c #b8daea",
"h5 c #bfddeb",
"i5 c #e0edf4",
"j5 c #f2f7fa",
"k5 c #fbfdfe",
"l5 c #e0eef4",
"m5 c #8ec4df",
"n5 c #989a9a",
"o5 c #dfdfdd",
"p5 c #b7d8ea",
"q5 c #f3f7fb",
"r5 c #eef5f9",
"s5 c #89c2df",
"t5 c #6bb2d6",
"u5 c #75b7d8",
"v5 c #94c8de",
"w5 c #b3d8e8",
"x5 c #dceef4",
"y5 c #f6fafd",
"z5 c #fcfdfe",
"06 c #eff5f8",
"16 c #c2deeb",
"26 c #69b1d7",
"36 c #4fa5cf",
"46 c #999b9e",
"56 c #89888c",
"66 c #3f3e42",
"76 c #dddddb",
"86 c #e2e2e0",
"96 c #5faed6",
":6 c #d1e5f0",
";6 c #e9f2f7",
"A6 c #feffff",
"B6 c #ddedf5",
"C6 c #84c0de",
"D6 c #54a6d1",
"E6 c #5aaad3",
"F6 c #70b5d7",
"G6 c #97c9e3",
"H6 c #abd3e7",
"I6 c #c9e2ef",
"J6 c #e7f3f7",
"K6 c #f2f7fb",
"L6 c #f4f9fb",
"M6 c #ddedf3",
"N6 c #b8dbea",
"O6 c #9b9da0",
"P6 c #979999",
"Q6 c #908f93",
"R6 c #414044",
"S6 c #e1e1df",
"T6 c #dededc",
"U6 c #cfe4ef",
"V6 c #edf5f8",
"W6 c #fdfefe",
"X6 c #fdfeff",
"Y6 c #ffffff",
"Z6 c #fefeff",
"a6 c #f7fbfd",
"b6 c #95c9e2",
"c6 c #5babd2",
"d6 c #74b7d9",
"e6 c #85bfde",
"f6 c #78badb",
"g6 c #7bbcdb",
"h6 c #bfddee",
"i6 c #a7d2e8",
"j6 c #9ccce4",
"k6 c #81bfdd",
"l6 c #58aad4",
"m6 c #989a9d",
"n6 c #9c9e9e",
"o6 c #464549",
"p6 c #56a9d2",
"q6 c #c2deed",
"r6 c #e5f2f5",
"s6 c #f2f9fb",
"t6 c #f7fafc",
"u6 c #fafdfd",
"v6 c #f3f7fa",
"w6 c #e1eef5",
"x6 c #c0deec",
"y6 c #72b6d9",
"z6 c #55a7d2",
"07 c #52a8d2",
"17 c #5aabd4",
"27 c #5daed5",
"37 c #5fadd4",
"47 c #64afd4",
"57 c #64b0d5",
"67 c #54a9d2",
"77 c #9d9ca0",
"87 c #9e9da1",
"97 c #484749",
":7 c #a2cde4",
";7 c #d5e7f0",
"A7 c #f0f5f8",
"B7 c #f2f7f9",
"C7 c #d2e7f1",
"D7 c #a4cfe6",
"E7 c #65b0d6",
"F7 c #51a8d1",
"G7 c #6fb6da",
"H7 c #e5f1f8",
"I7 c #81bddc",
"J7 c #62add3",
"K7 c #5baad3",
"L7 c #a6a5a9",
"M7 c #4c4b4d",
"N7 c #71b7d8",
"O7 c #a5d0e5",
"P7 c #b0d5e7",
"Q7 c #9ccbe2",
"R7 c #6cb3d7",
"S7 c #acd5e8",
"T7 c #c3e0ed",
"U7 c #a5cfe5",
"V7 c #72b5d7",
"W7 c #50a5d1",
"X7 c #adacb0",
"Y7 c #504f51",
"Z7 c #e0e0e0",
"a7 c #63b0d6",
"b7 c #7fbddb",
"c7 c #68b1d5",
"d7 c #57aad2",
"e7 c #74b8d9",
"f7 c #87c1de",
"g7 c #a7d2e7",
"h7 c #97cae1",
"i7 c #91c7e1",
"j7 c #b5b4b8",
"k7 c #e0dfe1",
"l7 c #5cacd4",
"m7 c #65b1d5",
"n7 c #6eb6d8",
"o7 c #6cb4d7",
"p7 c #6ab3d7",
"q7 c #5fafd5",
"r7 c #bebdc1",
"s7 c #58575b",
"t7 c #51a7d2",
"u7 c #58abd2",
"v7 c #58abd3",
"w7 c #5cabd4",
"x7 c #94c8e1",
"y7 c #96cce4",
"z7 c #a5d2e6",
"08 c #52a7d1",
"18 c #61aed4",
"28 c #69b2d6",
"38 c #63aed5",
"48 c #57a8d2",
"58 c #c5c4c8",
"68 c #5b5a5e",
"78 c #50a7d2",
"88 c #74b7da",
"98 c #8ec6e1",
":8 c #b9d7ea",
";8 c #95c6e0",
"A8 c #79b8da",
"B8 c #75b6d9",
"C8 c #5dabd4",
"D8 c #51a6d1",
"E8 c #51a6d2",
"F8 c #999a9d",
"G8 c #cdccd0",
"H8 c #5e5d61",
"I8 c #5aabd5",
"J8 c #a3d0e6",
"K8 c #f6fafb",
"L8 c #e9f1f6",
"M8 c #cce2ee",
"N8 c #c8dfec",
"O8 c #b6d7e7",
"P8 c #aad1e3",
"Q8 c #a4cde4",
"R8 c #88c0de",
"S8 c #68afd6",
"T8 c #54a8d1",
"U8 c #91c6e1",
"V8 c #b4d7e9",
"W8 c #a0cde3",
"X8 c #8dc3de",
"Y8 c #9b9c9f",
"Z8 c #f4f4f4",
"a8 c #d5d4d6",
"b8 c #626165",
"c8 c #6db5d8",
"d8 c #acd4e8",
"e8 c #e0eef5",
"f8 c #dfedf3",
"g8 c #d4e6f0",
"h8 c #dbe9f0",
"i8 c #dbeaf0",
"j8 c #d1e5ef",
"k8 c #c3deed",
"l8 c #9ccbe4",
"m8 c #64afd5",
"n8 c #7ebcdc",
"o8 c #9acae1",
"p8 c #b6d7ea",
"q8 c #bbdceb",
"r8 c #a9d2e6",
"s8 c #a0cee5",
"t8 c #8ec3de",
"u8 c #77b9db",
"v8 c #79bbdb",
"w8 c #6bb4d8",
"x8 c #73b6d8",
"y8 c #5babd3",
"z8 c #4ea6d1",
"09 c #646365",
"19 c #72b8db",
"29 c #afd6e8",
"39 c #d7e9f1",
"49 c #d8e8f0",
"59 c #e0ecf4",
"69 c #eaf3f7",
"79 c #e7f1f9",
"89 c #b8d9ea",
"99 c #81bcda",
":9 c #62add4",
";9 c #59aad2",
"A9 c #5aacd4",
"B9 c #69b3d6",
"C9 c #70b6d9",
"D9 c #7ebedc",
"E9 c #d7ebf2",
"F9 c #ddeff5",
"G9 c #def0f6",
"H9 c #d8ebf4",
"I9 c #c8e3ef",
"J9 c #aad4e6",
"K9 c #badaeb",
"L9 c #85bfdc",
"M9 c #656466",
"N9 c #5faed5",
"O9 c #a5d0e4",
"P9 c #a4d0e4",
"Q9 c #daecf4",
"R9 c #d9eaf4",
"S9 c #b5d7e9",
"T9 c #90c4df",
"U9 c #7dbcda",
"V9 c #6cb3d6",
"W9 c #58a9d3",
"X9 c #53a6d1",
"Y9 c #57abd2",
"Z9 c #5cabd2",
"a9 c #7fbddc",
"b9 c #c1dfec",
"c9 c #cde5f0",
"d9 c #d1e7f0",
"e9 c #e5f2f6",
"f9 c #ecf4f7",
"g9 c #bcdceb",
"h9 c #7cbddc",
"i9 c #59abd3",
"j9 c #69686a",
"k9 c #e2e1e5",
"l9 c #53a9d3",
"m9 c #5eaed5",
"n9 c #5dacd6",
"o9 c #65b1d6",
"p9 c #6fb5d9",
"q9 c #94c7e0",
"r9 c #bddaec",
"s9 c #c7e1ee",
"t9 c #b3d6e9",
"u9 c #94c6e2",
"v9 c #71b6d9",
"w9 c #53a7d1",
"x9 c #56aad3",
"y9 c #68b3d6",
"z9 c #91c6df",
"0: c #aed5e7",
"1: c #bdddeb",
"2: c #d1e6f2",
"3: c #e9f4f8",
"4: c #f1f7fa",
"5: c #99cbe3",
"6: c #5aacd2",
"7: c #9b9a9c",
"8: c #ecebed",
"9: c #dedde1",
":: c #59abd4",
";: c #eef6fa",
"A: c #cee6f1",
"B: c #a9d2e8",
"C: c #81bfdc",
"D: c #67b1d6",
"E: c #60add5",
"F: c #59aad3",
"G: c #55a8d2",
"H: c #72b7d8",
"I: c #a8d2e6",
"J: c #d8e9f3",
"K: c #aed5e8",
"L: c #7bbadc",
"M: c #57aad3",
"N: c #53a9d2",
"O: c #60add4",
"P: c #67b2d6",
"Q: c #75b8da",
"R: c #6bb3d8",
"S: c #5cacd5",
"T: c #a5d3e7",
"U: c #daecf5",
"V: c #edf6fa",
"W: c #62b0d6",
"X: c #9c9b9d",
"Y: c #f2f2f0",
"Z: c #59aad4",
"a: c #ebf4fa",
"b: c #d6e9f4",
"c: c #c4e0ee",
"d: c #84c0dd",
"e: c #6fb5d8",
"f: c #61afd5",
"g: c #52a6d1",
"h: c #56a9d3",
"i: c #50a7d1",
"j: c #53a7d2",
"k: c #53a8d2",
"l: c #51a7d1",
"m: c #4fa7d1",
"n: c #4fa6d1",
"o: c #f3f3f1",
"p: c #6c6b6d",
"q: c #bebebe",
"r: c #dddcde",
"s: c #52a7d2",
"t: c #d7eaf4",
"u: c #dfeef5",
"v: c #eaf4fa",
"w: c #b0d5e8",
"x: c #80bddc",
"y: c #5eadd4",
"z: c #4fa5d1",
"0; c #f4f4f2",
"1; c #f6f5f7",
"2; c #6d6c6e",
"3; c #dedede",
"4; c #dddddd",
"5; c #5bacd4",
"6; c #66b1d7",
"7; c #5aadd5",
"8; c #54a8d2",
"9; c #50a6d1",
":; c #9a999b",
";; c #9e9e9e",
"A; c #999999",
"B; c #f9f8fa",
"C; c #6c6e6f",
"D; c #dfdee0",
"E; c #dcdedf",
"F; c #4ea5d1",
"G; c #9d9c9e",
"H; c #6d6f70",
"I; c #bdbfbf",
"J; c #e2e1e3",
"K; c #dbdddd",
"L; c #dfe1e1",
"M; c #4da5d1",
"N; c #9b9b9b",
"O; c #9d9d9d",
"P; c #9a9a9a",
"Q; c #9c9c9c",
"R; c #fbfafe",
"S; c #6e6d6f",
"T; c #8f8f8f",
"U; c #8c8b8d",
"V; c #858585",
"W; c #797979",
"X; c #59585a",
"Y; c #454446",
"Z; c #37363a",
"a; c #282729",
"b; c #17161a",
"c; c #1c1b1f",
"d; c #1d1c20",
"e; c #1f1e22",
"f; c #201f23",
"g; c #1e1d21",
"h; c #1b1a1e",
"i; c #18171b",
"j; c #19181c",
"k; c #1a191d",
"l; c #1e1d1f",
"m; c #252428",
"n; c #2f2e30",
"o; c #3c3b3f",
"p; c #4a494b",
"q; c #545355",
"r; c #5e5d5f",
"s; c #686769",
"t; c #6e6e6e",
"u; c #727272",
"v; c #717171",
"w; c #f4f3f5",
"x; c #706f71",
"y; c #bfbfbf",
"z; c #c3c3c1",
"0A c #c2c1c3",
"1A c #c7c7c7",
"2A c #c9c9c9",
"3A c #cdcdcd",
"4A c #d0d0d0",
"5A c #d2d2d2",
"6A c #d5d5d5",
"7A c #d7d7d7",
"8A c #d9d9d9",
"9A c #dcdcdc",
":A c #e2e2e2",
";A c #e4e4e4",
"AA c #e9e9e9",
"BA c #6f6e70",
"CA c #c0c0c0",
"DA c #c4c4c2",
"EA c #c2c2c0",
"FA c #c4c4c4",
"GA c #c6c6c6",
"HA c #c8c8c8",
"IA c #cacaca",
"JA c #cccccc",
"KA c #cecece",
"LA c #d1d1d1",
"MA c #d3d3d3",
"NA c #d6d6d6",
"OA c #d8d8d8",
"PA c #dfdfdf",
"QA c #e1e1e1",
"RA c #e3e3e3",
"SA c #e5e5e5",
"TA c #e6e6e6",
"UA c #e7e7e7",
"VA c #eaeaea",
"WA c #ebebeb",
"XA c #ededed",
"YA c #efefef",
"ZA c #f3f3f3",
"aA c #f2f2f2",
"bA c #f1f1f1",
"cA c #fffeff",
"dA c #706f73",
"eA c #bebdbf",
"fA c #c1c0c2",
"gA c #c3c3c3",
"hA c #c5c5c5",
"iA c #c2c2c2",
"jA c #c3c2c4",
"kA c #c4c3c5",
"lA c #c5c4c6",
"mA c #c7c6c8",
"nA c #c9c8ca",
"oA c #c8c7c9",
"pA c #cac9cb",
"qA c #cdccce",
"rA c #cecdcf",
"sA c #cfced0",
"tA c #d1d0d2",
"uA c #d2d1d3",
"vA c #d6d5d7",
"wA c #d8d7d9",
"xA c #dad9db",
"yA c #dcdbdd",
"zA c #dedddf",
"0B c #e1e0e2",
"1B c #e3e2e4",
"2B c #e5e4e6",
"3B c #e7e6e8",
"4B c #e8e7e9",
"5B c #eae9eb",
"6B c #ebeaec",
"7B c #ececec",
"8B c #edecee",
"9B c #eeeeee",
":B c #efeef0",
";B c #f0f0f0",
"AB c #f0eff1",
"BB c #f2f1f3",
"CB c #f1f0f2",
"DB c #fdfcff",
"EB c #707177",
"FB c #707275",
"GB c #737276",
"HB c #747377",
"IB c #707273",
"JB c #727477",
"KB c #737578",
"LB c #747679",
"MB c #7a797d",
"NB c #7b7a7e",
"OB c #7e7d81",
"PB c #838286",
"QB c #858488",
"RB c #88878b",
"SB c #8d8c90",
"TB c #929195",
"UB c #97969a",
"VB c #9c9b9f",
"WB c #a2a1a5",
"XB c #a9a8ac",
"YB c #afaeb2",
"ZB c #b4b3b7",
"aB c #bbbabe",
"bB c #c0bfc3",
"cB c #c7c6ca",
"dB c #cccbcf",
"eB c #d3d2d6",
"fB c #d9d8dc",
"gB c #dcdbdf",
"hB c #e0dfe3",
"iB c #e5e4e8",
"jB c #e9e8ec",
"kB c #edecf0",
"lB c #efeef2",
"mB c #f3f2f4",
"nB c #f6f5f9",
"oB c #f8f7f9",
"pB c #f9f8fc",
"qB c #fbfafc",
"rB c #fcfbff",
"sB c #fbfdff",
"tB c #fdffff",
"uB c #fefdff",
"vB c #fffdff",
"wB c #fbfcff",
"xB c #fcfdff",
"xBwBvBuBtBtBsBsBrBqBpBoBnBmBlBkBjBiBhBgBfBeBdBcBbBaBZBYBXBWBVBUBTBSBRBQBPBOBNBMBLBKBJBIBHBGBFBEB",
"DBCBCBCBBBABBBCBBB;B:B9B8B7B6B5B4B3B2B1B0BzAyAxAwAvAuAtAsArAqApAoAnAmAlAkAkAkAjAkAiAhAgAfAkAeAdA",
"cAmBbAaAbAZAbA;BYAYAYAYA9BXAWAVAUATASARAQAPAyAxAOANAMALAKAJAJAIAHAGAhAhAGAhAFAgAgAiAEADAgAgACABA",
"DBmB;BaA;B;BBBmBbA;BYA9BXA7BWAVAAAUA;A:AQAPA9A8A7A6A5ALA4AKA3AIAHA2A1AFAgAFAFAgA0AhAz;EAgAgAy;x;",
"uBw;v;v;u;t;s;r;q;p;o;n;m;l;k;j;i;h;g;f;f;e;d;c;k;j;j;h;d;e;f;g;d;i;b;k;e;a;Z;Y;X;s;W;V;U;T;y;S;",
"R;mBQ;P;O;N;M;M;M;M;M;M;M;M;M;M;M;M;M;M;M;M;M;M;M;M;M;M;M;M;M;M;M;M;M;M;M;M;M;M;M;M;L;K;J;PAI;H;",
"qBZAP;O;P;G;M;M;M;M;M;M;M;M;M;M;M;M;M;M;M;M;M;M;M;M;M;M;M;M;M;M;M;M;M;M;F;M;M;M;M;M;E;L;D;QAI;C;",
"B;ZAO;A;;;:;M;M;M;M;M;M;M;M;M;M;M;M;M;M;M;M;M;M;M;M;M;M;M;M;M;M;M;9;8;7;6;5;F;M;M;M;0B4;QA3;y;2;",
"1;0;P;O;P;G;M;M;M;M;M;M;M;M;M;M;M;M;M;M;M;M;M;M;M;M;M;M;M;F;M;z:y:x:w:v:u:t:s:M;M;M;r:QA3;:Aq:p:",
"w;o:Q;A;;;:;M;M;M;M;M;M;M;M;M;M;M;z:n:m:n:9;l:F;M;F;k:j:i:h:g:h:f:e:d:c:b:a:Z:M;M;M;0B4;QA3;y;p:",
"CBY:P;;;P;X:M;M;M;M;M;M;F;W:V:U:T:S:R:Q:P:O:N:z:M:L:K:J:I:H:G:F:E:D:C:B:A:;:::M;M;M;9:QA3;:Ay;s;",
"8:ZAQ;A;;;7:M;M;M;M;M;M;6:5:4:3:2:1:0:z9y9x9n:w9v9u9t9s9r9q9p9o98;F;z:n9m9l9F;M;M;M;k93;QA3;q:j9",
"3BZAP;O;A;G;M;M;M;M;M;i9h9g9f9e9d9c9b9a9Z9Y9X9W9V9U9T9S9R9Q9P9O9R:N9M:M;M;M;M;M;M;M;9:QA4;:Ay;M9",
"0BaAO;A;;;:;M;M;M;n:O:L9K9J9I9H9G9F9E9D9C9B9A9;9:99989796959493929d:19n:M;M;M;M;M;M;k93;QA3;y;09",
"r:ZAP;O;P;G;M;M;z8y8x8w8v8u8t8s8r8q8p8o8n8f:z8j:m8l8k8j8i8h8g8f8e8d8c8z8M;M;M;M;M;M;9:QA3;:Aq:b8",
"a8Z8P;O;N;Y8M;F;s:G:w9z8s:i9P:X8W8V8U8y:l:M;F;T8S8R8Q8P8O8N8M8L8K8J8I8M;M;M;M;M;M;M;9:QA3;QAy;H8",
"G8bAO;P;O;F8M;M;M;M;M;M;M;M;9;g:E8F;M;M;M;M;D8C8p9B8A8;8Q8:89888v9P:78M;F;M;M;M;M;M;hB3;QA3;CA68",
"58ZAN;O;P;G;M;M;M;M;M;M;M;M;M;M;M;M;M;M;M;9;4838281808z7y7x7w7v7u79;z8s:t7M;M;M;M;M;9:QA3;QAq:s7",
"r7ZAQ;A;O;X:M;M;M;M;M;M;M;M;M;M;M;M;M;M;q7p7o7n7m708M;M;M;M;M;M;F;9;l7S:9;M;M;M;M;M;k7PAQAPACAq;",
"j7ZA7:7:Q;G;M;M;M;M;M;M;M;M;M;M;M;M;i:i7h7g7f7e7d7M;M;M;M;M;M;M;g:c7b7a7F;M;M;M;M;M;D;PAPAZ7y;Y7",
"X7ZAG;:;O;:;M;M;M;M;M;M;M;M;M;M;M;W7O:V7U7T7S7R:9;M;M;M;M;F;s:R7Q7P7O7N7j:F;M;M;M;M;0B3;QAPACAM7",
"L7ZAG;7:Q;:;M;M;M;M;M;F;M;M;M;M;9;K7J7I7q8H7G7F7M;M;M;n:E7L:D7C7B7A7;7:78;M;M;M;M;M;k73;QAPAy;97",
"87aA:;G;P;77M;M;M;l:y:a7y:6708w7574737271707z:M;M;M;z6y6x6w6v6u6t6s6r6q6p6M;M;M;M;M;zAZ7PAQAq:o6",
"UBZAQ;P;n6m6M;M;l6k6j6i6h6g6f6e6d6f:j:M;M;M;M;M;M;c6b6C7a6Z6Y6Y6X6W6V6U6::M;M;M;M;M;0BT6S6T6CAR6",
"Q6ZAA;;;P6O6M;9;N6M6L6K6J6I6H6G6F6E6D608s:z:M;M;t7C6B6Z6Y6Y6Y6Y6Y6A6;6:696M;M;M;M;M;zA8676S6q:66",
"56aAO;A;n64636261606z5X6y5x5w5v5u5t518y8D8M;M;M;t7s5r5Y6Y6Y6Y6Y6Y6q539p5G:M;M;M;M;M;k77686o5q:o;",
"QBZAN;O;n5O6g:m5l5sBX6k5j5i5h5g5f5e5E6l:M;M;M;M;z:d5c5a6b5a5Y6X6Z5Y5X5W578M;M;M;M;M;zAS6T6S6y;V5",
"U5ZAQ;A;;;T5z6S5R5Q5P5O5N5M5L5h7K5k:F;M;M;M;F;n:J5I5H5G5F5E5D5C5B5A5;5p7t7M;M;M;M;M;k74;:APAq:Z;",
":5ZAP;;;A;G;95857565j5554535D9W9M;M;M;M;M;l:25;915n805z4y4x4w4b7v4j:x99;M;M;M;M;M;M;D;QA4;QAy;u4",
"t4aAG;:;;;:;s4r4q4p4o4n4m496M;M;M;M;M;M;M;z:9;X9l4k4j4i4h49;W7F;M;M;M;M;M;M;M;M;M;M;0B4;:A3;CAg4",
"f4ZA:;e4A;e4M;M;n:d4J508c4M;M;M;M;M;M;M;M;M;M;M;M;M;M;M;M;M;M;M;M;M;M;M;M;M;M;M;M;M;zAQA3;QAy;b4",
"a4ZAG;:;;;7:M;M;M;M;M;M;M;M;M;M;M;M;M;M;M;M;M;M;M;M;M;M;M;M;M;M;M;M;M;M;M;M;M;M;M;M;k73;:A4;CAb4",
"Z4aA:;G;P;O;M;M;M;M;M;M;M;M;M;M;M;M;M;M;M;M;M;M;M;M;M;M;M;M;M;M;M;M;M;M;M;M;M;M;M;M;D;QA3;:Ay;Y4",
"Z4Z8uBcAX4X4DBW4B;V4CB8:U4PAOAT4S4cBR4Q4P4O4N4j7ZBM4j7L4P4r7K4mArAeBJ4I4H4G4BBV4F4E4D4D4C4k7q:Y4",
"Z4aACBCBaAbACBmB;BB49B9B9BA4;4:4AATA941BJ;D;9A8A8ANAMA5AsA3A84IA1A1AmAlAkAkAFAgA7464iAgAkA0ACAY4",
"5444mB:BbAbAABAB;BYAYAYA9BXAWAVA34UA94J;0BPA76241404z3y3x3w3v3u3t32A1AlAkAlAFAgAFAgAFAiAs3r3y;q3",
"54p3lBmB;Bo3aACB;B;BYA9B8B8:VAVAUAUATA1B0BPAn3m3l3k3z3j3KAi3v3u3t3h31AhAkAkAFAgAgAg3iAgAs3f3CAn;",
"e344d3ABaAY:;BaA;B;BYA9Bc38:WAVAb3a3SA1B0BD;9A24OA6AMA5AsAKAJAIAHA1AZ3Y3FAFAFAFAz;DAFAgAX3f3y;W3",
"V3U3T3dABAt;S3R3R3Q3P3O3j9s;N3M3L3K3J3I3H3G3F3E3D3C3B3A3;3:39383736353433323130303z2n;n;y2Y4W3x2",
"          w2n6v2u2u2u2t2s2r2q2p2o2n2Q;m2l2k2j2i2h2g2f2Y7e2d2c2b2a2Z2Y2X2W2V2U2T2S2R2Q2          ",
"          P2O2N2u2u2M2L2s2s2K2p2o2J2O;I2H2G2F2E2D2C2B2A2;2:29282a272625242322212i;02z1          ",
"            P2y1x1B3w1v1p;u1t1u1s1r1q1p1p1o1929282n1m1l1k1j1i1h1X2g1f1S212e1i;d1c1b1            ",
"                        o697t1a1Z1r1Y1u1X1W1V1U1U1T1S1j1R1j1Q1P1O1k1N1M1L1K1                    ",
"                          J1y1I1A3Z1H1G1F1E1D1C1m;B1A1;1:1a;D1k191N18171K1                      ",
"                              61P;514131r1j1k1211101z091y0x091w091                              ",
"          v0u0M2t0s0r0q0p0o0n0m0l0k0m2j0i0k2h0g02;f0e0d0c0Z1b0a0Z0Y07272l;X0c;j;W0V0U0          ",
"        T0tBI;S0y;R0Q0y;y;g3P0O0CAq:R0Q0N0N0M0L0M0O0q:y;q:CAI;O0q:CAO0K0Q0L0J0O0Q0M0I0H0        ",
"        G0F0E0D0a1C0U0B0A0;0:0908070U0B0y1C0U0B0H060y150y1C0U04030C020I1U060a1D020102000        "};
