/* XPM */
static char *image[] = {
"64 64 160 2",
"   c None",
"00 c #7d7d7d",
"10 c #7b7b7b",
"20 c #eeeeee",
"30 c #b1b1b1",
"40 c #ececec",
"50 c #ebebeb",
"60 c #eaeaea",
"70 c #e8e8e8",
"80 c #e7e7e7",
"90 c #e6e6e6",
":0 c #e5e5e5",
";0 c #e3e3e3",
"A0 c #797979",
"B0 c #8a8a8a",
"C0 c #858585",
"D0 c #919191",
"E0 c #e0e0e0",
"F0 c #e2e2e2",
"G0 c #d1d1d1",
"H0 c #7e7e7e",
"I0 c #3d3d3d",
"J0 c #666666",
"K0 c #afafaf",
"L0 c #e1e1e1",
"M0 c #787878",
"N0 c #2f2f2f",
"O0 c #dfdfdf",
"P0 c #525252",
"Q0 c #1c1c1c",
"R0 c #707070",
"S0 c #dedede",
"T0 c #777777",
"U0 c #3c3c3c",
"V0 c #696969",
"W0 c #dddddd",
"X0 c #545454",
"Y0 c #6f6f6f",
"Z0 c #414141",
"a0 c #252525",
"b0 c #939393",
"c0 c #d5d5d5",
"d0 c #717171",
"e0 c #606060",
"f0 c #191919",
"g0 c #161616",
"h0 c #bababa",
"i0 c #969696",
"j0 c #464646",
"k0 c #9a9a9a",
"l0 c #a0a0a0",
"m0 c #cbcbcb",
"n0 c #636363",
"o0 c #434343",
"p0 c #3f3f3f",
"q0 c #626262",
"r0 c #868686",
"s0 c #aaaaaa",
"t0 c #d2d2d2",
"u0 c #6d6d6d",
"v0 c #4c4c4c",
"w0 c #090909",
"x0 c #323232",
"y0 c #0a0a0a",
"z0 c #313131",
"01 c #353535",
"11 c #dadada",
"21 c #5b5b5b",
"31 c #838383",
"41 c #737373",
"51 c #7a7a7a",
"61 c #3b3b3b",
"71 c #262626",
"81 c #878787",
"91 c #565656",
":1 c #9f9f9f",
";1 c #3e3e3e",
"A1 c #727272",
"B1 c #1a1a1a",
"C1 c #959595",
"D1 c #9b9b9b",
"E1 c #8d8d8d",
"F1 c #393939",
"G1 c #b5b5b5",
"H1 c #747474",
"I1 c #a8a8a8",
"J1 c #515151",
"K1 c #686868",
"L1 c #c4c4c4",
"M1 c #454545",
"N1 c #c1c1c1",
"O1 c #dbdbdb",
"P1 c #181818",
"Q1 c #2b2b2b",
"R1 c #b6b6b6",
"S1 c #6c6c6c",
"T1 c #060606",
"U1 c #c8c8c8",
"V1 c #050505",
"W1 c #c0c0c0",
"X1 c #020202",
"Y1 c #cfcfcf",
"Z1 c #303030",
"a1 c #616161",
"b1 c #5d5d5d",
"c1 c #d6d6d6",
"d1 c #a6a6a6",
"e1 c #adadad",
"f1 c #d3d3d3",
"g1 c #1b1b1b",
"h1 c #0e0e0e",
"i1 c #6e6e6e",
"j1 c #b2b2b2",
"k1 c #2e2e2e",
"l1 c #b4b4b4",
"m1 c #141414",
"n1 c #4e4e4e",
"o1 c #cdcdcd",
"p1 c #5f5f5f",
"q1 c #272727",
"r1 c #a7a7a7",
"s1 c #c2c2c2",
"t1 c #7c7c7c",
"u1 c #373737",
"v1 c #101010",
"w1 c #010101",
"x1 c #000000",
"y1 c #030303",
"z1 c #202020",
"02 c #424242",
"12 c #646464",
"22 c #8e8e8e",
"32 c #d9d9d9",
"42 c #d8d8d8",
"52 c #c7c7c7",
"62 c #d7d7d7",
"72 c #dcdcdc",
"82 c #767676",
"92 c #8e0d0d",
":2 c #7c4848",
";2 c #d00000",
"A2 c #984444",
"B2 c #d51e1e",
"C2 c #995252",
"D2 c #845353",
"E2 c #db3b3b",
"F2 c #825252",
"G2 c #e05959",
"H2 c #e67676",
"I2 c #d08383",
"J2 c #eb9494",
"K2 c #e69797",
"L2 c #f1b1b1",
"M2 c #d8acac",
"N2 c #8b7f7f",
"O2 c #aa9999",
"P2 c #a99898",
"Q2 c #a99999",
"R2 c #a69797",
"S2 c #897f7f",
"                                                                                                                                ",
"                                                                                                                                ",
"                                                                                                                                ",
"                                                                                                                                ",
"                  S2R2Q2P2O2O2O2O2O2O2O2O2O2O2O2O2O2O2O2O2O2O2O2O2O2O2O2O2O2O2O2O2O2O2O2O2O2O2O2O2O2O2P2Q2R2N2                  ",
"              M2L2L2L2L2L2L2L2L2L2L2L2L2L2L2L2L2L2L2L2L2L2L2L2L2L2L2L2L2L2L2L2L2L2L2L2L2L2L2L2L2L2L2L2L2L2L2L2L2M2              ",
"            K2J2J2J2J2J2J2J2J2J2J2J2J2J2J2J2J2J2J2J2J2J2J2J2J2J2J2J2J2J2J2J2J2J2J2J2J2J2J2J2J2J2J2J2J2J2J2J2J2J2J2K2            ",
"          I2H2H2H2H2H2H2H2H2H2H2H2H2H2H2H2H2H2H2H2H2H2H2H2H2H2H2H2H2H2H2H2H2H2H2H2H2H2H2H2H2H2H2H2H2H2H2H2H2H2H2H2H2I2          ",
"          G2G2G2G2G2G2G2G2G2G2G2G2G2G2G2G2G2G2G2G2G2G2G2G2G2G2G2G2G2G2G2G2G2G2G2G2G2G2G2G2G2G2G2G2G2G2G2G2G2G2G2G2G2G2          ",
"        F2E2E2E2E2E2E2E2E2E2E2E2E2E2E2E2E2E2E2E2E2E2E2E2E2E2E2E2E2E2E2E2E2E2E2E2E2E2E2E2E2E2E2E2E2E2E2E2E2E2E2E2E2E2E2D2        ",
"        C2B2B2B2B2B2B2B2B2B2B2B2B2B2B2B2B2B2B2B2B2B2B2B2B2B2B2B2B2B2B2B2B2B2B2B2B2B2B2B2B2B2B2B2B2B2B2B2B2B2B2B2B2B2B2C2        ",
"        A2;2;2;2;2;2;2;2;2;2;2;2;2;2;2;2;2;2;2;2;2;2;2;2;2;2;2;2;2;2;2;2;2;2;2;2;2;2;2;2;2;2;2;2;2;2;2;2;2;2;2;2;2;2;2A2        ",
"        :2929292929292929292929292929292929292929292929292929292929292929292929292929292929292929292929292929292929292:2        ",
"        8272727272727272727272727272727272727272727272727272727272727272727272727272727272727272727272727272727272727282        ",
"        8272727272727272727272727272727272727272727272727272727272727272727272727272727272727272727272727272727272727282        ",
"        8272727272727272727272727272727272727272727272727272727272727272727272727272727272727272727272727272727272727282        ",
"        8272727272727272727272727272727272727272727272727272727272727272727272727272727272727272727272727272727272727282        ",
"        8272727272727272727272727272727272727272727272727272726252427272727272727272727272727272727272727272727272727282        ",
"        8272727272727272727272727272727272727272727232221202z1y1x1w1v1u1t1s172727272727272727272727272727272727272727282        ",
"        827272727272727272727272727272727272727272r1q1x1x1x1x1x1x1x1x1x1x1y1p1o17272727272727272727272727272727272727282        ",
"        8272727272727272727272727272727272727252n1x1x1x1x1x1x1x1x1x1x1x1x1x1x1m1l172727272727272727272727272727272727282        ",
"        82727272727272727272727272727272727232k1x1x1x1x1x1x1x1x1x1x1x1x1x1x1x1x1v1j1727272727272727272727272727272727282        ",
"        827272727272727272727272727272727272i1x1x1x1x1x1x1x1x1y1h1x1x1x1x1x1x1x1x1g1f17272727272727272727272727272727282        ",
"        8272727272727272727272727272727272e1y1x1x1x1x1x1x1z1d1c172s1b1x1x1x1x1x1x1x1a17272727272727272727272727272727282        ",
"        8272727272727272727272727272727272Z1x1x1x1x1x1x1v1Y1727272727212x1x1x1x1x1x1X1W172727272727272727272727272727282        ",
"        8272727272727272727272727272727232V1x1x1x1x1x1x1i1727272727272U1T1x1x1x1x1x1x1S172727272727272727272727272727282        ",
"        82727272727272727272727272727272R1x1x1x1x1x1x1x1r172727272727272Q1x1x1x1x1x1x1P1O1727272727272727272727272727282        ",
"        8272727272727272727272727272727222x1x1x1x1x1x1x1N172727272727272M1x1x1x1x1x1x1x1L1727272727272727272727272727282        ",
"        82727272727272727272727272727272K1x1x1x1x1x1x1x1o172727272727272J1x1x1x1x1x1x1x1I1727272727272727272727272727282        ",
"        82727272727272727272727272727272H1x1x1x1x1x1x1x1G172727272727272F1x1x1x1x1x1x1x1E1727272727272727272727272727282        ",
"        82727272727272727272727272727272D1x1x1x1x1x1x1x1C172727272727272B1x1x1x1x1x1x1x1A1727272727272727272727272727282        ",
"        82727272727272727272727272727272s1x1x1x1x1x1x1x1;1727272727272:1x1x1x1x1x1x1x1x191727272727272727272727272727282        ",
"        8272727272727272727272727272727272h1x1x1x1x1x1x1x18172727272s171x1x1x1x1x1x1x1x161727272727272727272727272727282        ",
"        827272727272727272727272727272727251x1x1x1x1x1x1x1x1;1413121v1x1x1x1x1x1x1x1x1x1q1727272727272727272727272727282        ",
"        82727272727272727272727272727272721101x1x1x1x1x1x1x1x1x1x1x1x1x1x1x1x1x1x1x1x1x1z0727272727272727272727272727282        ",
"        827272727272727272727272727272727272W1y0x1x1x1x1x1x1x1x1x1x1x1x1x1x1x1x1x1x1x1x1;1727272727272727272727272727282        ",
"        82727272727272727272727272727272727272l1x0x1x1x1x1x1x1x1x1x1x1x1w1w0x1x1x1x1x1x1v0727272727272727272727272727282        ",
"        8272727272727272727272727272727272727272O181v1x1x1x1x1x1x1x1x1M1G1z1x1x1x1x1x1x1u0727272727272727272727272727282        ",
"        82727272727272727272727272727272727272727272t0s0r0q0p0o0n031l172m0x1x1x1x1x1x1x1l0727272727272727272727272727282        ",
"        8272727272727272727272727272727272727272727272727272727272727272k0x1x1x1x1x1x1y1t0727272727272727272727272727282        ",
"        8272727272727272727272727272727272727272727272727272727272727272j0x1x1x1x1x1x1F172727272727272727272727272727282        ",
"        82727272727272727272727272727272727272727272727272727272727272i0x1x1x1x1x1x1x1C172727272727272727272727272727282        ",
"        827272727272727272727272727272727272m07272727272727272727272h0g0x1x1x1x1x1x1f03272727272727272727272727272727282        ",
"        827272727272727272727272727272727272e0z1d0N1727272727272c0S1V1x1x1x1x1x1x1x1b07272727272727272727272727272727282        ",
"        827272727272727272727272727272727272n0V1V1T1a0Z0b1Y0X0x0v1V1V1V1V1V1V1V1V191727272727272727272727272727272727282        ",
"        82W0W0W0W0W0W0W0W0W0W0W0W0W0W0W0W0W0V0v1v1v1v1v1v1v1v1v1v1v1v1v1v1v1v1v1U0f1W0W0W0W0W0W0W0W0W0W0W0W0W0W0W0W0W082        ",
"        T0S0S0S0S0S0S0S0S0S0S0S0S0S0S0S0S0S0R0Q0Q0Q0Q0Q0Q0Q0Q0Q0Q0Q0Q0Q0Q0Q0Q0P0c1S0S0S0S0S0S0S0S0S0S0S0S0S0S0S0S0S0S0T0        ",
"        T0O0O0O0O0O0O0O0O0O0O0O0O0O0O0O0O0O0T0q1Q0Q0Q0Q0Q0Q0Q0Q0Q0Q0Q0Q0Q0N031O1O0O0O0O0O0O0O0O0O0O0O0O0O0O0O0O0O0O0O0T0        ",
"        M0L0L0L0L0L0L0L0L0L0L0L0L0L0L0L0L0L0K0J0I0N0N0N0N0N0N0N0N0N0N0j0H0G0L0L0L0L0L0L0L0L0L0L0L0L0L0L0L0L0L0L0L0L0L0M0        ",
"        M0F0F0F0F0F0F0F0F0F0F0F0F0F0F0F0F0F0F0F0E0N1:1D0C0M0R0t1B0D1L1F0F0F0F0F0F0F0F0F0F0F0F0F0F0F0F0F0F0F0F0F0F0F0F0M0        ",
"        A0;0;0;0;0;0;0;0;0;0;0;0;0;0;0;0;0;0;0;0;0;0;0;0;0;0;0;0;0;0;0;0;0;0;0;0;0;0;0;0;0;0;0;0;0;0;0;0;0;0;0;0;0;0;0A0        ",
"        M0:0:0:0:0:0:0:0:0:0:0:0:0:0:0:0:0:0:0:0:0:0:0:0:0:0:0:0:0:0:0:0:0:0:0:0:0:0:0:0:0:0:0:0:0:0:0:0:0:0:0:0:0:0:0M0        ",
"        M0909090909090909090909090909090909090909090909090909090909090909090909090909090909090909090909090909090909090M0        ",
"        T0808080808080808080808080808080808080808080808080808080808080808080808080808080808080808080808080808080808080T0        ",
"        a1707070707070707070707070707070707070707070707070707070707070707070707070707070707070707070707070707070707070q0        ",
"          606060606060606060606060606060606060606060606060606060606060606060606060606060606060606060606060606060606060          ",
"          K050505050505050505050505050505050505050505050505050505050505050505050505050505050505050505050505050505050K0          ",
"            11404040404040404040404040404040404040404040404040404040404040404040404040404040404040404040404040404011            ",
"              3020202020202020202020202020202020202020202020202020202020202020202020202020202020202020202020202030              ",
"                  121010t1t1000000000000000000000000000000000000000000000000000000000000000000000000t1t1101012                  ",
"                                                                                                                                ",
"                                                                                                                                ",
"                                                                                                                                ",
"                                                                                                                                "};
