<?xml version="1.0" encoding="UTF-8" standalone="no"?>
<svg
   width="48"
   height="48"
   version="1.1"
   id="svg4"
   sodipodi:docname="abiword.svg"
   inkscape:export-filename="../SOURCES/agnostep-desktop/build/agnostep-theme/AGNOSTEP_ART/TIFF/abiword.tiff"
   inkscape:export-xdpi="256"
   inkscape:export-ydpi="256"
   inkscape:version="1.4 (e7c3feb100, 2024-10-09)"
   xmlns:inkscape="http://www.inkscape.org/namespaces/inkscape"
   xmlns:sodipodi="http://sodipodi.sourceforge.net/DTD/sodipodi-0.dtd"
   xmlns="http://www.w3.org/2000/svg"
   xmlns:svg="http://www.w3.org/2000/svg">
  <defs
     id="defs4" />
  <sodipodi:namedview
     id="namedview4"
     pagecolor="#ffffff"
     bordercolor="#000000"
     borderopacity="0.25"
     inkscape:showpageshadow="2"
     inkscape:pageopacity="0.0"
     inkscape:pagecheckerboard="0"
     inkscape:deskcolor="#d1d1d1"
     inkscape:zoom="17.625"
     inkscape:cx="24"
     inkscape:cy="24"
     inkscape:window-width="1240"
     inkscape:window-height="1049"
     inkscape:window-x="0"
     inkscape:window-y="0"
     inkscape:window-maximized="0"
     inkscape:current-layer="svg4" />
  <circle
     style="opacity:.2"
     cx="24"
     cy="25"
     r="20"
     id="circle1" />
  <circle
     style="fill:#248afd"
     cx="24"
     cy="24"
     r="20"
     id="circle2" />
  <path
     style="opacity:.2"
     d="m23.898 6.0059c-1.3296-0.096884-2.7065 0.93814-3.625 1.8926-3.8475 3.9866-6.19 9.1897-8.4863 14.213-1.8772 4.1667-3.2953 8.5279-4.4238 12.967a20 20 0 0 0 3.168 3.6777c-0.14438-1.0208 0.34556-2.4678 0.56836-3.3086 1.7693-5.9055 4.5122-11.435 7.1211-16.979 1.033-1.7516 1.7669-4.1659 3.8496-4.8398 2.023-0.23224 3.3506 1.789 4.3984 3.2637 4.2847 6.7798 8.332 13.737 11.881 20.957 0.0084 0.0176 0.01699 0.03513 0.02539 0.05273a20 20 0 0 0 0.9082 -1.0352c-2.393-8.638-5.505-17.087-9.981-24.809-1.26-1.915-2.407-3.993-4.108-5.5336-0.414-0.3287-0.851-0.4872-1.295-0.5195zm8.2051 25.846c-6.4689 3.304-13.126 6.4035-20.193 8.0586a20 20 0 0 0 3.5859 2.168c3.1463-1.2136 6.1731-2.7789 9.0859-4.4824 2.6926-1.6335 5.2813-3.4887 7.5215-5.7441z"
     id="path2" />
  <path
     style="fill:#ffffff"
     d="m32.104 30.851c-6.4761 3.3077-13.141 6.4118-20.217 8.0655-2.2808-0.01147-1.1555-3.0793-0.78709-4.4696 1.7693-5.9055 4.5126-11.434 7.1216-16.978 1.033-1.7516 1.7656-4.1657 3.8484-4.8396 2.023-0.23224 3.3522 1.789 4.4001 3.2637 4.2847 6.7798 8.3311 13.737 11.88 20.957 0.898 1.882 1.779 3.772 2.65 5.668-2.591-10.925-6.078-21.762-11.699-31.459-1.26-1.915-2.407-3.9931-4.108-5.5337-1.657-1.3146-3.694 0.1007-4.919 1.3733-3.848 3.9864-6.191 9.1884-8.488 14.211-2.6778 5.945-4.435 12.282-5.7249 18.682-0.4523 2.156 1.6938 3.721 3.6011 3.052 5.2828-1.135 10.247-3.516 14.919-6.249 2.6926-1.6335 5.2822-3.4884 7.5223-5.7438z"
     id="path3" />
  <path
     style="opacity:.2;fill:#ffffff"
     d="m24 4a20 20 0 0 0 -20 20 20 20 0 0 0 0.0215 0.582 20 20 0 0 1 19.978 -19.582 20 20 0 0 1 19.979 19.418 20 20 0 0 0 0.021 -0.418 20 20 0 0 0 -20 -20z"
     id="path4" />
</svg>
