<?xml version="1.0" encoding="UTF-8" standalone="no"?>
<!-- Created with Inkscape (http://www.inkscape.org/) -->

<svg
   width="210mm"
   height="297mm"
   viewBox="0 0 210 297"
   version="1.1"
   id="svg1210"
   inkscape:version="1.2.2 (b0a8486541, 2022-12-01)"
   sodipodi:docname="banniere_UG.svg"
   xml:space="preserve"
   inkscape:export-filename="login_banniere.png"
   inkscape:export-xdpi="96"
   inkscape:export-ydpi="96"
   xmlns:inkscape="http://www.inkscape.org/namespaces/inkscape"
   xmlns:sodipodi="http://sodipodi.sourceforge.net/DTD/sodipodi-0.dtd"
   xmlns="http://www.w3.org/2000/svg"
   xmlns:svg="http://www.w3.org/2000/svg"
   xmlns:i="http://ns.adobe.com/AdobeIllustrator/10.0/"><sodipodi:namedview
     id="namedview1212"
     pagecolor="#ffffff"
     bordercolor="#000000"
     borderopacity="0.25"
     inkscape:showpageshadow="2"
     inkscape:pageopacity="0.0"
     inkscape:pagecheckerboard="0"
     inkscape:deskcolor="#d1d1d1"
     inkscape:document-units="mm"
     showgrid="false"
     inkscape:zoom="0.78127806"
     inkscape:cx="386.54612"
     inkscape:cy="561.89982"
     inkscape:window-width="1447"
     inkscape:window-height="1047"
     inkscape:window-x="177"
     inkscape:window-y="0"
     inkscape:window-maximized="0"
     inkscape:current-layer="layer1" /><defs
     id="defs1207"><rect
       x="59.522159"
       y="393.88913"
       width="651.35153"
       height="86.069057"
       id="rect891" /><filter
       style="color-interpolation-filters:sRGB;"
       inkscape:label="Greyscale"
       id="filter2523"
       x="0"
       y="0"
       width="1"
       height="1"><feColorMatrix
         values="0.21 0.72 0.072 0 0 0.21 0.72 0.072 0 0 0.21 0.72 0.072 0 0 0 0 0 1 0 "
         id="feColorMatrix2521" /></filter><rect
       x="59.522159"
       y="393.88913"
       width="651.35153"
       height="86.069057"
       id="rect1105" /></defs><g
     inkscape:label="Layer 1"
     inkscape:groupmode="layer"
     id="layer1"><g
       id="g347"
       transform="matrix(1,0,0,1.015793,0,-3.2379365)"
       style="opacity:0.484816;fill:none;stroke:#000000;stroke-opacity:1"
       inkscape:export-filename="banniere_UG.tiff"
       inkscape:export-xdpi="118.52277"
       inkscape:export-ydpi="118.52277"><path
         d="m 149.44092,130.56202 v 38.87552 l 51.08919,0.19799 v -32.17548 z"
         style="fill:none;fill-opacity:1;fill-rule:evenodd;stroke:#000000;stroke-width:1.11907;stroke-linejoin:round;stroke-dasharray:none;stroke-opacity:1"
         id="path390" /><path
         d="m 149.44092,166.14781 v 38.87553 l 51.08919,-5.19827 v -32.17548 z"
         style="fill:none;fill-opacity:1;fill-rule:evenodd;stroke:#000000;stroke-width:1.11907;stroke-linejoin:round;stroke-dasharray:none;stroke-opacity:1"
         id="path405" /></g><g
       id="g353"
       transform="matrix(1,0,0,1.0173314,0,-3.5512741)"
       style="fill:none;stroke:#000000;stroke-opacity:1"><path
         d="m 104.92956,169.64187 43.23859,-3.61289 v 38.87553 l -43.23859,-4.33226 z"
         style="fill:none;fill-opacity:1;fill-rule:evenodd;stroke:#000000;stroke-width:1.11907;stroke-linejoin:round;stroke-dasharray:none;stroke-opacity:1"
         id="path407" /><g
         id="g432"
         transform="matrix(0.26458333,0,0,0.13147747,-14.951729,103.26058)"
         style="fill:none;stroke:#000000;stroke-opacity:1"><path
           d="m 452.62378,270.52539 163.42151,-62.21548 v 295.68203 l -163.42151,1.78573 z"
           style="fill:none;fill-opacity:1;fill-rule:evenodd;stroke:#000000;stroke-width:6;stroke-linejoin:round;stroke-dasharray:none;stroke-opacity:1"
           id="path392" /><path
           d="m 453.09456,427.29418 163.42152,11.4274 V 734.40361 L 453.09456,662.54646 Z"
           style="fill:none;fill-opacity:1;fill-rule:evenodd;stroke:#000000;stroke-width:6;stroke-linejoin:round;stroke-dasharray:none;stroke-opacity:1"
           id="path387" /></g></g><g
       id="g357"
       style="opacity:0.505224;fill:none;stroke:#000000;stroke-opacity:1"><path
         d="m 53.645018,131.23665 v 38.87552 l 51.089192,0.19799 v -32.17548 z"
         style="fill:none;fill-opacity:1;fill-rule:evenodd;stroke:#000000;stroke-width:1.11907;stroke-linejoin:round;stroke-dasharray:none;stroke-opacity:1"
         id="path1983" /><path
         d="m 53.645018,166.82244 v 38.87553 l 51.089192,-5.19827 v -32.17548 z"
         style="fill:none;fill-opacity:1;fill-rule:evenodd;stroke:#000000;stroke-width:1.11907;stroke-linejoin:round;stroke-dasharray:none;stroke-opacity:1"
         id="path1985" /></g><g
       id="g363"
       style="opacity:0.470631;fill:none;stroke:#000000;stroke-opacity:1"><path
         d="m 9.133654,170.3165 43.238594,-3.61289 v 38.87553 L 9.133654,201.24688 Z"
         style="fill:none;fill-opacity:1;fill-rule:evenodd;stroke:#000000;stroke-width:1.11907;stroke-linejoin:round;stroke-dasharray:none;stroke-opacity:1"
         id="path1987" /><g
         id="g1993"
         transform="matrix(0.26458333,0,0,0.13147747,-110.74763,103.93521)"
         style="fill:none;stroke:#000000;stroke-opacity:1"><path
           d="m 452.62378,270.52539 163.42151,-62.21548 v 295.68203 l -163.42151,1.78573 z"
           style="fill:none;fill-opacity:1;fill-rule:evenodd;stroke:#000000;stroke-width:6;stroke-linejoin:round;stroke-dasharray:none;stroke-opacity:1"
           id="path1989" /><path
           d="m 453.09456,427.29418 163.42152,11.4274 V 734.40361 L 453.09456,662.54646 Z"
           style="fill:none;fill-opacity:1;fill-rule:evenodd;stroke:#000000;stroke-width:6;stroke-linejoin:round;stroke-dasharray:none;stroke-opacity:1"
           id="path1991" /></g></g><path
       i:knockout="Off"
       fill="#51a1d0"
       d="m 186.97667,173.96254 c -0.35106,1.32732 -0.89395,1.71999 -1.5481,2.62214 l -0.67777,-0.0396 c -0.80104,0.78798 -0.1652,0.732 -0.76506,1.38388 -0.96972,0.29527 -2.96525,0.97065 -3.48844,0.8023 -0.34541,-0.24433 0.38554,-0.33897 0.51949,-0.47896 -1.22591,0.15471 -1.15489,0.69458 -2.80377,0.17855 l -0.009,-0.1478 c -4.33277,-0.38631 -8.21619,-8.03349 -6.43579,-13.69181 -0.14825,0.33543 -0.19384,0.19594 -0.31976,0.28699 0.69037,-3.06355 2.8846,-5.12814 5.45385,-4.84216 2.54858,0.16115 4.92062,2.40087 5.94276,5.19179 -0.44459,-1.92223 -1.70642,-4.49323 -3.751,-5.71165 -1.97467,-1.287 -4.26556,-1.01379 -5.37155,0.21438 -1.23637,0.089 -2.01111,2.20159 -2.56986,2.3069 -2.16719,4.85535 -1.14975,8.27124 0.92255,12.87997 0.34134,0.67487 0,0.51159 -0.0238,0.83447 -0.79215,-1.18625 -1.42089,-2.59434 -1.83907,-4.08107 0.17825,0.93408 0.3924,1.86979 0.76927,2.74573 -0.78925,-0.97706 -1.30892,-4.06304 -1.63227,-4.39261 0.54066,4.41509 4.52305,10.15474 7.38569,10.57137 -1.16498,-0.72406 -2.61859,-1.73217 -3.73651,-3.18232 -0.44083,-0.70433 -0.96817,-1.90299 -0.79695,-1.94519 2.92962,3.82264 6.54393,5.81321 10.33378,4.94189 0.95786,-0.201 2.13313,-0.84955 2.37368,-0.70717 -0.54908,0.40734 -0.0328,0.35193 -0.47687,0.73918 1.18024,-0.95199 -0.14543,-0.80968 1.52269,-1.99178 l 0.2011,0.9452 c 0.21243,-1.30781 2.03868,-1.83796 2.4711,-3.84134 0.49319,-0.36915 0.16629,0.86736 -0.57443,1.98238 0.91552,-1.17364 0.64253,-1.64578 1.13198,-2.7936 0.006,0.5008 0.0447,1.05497 0.002,1.54995 0.12724,-1.64518 1.04107,-2.21282 1.44515,-2.9462 -0.12633,-0.18265 -0.66194,0.31882 -0.22446,-1.43085 0.23247,-0.73127 0.28576,-0.2728 0.40161,-0.41316 -0.0946,-0.16397 -0.23849,-0.94191 -0.10334,-2.15653 0.21508,-0.16169 0.17135,0.91114 0.3484,1.0758 0.13814,-0.94509 0.12722,-1.74424 0.31764,-2.41238 -0.1317,-1.76495 -0.2504,0.0545 -0.46136,-1.03089 0.0792,-2.60927 0.64024,-0.18597 1.01477,-1.14329 0.41958,2.1578 0.20034,4.91537 0.13209,6.07285 0.18912,-1.33967 0.25754,-2.71504 0.25125,-4.09452 0.2283,0.31927 0.3196,-2.80343 0.57771,-0.52043 0.28428,-4.30367 -1.41604,-9.65129 -3.45296,-12.99657 0.20634,0.55206 0.4676,1.24665 0.30699,1.21957 -0.98517,-1.75621 -0.74274,-1.6777 -0.80775,-2.18285 -0.87299,-1.19663 -1.10416,-0.69592 -1.77091,-1.19365 -1.55843,-2.5445 -1.9703,-2.66358 -3.514,-4.6405 l -0.0566,0.51243 c -1.12441,-1.37972 -1.5496,-0.80968 -2.87418,-1.9369 -0.0603,-0.13647 0.52969,0.0107 0.98657,0.22689 -1.29647,-0.63673 -1.09037,-1.09085 -2.40594,-1.55748 0.37458,-0.0525 0.74034,-0.008 1.12341,-0.008 -1.03113,-0.60631 -2.62207,-0.91314 -2.01596,-1.20128 -1.91266,-0.22031 -5.21017,-0.9427 -7.40974,-0.18535 l 0.0737,-0.45247 c -1.07981,0.58646 -4.25749,1.05479 -4.88397,2.33514 l -0.21797,-0.0787 c -0.63202,0.53868 -1.15808,1.27751 -1.71625,1.89402 -0.82864,0.71124 -0.87164,-0.0993 -0.84864,0.11536 -1.74818,1.79335 -2.87155,3.53348 -3.81477,4.94573 0.14027,0.76475 -0.99996,3.35957 -1.55592,5.67682 -3.82545,10.71612 -0.14169,26.1118 6.66441,33.68433 0.96261,1.22642 2.61393,2.31842 3.99904,3.31209 -1.47983,-1.68679 -1.77403,-1.56179 -3.17878,-3.32709 -0.96168,-1.44541 -0.98899,-2.37346 -1.55129,-3.79273 l 0.11605,0.91635 c -1.40458,-1.77918 -0.6806,-1.48829 -1.84103,-2.8767 l 0.51266,-0.31565 c -0.50813,-0.4004 -1.06345,-2.00119 -1.12957,-2.72452 l -0.57984,-0.35834 c -0.37837,-1.49056 -0.52202,-2.47774 -0.32327,-3.03314 l -0.30439,0.27423 c -0.0786,-0.57675 -1.37007,-5.55705 -0.40658,-3.95056 -0.14908,-0.39823 -0.39933,-0.75384 -0.50845,-1.68003 l 0.34671,-0.1741 c -0.3077,-1.29269 -0.44672,-2.77732 -0.29409,-3.13777 0.15697,0.71358 0.34279,0.95251 0.52883,1.18189 -0.14164,-5.38009 -1.47048,-1.28323 -1.30665,-6.26079 l 0.24097,0.13511 c -0.0811,-0.4487 -0.0832,-0.87801 -0.12271,-1.32453 l 0.47152,-1.16208 c -0.60932,-2.18407 1.58812,-6.4673 2.52952,-8.99442 0.42632,-0.99826 1.54098,-1.61503 2.66485,-3.00335 l -0.33573,-0.3164 c 1.11928,-0.98558 5.65467,-3.17589 7.08053,-1.94375 1.05415,-0.61345 -0.14245,-0.10093 -0.20053,-0.47384 2.18744,-0.92108 2.5114,7.9e-4 3.69142,0.36592 1.40639,-0.0518 -1.09005,-0.34516 -0.34893,-0.61703 2.18509,0.72976 1.83944,-0.45129 4.54193,0.99408 0.21811,0.37537 -0.7265,-0.13757 -1.02974,-0.0461 1.9624,0.136 5.50045,2.79314 7.44855,5.68448 2.25523,3.37252 3.94202,9.98234 2.77683,14.34463 l 0.12355,0.13718 c -0.58042,1.65485 -0.88704,3.81467 -1.92251,5.2901 l 0.59227,-0.62956"
       id="path1997"
       style="opacity:0.668477;fill:#030305;fill-opacity:1;stroke:none;stroke-width:0.445823;stroke-opacity:1" /><path
       style="font-size:12px;opacity:0.649771;fill-rule:evenodd;stroke-width:0.100225pt"
       d="m 79.504543,137.24289 c -11.143695,1.00425 -20.189323,15.59855 -20.189323,32.57871 0,7.82061 1.920928,14.78754 5.079683,19.9324 l 8.329956,-0.82027 0.03807,-20.66039 13.518754,-1.2183 0.0736,-20.38136 8.08638,-0.69782 c -3.69371,-5.85688 -9.01824,-9.26639 -14.9371,-8.73299 z m 14.9371,8.73298 c 3.260682,5.17025 5.249682,12.24566 5.249682,20.20707 0,16.97961 -9.043012,31.57809 -20.186782,32.58235 C 73.4935,199.307 68.094228,195.77935 64.394903,189.754 l -4.968055,0.49025 0.07358,10.66013 40.411637,-3.69984 -0.14716,-51.68518 z"
       id="path148"
       inkscape:connector-curvature="0" /><text
       xml:space="preserve"
       transform="matrix(1.2207926,0,0,1.5493594,-54.536851,-498.29053)"
       id="text889"
       style="font-style:normal;font-variant:normal;font-weight:normal;font-stretch:normal;font-size:12px;font-family:sans-serif;-inkscape-font-specification:'sans-serif, Normal';font-variant-ligatures:normal;font-variant-caps:normal;font-variant-numeric:normal;font-variant-east-asian:normal;letter-spacing:-0.2px;white-space:pre;shape-inside:url(#rect891);display:inline;fill:#666666"><tspan
         x="59.521484"
         y="404.50586"
         id="tspan291">A G N o S t e p    Desktop</tspan></text><text
       xml:space="preserve"
       transform="matrix(0.26458333,0,0,0.26458333,22.609673,103.08002)"
       id="text1103"
       style="white-space:pre;shape-inside:url(#rect1105);display:inline;fill:#82bb6a"><tspan
         x="59.521484"
         y="441.07614"
         id="tspan295"><tspan
           style="font-size:53.3333px;-inkscape-font-specification:'sans-serif, Normal';fill:#0080c8"
           id="tspan293">U s e r      G u i d e</tspan></tspan></text></g></svg>
