<?xml version="1.0" encoding="UTF-8" standalone="no"?>
<svg
   width="48"
   height="48"
   version="1"
   id="svg6"
   sodipodi:docname="battery.svg"
   inkscape:version="1.4 (e7c3feb100, 2024-10-09)"
   xmlns:inkscape="http://www.inkscape.org/namespaces/inkscape"
   xmlns:sodipodi="http://sodipodi.sourceforge.net/DTD/sodipodi-0.dtd"
   xmlns="http://www.w3.org/2000/svg"
   xmlns:svg="http://www.w3.org/2000/svg">
  <defs
     id="defs6" />
  <sodipodi:namedview
     id="namedview6"
     pagecolor="#ffffff"
     bordercolor="#000000"
     borderopacity="0.25"
     inkscape:showpageshadow="2"
     inkscape:pageopacity="0.0"
     inkscape:pagecheckerboard="0"
     inkscape:deskcolor="#d1d1d1"
     inkscape:zoom="12.433294"
     inkscape:cx="24.008118"
     inkscape:cy="23.967904"
     inkscape:window-width="1253"
     inkscape:window-height="1047"
     inkscape:window-x="0"
     inkscape:window-y="0"
     inkscape:window-maximized="0"
     inkscape:current-layer="svg6" />
  <rect
     style="opacity:0.2"
     width="32"
     height="36"
     x="8"
     y="9"
     rx="2"
     ry="2"
     id="rect1"
     inkscape:export-filename="/home/patrick/SOURCES/agnostep/AGNOSTEP_ART/AGNOSTEP/battery.tiff"
     inkscape:export-xdpi="299.70999"
     inkscape:export-ydpi="299.70999" />
  <rect
     style="fill:#4f4f4f"
     width="32"
     height="36"
     x="8"
     y="8"
     rx="2"
     ry="2"
     id="rect2" />
  <rect
     style="fill:#8e8e8e"
     width="20"
     height="4"
     x="14"
     y="4"
     id="rect3" />
  <path
     style="opacity:0.2"
     d="m 11,13 v 8 h 26 v -8 z m 0,10 v 8 h 26 v -8 z m 0,10 v 8 h 26 v -8 z"
     id="path3" />
  <path
     style="fill:#c0f957"
     d="m 11,12 v 8 h 26 v -8 z m 0,10 v 8 h 26 v -8 z m 0,10 v 8 h 26 v -8 z"
     id="path4" />
  <path
     style="opacity:0.2;fill:#ffffff"
     d="m14 4v1h20v-1h-20z"
     id="path5" />
  <path
     style="fill:#ffffff;opacity:0.2"
     d="M 11 12 L 11 13 L 37 13 L 37 12 L 11 12 z M 11 22 L 11 23 L 37 23 L 37 22 L 11 22 z M 11 32 L 11 33 L 37 33 L 37 32 L 11 32 z"
     id="path6" />
</svg>
