<?xml version="1.0" encoding="UTF-8" standalone="no"?>
<!-- Generator: Adobe Illustrator 12.0.0, SVG Export Plug-In . SVG Version: 6.00 Build 51448)  -->

<svg
   id="Layer_1"
   style="enable-background:new 0 0 135.962 123.259"
   space="preserve"
   sodipodi:docname="Clip.svg"
   viewBox="0 0 135.962 123.259"
   sodipodi:version="0.32"
   version="1.1"
   inkscape:version="1.4 (e7c3feb100, 2024-10-09)"
   inkscape:export-filename="clip.tiff"
   inkscape:export-xdpi="99.692513"
   inkscape:export-ydpi="99.692513"
   xmlns:inkscape="http://www.inkscape.org/namespaces/inkscape"
   xmlns:sodipodi="http://sodipodi.sourceforge.net/DTD/sodipodi-0.dtd"
   xmlns="http://www.w3.org/2000/svg"
   xmlns:svg="http://www.w3.org/2000/svg"
   xmlns:rdf="http://www.w3.org/1999/02/22-rdf-syntax-ns#"
   xmlns:cc="http://creativecommons.org/ns#"
   xmlns:dc="http://purl.org/dc/elements/1.1/">
  <defs
     id="defs1" />
  <sodipodi:namedview
     id="base"
     bordercolor="#666666"
     inkscape:pageshadow="2"
     inkscape:window-width="1253"
     pagecolor="#ffffff"
     inkscape:zoom="2.9206792"
     inkscape:window-x="262"
     borderopacity="1.0"
     inkscape:current-layer="Layer_1"
     inkscape:cx="68.30603"
     inkscape:cy="61.6295"
     inkscape:window-y="88"
     inkscape:window-height="755"
     inkscape:pageopacity="0.0"
     inkscape:showpageshadow="2"
     inkscape:pagecheckerboard="0"
     inkscape:deskcolor="#d1d1d1"
     inkscape:window-maximized="0" />
  <g
     id="g3"
     transform="matrix(0.6071736,0,0,0.72777366,27.388149,16.776394)"
     inkscape:export-filename="Clip.tiff"
     inkscape:export-xdpi="90.373505"
     inkscape:export-ydpi="90.373505">
    <path
       id="path5"
       style="fill:#5e5d5d"
       d="M 51.698,116.53 C 66.584,105.707 78.94,89.455 91.368,75.912 99.799,66.723 109.49,51.448 103.109,38.35 97.047,25.908 74.637,29.81 65.167,35.725 53.939,42.727 45.221,53.606 36.259,63.174 c -6.433,6.865 -18.51,16.125 -11.861,26.471 6.045,9.405 15.118,13.673 24.767,6.813 5.454,-3.876 13.689,-10.41 13.106,-17.935 -2.629,-9.896 -14.841,7.633 -18.245,6.833 -8.791,-2.097 -1.159,-8.281 1.422,-11.209 3.609,-4.091 7.22,-8.18 10.828,-12.271 4.07,-4.612 8.512,-9.362 13.247,-13.247 4.864,-3.989 18.378,-7.586 20.217,1.206 2.401,11.467 -11.944,21.855 -18.971,29.084 -9.225,9.489 -28.86,37.906 -43.074,23.011 -4.348,-4.557 -9.421,-8.676 -9.306,-15.579 0.1,-5.975 3.439,-10.523 7.456,-14.542 15.009,-15.008 30.016,-30.015 45.021,-45.024 10.597,-10.596 28.715,-14.189 42.645,-8.186 6.114,2.633 6.506,12.45 6.099,18.142 -0.411,8.737 -2.267,16.24 -8.424,22.634 -8.614,8.941 -17.293,17.834 -26.079,26.606 -5.363,5.354 -10.839,10.574 -16.339,15.786 -3.482,3.299 -9.749,7.32 -9.276,12.874 1.463,14.075 17.094,-0.508 21.479,-4.894 9.183,-9.184 18.368,-18.367 27.552,-27.551 5.676,-5.677 11.409,-11.304 17.036,-17.029 C 135.654,54.893 137.09,41.289 135.311,27.403 134.408,20.361 132.243,10.811 125.71,6.83 119.219,2.875 110.855,1.591 103.453,0.487 89.763,-1.557 74.632,2.864 64.803,12.695 46.535,30.963 28.264,49.231 9.994,67.502 -0.627,78.123 -4.566,92.741 7.08,104.727 c 4.3,4.423 8.379,9.423 13.17,13.328 9.193,7.49 23.021,6.81 31.441,-1.53 M 99.24,35.942 C 110.246,46.944 97.728,66.328 90.063,74.681 84.905,80.3 79.701,85.879 74.46,91.421 67.06,99.247 59.644,109.075 50.574,114.998 36.613,126.143 24.827,120.421 13.787,109.066 3.733,98.722 -4.767,84.785 7.96,72.056 23.095,56.92 38.233,41.784 53.37,26.649 58.898,21.119 64.27,14.638 70.61,9.986 83.694,0.392 99.736,0.692 114.663,4.526 c 7.672,1.967 13.104,4.53 16.174,12.245 2.461,6.183 3.123,12.866 3.18,19.465 0.123,14.191 -4.297,22.226 -13.991,31.924 -15.183,15.181 -30.36,30.361 -45.541,45.542 -2.859,2.858 -7.334,7.124 -11.444,3.827 -4.795,-3.847 0.884,-8.73 3.874,-11.561 11.686,-11.062 23.142,-22.32 34.353,-33.864 7.305,-7.525 16.562,-14.778 18.93,-25.438 1.454,-6.544 1.943,-14.12 0.317,-20.695 C 118.238,16.763 111.012,15.348 102.566,14.439 76.703,11.66 60.362,34.758 44.021,51.102 37.063,58.06 30.103,65.019 23.145,71.979 18.381,76.745 15.454,83.57 17.02,90.347 c 1.347,5.831 6.761,10.068 10.727,14.222 C 41.963,119.463 64.659,87.776 73.44,78.72 81.569,70.339 97.267,58.196 89.572,45.171 86.073,41.377 79.053,42.715 74.679,43.957 c -7.551,2.145 -12.783,9.505 -18.082,14.97 -6.275,6.471 -11.916,13.478 -18.306,19.851 -1.499,1.499 0.23,3.69 1.336,5.252 3.88,5.477 8.359,2.352 12.097,-1.413 1.207,-1.214 5.128,-6.136 7.687,-5.32 4.803,1.544 -3.171,10.806 -4.805,12.159 -7.952,6.591 -14.88,13.014 -23.505,4.386 -5.748,-5.75 -9.829,-11.322 -3.4,-18.912 7.682,-9.068 16.325,-17.446 24.45,-26.118 6.581,-7.022 15.495,-14.628 25.385,-15.913 6.343,-0.834 16.739,-1.934 21.707,3.037" />
    <path
       id="path7"
       style="fill:#8f8f8f"
       d="m 7.214,103.58 c 8.383,8.625 16.51,20.045 30.036,18.778 8.476,-0.794 15.114,-6.91 20.833,-12.678 8.076,-8.143 15.976,-16.459 23.801,-24.842 3.417,-3.659 6.805,-7.344 10.195,-11.027 7.065,-7.063 9.387,-13.649 11.374,-23.127 3.661,-17.45 -12.617,-20.451 -26.027,-18.667 -14.244,1.897 -24.509,14.686 -33.819,24.619 -5.543,5.916 -22.092,18.8 -20.15,27.958 1.054,4.973 4.836,7.699 8.281,11.144 6.824,6.824 14.482,2.517 20.784,-3.131 2.177,-1.947 14.658,-15.139 6.805,-16.238 -4.229,-0.593 -7.479,5.684 -10.268,7.7 -3.266,3.266 -11.393,1.489 -10.565,-4.218 0.318,-2.19 6.977,-7.071 8.846,-9.188 8.495,-9.631 17.883,-24.458 31.132,-26.619 7.394,-1.206 13.046,1.398 12.099,9.64 -1.535,7.934 -6.392,12.59 -11.784,18.221 -5.104,5.328 -10.25,10.617 -15.434,15.868 -6.902,6.988 -15.605,19.374 -26.346,19.748 C 30.397,107.753 26.325,101.789 22.234,97.5 16.026,90.991 16.255,81.788 21.797,74.8 27.094,68.118 34.023,62.373 40.034,56.362 48.827,47.571 57.617,38.779 66.409,29.987 c 8.467,-8.466 18.77,-15.746 31.448,-15.03 5.416,0.306 14.389,0.271 18.508,4.389 4.716,5.278 4.499,13.725 3.951,20.363 -1.139,13.797 -9.34,21.104 -18.341,30.399 -12.482,12.89 -25.381,25.28 -38.317,37.707 -4.19,4.024 -4.534,12.671 3.438,11.668 7.744,-0.972 16.45,-13.568 21.709,-18.828 C 99.323,90.139 109.838,79.623 120.354,69.105 130.384,59.074 135.057,50.888 134.917,36.18 134.86,30.173 134.308,24.171 132.399,18.433 129.479,9.651 124.241,6.172 115.645,3.867 100.207,-0.276 83.454,-0.622 69.927,9.397 54.89,20.543 42.206,36.573 29.018,49.758 16.002,62.776 -12.698,83.659 7.219,103.585" />
    <path
       id="path9"
       style="fill:#e5e5e5"
       d="m 62.197,116.85 c 6.152,8.65 26.823,-17.663 30.284,-21.137 8.174,-8.205 16.7,-16.048 24.835,-24.294 8.035,-8.147 14.153,-14.316 14.734,-26.224 0.27,-5.504 -0.094,-11.045 -0.763,-16.508 -0.211,-1.716 -0.111,-6.888 -1.448,-8.231 0.536,0.535 -0.229,6.098 -0.254,6.912 -0.163,5.121 -0.531,10.256 -1.421,15.307 -2.034,11.531 -8.907,19.713 -16.529,28.248 -7.237,8.1 -15.024,15.646 -22.639,23.38 -5.114,5.199 -10.141,10.51 -14.856,16.078 -1.887,2.229 -4.271,4.071 -7.262,4.527 -0.925,0.14 -6.712,-0.89 -4.686,1.94" />
    <path
       id="path11"
       style="fill:#999898"
       d="m 60.709,113.54 c 2.894,0.688 8.084,-6.3 9.782,-8.062 4.812,-4.987 9.551,-10.046 14.452,-14.948 6.06,-6.062 12.4,-11.836 18.482,-17.877 6.23,-6.187 14.195,-12.804 16.65,-21.556 1.063,-3.792 3.954,-17.84 0.551,-21.23 2.58,2.58 -1.436,17.222 -2.411,20.028 -2.914,8.385 -10.275,14.205 -16.282,20.45 -4.761,4.951 -44.017,39.313 -41.221,43.193" />
    <path
       id="path13"
       style="fill:#e5e5e5"
       d="m 8.52,103.17 c 6.427,7.805 14.632,18.103 25.718,18.282 14.053,0.229 23.276,-12.858 32.271,-21.852 8.824,-8.826 17.692,-17.672 25.819,-27.152 4.212,-4.913 7.548,-9.625 9.074,-16.039 0.953,-4.015 -0.156,-10.721 1.174,-14.134 -0.961,2.465 -0.304,6.321 -1.158,9.077 -2.297,7.407 -6.682,14.145 -11.699,19.991 -8.881,10.346 -19.637,18.656 -29.232,28.258 -7.88,7.88 -16.914,22.655 -30.289,17.71 -6.576,-2.43 -17.207,-8.71 -21.67,-14.14" />
    <path
       id="path15"
       style="fill:#999898"
       d="m 23.017,98.265 c 4.702,7.48 9.546,13.801 19.067,11.017 8.604,-2.518 15.165,-11.13 21.27,-17.108 7,-6.857 14.282,-13.488 20.693,-20.915 2.936,-3.401 5.026,-6.807 6.078,-11.231 0.412,-1.737 2.506,-9.406 0.959,-10.969 0.422,0.424 -0.699,5.221 -0.813,5.805 -0.992,5.133 -3.254,8.822 -6.9,12.494 -7.974,8.031 -15.771,16.232 -23.683,24.324 -10.278,10.51 -25.187,24.8 -36.671,6.585" />
    <path
       id="path17"
       style="fill:#e5e5e5"
       d="M 15.433,84.214 C 10.912,79.693 58.904,35.937 62.98,31.885 70.087,24.822 75.782,17.436 86.136,15.451 c 5.431,-1.042 10.849,-2.047 16.411,-1.685 0.88,0.059 13.469,1.776 13.469,2.127 0,-2.028 -11.243,-3.917 -12.54,-4.146 C 96.864,10.58 89.402,10.437 82.85,12.142 73.996,14.443 68.437,20.948 62.338,27.254 51.69,38.26 41.112,49.238 29.522,59.258 25.14,63.046 8.362,77.145 15.429,84.214" />
    <path
       id="path19"
       style="fill:#999898"
       d="M 1.085,92.169 C 1.085,81.481 7.608,74.102 14.63,67.007 27.293,54.213 40.238,41.665 53.156,29.129 62.92,19.649 71.709,8.054 85.655,4.927 c 7.113,-1.595 14.614,-1.829 21.846,-0.974 1.025,0.122 15.507,2.67 15.507,3.02 0,-2.691 -14.923,-5.114 -16.669,-5.393 C 98.215,0.286 89.678,0.702 81.868,3.399 70.803,7.222 63.968,15.199 55.781,23.096 42.721,35.696 30.094,48.715 16.976,61.256 11.632,66.367 5.793,71.578 2.556,78.364 0.169,83.375 1.084,87.066 1.084,92.169" />
    <path
       id="path21"
       style="fill:#e5e5e5"
       d="m 36.475,78.341 c 0,-1.667 2.162,-3.868 3.048,-5.073 4.467,-6.073 9.265,-11.992 14.198,-17.687 4.4,-5.079 9.451,-10.614 15.416,-13.86 1.765,-0.96 18.186,-1.77 18.186,-0.402 0,0.083 -14.993,2.307 -16.918,3.578 -7.18,4.741 -12.656,12.59 -18.515,18.799 -3.851,4.082 -7.727,8.167 -11.847,11.98 -0.221,0.204 -3.568,2.845 -3.568,2.665" />
    <path
       id="path23"
       style="fill:#999898"
       d="m 23.687,81.093 c 0,-4.483 5.307,-8.803 8.164,-11.846 6.091,-6.492 12.081,-13.11 18.298,-19.479 5.664,-5.805 12.261,-12.835 20.037,-15.735 1.534,-0.572 19.852,-3.829 19.852,-1.897 0,-0.909 -20.131,4.959 -22.243,6.158 -9.7,5.501 -17.257,15.069 -24.898,22.999 -5.116,5.312 -10.161,10.685 -15.207,16.062 -0.359,0.382 -4.003,3.678 -4.003,3.738" />
    <path
       id="path25"
       style="fill:#e5e5e5"
       d="m 29.929,92.318 c 4.652,4.665 8.696,6.917 15.102,4.071 1.718,-0.762 17.906,-12.075 14.971,-15.122 -1.391,-1.44 -15.138,12.235 -16.684,13.198 -3.46,2.153 -5.926,1.213 -9.083,-1.246 -0.777,-0.603 -8.002,-8.651 -8.756,-7.898 -1.142,1.141 3.926,6.471 4.45,6.997" />
  </g>
  <metadata
     id="metadata1">
    <rdf:RDF>
      <cc:Work>
        <dc:format>image/svg+xml</dc:format>
        <dc:type
           rdf:resource="http://purl.org/dc/dcmitype/StillImage" />
        <cc:license
           rdf:resource="http://creativecommons.org/licenses/publicdomain/" />
        <dc:publisher>
          <cc:Agent
             rdf:about="http://openclipart.org/">
            <dc:title>Openclipart</dc:title>
          </cc:Agent>
        </dc:publisher>
        <dc:title>Architetto -- Clips</dc:title>
        <dc:date>2009-04-30T08:04:27</dc:date>
        <dc:description>Paperclip icon by Francesco 'Architetto' Rollandin.</dc:description>
        <dc:source>https://openclipart.org/detail/25518/architetto----clips-by-anonymous-25518</dc:source>
        <dc:creator>
          <cc:Agent>
            <dc:title>Anonymous</dc:title>
          </cc:Agent>
        </dc:creator>
        <dc:subject>
          <rdf:Bag>
            <rdf:li>clip</rdf:li>
            <rdf:li>icon</rdf:li>
            <rdf:li>office</rdf:li>
            <rdf:li>paper</rdf:li>
            <rdf:li>paperclip</rdf:li>
          </rdf:Bag>
        </dc:subject>
      </cc:Work>
      <cc:License
         rdf:about="http://creativecommons.org/licenses/publicdomain/">
        <cc:permits
           rdf:resource="http://creativecommons.org/ns#Reproduction" />
        <cc:permits
           rdf:resource="http://creativecommons.org/ns#Distribution" />
        <cc:permits
           rdf:resource="http://creativecommons.org/ns#DerivativeWorks" />
      </cc:License>
    </rdf:RDF>
  </metadata>
</svg>
