<?xml version="1.0" encoding="UTF-8" standalone="no"?>
<svg
   width="48"
   height="48"
   version="1"
   id="svg8"
   sodipodi:docname="editor.svg"
   inkscape:version="1.4 (e7c3feb100, 2024-10-09)"
   inkscape:export-filename="../TIFF/editor.tiff"
   inkscape:export-xdpi="256"
   inkscape:export-ydpi="256"
   xmlns:inkscape="http://www.inkscape.org/namespaces/inkscape"
   xmlns:sodipodi="http://sodipodi.sourceforge.net/DTD/sodipodi-0.dtd"
   xmlns="http://www.w3.org/2000/svg"
   xmlns:svg="http://www.w3.org/2000/svg">
  <defs
     id="defs8" />
  <sodipodi:namedview
     id="namedview8"
     pagecolor="#ffffff"
     bordercolor="#000000"
     borderopacity="0.25"
     inkscape:showpageshadow="2"
     inkscape:pageopacity="0.0"
     inkscape:pagecheckerboard="0"
     inkscape:deskcolor="#d1d1d1"
     inkscape:zoom="17.583333"
     inkscape:cx="24.028436"
     inkscape:cy="24"
     inkscape:window-width="1253"
     inkscape:window-height="1047"
     inkscape:window-x="323"
     inkscape:window-y="0"
     inkscape:window-maximized="0"
     inkscape:current-layer="svg8" />
  <path
     style="opacity:0.2"
     d="M 10,45 C 8.892,45 8,44.108 8,43 V 7 C 8,5.892 8.892,5 10,5 H 38 C 39.108,5 40,5.892 40,7 V 33 L 28,45 Z"
     id="path1" />
  <path
     style="fill:#e4e4e4"
     d="M 10,44 C 8.892,44 8,43.108 8,42 V 6 C 8,4.892 8.892,4 10,4 H 38 C 39.108,4 40,4.892 40,6 V 32 L 28,44 Z"
     id="path2" />
  <path
     style="opacity:0.2;fill:#ffffff"
     d="M 10,4 C 8.892,4 8,4.892 8,6 V 7 C 8,5.892 8.892,5 10,5 H 38 C 39.108,5 40,5.892 40,7 V 6 C 40,4.892 39.108,4 38,4 Z"
     id="path3" />
  <path
     style="opacity:0.1"
     d="M 42.102,5.0059 C 41.4,5.0696 40.891,5.5801 40.891,5.5801 L 20,26.471 V 33 H 26.529 L 47.42,12.109 C 47.42,12.109 48.726,10.804 47.42,9.498 L 43.502,5.5801 C 43.012,5.0904 42.522,4.9676 42.102,5.0059 Z"
     id="path4" />
  <path
     style="fill:#fafafa"
     d="M 28,44 V 34 C 28,32.895 28.895,32 30,32 H 40 Z"
     id="path5" />
  <path
     style="fill:#f3d491"
     d="M 20,32 V 25.472 L 26.528,32 Z"
     id="path6" />
  <path
     style="fill:#545454"
     d="M 20,32 V 29.389 L 22.611,32 Z"
     id="path7" />
  <path
     style="fill:#ffbb29"
     d="M 40.891,4.5803 20,25.472 26.528,32 47.42,11.109 C 47.42,11.109 48.725,9.8031 47.42,8.4974 L 43.503,4.5803 C 42.197,3.2746 40.891,4.5803 40.891,4.5803 Z"
     id="path8" />
</svg>
