<?xml version="1.0" encoding="UTF-8" standalone="no"?>
<svg
   width="48"
   height="48"
   version="1"
   id="svg7"
   sodipodi:docname="File_url.svg"
   inkscape:version="1.4 (e7c3feb100, 2024-10-09)"
   xmlns:inkscape="http://www.inkscape.org/namespaces/inkscape"
   xmlns:sodipodi="http://sodipodi.sourceforge.net/DTD/sodipodi-0.dtd"
   xmlns="http://www.w3.org/2000/svg"
   xmlns:svg="http://www.w3.org/2000/svg">
  <defs
     id="defs7" />
  <sodipodi:namedview
     id="namedview7"
     pagecolor="#ffffff"
     bordercolor="#000000"
     borderopacity="0.25"
     inkscape:showpageshadow="2"
     inkscape:pageopacity="0.0"
     inkscape:pagecheckerboard="0"
     inkscape:deskcolor="#d1d1d1"
     inkscape:zoom="17.625"
     inkscape:cx="23.971631"
     inkscape:cy="24.283688"
     inkscape:window-width="1813"
     inkscape:window-height="1049"
     inkscape:window-x="200"
     inkscape:window-y="247"
     inkscape:window-maximized="0"
     inkscape:current-layer="svg7" />
  <path
     style="opacity:0.2;stroke-width:1.12986"
     d="M 6.6382974,5 C 5.2238297,5 4.0851064,5.892 4.0851064,7 v 36 c 0,1.108 1.1387233,2 2.553191,2 H 42.382978 c 1.414468,0 2.553193,-0.892 2.553193,-2 V 17 L 30.893617,16 29.617021,5 Z"
     id="path1"
     inkscape:export-filename="path1.tiff"
     inkscape:export-xdpi="299.70999"
     inkscape:export-ydpi="299.70999" />
  <path
     fill="#2095f2"
     d="M 6.6382974,4 C 5.2238297,4 4.0851064,4.892 4.0851064,6 v 36 c 0,1.108 1.1387233,2 2.553191,2 H 42.382978 c 1.414468,0 2.553193,-0.892 2.553193,-2 V 16 L 30.893617,15 29.617021,4 Z"
     id="path2"
     style="stroke-width:1.12986" />
  <path
     fill="#ffffff"
     style="opacity:0.2;stroke-width:1.12986"
     d="M 6.6382974,4 C 5.2238297,4 4.0851064,4.892 4.0851064,6 v 1 c 0,-1.108 1.1387233,-2 2.553191,-2 H 29.617021 l 14.042554,11 h 1.276596 L 29.617021,4 Z"
     id="path3" />
  <path
     style="opacity:0.2;stroke-width:1.12986"
     d="m 29.617021,5 v 10 c 0,1.1046 1.143102,2 2.553192,2 h 12.765958 z"
     id="path4" />
  <path
     fill="#7cc0f5"
     d="m 29.617021,4 v 10 c 0,1.1046 1.143102,2 2.553192,2 h 12.765958 z"
     id="path5"
     style="stroke-width:1.12986" />
  <g
     id="g7"
     transform="translate(2.7801427)">
    <path
       style="opacity:0.2;stroke-width:0.999286"
       d="m 21.730496,21 c -5.515022,0 -9.985815,4.477143 -9.985815,10 0,5.522857 4.470793,10 9.985815,10 5.515023,0 9.985815,-4.477143 9.985815,-10 0,-5.522857 -4.470792,-10 -9.985815,-10 z m -0.93422,1.994141 c 0.108652,-0.01139 0.245337,0.0065 0.354965,0 0.01299,0.05204 -0.07697,0.238754 -0.200886,0.509765 -0.789096,1.726288 -0.835714,3.747528 -0.103369,4.828125 0.132528,0.195919 0.253547,0.38202 0.253547,0.40625 0,0.02424 -0.142656,0.05078 -0.304257,0.05078 -0.37936,1e-6 -0.739015,-0.230841 -1.472516,-0.8125 -0.325849,-0.25839 -0.748649,-0.474962 -0.912767,-0.507812 -0.257716,-0.05156 -0.325822,-0.02922 -0.65922,0.304688 -0.310194,0.310584 -0.405674,0.47934 -0.405674,0.763671 0,1.078223 1.27901,1.933145 3.654964,2.4375 3.226642,0.684838 4.020395,1.298953 4.109399,2.998047 0.111743,2.130617 -1.019882,3.736741 -3.500888,4.980469 -0.296125,0.148492 -0.484266,0.207879 -0.608511,0.255859 -0.05506,-0.0049 -0.09919,0.0049 -0.154077,0 -0.02111,-0.06587 -0.0507,-0.218244 -0.0507,-0.507812 0,-1.131635 -0.444437,-2.297836 -1.115603,-2.949219 -0.180161,-0.174873 -0.68362,-0.544709 -1.115603,-0.8125 -0.431967,-0.267775 -0.868303,-0.578221 -0.965426,-0.710937 -0.160912,-0.220234 -0.17242,-0.354868 -0.04876,-0.761719 0.225359,-0.743064 0.492711,-1.159404 1.014184,-1.628906 0.273387,-0.246141 0.547946,-0.450179 0.60851,-0.455079 0.06058,-0.0049 -0.348585,-0.129893 -0.963476,-0.255859 -0.614859,-0.12621 -1.516527,-0.390047 -1.98156,-0.558594 -0.850357,-0.308125 -1.998292,-0.955677 -2.435991,-1.423827 -0.01851,-0.01985 -0.03463,-0.03321 -0.05071,-0.05078 0.627122,-2.501606 2.38681,-4.551008 4.719858,-5.539062 0.488161,-0.206768 0.99201,-0.348223 1.523227,-0.457032 0.2646,-0.05416 0.538137,-0.0757 0.811348,-0.103515 z m 7.614185,3.8125 c 0.190754,0.118078 0.911954,1.680238 1.117553,2.441406 0.265442,0.982671 0.24623,2.682022 0,3.658203 -0.09372,0.37154 -0.215544,0.718459 -0.255497,0.761719 -0.03996,0.04326 -0.186476,-0.203394 -0.356914,-0.50586 -0.170451,-0.302419 -0.711899,-0.94574 -1.164362,-1.423828 -1.306019,-1.380072 -1.512493,-2.099756 -0.965425,-3.201172 0.27589,-0.555408 1.477012,-1.821708 1.624645,-1.730468 z"
       id="path6" />
    <path
       style="fill:#ffffff;stroke-width:0.993592"
       d="m 21.617021,20 c -5.452352,0 -9.87234,4.477143 -9.87234,10 0,5.522857 4.419988,10 9.87234,10 5.452353,0 9.87234,-4.477143 9.87234,-10 0,-5.522857 -4.419987,-10 -9.87234,-10 z m -0.923604,1.994141 c 0.107417,-0.01139 0.242549,0.0065 0.350931,0 0.01284,0.05204 -0.0761,0.238754 -0.198603,0.509765 -0.780129,1.726288 -0.826217,3.747528 -0.102195,4.828125 0.131022,0.195919 0.250666,0.38202 0.250666,0.40625 0,0.02424 -0.141035,0.05078 -0.300799,0.05078 -0.375049,1e-6 -0.730617,-0.230841 -1.455783,-0.8125 -0.322146,-0.25839 -0.740141,-0.474962 -0.902395,-0.507812 -0.254787,-0.05156 -0.322119,-0.02922 -0.651728,0.304688 -0.30667,0.310584 -0.401064,0.47934 -0.401064,0.763671 0,1.078223 1.264475,1.933145 3.61343,2.4375 3.189975,0.684838 3.974709,1.298953 4.062701,2.998047 0.110474,2.130617 -1.008292,3.736741 -3.461105,4.980469 -0.29276,0.148492 -0.478763,0.207879 -0.601596,0.255859 -0.05443,-0.0049 -0.09806,0.0049 -0.152327,0 -0.02087,-0.06587 -0.05013,-0.218244 -0.05013,-0.507812 0,-1.131635 -0.439387,-2.297836 -1.102926,-2.949219 -0.178114,-0.174873 -0.675851,-0.544709 -1.102926,-0.8125 -0.427058,-0.267775 -0.858436,-0.578221 -0.954454,-0.710937 -0.159084,-0.220234 -0.170462,-0.354868 -0.04821,-0.761719 0.222798,-0.743064 0.487113,-1.159404 1.00266,-1.628906 0.27028,-0.246141 0.541719,-0.450179 0.601595,-0.455079 0.05989,-0.0049 -0.344624,-0.129893 -0.952528,-0.255859 -0.607872,-0.12621 -1.499293,-0.390047 -1.959042,-0.558594 -0.840693,-0.308125 -1.975584,-0.955677 -2.40831,-1.423827 -0.0183,-0.01985 -0.03424,-0.03321 -0.05014,-0.05078 0.619995,-2.501606 2.359688,-4.551008 4.666223,-5.539062 0.482614,-0.206768 0.980738,-0.348223 1.505917,-0.457032 0.261594,-0.05416 0.532023,-0.0757 0.802129,-0.103515 z m 7.52766,3.8125 c 0.188587,0.118078 0.901591,1.680238 1.104854,2.441406 0.262425,0.982671 0.243431,2.682022 0,3.658203 -0.09265,0.37154 -0.213094,0.718459 -0.252594,0.761719 -0.0395,0.04326 -0.184357,-0.203394 -0.352858,-0.50586 -0.168514,-0.302419 -0.703809,-0.94574 -1.151131,-1.423828 -1.291178,-1.380072 -1.495305,-2.099756 -0.954454,-3.201172 0.272755,-0.555408 1.460228,-1.821708 1.606183,-1.730468 z"
       id="path7" />
  </g>
</svg>
