<?xml version="1.0" encoding="UTF-8" standalone="no"?>
<svg
   width="48"
   height="48"
   version="1"
   id="svg18"
   sodipodi:docname="File_text.svg"
   inkscape:version="1.4 (e7c3feb100, 2024-10-09)"
   inkscape:export-filename="../TIFF/File_text.tiff"
   inkscape:export-xdpi="299.70999"
   inkscape:export-ydpi="299.70999"
   xmlns:inkscape="http://www.inkscape.org/namespaces/inkscape"
   xmlns:sodipodi="http://sodipodi.sourceforge.net/DTD/sodipodi-0.dtd"
   xmlns="http://www.w3.org/2000/svg"
   xmlns:svg="http://www.w3.org/2000/svg">
  <defs
     id="defs18" />
  <sodipodi:namedview
     id="namedview18"
     pagecolor="#505050"
     bordercolor="#ffffff"
     borderopacity="1"
     inkscape:showpageshadow="0"
     inkscape:pageopacity="0"
     inkscape:pagecheckerboard="1"
     inkscape:deskcolor="#505050"
     inkscape:zoom="16.229167"
     inkscape:cx="24"
     inkscape:cy="24"
     inkscape:window-width="1572"
     inkscape:window-height="983"
     inkscape:window-x="205"
     inkscape:window-y="0"
     inkscape:window-maximized="0"
     inkscape:current-layer="svg18" />
  <g
     id="g18"
     transform="translate(-0.0924265)">
    <path
       style="opacity:0.2;stroke-width:1.13273"
       d="M 6.1296534,5 C 4.7080281,5 3.563543,5.892 3.563543,7 v 36 c 0,1.108 1.1444851,2 2.5661104,2 H 42.055198 c 1.421625,0 2.566112,-0.892 2.566112,-2 V 17 L 30.507703,16 29.224648,5 Z"
       id="path1" />
    <path
       style="fill:#1b83d4;stroke-width:1.13273"
       d="M 6.1296534,4 C 4.7080281,4 3.563543,4.892 3.563543,6 v 36 c 0,1.108 1.1444851,2 2.5661104,2 H 42.055198 c 1.421625,0 2.566112,-0.892 2.566112,-2 V 16 L 30.507703,15 29.224648,4 Z"
       id="path2" />
    <path
       fill="#ffffff"
       opacity="0.1"
       d="M 6.1296534,4 C 4.7080281,4 3.563543,4.892 3.563543,6 v 1 c 0,-1.108 1.1444851,-2 2.5661104,-2 H 29.224648 L 43.338255,16 H 44.62131 L 29.224648,4 Z"
       id="path3"
       style="stroke-width:1.13273" />
    <path
       style="opacity:0.2;stroke-width:1.13273"
       d="m 29.224648,5 v 10 c 0,1.1046 1.148884,2 2.566109,2 H 44.62131 Z"
       id="path4" />
    <path
       style="fill:#3b9ce6;stroke-width:1.13273"
       d="m 29.224648,4 v 10 c 0,1.105 1.148333,2 2.566109,2 H 44.62131 Z"
       id="path5" />
    <g
       style="opacity:0.2"
       transform="matrix(1.2830553,0,0,1,-6.7008986,4)"
       id="g11">
      <rect
         width="11"
         height="8"
         x="25"
         y="18"
         rx="1"
         ry="1"
         id="rect5" />
      <rect
         width="10"
         height="2"
         x="12"
         y="18"
         rx="1"
         ry="1"
         id="rect6" />
      <rect
         width="10"
         height="2"
         x="12"
         y="21"
         rx="1"
         ry="1"
         id="rect7" />
      <rect
         width="10"
         height="2"
         x="12"
         y="24"
         rx="1"
         ry="1"
         id="rect8" />
      <rect
         width="10"
         height="2"
         x="12"
         y="34"
         rx="1"
         ry="1"
         id="rect9" />
      <rect
         width="24"
         height="2"
         x="12"
         y="31"
         rx="1"
         ry="1"
         id="rect10" />
      <rect
         width="24"
         height="2"
         x="12"
         y="28"
         rx="1"
         ry="0.949"
         id="rect11" />
    </g>
    <rect
       style="fill:#7ad2f9;stroke-width:1.13273"
       width="14.113609"
       height="8"
       x="25.375483"
       y="21"
       rx="1.2830553"
       ry="1"
       id="rect12" />
    <rect
       style="fill:#ffffff;stroke-width:1.13273"
       width="12.830551"
       height="2"
       x="8.6957636"
       y="21"
       rx="1.2830553"
       ry="1"
       id="rect13" />
    <rect
       style="fill:#ffffff;stroke-width:1.13273"
       width="12.830551"
       height="2"
       x="8.6957636"
       y="24"
       rx="1.2830553"
       ry="1"
       id="rect14" />
    <rect
       style="fill:#ffffff;stroke-width:1.13273"
       width="12.830551"
       height="2"
       x="8.6957636"
       y="27"
       rx="1.2830553"
       ry="1"
       id="rect15" />
    <rect
       style="fill:#ffffff;stroke-width:1.13273"
       width="12.830551"
       height="2"
       x="8.6957636"
       y="37"
       rx="1.2830553"
       ry="1"
       id="rect16" />
    <rect
       style="fill:#ffffff;stroke-width:1.13273"
       width="30.793325"
       height="2"
       x="8.6957636"
       y="34"
       rx="1.2830553"
       ry="1"
       id="rect17" />
    <rect
       style="fill:#ffffff;stroke-width:1.13273"
       width="30.793325"
       height="2"
       x="8.6957636"
       y="31"
       rx="1.2830553"
       ry="0.949"
       id="rect18" />
    <ellipse
       style="fill:#1b83d4;stroke-width:1.13273"
       cx="36.922977"
       cy="23"
       id="circle18"
       rx="1.2830553"
       ry="1" />
    <path
       style="fill:#1b83d4;stroke-width:1.13273"
       d="m 26.658536,28 3.849167,-4 5.132221,4 z"
       id="path18" />
  </g>
</svg>
