<?xml version="1.0" encoding="UTF-8" standalone="no"?>
<!-- Created with Inkscape (http://www.inkscape.org/) -->

<svg
   width="210mm"
   height="297mm"
   viewBox="0 0 210 297"
   version="1.1"
   id="svg5"
   xml:space="preserve"
   inkscape:version="1.4 (e7c3feb100, 2024-10-09)"
   sodipodi:docname="filesystem_GNUstep.svg"
   inkscape:export-filename="filesystem_English.tiff"
   inkscape:export-xdpi="94.523079"
   inkscape:export-ydpi="94.523079"
   xmlns:inkscape="http://www.inkscape.org/namespaces/inkscape"
   xmlns:sodipodi="http://sodipodi.sourceforge.net/DTD/sodipodi-0.dtd"
   xmlns="http://www.w3.org/2000/svg"
   xmlns:svg="http://www.w3.org/2000/svg"><sodipodi:namedview
     id="namedview7"
     pagecolor="#ffffff"
     bordercolor="#000000"
     borderopacity="0.25"
     inkscape:showpageshadow="2"
     inkscape:pageopacity="0.0"
     inkscape:pagecheckerboard="0"
     inkscape:deskcolor="#d1d1d1"
     inkscape:document-units="mm"
     showgrid="true"
     inkscape:zoom="0.67526655"
     inkscape:cx="381.3309"
     inkscape:cy="561.25985"
     inkscape:window-width="1566"
     inkscape:window-height="1047"
     inkscape:window-x="299"
     inkscape:window-y="0"
     inkscape:window-maximized="0"
     inkscape:current-layer="layer1"><inkscape:grid
       id="grid1"
       units="mm"
       originx="0"
       originy="0"
       spacingx="0.99999998"
       spacingy="1"
       empcolor="#0099e5"
       empopacity="0.30196078"
       color="#0099e5"
       opacity="0.14901961"
       empspacing="5"
       enabled="true"
       visible="true" /></sodipodi:namedview><defs
     id="defs2"><filter
       id="filter3214"
       inkscape:menu="Shadows and Glows"
       inkscape:menu-tooltip="Darken the edges with an inner blur"
       inkscape:label="Darken edges"
       color-interpolation-filters="sRGB"
       x="-0.19922768"
       y="-0.42174509"
       width="1.3985922"
       height="1.8434902"><feGaussianBlur
         id="feGaussianBlur3216"
         stdDeviation="0.77745194"
         result="result6" /><feComposite
         id="feComposite3218"
         operator="atop"
         result="result8"
         in2="result6"
         in="SourceGraphic" /><feComposite
         id="feComposite3220"
         operator="atop"
         result="result9"
         in2="SourceAlpha"
         in="result8" /></filter><filter
       id="filter4"
       inkscape:menu="Shadows and Glows"
       inkscape:menu-tooltip="Darken the edges with an inner blur"
       inkscape:label="Darken edges"
       color-interpolation-filters="sRGB"
       x="-0.21800064"
       y="-0.19458592"
       width="1.4360576"
       height="1.3884678"><feGaussianBlur
         id="feGaussianBlur3"
         stdDeviation="3.9009781"
         result="result6" /><feComposite
         id="feComposite3"
         operator="atop"
         result="result8"
         in2="result6"
         in="SourceGraphic" /><feComposite
         id="feComposite4"
         operator="atop"
         result="result9"
         in2="SourceAlpha"
         in="result8" /></filter><filter
       id="filter6"
       inkscape:menu="Shadows and Glows"
       inkscape:menu-tooltip="Darken the edges with an inner blur"
       inkscape:label="Darken edges"
       color-interpolation-filters="sRGB"
       x="-0.18166684"
       y="-0.42518983"
       width="1.3633337"
       height="1.7843053"><feGaussianBlur
         id="feGaussianBlur4"
         stdDeviation="2.1719654"
         result="result6" /><feComposite
         id="feComposite5"
         operator="atop"
         result="result8"
         in2="result6"
         in="SourceGraphic" /><feComposite
         id="feComposite6"
         operator="atop"
         result="result9"
         in2="SourceAlpha"
         in="result8" /></filter></defs><g
     inkscape:label="Layer 1"
     inkscape:groupmode="layer"
     id="layer1"><g
       id="g58"
       inkscape:export-filename="TIFF/FileSystem_GNUstep.tiff"
       inkscape:export-xdpi="94.523079"
       inkscape:export-ydpi="94.523079"><path
         style="fill:#333333;stroke:#333333;stroke-width:0.70637;stroke-dasharray:none"
         d="m 127.74072,74.619369 28.7823,12.81741"
         id="path45" /><path
         style="fill:#333333;stroke:#333333;stroke-width:0.70637;stroke-dasharray:none"
         d="m 122.66869,75.49183 23.25354,21.259824"
         id="path44" /><path
         style="fill:#333333;stroke:#333333;stroke-width:0.73993;stroke-dasharray:none"
         d="m 125.0335,73.656261 -11.05644,25.48035"
         id="path43" /><text
         xml:space="preserve"
         style="font-style:normal;font-variant:normal;font-weight:normal;font-stretch:normal;font-size:7.7611px;font-family:sans-serif;-inkscape-font-specification:'sans-serif, Normal';font-variant-ligatures:normal;font-variant-caps:normal;font-variant-numeric:normal;font-variant-east-asian:normal;fill:#666666;stroke-width:0.264583"
         x="90.112122"
         y="40.696983"
         id="text592"><tspan
           sodipodi:role="line"
           id="tspan22"
           x="90.112122"
           y="40.696983">root</tspan></text><text
         xml:space="preserve"
         style="font-style:normal;font-variant:normal;font-weight:normal;font-stretch:normal;font-size:7.7611px;font-family:sans-serif;-inkscape-font-specification:'sans-serif, Normal';font-variant-ligatures:normal;font-variant-caps:normal;font-variant-numeric:normal;font-variant-east-asian:normal;fill:#666666;stroke-width:0.264583"
         x="34.154354"
         y="75.16333"
         id="text652"><tspan
           sodipodi:role="line"
           id="tspan1"
           x="34.154354"
           y="75.16333">System</tspan></text><text
         xml:space="preserve"
         style="font-size:7.7611px;fill:#666666;stroke-width:0.264583"
         x="131.57968"
         y="75.091202"
         id="text658"><tspan
           sodipodi:role="line"
           id="tspan656"
           style="stroke-width:0.264583"
           x="131.57968"
           y="75.091202">Local</tspan></text><text
         xml:space="preserve"
         style="font-size:7.7611px;fill:#666666;stroke-width:0.264583"
         x="151.00365"
         y="101.56059"
         id="text713"><tspan
           sodipodi:role="line"
           id="tspan711"
           style="stroke-width:0.264583"
           x="151.00365"
           y="101.56059">Applications</tspan></text><ellipse
         id="path2245"
         style="fill:#000000;stroke:#4d4d4d;stroke-width:0.0305984"
         cx="98.7826"
         cy="57.340214"
         rx="0.5115003"
         ry="0.0040694722" /><g
         id="g8"
         transform="matrix(0.36384026,0,0,0.35216041,151.21529,76.862937)"><rect
           style="opacity:0.2;stroke-width:1.04022"
           width="40"
           height="28.133284"
           x="4"
           y="14.866714"
           rx="2"
           ry="2.1640987"
           id="rect4"
           inkscape:export-filename="TIFF/common_Folder.tiff"
           inkscape:export-xdpi="307.20001"
           inkscape:export-ydpi="307.20001" /><path
           style="fill:#8686bf;fill-opacity:1;stroke-width:1.04022"
           d="m 4,33.261554 c 0,1.198911 0.892,2.164099 2,2.164099 h 36 c 1.108,0 2,-0.965188 2,-2.164099 V 9.4564675 C 44,8.2575568 43.108,7.2923687 42,7.2923687 H 24 c -3,0 -4,-4.3281976 -7,-4.3281976 H 6 c -1.108,0 -2,0.9651881 -2,2.1640988"
           id="path6" /><rect
           style="opacity:0.2;stroke-width:1.04022"
           width="40"
           height="28.133284"
           x="4"
           y="12.702616"
           rx="2"
           ry="2.1640987"
           id="rect6" /><rect
           style="fill:#e4e4e4;stroke-width:1.04022"
           width="36"
           height="17.31279"
           x="6"
           y="10.538517"
           rx="2"
           ry="2.1640987"
           id="rect7" /><rect
           style="fill:#8686bf;fill-opacity:1;stroke-width:1.04022"
           width="40"
           height="28.133284"
           x="4"
           y="13.784665"
           rx="2"
           ry="2.1640987"
           id="rect8" /><path
           style="opacity:0.1;fill:#ffffff;stroke-width:1.04022"
           d="m 6,2.9641711 c -1.108,0 -2,0.9651881 -2,2.1640988 V 6.2103193 C 4,5.0114086 4.892,4.0462205 6,4.0462205 h 11 c 3,0 4,4.3281976 7,4.3281976 h 18 c 1.108,0 2,0.9651881 2,2.1640989 V 9.4564675 C 44,8.2575568 43.108,7.2923687 42,7.2923687 H 24 c -3,0 -4,-4.3281976 -7,-4.3281976 z"
           id="path8" /></g><path
         style="fill:#333333;stroke:#333333;stroke-width:1.014;stroke-dasharray:none"
         d="M 97.955144,57.989445 71.703165,73.662269"
         id="path13" /><path
         style="fill:#333333;stroke:#333333;stroke-width:0.914;stroke-dasharray:none"
         d="M 72.486807,72.878626 61.515831,112.06068"
         id="path14" /><g
         id="g17"
         transform="matrix(0.36384026,0,0,0.35216041,131.38447,85.091168)"><rect
           style="opacity:0.2;stroke-width:1.04022"
           width="40"
           height="28.133284"
           x="4"
           y="14.866714"
           rx="2"
           ry="2.1640987"
           id="rect14"
           inkscape:export-filename="TIFF/common_Folder.tiff"
           inkscape:export-xdpi="307.20001"
           inkscape:export-ydpi="307.20001" /><path
           style="fill:#8686bf;fill-opacity:1;stroke-width:1.04022"
           d="m 4,33.261554 c 0,1.198911 0.892,2.164099 2,2.164099 h 36 c 1.108,0 2,-0.965188 2,-2.164099 V 9.4564675 C 44,8.2575568 43.108,7.2923687 42,7.2923687 H 24 c -3,0 -4,-4.3281976 -7,-4.3281976 H 6 c -1.108,0 -2,0.9651881 -2,2.1640988"
           id="path15" /><rect
           style="opacity:0.2;stroke-width:1.04022"
           width="40"
           height="28.133284"
           x="4"
           y="12.702616"
           rx="2"
           ry="2.1640987"
           id="rect15" /><rect
           style="fill:#e4e4e4;stroke-width:1.04022"
           width="36"
           height="17.31279"
           x="6"
           y="10.538517"
           rx="2"
           ry="2.1640987"
           id="rect16" /><rect
           style="fill:#8686bf;fill-opacity:1;stroke-width:1.04022"
           width="40"
           height="28.133284"
           x="4"
           y="13.784665"
           rx="2"
           ry="2.1640987"
           id="rect17" /><path
           style="opacity:0.1;fill:#ffffff;stroke-width:1.04022"
           d="m 6,2.9641711 c -1.108,0 -2,0.9651881 -2,2.1640988 V 6.2103193 C 4,5.0114086 4.892,4.0462205 6,4.0462205 h 11 c 3,0 4,4.3281976 7,4.3281976 h 18 c 1.108,0 2,0.9651881 2,2.1640989 V 9.4564675 C 44,8.2575568 43.108,7.2923687 42,7.2923687 H 24 c -3,0 -4,-4.3281976 -7,-4.3281976 z"
           id="path17" /></g><path
         style="fill:#333333;stroke:#333333;stroke-width:0.70637;stroke-dasharray:none"
         d="M 68.98927,77.842753 92.242805,99.102578"
         id="path25" /><g
         id="g12"
         transform="matrix(0.35216041,0,0,0.35216041,63.549322,64.902649)"><rect
           style="opacity:0.2;stroke-width:1.04022"
           width="40"
           height="28.133284"
           x="4"
           y="14.866714"
           rx="2"
           ry="2.1640987"
           id="rect9"
           inkscape:export-filename="TIFF/common_Folder.tiff"
           inkscape:export-xdpi="307.20001"
           inkscape:export-ydpi="307.20001" /><path
           style="fill:#8686bf;fill-opacity:1;stroke-width:1.04022"
           d="m 4,33.261554 c 0,1.198911 0.892,2.164099 2,2.164099 h 36 c 1.108,0 2,-0.965188 2,-2.164099 V 9.4564675 C 44,8.2575568 43.108,7.2923687 42,7.2923687 H 24 c -3,0 -4,-4.3281976 -7,-4.3281976 H 6 c -1.108,0 -2,0.9651881 -2,2.1640988"
           id="path9" /><rect
           style="opacity:0.2;stroke-width:1.04022"
           width="40"
           height="28.133284"
           x="4"
           y="12.702616"
           rx="2"
           ry="2.1640987"
           id="rect10" /><rect
           style="fill:#e4e4e4;stroke-width:1.04022"
           width="36"
           height="17.31279"
           x="6"
           y="10.538517"
           rx="2"
           ry="2.1640987"
           id="rect11" /><rect
           style="fill:#8686bf;fill-opacity:1;stroke-width:1.04022"
           width="40"
           height="28.133284"
           x="4"
           y="13.784665"
           rx="2"
           ry="2.1640987"
           id="rect12" /><path
           style="opacity:0.1;fill:#ffffff;stroke-width:1.04022"
           d="m 6,2.9641711 c -1.108,0 -2,0.9651881 -2,2.1640988 V 6.2103193 C 4,5.0114086 4.892,4.0462205 6,4.0462205 h 11 c 3,0 4,4.3281976 7,4.3281976 h 18 c 1.108,0 2,0.9651881 2,2.1640989 V 9.4564675 C 44,8.2575568 43.108,7.2923687 42,7.2923687 H 24 c -3,0 -4,-4.3281976 -7,-4.3281976 z"
           id="path12" /></g><path
         style="fill:#333333;stroke:#333333;stroke-width:0.914;stroke-dasharray:none"
         d="M 63.378025,103.80798 52.407049,142.99003"
         id="path26" /><path
         style="fill:#333333;stroke:#333333;stroke-width:0.680428;stroke-dasharray:none"
         d="m 63.424722,104.70073 11.46322,20.78252"
         id="path27" /><g
         id="g21"
         transform="matrix(0.35216041,0,0,0.35216041,54.929269,99.980345)"><rect
           style="opacity:0.2;stroke-width:1.04022"
           width="40"
           height="28.133284"
           x="4"
           y="14.866714"
           rx="2"
           ry="2.1640987"
           id="rect18"
           inkscape:export-filename="TIFF/common_Folder.tiff"
           inkscape:export-xdpi="307.20001"
           inkscape:export-ydpi="307.20001" /><path
           style="fill:#8686bf;fill-opacity:1;stroke-width:1.04022"
           d="m 4,33.261554 c 0,1.198911 0.892,2.164099 2,2.164099 h 36 c 1.108,0 2,-0.965188 2,-2.164099 V 9.4564675 C 44,8.2575568 43.108,7.2923687 42,7.2923687 H 24 c -3,0 -4,-4.3281976 -7,-4.3281976 H 6 c -1.108,0 -2,0.9651881 -2,2.1640988"
           id="path18" /><rect
           style="opacity:0.2;stroke-width:1.04022"
           width="40"
           height="28.133284"
           x="4"
           y="12.702616"
           rx="2"
           ry="2.1640987"
           id="rect19" /><rect
           style="fill:#e4e4e4;stroke-width:1.04022"
           width="36"
           height="17.31279"
           x="6"
           y="10.538517"
           rx="2"
           ry="2.1640987"
           id="rect20" /><rect
           style="fill:#8686bf;fill-opacity:1;stroke-width:1.04022"
           width="40"
           height="28.133284"
           x="4"
           y="13.784665"
           rx="2"
           ry="2.1640987"
           id="rect21" /><path
           style="opacity:0.1;fill:#ffffff;stroke-width:1.04022"
           d="m 6,2.9641711 c -1.108,0 -2,0.9651881 -2,2.1640988 V 6.2103193 C 4,5.0114086 4.892,4.0462205 6,4.0462205 h 11 c 3,0 4,4.3281976 7,4.3281976 h 18 c 1.108,0 2,0.9651881 2,2.1640989 V 9.4564675 C 44,8.2575568 43.108,7.2923687 42,7.2923687 H 24 c -3,0 -4,-4.3281976 -7,-4.3281976 z"
           id="path21" /></g><text
         xml:space="preserve"
         style="font-size:7.7611px;fill:#666666;stroke-width:0.264583"
         x="23.270136"
         y="110.57246"
         id="text27"><tspan
           sodipodi:role="line"
           style="stroke-width:0.264583"
           x="23.270136"
           y="110.57246"
           id="tspan29">Library</tspan></text><text
         xml:space="preserve"
         style="font-size:7.7611px;fill:#666666;stroke-width:0.264583"
         x="11.907336"
         y="152.62656"
         id="text28"><tspan
           sodipodi:role="line"
           id="tspan28"
           style="stroke-width:0.264583"
           x="11.907336"
           y="152.62656">Documentation</tspan></text><g
         id="g33"
         transform="matrix(0.36384026,0,0,0.35216041,40.15093,129.43932)"><rect
           style="opacity:0.2;stroke-width:1.04022"
           width="40"
           height="28.133284"
           x="4"
           y="14.866714"
           rx="2"
           ry="2.1640987"
           id="rect30"
           inkscape:export-filename="TIFF/common_Folder.tiff"
           inkscape:export-xdpi="307.20001"
           inkscape:export-ydpi="307.20001" /><path
           style="fill:#8686bf;fill-opacity:1;stroke-width:1.04022"
           d="m 4,33.261554 c 0,1.198911 0.892,2.164099 2,2.164099 h 36 c 1.108,0 2,-0.965188 2,-2.164099 V 9.4564675 C 44,8.2575568 43.108,7.2923687 42,7.2923687 H 24 c -3,0 -4,-4.3281976 -7,-4.3281976 H 6 c -1.108,0 -2,0.9651881 -2,2.1640988"
           id="path30" /><rect
           style="opacity:0.2;stroke-width:1.04022"
           width="40"
           height="28.133284"
           x="4"
           y="12.702616"
           rx="2"
           ry="2.1640987"
           id="rect31" /><rect
           style="fill:#e4e4e4;stroke-width:1.04022"
           width="36"
           height="17.31279"
           x="6"
           y="10.538517"
           rx="2"
           ry="2.1640987"
           id="rect32" /><rect
           style="fill:#8686bf;fill-opacity:1;stroke-width:1.04022"
           width="40"
           height="28.133284"
           x="4"
           y="13.784665"
           rx="2"
           ry="2.1640987"
           id="rect33" /><path
           style="opacity:0.1;fill:#ffffff;stroke-width:1.04022"
           d="m 6,2.9641711 c -1.108,0 -2,0.9651881 -2,2.1640988 V 6.2103193 C 4,5.0114086 4.892,4.0462205 6,4.0462205 h 11 c 3,0 4,4.3281976 7,4.3281976 h 18 c 1.108,0 2,0.9651881 2,2.1640989 V 9.4564675 C 44,8.2575568 43.108,7.2923687 42,7.2923687 H 24 c -3,0 -4,-4.3281976 -7,-4.3281976 z"
           id="path33" /></g><g
         id="g37"
         transform="matrix(0.36384026,0,0,0.35216041,66.734074,118.39592)"><rect
           style="opacity:0.2;stroke-width:1.04022"
           width="40"
           height="28.133284"
           x="4"
           y="14.866714"
           rx="2"
           ry="2.1640987"
           id="rect34"
           inkscape:export-filename="TIFF/common_Folder.tiff"
           inkscape:export-xdpi="307.20001"
           inkscape:export-ydpi="307.20001" /><path
           style="fill:#8686bf;fill-opacity:1;stroke-width:1.04022"
           d="m 4,33.261554 c 0,1.198911 0.892,2.164099 2,2.164099 h 36 c 1.108,0 2,-0.965188 2,-2.164099 V 9.4564675 C 44,8.2575568 43.108,7.2923687 42,7.2923687 H 24 c -3,0 -4,-4.3281976 -7,-4.3281976 H 6 c -1.108,0 -2,0.9651881 -2,2.1640988"
           id="path34" /><rect
           style="opacity:0.2;stroke-width:1.04022"
           width="40"
           height="28.133284"
           x="4"
           y="12.702616"
           rx="2"
           ry="2.1640987"
           id="rect35" /><rect
           style="fill:#e4e4e4;stroke-width:1.04022"
           width="36"
           height="17.31279"
           x="6"
           y="10.538517"
           rx="2"
           ry="2.1640987"
           id="rect36" /><rect
           style="fill:#8686bf;fill-opacity:1;stroke-width:1.04022"
           width="40"
           height="28.133284"
           x="4"
           y="13.784665"
           rx="2"
           ry="2.1640987"
           id="rect37" /><path
           style="opacity:0.1;fill:#ffffff;stroke-width:1.04022"
           d="m 6,2.9641711 c -1.108,0 -2,0.9651881 -2,2.1640988 V 6.2103193 C 4,5.0114086 4.892,4.0462205 6,4.0462205 h 11 c 3,0 4,4.3281976 7,4.3281976 h 18 c 1.108,0 2,0.9651881 2,2.1640989 V 9.4564675 C 44,8.2575568 43.108,7.2923687 42,7.2923687 H 24 c -3,0 -4,-4.3281976 -7,-4.3281976 z"
           id="path37" /></g><text
         xml:space="preserve"
         style="font-size:7.7611px;fill:#666666;stroke-width:0.264583"
         x="67.154037"
         y="142.83104"
         id="text37"><tspan
           sodipodi:role="line"
           id="tspan37"
           style="stroke-width:0.264583"
           x="67.154037"
           y="142.83104">Makefiles</tspan></text><g
         id="g41"
         transform="matrix(0.36384026,0,0,0.35216041,80.839615,88.225735)"><rect
           style="opacity:0.2;stroke-width:1.04022"
           width="40"
           height="28.133284"
           x="4"
           y="14.866714"
           rx="2"
           ry="2.1640987"
           id="rect38"
           inkscape:export-filename="TIFF/common_Folder.tiff"
           inkscape:export-xdpi="307.20001"
           inkscape:export-ydpi="307.20001" /><path
           style="fill:#8686bf;fill-opacity:1;stroke-width:1.04022"
           d="m 4,33.261554 c 0,1.198911 0.892,2.164099 2,2.164099 h 36 c 1.108,0 2,-0.965188 2,-2.164099 V 9.4564675 C 44,8.2575568 43.108,7.2923687 42,7.2923687 H 24 c -3,0 -4,-4.3281976 -7,-4.3281976 H 6 c -1.108,0 -2,0.9651881 -2,2.1640988"
           id="path38" /><rect
           style="opacity:0.2;stroke-width:1.04022"
           width="40"
           height="28.133284"
           x="4"
           y="12.702616"
           rx="2"
           ry="2.1640987"
           id="rect39" /><rect
           style="fill:#e4e4e4;stroke-width:1.04022"
           width="36"
           height="17.31279"
           x="6"
           y="10.538517"
           rx="2"
           ry="2.1640987"
           id="rect40" /><rect
           style="fill:#8686bf;fill-opacity:1;stroke-width:1.04022"
           width="40"
           height="28.133284"
           x="4"
           y="13.784665"
           rx="2"
           ry="2.1640987"
           id="rect41" /><path
           style="opacity:0.1;fill:#ffffff;stroke-width:1.04022"
           d="m 6,2.9641711 c -1.108,0 -2,0.9651881 -2,2.1640988 V 6.2103193 C 4,5.0114086 4.892,4.0462205 6,4.0462205 h 11 c 3,0 4,4.3281976 7,4.3281976 h 18 c 1.108,0 2,0.9651881 2,2.1640989 V 9.4564675 C 44,8.2575568 43.108,7.2923687 42,7.2923687 H 24 c -3,0 -4,-4.3281976 -7,-4.3281976 z"
           id="path41" /></g><text
         xml:space="preserve"
         style="font-size:7.7611px;fill:#666666;stroke-width:0.264583"
         x="80.084122"
         y="111.09357"
         id="text41"><tspan
           sodipodi:role="line"
           id="tspan41"
           style="stroke-width:0.264583"
           x="80.084122"
           y="111.09357">Tools</tspan></text><path
         style="fill:#333333;stroke:#333333;stroke-width:1.014;stroke-dasharray:none"
         d="M 97.563323,57.989445 123.8153,73.662269"
         id="path42" /><g
         id="g1"
         transform="matrix(0.35216041,0,0,0.35216041,114.50199,65.108318)"><rect
           style="opacity:0.2;stroke-width:1.04022"
           width="40"
           height="28.133284"
           x="4"
           y="14.866714"
           rx="2"
           ry="2.1640987"
           id="rect24472"
           inkscape:export-filename="TIFF/common_Folder.tiff"
           inkscape:export-xdpi="307.20001"
           inkscape:export-ydpi="307.20001" /><path
           style="fill:#8686bf;fill-opacity:1;stroke-width:1.04022"
           d="m 4,33.261554 c 0,1.198911 0.892,2.164099 2,2.164099 h 36 c 1.108,0 2,-0.965188 2,-2.164099 V 9.4564675 C 44,8.2575568 43.108,7.2923687 42,7.2923687 H 24 c -3,0 -4,-4.3281976 -7,-4.3281976 H 6 c -1.108,0 -2,0.9651881 -2,2.1640988"
           id="path24474" /><rect
           style="opacity:0.2;stroke-width:1.04022"
           width="40"
           height="28.133284"
           x="4"
           y="12.702616"
           rx="2"
           ry="2.1640987"
           id="rect24476" /><rect
           style="fill:#e4e4e4;stroke-width:1.04022"
           width="36"
           height="17.31279"
           x="6"
           y="10.538517"
           rx="2"
           ry="2.1640987"
           id="rect24478" /><rect
           style="fill:#8686bf;fill-opacity:1;stroke-width:1.04022"
           width="40"
           height="28.133284"
           x="4"
           y="13.784665"
           rx="2"
           ry="2.1640987"
           id="rect24480" /><path
           style="opacity:0.1;fill:#ffffff;stroke-width:1.04022"
           d="m 6,2.9641711 c -1.108,0 -2,0.9651881 -2,2.1640988 V 6.2103193 C 4,5.0114086 4.892,4.0462205 6,4.0462205 h 11 c 3,0 4,4.3281976 7,4.3281976 h 18 c 1.108,0 2,0.9651881 2,2.1640989 V 9.4564675 C 44,8.2575568 43.108,7.2923687 42,7.2923687 H 24 c -3,0 -4,-4.3281976 -7,-4.3281976 z"
           id="path24482" /></g><g
         id="g6"
         transform="matrix(0.13128181,0,0,0.13229166,125.97274,48.802243)"
         inkscape:export-filename="TIFF/common_Root_PC.tiff"
         inkscape:export-xdpi="94.523079"
         inkscape:export-ydpi="94.523079"><rect
           style="opacity:0.2;stroke-width:3.39738"
           width="78.600006"
           height="112.77838"
           x="-251.79999"
           y="-23.078377"
           rx="6.5500002"
           ry="7.0486488"
           id="rect1" /><rect
           style="fill:#8e8e8e;stroke-width:3.39738"
           width="78.600006"
           height="112.77838"
           x="-251.79999"
           y="-26.602703"
           rx="6.5500002"
           ry="7.0486488"
           id="rect2" /><rect
           style="opacity:0.2;stroke-width:3.39738"
           width="131"
           height="112.77838"
           x="-278"
           y="-37.175674"
           rx="6.5500002"
           ry="7.0486488"
           id="rect3" /><path
           style="fill:#595959;stroke-width:3.39738"
           d="m -278,57.98108 v 7.04865 c 0,3.90495 2.9213,7.048648 6.55,7.048648 h 117.9 c 3.6287,0 6.55,-3.143698 6.55,-7.048648 v -7.04865 z"
           id="path3" /><path
           style="fill:#4f4f74;fill-opacity:1;stroke-width:3.39738"
           d="m -271.45,-40.7 c -3.6287,0 -6.55,3.143697 -6.55,7.048649 V 57.98108 h 131 v -91.632431 c 0,-3.904952 -2.9213,-7.048649 -6.55,-7.048649 z"
           id="path4" /><path
           style="opacity:0.1;fill:#ffffff;stroke-width:3.39738"
           d="m -271.45,-40.7 c -3.6287,0 -6.55,3.143697 -6.55,7.048649 v 3.524324 c 0,-3.904952 2.9213,-7.048649 6.55,-7.048649 h 117.9 c 3.6287,0 6.55,3.143697 6.55,7.048649 v -3.524324 c 0,-3.904952 -2.9213,-7.048649 -6.55,-7.048649 z"
           id="path5" /><rect
           style="opacity:0.1;fill:#ffffff;stroke-width:3.39738"
           width="131"
           height="3.5243244"
           x="-278"
           y="57.981079"
           id="rect5" /><g
           id="g5"
           transform="matrix(1.420832,0,0,1.4504631,-54.870777,-124.0563)"><path
             style="fill:#8686bf;fill-opacity:1;stroke-width:1.62115;stroke-dasharray:9.72697, 3.24231"
             d="m -129.17177,106.75435 c -1.00331,-1.16067 -2.17372,-2.96324 -2.99362,-4.61054 -5.03052,-10.107038 -2.04034,-22.193824 7.19292,-29.074961 8.6293,-6.431036 20.79944,-6.160454 29.297812,0.651387 0.697231,0.558865 1.550275,1.301757 1.895654,1.650874 l 0.627961,0.634759 h -4.725155 -4.725152 l -0.0932,4.806523 c -0.0513,2.64359 -0.0932,6.137892 -0.0932,7.76512 v 2.958593 h -8.02873 -8.02873 v 7.881663 7.881662 l -3.19199,0.0914 c -1.7556,0.0503 -3.93747,0.0915 -4.84861,0.0915 h -1.6566 z"
             id="path303" /><path
             style="fill:#8686bf;fill-opacity:1;stroke-width:1.62115;stroke-dasharray:9.72697, 3.24231"
             d="m -134.38732,113.68749 c -0.0505,-1.08677 -0.0921,-2.89632 -0.0923,-4.02122 l -5.7e-4,-2.04527 h 2.92626 2.92627 l 1.05288,1.05641 c 1.86471,1.87096 4.76238,3.82096 7.2505,4.87925 6.37419,2.71116 13.78978,2.56678 20.0161,-0.38971 1.726738,-0.81992 3.96197,-2.28241 5.464788,-3.57555 4.381471,-3.77016 7.409224,-9.53649 7.951399,-15.143374 0.09438,-0.976058 0.302027,11.618764 0.302332,18.338164 l 9.4e-5,2.87725 h -23.852953 -23.85299 z"
             id="path305" /><path
             style="fill:#8686bf;fill-opacity:1;stroke-width:1.62115;stroke-dasharray:9.72697, 3.24231"
             d="m -86.871421,89.698823 c -3.79e-4,-1.235496 -0.735964,-4.453032 -1.41856,-6.205162 -0.828655,-2.127039 -2.316112,-4.676915 -3.741024,-6.413055 l -0.76827,-0.936075 h 3.034451 3.034451 v 7.071805 c 0,3.889492 -0.03169,7.071804 -0.07043,7.071804 -0.03873,0 -0.07051,-0.265192 -0.07062,-0.589317 z"
             id="path307" /></g></g><text
         xml:space="preserve"
         style="font-size:7.7611px;fill:#666666;stroke-width:0.264583"
         x="169.81104"
         y="89.151611"
         id="text45"><tspan
           sodipodi:role="line"
           id="tspan45"
           style="stroke-width:0.264583"
           x="169.81104"
           y="89.151611">Tools</tspan></text><text
         xml:space="preserve"
         style="font-size:7.7611px;fill:#666666;stroke-width:0.264583"
         x="126.71076"
         y="113.31521"
         id="text46"><tspan
           sodipodi:role="line"
           style="stroke-width:0.264583"
           x="126.71076"
           y="113.31521"
           id="tspan46">Library</tspan></text><path
         style="fill:#333333;stroke:#333333;stroke-width:0.886001;stroke-dasharray:none"
         d="m 113.84159,112.63366 -3.75562,42.68899"
         id="path46" /><g
         id="g49"
         transform="matrix(0.36384026,0,0,0.35216041,99.646997,148.95792)"><rect
           style="opacity:0.2;stroke-width:1.04022"
           width="40"
           height="28.133284"
           x="4"
           y="14.866714"
           rx="2"
           ry="2.1640987"
           id="rect46"
           inkscape:export-filename="TIFF/common_Folder.tiff"
           inkscape:export-xdpi="307.20001"
           inkscape:export-ydpi="307.20001" /><path
           style="fill:#8686bf;fill-opacity:1;stroke-width:1.04022"
           d="m 4,33.261554 c 0,1.198911 0.892,2.164099 2,2.164099 h 36 c 1.108,0 2,-0.965188 2,-2.164099 V 9.4564675 C 44,8.2575568 43.108,7.2923687 42,7.2923687 H 24 c -3,0 -4,-4.3281976 -7,-4.3281976 H 6 c -1.108,0 -2,0.9651881 -2,2.1640988"
           id="path47" /><rect
           style="opacity:0.2;stroke-width:1.04022"
           width="40"
           height="28.133284"
           x="4"
           y="12.702616"
           rx="2"
           ry="2.1640987"
           id="rect47" /><rect
           style="fill:#e4e4e4;stroke-width:1.04022"
           width="36"
           height="17.31279"
           x="6"
           y="10.538517"
           rx="2"
           ry="2.1640987"
           id="rect48" /><rect
           style="fill:#8686bf;fill-opacity:1;stroke-width:1.04022"
           width="40"
           height="28.133284"
           x="4"
           y="13.784665"
           rx="2"
           ry="2.1640987"
           id="rect49" /><path
           style="opacity:0.1;fill:#ffffff;stroke-width:1.04022"
           d="m 6,2.9641711 c -1.108,0 -2,0.9651881 -2,2.1640988 V 6.2103193 C 4,5.0114086 4.892,4.0462205 6,4.0462205 h 11 c 3,0 4,4.3281976 7,4.3281976 h 18 c 1.108,0 2,0.9651881 2,2.1640989 V 9.4564675 C 44,8.2575568 43.108,7.2923687 42,7.2923687 H 24 c -3,0 -4,-4.3281976 -7,-4.3281976 z"
           id="path49" /></g><text
         xml:space="preserve"
         style="font-size:7.7611px;fill:#666666;stroke-width:0.264583"
         x="67.230728"
         y="172.21759"
         id="text49"><tspan
           sodipodi:role="line"
           id="tspan49"
           style="stroke-width:0.264583"
           x="67.230728"
           y="172.21759">Frameworks</tspan></text><path
         style="fill:#333333;stroke:#333333;stroke-width:0.996525;stroke-dasharray:none"
         d="m 115.48521,113.50296 10.98088,53.48865"
         id="path50" /><g
         id="g53"
         transform="matrix(0.36384026,0,0,0.35216041,122.37259,159.9289)"><rect
           style="opacity:0.2;stroke-width:1.04022"
           width="40"
           height="28.133284"
           x="4"
           y="14.866714"
           rx="2"
           ry="2.1640987"
           id="rect50"
           inkscape:export-filename="TIFF/common_Folder.tiff"
           inkscape:export-xdpi="307.20001"
           inkscape:export-ydpi="307.20001" /><path
           style="fill:#8686bf;fill-opacity:1;stroke-width:1.04022"
           d="m 4,33.261554 c 0,1.198911 0.892,2.164099 2,2.164099 h 36 c 1.108,0 2,-0.965188 2,-2.164099 V 9.4564675 C 44,8.2575568 43.108,7.2923687 42,7.2923687 H 24 c -3,0 -4,-4.3281976 -7,-4.3281976 H 6 c -1.108,0 -2,0.9651881 -2,2.1640988"
           id="path51" /><rect
           style="opacity:0.2;stroke-width:1.04022"
           width="40"
           height="28.133284"
           x="4"
           y="12.702616"
           rx="2"
           ry="2.1640987"
           id="rect51" /><rect
           style="fill:#e4e4e4;stroke-width:1.04022"
           width="36"
           height="17.31279"
           x="6"
           y="10.538517"
           rx="2"
           ry="2.1640987"
           id="rect52" /><rect
           style="fill:#8686bf;fill-opacity:1;stroke-width:1.04022"
           width="40"
           height="28.133284"
           x="4"
           y="13.784665"
           rx="2"
           ry="2.1640987"
           id="rect53" /><path
           style="opacity:0.1;fill:#ffffff;stroke-width:1.04022"
           d="m 6,2.9641711 c -1.108,0 -2,0.9651881 -2,2.1640988 V 6.2103193 C 4,5.0114086 4.892,4.0462205 6,4.0462205 h 11 c 3,0 4,4.3281976 7,4.3281976 h 18 c 1.108,0 2,0.9651881 2,2.1640989 V 9.4564675 C 44,8.2575568 43.108,7.2923687 42,7.2923687 H 24 c -3,0 -4,-4.3281976 -7,-4.3281976 z"
           id="path53" /></g><text
         xml:space="preserve"
         style="font-size:7.7611px;fill:#666666;stroke-width:0.264583"
         x="116.52343"
         y="183.18857"
         id="text53"><tspan
           sodipodi:role="line"
           id="tspan53"
           style="stroke-width:0.264583"
           x="116.52343"
           y="183.18857">Headers</tspan></text><path
         style="fill:#333333;stroke:#333333;stroke-width:0.738898;stroke-dasharray:none"
         d="m 117.05098,113.82345 19.21216,21.89385"
         id="path54" /><g
         id="g57"
         transform="matrix(0.36384026,0,0,0.35216041,128.2499,132.50146)"><rect
           style="opacity:0.2;stroke-width:1.04022"
           width="40"
           height="28.133284"
           x="4"
           y="14.866714"
           rx="2"
           ry="2.1640987"
           id="rect54"
           inkscape:export-filename="TIFF/common_Folder.tiff"
           inkscape:export-xdpi="307.20001"
           inkscape:export-ydpi="307.20001" /><path
           style="fill:#8686bf;fill-opacity:1;stroke-width:1.04022"
           d="m 4,33.261554 c 0,1.198911 0.892,2.164099 2,2.164099 h 36 c 1.108,0 2,-0.965188 2,-2.164099 V 9.4564675 C 44,8.2575568 43.108,7.2923687 42,7.2923687 H 24 c -3,0 -4,-4.3281976 -7,-4.3281976 H 6 c -1.108,0 -2,0.9651881 -2,2.1640988"
           id="path55" /><rect
           style="opacity:0.2;stroke-width:1.04022"
           width="40"
           height="28.133284"
           x="4"
           y="12.702616"
           rx="2"
           ry="2.1640987"
           id="rect55" /><rect
           style="fill:#e4e4e4;stroke-width:1.04022"
           width="36"
           height="17.31279"
           x="6"
           y="10.538517"
           rx="2"
           ry="2.1640987"
           id="rect56" /><rect
           style="fill:#8686bf;fill-opacity:1;stroke-width:1.04022"
           width="40"
           height="28.133284"
           x="4"
           y="13.784665"
           rx="2"
           ry="2.1640987"
           id="rect57" /><path
           style="opacity:0.1;fill:#ffffff;stroke-width:1.04022"
           d="m 6,2.9641711 c -1.108,0 -2,0.9651881 -2,2.1640988 V 6.2103193 C 4,5.0114086 4.892,4.0462205 6,4.0462205 h 11 c 3,0 4,4.3281976 7,4.3281976 h 18 c 1.108,0 2,0.9651881 2,2.1640989 V 9.4564675 C 44,8.2575568 43.108,7.2923687 42,7.2923687 H 24 c -3,0 -4,-4.3281976 -7,-4.3281976 z"
           id="path57" /></g><text
         xml:space="preserve"
         style="font-size:7.7611px;fill:#666666;stroke-width:0.264583"
         x="130.23714"
         y="155.76112"
         id="text57"><tspan
           sodipodi:role="line"
           id="tspan57"
           style="stroke-width:0.264583"
           x="130.23714"
           y="155.76112">Services</tspan></text><path
         style="fill:#333333;stroke:#333333;stroke-width:0.738898;stroke-dasharray:none"
         d="m 117.29371,113.28865 25.77946,13.55975"
         id="path58" /><text
         xml:space="preserve"
         style="font-size:7.7611px;fill:#666666;stroke-width:0.264583"
         x="147.08543"
         y="126.7664"
         id="text58"><tspan
           sodipodi:role="line"
           id="tspan58"
           style="stroke-width:0.264583"
           x="147.08543"
           y="126.7664">...</tspan></text><g
         id="g24"
         transform="matrix(0.36384026,0,0,0.35216041,108.65887,99.196708)"><rect
           style="opacity:0.2;stroke-width:1.04022"
           width="40"
           height="28.133284"
           x="4"
           y="14.866714"
           rx="2"
           ry="2.1640987"
           id="rect13"
           inkscape:export-filename="TIFF/common_Folder.tiff"
           inkscape:export-xdpi="307.20001"
           inkscape:export-ydpi="307.20001" /><path
           style="fill:#8686bf;fill-opacity:1;stroke-width:1.04022"
           d="m 4,33.261554 c 0,1.198911 0.892,2.164099 2,2.164099 h 36 c 1.108,0 2,-0.965188 2,-2.164099 V 9.4564675 C 44,8.2575568 43.108,7.2923687 42,7.2923687 H 24 c -3,0 -4,-4.3281976 -7,-4.3281976 H 6 c -1.108,0 -2,0.9651881 -2,2.1640988"
           id="path16" /><rect
           style="opacity:0.2;stroke-width:1.04022"
           width="40"
           height="28.133284"
           x="4"
           y="12.702616"
           rx="2"
           ry="2.1640987"
           id="rect22" /><rect
           style="fill:#e4e4e4;stroke-width:1.04022"
           width="36"
           height="17.31279"
           x="6"
           y="10.538517"
           rx="2"
           ry="2.1640987"
           id="rect23" /><rect
           style="fill:#8686bf;fill-opacity:1;stroke-width:1.04022"
           width="40"
           height="28.133284"
           x="4"
           y="13.784665"
           rx="2"
           ry="2.1640987"
           id="rect24" /><path
           style="opacity:0.1;fill:#ffffff;stroke-width:1.04022"
           d="m 6,2.9641711 c -1.108,0 -2,0.9651881 -2,2.1640988 V 6.2103193 C 4,5.0114086 4.892,4.0462205 6,4.0462205 h 11 c 3,0 4,4.3281976 7,4.3281976 h 18 c 1.108,0 2,0.9651881 2,2.1640989 V 9.4564675 C 44,8.2575568 43.108,7.2923687 42,7.2923687 H 24 c -3,0 -4,-4.3281976 -7,-4.3281976 z"
           id="path24" /></g></g></g></svg>
