<?xml version="1.0" encoding="UTF-8" standalone="no"?>
<svg
   width="48"
   height="48"
   version="1"
   id="svg40814"
   sodipodi:docname="folder-devel.svg"
   inkscape:version="1.4 (e7c3feb100, 2024-10-09)"
   xmlns:inkscape="http://www.inkscape.org/namespaces/inkscape"
   xmlns:sodipodi="http://sodipodi.sourceforge.net/DTD/sodipodi-0.dtd"
   xmlns="http://www.w3.org/2000/svg"
   xmlns:svg="http://www.w3.org/2000/svg">
  <defs
     id="defs40818" />
  <sodipodi:namedview
     id="namedview40816"
     pagecolor="#505050"
     bordercolor="#ffffff"
     borderopacity="1"
     inkscape:showpageshadow="0"
     inkscape:pageopacity="0"
     inkscape:pagecheckerboard="1"
     inkscape:deskcolor="#505050"
     showgrid="false"
     inkscape:zoom="15.791667"
     inkscape:cx="20.358839"
     inkscape:cy="23.999999"
     inkscape:window-width="1645"
     inkscape:window-height="1047"
     inkscape:window-x="273"
     inkscape:window-y="0"
     inkscape:window-maximized="0"
     inkscape:current-layer="svg40814" />
  <rect
     style="opacity:0.2;stroke-width:1.03971"
     width="40"
     height="28.105783"
     x="4"
     y="14.894217"
     rx="2"
     ry="2.1619833"
     id="rect40800"
     inkscape:export-filename="../TIFF/dir_Devel.tiff"
     inkscape:export-xdpi="307.20001"
     inkscape:export-ydpi="307.20001" />
  <path
     style="fill:#8686bf;fill-opacity:1;stroke-width:1.03971"
     d="m 4,33.271075 c 0,1.197739 0.892,2.161984 2,2.161984 h 36 c 1.108,0 2,-0.964245 2,-2.161984 V 9.4892593 C 44,8.2915206 43.108,7.327276 42,7.327276 H 24 c -3,0 -4,-4.3239665 -7,-4.3239665 H 6 c -1.108,0 -2,0.9642445 -2,2.1619833"
     id="path40802" />
  <rect
     style="opacity:0.2;stroke-width:1.03971"
     width="40"
     height="28.105783"
     x="4"
     y="12.732234"
     rx="2"
     ry="2.1619833"
     id="rect40804" />
  <rect
     style="fill:#e4e4e4;stroke-width:1.03971"
     width="36"
     height="17.295866"
     x="6"
     y="10.570251"
     rx="2"
     ry="2.1619833"
     id="rect40806" />
  <rect
     style="fill:#8686bf;fill-opacity:1;stroke-width:1.03971"
     width="40"
     height="28.105783"
     x="4"
     y="13.813226"
     rx="2"
     ry="2.1619833"
     id="rect40808" />
  <path
     style="opacity:0.1;fill:#ffffff;stroke-width:1.03971"
     d="m 6,3.0033095 c -1.108,0 -2,0.9642445 -2,2.1619833 V 6.2462844 C 4,5.0485457 4.892,4.0843011 6,4.0843011 h 11 c 3,0 4,4.3239666 7,4.3239666 h 18 c 1.108,0 2,0.9642445 2,2.1619833 V 9.4892593 C 44,8.2915206 43.108,7.327276 42,7.327276 H 24 c -3,0 -4,-4.3239665 -7,-4.3239665 z"
     id="path40810" />
  <path
     style="fill:#3a3a55;fill-opacity:1;stroke-width:1.53587"
     d="m 21.253281,17.187335 -0.243419,2.771325 c -0.917143,0.324448 -1.771468,0.797601 -2.523714,1.395426 l -2.633645,-1.186639 -2.748287,4.554287 2.388654,1.586189 c -0.08481,0.459634 -0.128776,0.926779 -0.131913,1.393924 0,0.468646 0.0424,0.937293 0.125639,1.399932 l -2.382372,1.580181 2.748287,4.552783 2.625794,-1.182131 c 0.755386,0.596323 1.611282,1.066471 2.529995,1.387915 l 0.243411,2.775832 h 5.496577 l 0.243419,-2.769823 c 0.917142,-0.324448 1.771468,-0.797601 2.523714,-1.395426 l 2.632074,1.185135 2.748288,-4.554285 -2.390225,-1.586189 c 0.0848,-0.459635 0.130344,-0.925278 0.133482,-1.392422 0,-0.468647 -0.04397,-0.937294 -0.127207,-1.399932 l 2.383943,-1.581683 -2.748289,-4.552785 -2.625792,1.182132 C 28.766309,20.754758 27.910413,20.286111 26.9917,19.964668 l -0.24185,-2.777333 z m 2.748289,7.511867 c 1.735347,0 3.1409,1.344356 3.1409,3.004147 0,1.659791 -1.405553,3.004146 -3.1409,3.004146 -1.735347,0 -3.140901,-1.344355 -3.140901,-3.004146 0,-1.659791 1.405554,-3.004147 3.140901,-3.004147 z"
     id="path5-6" />
</svg>
