<?xml version="1.0" encoding="UTF-8" standalone="no"?>
<svg
   width="48"
   height="48"
   version="1"
   id="svg13742"
   sodipodi:docname="folder-games.svg"
   inkscape:version="1.4 (e7c3feb100, 2024-10-09)"
   xmlns:inkscape="http://www.inkscape.org/namespaces/inkscape"
   xmlns:sodipodi="http://sodipodi.sourceforge.net/DTD/sodipodi-0.dtd"
   xmlns="http://www.w3.org/2000/svg"
   xmlns:svg="http://www.w3.org/2000/svg">
  <defs
     id="defs13746" />
  <sodipodi:namedview
     id="namedview13744"
     pagecolor="#505050"
     bordercolor="#ffffff"
     borderopacity="1"
     inkscape:showpageshadow="0"
     inkscape:pageopacity="0"
     inkscape:pagecheckerboard="1"
     inkscape:deskcolor="#505050"
     showgrid="false"
     inkscape:zoom="15.791667"
     inkscape:cx="21.941952"
     inkscape:cy="23.999999"
     inkscape:window-width="1645"
     inkscape:window-height="1047"
     inkscape:window-x="167"
     inkscape:window-y="23"
     inkscape:window-maximized="0"
     inkscape:current-layer="svg13742" />
  <rect
     style="opacity:0.2;stroke-width:1.03926"
     width="40"
     height="28.081472"
     x="4"
     y="14.918528"
     rx="2"
     ry="2.1601131"
     id="rect13728"
     inkscape:export-filename="../TIFF/dir_Games.tiff"
     inkscape:export-xdpi="307.20001"
     inkscape:export-ydpi="307.20001" />
  <path
     style="fill:#8686bf;fill-opacity:1;stroke-width:1.03926"
     d="m 4,33.27949 c 0,1.196703 0.892,2.160113 2,2.160113 h 36 c 1.108,0 2,-0.96341 2,-2.160113 V 9.5182448 C 44,8.3215421 43.108,7.3581316 42,7.3581316 H 24 c -3,0 -4,-4.3202264 -7,-4.3202264 H 6 c -1.108,0 -2,0.9634105 -2,2.1601132"
     id="path13730" />
  <rect
     style="opacity:0.2;stroke-width:1.03926"
     width="40"
     height="28.081472"
     x="4"
     y="12.758414"
     rx="2"
     ry="2.1601131"
     id="rect13732" />
  <rect
     style="fill:#e4e4e4;stroke-width:1.03926"
     width="36"
     height="17.280905"
     x="6"
     y="10.598301"
     rx="2"
     ry="2.1601131"
     id="rect13734" />
  <rect
     style="fill:#8686bf;fill-opacity:1;stroke-width:1.03926"
     width="40"
     height="28.081472"
     x="4"
     y="13.901796"
     rx="2"
     ry="2.1601131"
     id="rect13736" />
  <path
     style="opacity:0.1;stroke-width:1.03926"
     d="m 6,3.0379052 c -1.108,0 -2,0.9634105 -2,2.1601132 V 6.278075 C 4,5.0813723 4.892,4.1179618 6,4.1179618 h 11 c 3,0 4,4.3202264 7,4.3202264 h 18 c 1.108,0 2,0.9634105 2,2.1601128 V 9.5182448 C 44,8.3215421 43.108,7.3581316 42,7.3581316 H 24 c -3,0 -4,-4.3202264 -7,-4.3202264 z"
     id="path13738" />
  <path
     style="fill:#3a3a55;fill-opacity:1;stroke-width:1.62638"
     d="m 17.216034,17.941516 c -0.386275,0 -0.836928,0.115037 -1.303679,0.363202 -1.657766,0.90554 -3.202867,3.835812 -4.039799,7.656835 -0.708171,3.260603 -0.965688,7.689702 -0.547222,9.471203 0.370181,1.548128 1.013972,2.226874 2.156704,2.226874 1.673862,-0.03287 3.782281,-1.947488 5.134247,-4.534279 0.965688,-1.433089 3.218963,-2.075676 5.391764,-2.00994 2.156704,-0.08217 4.409978,0.576851 5.375667,2.00994 1.351965,2.586791 3.460384,4.501411 5.150341,4.534279 1.126637,0 1.770429,-0.678746 2.14061,-2.226874 0.418465,-1.781501 0.160949,-6.2106 -0.547222,-9.471203 -0.836933,-3.821023 -2.382033,-6.751295 -4.039799,-7.656835 -0.917405,-0.511114 -1.67386,-0.494679 -2.349845,0 -0.853023,0.626155 -2.623454,1.281892 -5.729752,1.281892 -3.122395,0 -4.892826,-0.655737 -5.745851,-1.281892 -0.337989,-0.248162 -0.659886,-0.363202 -1.046164,-0.363202 z m 0.402372,4.94021 h 1.593386 v 1.646738 H 20.80518 V 26.1752 h -1.593388 v 1.646737 H 17.618406 V 26.1752 H 16.02502 v -1.646736 h 1.593386 z m 11.974543,0 c 0.434559,0 0.788646,0.361559 0.788646,0.823368 0,0.460166 -0.354087,0.82337 -0.788646,0.82337 -0.450656,0 -0.804741,-0.363204 -0.804741,-0.82337 0,-0.461809 0.354085,-0.823368 0.804741,-0.823368 z m -1.593388,1.646738 c 0.434561,0 0.788647,0.361558 0.788647,0.823369 0,0.460165 -0.354086,0.823367 -0.788647,0.823367 -0.450654,0 -0.80474,-0.363202 -0.80474,-0.823367 0,-0.461811 0.354086,-0.823369 0.80474,-0.823369 z m 3.186775,0 c 0.434559,0 0.788645,0.361558 0.788645,0.823369 0,0.460165 -0.354086,0.823367 -0.788645,0.823367 -0.450655,0 -0.804741,-0.363202 -0.804741,-0.823367 0,-0.461811 0.354086,-0.823369 0.804741,-0.823369 z M 29.592949,26.1752 c 0.434559,0 0.788646,0.361559 0.788646,0.823369 0,0.460166 -0.354087,0.823368 -0.788646,0.823368 -0.450656,0 -0.804741,-0.363202 -0.804741,-0.823368 0,-0.46181 0.354085,-0.823369 0.804741,-0.823369 z"
     id="path5" />
</svg>
