<?xml version="1.0" encoding="UTF-8" standalone="no"?>
<svg
   width="48"
   height="48"
   version="1"
   id="svg13742"
   sodipodi:docname="folder-help.svg"
   inkscape:version="1.4 (e7c3feb100, 2024-10-09)"
   xml:space="preserve"
   inkscape:export-filename="../../install/RESOURCES/ICONS/dir_Help.tiff"
   inkscape:export-xdpi="256"
   inkscape:export-ydpi="256"
   xmlns:inkscape="http://www.inkscape.org/namespaces/inkscape"
   xmlns:sodipodi="http://sodipodi.sourceforge.net/DTD/sodipodi-0.dtd"
   xmlns="http://www.w3.org/2000/svg"
   xmlns:svg="http://www.w3.org/2000/svg"><defs
     id="defs13746" /><sodipodi:namedview
     id="namedview13744"
     pagecolor="#505050"
     bordercolor="#ffffff"
     borderopacity="1"
     inkscape:showpageshadow="0"
     inkscape:pageopacity="0"
     inkscape:pagecheckerboard="1"
     inkscape:deskcolor="#505050"
     showgrid="false"
     inkscape:zoom="15.791667"
     inkscape:cx="21.562005"
     inkscape:cy="23.999999"
     inkscape:window-width="1645"
     inkscape:window-height="1047"
     inkscape:window-x="272"
     inkscape:window-y="0"
     inkscape:window-maximized="0"
     inkscape:current-layer="svg13742" /><g
     id="g2"><rect
       style="opacity:0.2;stroke-width:1.03926"
       width="40"
       height="28.081472"
       x="4"
       y="14.918528"
       rx="2"
       ry="2.1601131"
       id="rect13728"
       inkscape:export-filename="TIFF/common_ApplicationFolder.tiff"
       inkscape:export-xdpi="307.20001"
       inkscape:export-ydpi="307.20001" /><path
       style="fill:#8686bf;fill-opacity:1;stroke-width:1.03926"
       d="m 4,33.27949 c 0,1.196703 0.892,2.160113 2,2.160113 h 36 c 1.108,0 2,-0.96341 2,-2.160113 V 9.5182448 C 44,8.3215421 43.108,7.3581316 42,7.3581316 H 24 c -3,0 -4,-4.3202264 -7,-4.3202264 H 6 c -1.108,0 -2,0.9634105 -2,2.1601132"
       id="path13730" /><rect
       style="opacity:0.2;stroke-width:1.03926"
       width="40"
       height="28.081472"
       x="4"
       y="12.758414"
       rx="2"
       ry="2.1601131"
       id="rect13732" /><rect
       style="fill:#e4e4e4;stroke-width:1.03926"
       width="36"
       height="17.280905"
       x="6"
       y="10.598301"
       rx="2"
       ry="2.1601131"
       id="rect13734" /><rect
       style="fill:#8686bf;fill-opacity:1;stroke-width:1.03926"
       width="40"
       height="28.081472"
       x="4"
       y="13.838471"
       rx="2"
       ry="2.1601131"
       id="rect13736" /><path
       style="opacity:0.1;stroke-width:1.03926"
       d="m 6,3.0379052 c -1.108,0 -2,0.9634105 -2,2.1601132 V 6.278075 C 4,5.0813723 4.892,4.1179618 6,4.1179618 h 11 c 3,0 4,4.3202264 7,4.3202264 h 18 c 1.108,0 2,0.9634105 2,2.1601128 V 9.5182448 C 44,8.3215421 43.108,7.3581316 42,7.3581316 H 24 c -3,0 -4,-4.3202264 -7,-4.3202264 z"
       id="path13738" /><g
       id="g1"
       transform="translate(-15.477573,17.604221)"><ellipse
         style="fill:#3a3a55;fill-opacity:1;stroke-width:0.433234"
         cx="39.477573"
         cy="-9.562005"
         id="circle1"
         transform="scale(1,-1)"
         rx="8.6015835"
         ry="8.7282324" /><ellipse
         style="fill:#ffffff;stroke-width:0.433234"
         cx="39.477573"
         cy="-4.3250656"
         id="circle2"
         transform="scale(1,-1)"
         rx="0.86015832"
         ry="0.87282324" /><path
         style="fill:#ffffff;fill-rule:evenodd;stroke-width:0.433234"
         d="m 38.617415,6.5071238 h 1.720316 v 8.7282322 h -1.720316 z"
         id="path2" /></g></g></svg>
