<?xml version="1.0" encoding="UTF-8" standalone="no"?>
<svg
   width="48"
   height="48"
   version="1"
   id="svg40814"
   sodipodi:docname="folder-tools.svg"
   inkscape:version="1.4 (e7c3feb100, 2024-10-09)"
   xmlns:inkscape="http://www.inkscape.org/namespaces/inkscape"
   xmlns:sodipodi="http://sodipodi.sourceforge.net/DTD/sodipodi-0.dtd"
   xmlns="http://www.w3.org/2000/svg"
   xmlns:svg="http://www.w3.org/2000/svg">
  <defs
     id="defs40818" />
  <sodipodi:namedview
     id="namedview40816"
     pagecolor="#505050"
     bordercolor="#ffffff"
     borderopacity="1"
     inkscape:showpageshadow="0"
     inkscape:pageopacity="0"
     inkscape:pagecheckerboard="1"
     inkscape:deskcolor="#505050"
     showgrid="false"
     inkscape:zoom="15.791667"
     inkscape:cx="20.358839"
     inkscape:cy="23.999999"
     inkscape:window-width="1645"
     inkscape:window-height="1047"
     inkscape:window-x="273"
     inkscape:window-y="0"
     inkscape:window-maximized="0"
     inkscape:current-layer="svg40814" />
  <rect
     style="opacity:0.2;stroke-width:1.03971"
     width="40"
     height="28.105783"
     x="4"
     y="14.894217"
     rx="2"
     ry="2.1619833"
     id="rect40800"
     inkscape:export-filename="../TIFF/dir_Tools.tiff"
     inkscape:export-xdpi="307.20001"
     inkscape:export-ydpi="307.20001" />
  <path
     style="fill:#8686bf;fill-opacity:1;stroke-width:1.03971"
     d="m 4,33.271075 c 0,1.197739 0.892,2.161984 2,2.161984 h 36 c 1.108,0 2,-0.964245 2,-2.161984 V 9.4892593 C 44,8.2915206 43.108,7.327276 42,7.327276 H 24 c -3,0 -4,-4.3239665 -7,-4.3239665 H 6 c -1.108,0 -2,0.9642445 -2,2.1619833"
     id="path40802" />
  <rect
     style="opacity:0.2;stroke-width:1.03971"
     width="40"
     height="28.105783"
     x="4"
     y="12.732234"
     rx="2"
     ry="2.1619833"
     id="rect40804" />
  <rect
     style="fill:#e4e4e4;stroke-width:1.03971"
     width="36"
     height="17.295866"
     x="6"
     y="10.570251"
     rx="2"
     ry="2.1619833"
     id="rect40806" />
  <rect
     style="fill:#8686bf;fill-opacity:1;stroke-width:1.03971"
     width="40"
     height="28.105783"
     x="4"
     y="13.813226"
     rx="2"
     ry="2.1619833"
     id="rect40808" />
  <path
     style="opacity:0.1;fill:#ffffff;stroke-width:1.03971"
     d="m 6,3.0033095 c -1.108,0 -2,0.9642445 -2,2.1619833 V 6.2462844 C 4,5.0485457 4.892,4.0843011 6,4.0843011 h 11 c 3,0 4,4.3239666 7,4.3239666 h 18 c 1.108,0 2,0.9642445 2,2.1619833 V 9.4892593 C 44,8.2915206 43.108,7.327276 42,7.327276 H 24 c -3,0 -4,-4.3239665 -7,-4.3239665 z"
     id="path40810" />
  <g
     id="g2"
     transform="matrix(1.2251539,0,0,1.1333148,-4.6437994,0.29051516)">
    <path
       style="opacity:0.2"
       d="m 18.318717,16.00094 c -0.300582,0.0051 -0.600008,0.02908 -0.887965,0.05741 -1.366994,0.08525 -0.515943,1.103723 0.318233,1.306846 1.366293,0.389765 1.358647,1.941227 0.546962,2.915161 -0.742782,1.261249 -1.858766,0.06298 -2.725242,-0.349616 -1.291773,-0.214141 -0.0441,1.580664 0.36647,2.020602 0.615366,0.951536 1.662696,1.407933 2.739648,1.243784 1.352034,-0.193545 2.302892,0.958432 3.195342,1.826838 2.514148,2.343712 5.073382,4.908193 7.602556,7.479475 0.37181,0.318261 0.777839,0.681204 1.064082,1.088407 1.389444,1.305141 3.461423,-0.776134 1.909317,-2.443402 -3.214653,-2.96043 -6.517965,-6.368988 -9.488287,-9.266302 -0.486143,-0.476125 -0.94007,-0.97957 -1.250408,-1.599396 -0.524672,-1.086712 0.03483,-2.53849 -0.937783,-3.408543 -0.639567,-0.729264 -1.551176,-0.88618 -2.452925,-0.871264 z"
       id="path4" />
    <g
       id="g1">
      <path
         style="opacity:0.2;fill:#3a3a55;fill-opacity:1"
         d="m 26.316138,16.026205 c -0.949538,-0.125972 -1.964318,0.205704 -2.65449,0.92 0.1834,0.386239 1.305679,0.194507 1.710349,0.733077 0.602642,0.519102 1.639079,1.656909 0.867232,2.44242 -3.001306,2.934133 -6.625175,6.535247 -9.607344,9.49336 -0.543923,0.686866 -1.487092,1.142858 -1.631885,2.09831 0.177842,0.952028 1.009955,1.632779 1.670776,2.205948 0.295228,0.158835 0.698638,0.07392 0.930657,-0.173853 3.954957,-4.227042 6.755527,-7.777866 10.37411,-11.833642 0.443369,-0.38231 1.203702,-0.343128 1.191403,0.457875 -0.500349,0.870383 0.765933,1.381286 1.166923,2.021174 0.460526,0.341408 0.778336,-0.323266 1.116452,-0.566286 C 31.948019,23.163884 32.976744,22.751129 33,21.815286 32.429906,21.24614 31.957298,19.849907 31.094899,20.210771 30.238933,19.815792 30.59666,18.37367 29.686461,17.880482 28.968137,17.286388 28.035667,17.1499 27.377545,16.38879 27.04932,16.194852 26.687697,16.0755 26.316138,16.026205 Z"
         id="path2" />
      <path
         style="fill:#3a3a55;fill-opacity:1"
         d="m 26.316138,15.026206 c -0.949538,-0.125972 -1.964318,0.205704 -2.65449,0.92 0.1834,0.386239 1.305679,0.194507 1.710349,0.733077 0.602642,0.519102 1.639079,1.656909 0.867232,2.44242 -3.001306,2.934133 -6.625175,6.535247 -9.607344,9.49336 -0.543923,0.686866 -1.487092,1.142858 -1.631885,2.09831 0.177842,0.952028 1.009955,1.632779 1.670776,2.205948 0.295228,0.158835 0.698638,0.07392 0.930657,-0.173853 3.954957,-4.227042 6.755527,-7.777866 10.37411,-11.833642 0.443369,-0.38231 1.203702,-0.343128 1.191403,0.457875 -0.500349,0.870383 0.765933,1.381286 1.166923,2.021174 0.460526,0.341408 0.778336,-0.323266 1.116452,-0.566286 C 31.948019,22.163885 32.976744,21.75113 33,20.815287 32.429906,20.246141 31.957298,18.849908 31.094899,19.210772 30.238933,18.815793 30.59666,17.373671 29.686461,16.880483 28.968137,16.286389 28.035667,16.149901 27.377545,15.388791 27.04932,15.194853 26.687697,15.075501 26.316138,15.026206 Z"
         id="path3" />
      <path
         style="fill:#3a3a55;fill-opacity:1"
         d="m 18.318717,15.000941 c -0.300582,0.0051 -0.600008,0.02908 -0.887965,0.05741 -1.366994,0.08525 -0.515943,1.103723 0.318233,1.306846 1.366293,0.389765 1.358647,1.941227 0.546962,2.915161 -0.742782,1.261249 -1.858766,0.06298 -2.725242,-0.349616 -1.291773,-0.214141 -0.0441,1.580664 0.36647,2.020602 0.615366,0.951536 1.662696,1.407933 2.739648,1.243784 1.352034,-0.193545 2.302892,0.958432 3.195342,1.826838 2.514148,2.343712 5.073382,4.908193 7.602556,7.479475 0.37181,0.318261 0.777839,0.681204 1.064082,1.088407 1.389444,1.305141 3.461423,-0.776134 1.909317,-2.443402 -3.214653,-2.96043 -6.517965,-6.368988 -9.488287,-9.266302 -0.486143,-0.476125 -0.94007,-0.97957 -1.250408,-1.599396 -0.524672,-1.086712 0.03483,-2.53849 -0.937783,-3.408543 -0.639567,-0.729264 -1.551176,-0.88618 -2.452925,-0.871264 z"
         id="path5" />
    </g>
  </g>
</svg>
