<?xml version="1.0" encoding="UTF-8" standalone="no"?>
<svg
   width="48"
   height="48"
   version="1"
   id="svg19857"
   sodipodi:docname="folder-bookshelf.svg"
   inkscape:version="1.4 (e7c3feb100, 2024-10-09)"
   xmlns:inkscape="http://www.inkscape.org/namespaces/inkscape"
   xmlns:sodipodi="http://sodipodi.sourceforge.net/DTD/sodipodi-0.dtd"
   xmlns="http://www.w3.org/2000/svg"
   xmlns:svg="http://www.w3.org/2000/svg">
  <defs
     id="defs19861" />
  <sodipodi:namedview
     id="namedview19859"
     pagecolor="#505050"
     bordercolor="#ffffff"
     borderopacity="1"
     inkscape:showpageshadow="0"
     inkscape:pageopacity="0"
     inkscape:pagecheckerboard="1"
     inkscape:deskcolor="#505050"
     showgrid="false"
     inkscape:zoom="17.583333"
     inkscape:cx="24"
     inkscape:cy="24"
     inkscape:window-width="1520"
     inkscape:window-height="1047"
     inkscape:window-x="319"
     inkscape:window-y="2"
     inkscape:window-maximized="0"
     inkscape:current-layer="svg19857" />
  <g
     id="g1"
     inkscape:export-filename="../TIFF/dir_Bookshelf.tiff"
     inkscape:export-xdpi="307.20001"
     inkscape:export-ydpi="307.20001">
    <rect
       style="opacity:0.2;stroke-width:1.0382"
       width="40"
       height="28.024286"
       x="4"
       y="14.975711"
       rx="2"
       ry="2.1557145"
       id="rect19843"
       inkscape:export-filename="TIFF/common_LibraryFolder.tiff"
       inkscape:export-xdpi="307.20001"
       inkscape:export-ydpi="307.20001" />
    <path
       style="fill:#8686bf;fill-opacity:1;stroke-width:1.0382"
       d="m 4,33.299284 c 0,1.194265 0.892,2.155714 2,2.155714 h 36 c 1.108,0 2,-0.961449 2,-2.155714 V 9.5864253 C 44,8.3921595 43.108,7.4307109 42,7.4307109 H 24 c -3,0 -4,-4.3114288 -7,-4.3114288 H 6 c -1.108,0 -2,0.9614486 -2,2.1557144"
       id="path19845" />
    <rect
       style="opacity:0.2;stroke-width:1.0382"
       width="40"
       height="28.024286"
       x="4"
       y="12.819997"
       rx="2"
       ry="2.1557145"
       id="rect19847" />
    <rect
       style="fill:#e4e4e4;stroke-width:1.0382"
       width="36"
       height="17.245716"
       x="6"
       y="10.664283"
       rx="2"
       ry="2.1557145"
       id="rect19849" />
    <rect
       style="fill:#8686bf;fill-opacity:1;stroke-width:1.0382"
       width="40"
       height="28.024286"
       x="4"
       y="13.897854"
       rx="2"
       ry="2.1557145"
       id="rect19851" />
    <path
       style="opacity:0.1;fill:#ffffff;stroke-width:1.0382"
       d="m 6,3.1192821 c -1.108,0 -2,0.9614486 -2,2.1557144 V 6.3528537 C 4,5.1585879 4.892,4.1971393 6,4.1971393 h 11 c 3,0 4,4.3114288 7,4.3114288 h 18 c 1.108,0 2,0.9614486 2,2.1557149 V 9.5864253 C 44,8.3921595 43.108,7.4307109 42,7.4307109 H 24 c -3,0 -4,-4.3114288 -7,-4.3114288 z"
       id="path19853" />
    <path
       style="fill:#3a3a55;fill-opacity:1;stroke-width:1.49186"
       d="m 11.682464,16.465479 c -2.682464,0 -4.0236962,1.659395 -4.0236962,1.659395 v 11.615759 c 0,0 1.3412322,-1.659394 4.0236962,-1.659394 2.682465,0 5.36493,3.318787 5.36493,3.318787 V 19.784268 c 0,0 -2.682465,-3.318789 -5.36493,-3.318789 z m 13.412323,0 c -2.682464,0 -5.364929,3.318789 -5.364929,3.318789 v 11.615758 c 0,0 2.682465,-3.318787 5.364929,-3.318787 2.682465,0 4.023697,1.659394 4.023697,1.659394 V 18.124874 c 0,0 -1.341232,-1.659395 -4.023697,-1.659395 z M 11.682464,29.740633 c -2.682464,0 -4.0236962,1.659393 -4.0236962,1.659393 v 3.318791 c 0,0 1.3412322,-1.659397 4.0236962,-1.659397 2.682465,0 5.36493,3.31879 5.36493,3.31879 v -3.31879 c 0,0 -2.682465,-3.318787 -5.36493,-3.318787 z m 13.412323,0 c -2.682464,0 -5.371721,3.306655 -5.364929,3.318787 v 3.31879 c 0,0 2.682465,-3.31879 5.364929,-3.31879 2.682465,0 4.023697,1.659397 4.023697,1.659397 v -3.318791 c 0,0 -1.341232,-1.659393 -4.023697,-1.659393 z"
       id="path19855" />
    <path
       fill="#000000"
       d="m 28.32013,20.328225 c -0.09475,0.0029 -0.196795,0.03725 -0.312528,0.126894 -0.28352,-0.107331 -0.558402,-0.144616 -0.804225,0.07389 -0.379598,-0.04834 -0.502954,0.05141 -0.596414,0.167851 -0.08333,-0.0017 -0.623563,-0.08409 -0.871296,0.27869 -0.622568,-0.07232 -0.819331,0.359491 -0.596389,0.762158 -0.127149,0.193238 -0.258899,0.384137 0.03845,0.75252 -0.105188,0.205176 -0.03999,0.42775 0.207798,0.697112 -0.06539,0.28843 0.06315,0.491922 0.293704,0.650517 -0.04312,0.3947 0.368708,0.624174 0.491672,0.705952 0.04722,0.229981 0.145632,0.446999 0.616023,0.566992 0.07757,0.342734 0.360278,0.401921 0.634034,0.473856 -0.904806,0.516312 -1.680731,1.195638 -1.675469,2.86246 l -0.132532,0.232101 c -1.037482,0.619369 -1.970902,2.610087 -0.51128,4.228156 0.09534,0.506495 0.255237,0.870303 0.397609,1.272944 0.212937,1.622464 1.602639,2.38218 1.969174,2.472027 0.537118,0.401639 1.10916,0.782744 1.883279,1.049689 0.729745,0.738848 1.520331,1.020442 2.315236,1.01998 0.01165,-8e-6 0.02352,1.28e-4 0.03518,0 0.794905,4.85e-4 1.585464,-0.281106 2.315236,-1.01998 0.774093,-0.266945 1.34616,-0.64805 1.883279,-1.049689 0.366535,-0.08984 1.756232,-0.849563 1.969173,-2.472027 0.14236,-0.402641 0.302265,-0.766449 0.39761,-1.272944 1.459595,-1.618197 0.526202,-3.609044 -0.511306,-4.228413 l -0.132728,-0.23207 c 0.0053,-1.666693 -0.770664,-2.34602 -1.675469,-2.862461 0.273756,-0.07192 0.556465,-0.131105 0.634034,-0.473855 0.470388,-0.120014 0.568821,-0.337029 0.616023,-0.566993 0.122984,-0.08176 0.534788,-0.311252 0.491671,-0.705951 0.230552,-0.15861 0.3591,-0.362113 0.293705,-0.650518 0.247783,-0.269361 0.312998,-0.491922 0.207797,-0.697111 0.297396,-0.368229 0.165452,-0.559128 0.03848,-0.752366 0.222785,-0.402667 0.02618,-0.834477 -0.596624,-0.762158 -0.247655,-0.36278 -0.787732,-0.280386 -0.871243,-0.27869 -0.09346,-0.116446 -0.216764,-0.216188 -0.596363,-0.167851 -0.245822,-0.218506 -0.520704,-0.181221 -0.804225,-0.07389 -0.336664,-0.260803 -0.559449,-0.05174 -0.813911,0.0273 -0.40761,-0.130754 -0.500808,0.04834 -0.701079,0.121273 -0.444523,-0.09221 -0.579607,0.108557 -0.792706,0.320453 l -0.247886,-0.0048 c -0.670475,0.387889 -1.003553,1.177726 -1.121621,1.583759 -0.118123,-0.40611 -0.45044,-1.195947 -1.120784,-1.583759 l -0.247886,0.0048 c -0.21336,-0.211896 -0.348445,-0.412664 -0.792968,-0.320453 -0.200271,-0.07293 -0.293207,-0.252027 -0.701079,-0.121273 -0.167015,-0.05187 -0.320616,-0.15971 -0.501489,-0.1542 z"
       id="path1427-6"
       style="stroke-width:0.0259385;fill:#3a3a55;fill-opacity:1" />
    <path
       fill="#75a928"
       d="m 26.985252,22.034697 c 1.778825,0.900295 2.812955,1.62858 3.379473,2.248848 -0.290118,1.141541 -1.803642,1.193634 -2.35707,1.161612 0.113314,-0.05178 0.20786,-0.113794 0.241385,-0.209087 -0.138867,-0.09688 -0.631259,-0.01021 -0.975018,-0.199796 0.13205,-0.02686 0.193818,-0.05302 0.255585,-0.148685 -0.324779,-0.101687 -0.674612,-0.189316 -0.880354,-0.357769 0.111034,0.0013 0.214701,0.02438 0.359702,-0.07434 -0.290903,-0.153897 -0.60131,-0.275863 -0.842473,-0.511095 0.150405,-0.0036 0.312554,-0.0015 0.359702,-0.05576 -0.266242,-0.161928 -0.490886,-0.342015 -0.676837,-0.538979 0.210481,0.02494 0.299359,0.0035 0.350252,-0.03253 -0.201261,-0.202367 -0.45599,-0.373241 -0.577435,-0.622607 0.15628,0.05288 0.299255,0.07312 0.402322,-0.0046 -0.06839,-0.151462 -0.361404,-0.240798 -0.530103,-0.594748 0.164521,0.01566 0.339021,0.03524 0.373918,0 -0.07636,-0.305418 -0.207392,-0.47712 -0.335905,-0.655015 0.35211,-0.0051 0.88559,0.0013 0.861426,-0.02788 l -0.217719,-0.21838 c 0.343942,-0.09091 0.695869,0.0146 0.951352,0.09293 0.114715,-0.08886 -0.002,-0.20123 -0.141991,-0.315955 0.292291,0.03831 0.556413,0.104275 0.795141,0.19515 0.127556,-0.113062 -0.08283,-0.226126 -0.184589,-0.339188 0.451565,0.08411 0.642882,0.202277 0.833022,0.320607 0.137948,-0.129805 0.0079,-0.240122 -0.08519,-0.353117 0.340486,0.123796 0.515861,0.283624 0.700503,0.441396 0.0626,-0.08294 0.159036,-0.143724 0.0426,-0.343839 0.241744,0.136793 0.423815,0.297991 0.558507,0.478584 0.149572,-0.09349 0.08911,-0.221354 0.08993,-0.339188 0.251231,0.200627 0.410673,0.414129 0.605839,0.622607 0.03931,-0.0281 0.07374,-0.123403 0.104128,-0.274141 0.599372,0.570847 1.446296,2.008656 0.217719,2.578733 -1.045597,-0.846557 -2.294345,-1.461891 -3.678178,-1.923487 z"
       id="path1429-7"
       style="stroke-width:0.0259385;fill:#8686bf;fill-opacity:1" />
    <path
       fill="#75a928"
       d="m 36.423639,22.034697 c -1.778615,0.900372 -2.812693,1.628451 -3.379211,2.248848 0.290118,1.141541 1.803642,1.193634 2.357071,1.161612 -0.113314,-0.05178 -0.207861,-0.113794 -0.241386,-0.209087 0.138868,-0.09688 0.631259,-0.01021 0.975018,-0.199796 -0.13205,-0.02686 -0.193817,-0.05302 -0.255585,-0.148685 0.32478,-0.101687 0.674612,-0.189316 0.880355,-0.357769 -0.111034,0.0013 -0.214701,0.02438 -0.359703,-0.07434 0.290904,-0.153897 0.60131,-0.275863 0.842473,-0.511095 -0.150404,-0.0036 -0.312553,-0.0015 -0.359702,-0.05576 0.266242,-0.161928 0.490886,-0.342015 0.676837,-0.538979 -0.210481,0.02494 -0.299359,0.0035 -0.350251,-0.03253 0.20126,-0.202367 0.455989,-0.373241 0.577434,-0.622607 -0.156279,0.05288 -0.299254,0.07312 -0.402322,-0.0046 0.06839,-0.151462 0.361404,-0.240798 0.530103,-0.594748 -0.164521,0.01566 -0.339021,0.03524 -0.373918,0 0.0765,-0.305547 0.207536,-0.477248 0.336037,-0.655143 -0.352111,-0.0051 -0.88559,0.0013 -0.861427,-0.02788 l 0.217719,-0.218381 c -0.343942,-0.09091 -0.695869,0.0146 -0.951352,0.09293 -0.114714,-0.08886 0.002,-0.201231 0.141991,-0.315955 -0.292291,0.03831 -0.556413,0.104275 -0.795141,0.19515 -0.127555,-0.113062 0.08283,-0.226127 0.18459,-0.339188 -0.451565,0.08411 -0.642883,0.202276 -0.833023,0.320607 -0.137948,-0.129806 -0.0079,-0.240123 0.08519,-0.353118 -0.340486,0.123797 -0.515861,0.283625 -0.700503,0.441397 -0.0626,-0.08294 -0.159036,-0.143725 -0.0426,-0.34384 -0.241744,0.136793 -0.423815,0.297991 -0.558507,0.478585 -0.149573,-0.09349 -0.08911,-0.221354 -0.08993,-0.339188 -0.251231,0.200626 -0.410673,0.414129 -0.605839,0.622607 -0.03931,-0.0281 -0.07374,-0.123404 -0.104127,-0.274142 -0.599373,0.570848 -1.446297,2.008657 -0.21772,2.578733 1.045048,-0.846736 2.293717,-1.462018 3.677654,-1.923615 z"
       id="path1431-5"
       style="stroke-width:0.0259385;fill:#8686bf;fill-opacity:1" />
    <path
       fill="#bc1142"
       d="m 33.858632,33.658931 a 2.1307237,1.9288172 0 1 1 -4.261388,0 2.1307237,1.9288172 0 1 1 4.261388,0 z"
       id="path1433-3"
       style="stroke-width:0.0292995;fill:#8686bf;fill-opacity:1" />
    <path
       fill="#bc1142"
       d="m 30.49505,28.148989 a 1.899137,2.2274147 37.147287 1 1 -2.486182,3.693397 1.899137,2.2274147 37.147287 1 1 2.486182,-3.693397 z"
       id="path1435-5"
       style="stroke-width:0.0493032;fill:#8686bf;fill-opacity:1" />
    <path
       fill="#bc1142"
       d="m 32.877981,28.046189 a 2.2274147,1.899137 52.852713 1 0 2.486182,3.693397 2.2274147,1.899137 52.852713 1 0 -2.486182,-3.693397 z"
       id="path1437-6"
       style="stroke-width:0.0493032;fill:#8686bf;fill-opacity:1" />
    <path
       fill="#bc1142"
       d="m 26.082593,29.077357 c 0.953185,-0.250832 0.321795,3.871183 -0.453764,3.532972 -0.853101,-0.673596 -1.127878,-2.646324 0.453764,-3.532972 z"
       id="path1439-2"
       style="stroke-width:0.0259385;fill:#8686bf;fill-opacity:1" />
    <path
       fill="#bc1142"
       d="m 37.098015,29.025957 c -0.953289,-0.250752 -0.321794,3.87144 0.453765,3.533229 0.853101,-0.673673 1.127878,-2.646581 -0.453765,-3.533229 z"
       id="path1441-9"
       style="stroke-width:0.0259385;fill:#8686bf;fill-opacity:1" />
    <path
       fill="#bc1142"
       d="m 33.859387,25.956355 c 1.64497,-0.272677 3.013749,0.686754 2.958511,2.437846 -0.05411,0.671308 -3.56456,-2.337899 -2.958511,-2.437846 z"
       id="path1443-1"
       style="stroke-width:0.0259385;fill:#8686bf;fill-opacity:1" />
    <path
       fill="#bc1142"
       d="m 29.314416,25.904955 c -1.645101,-0.272676 -3.01375,0.68696 -2.958512,2.437897 0.05411,0.671283 3.56456,-2.337924 2.958512,-2.437897 z"
       id="path1445-2"
       style="stroke-width:0.0259385;fill:#8686bf;fill-opacity:1" />
    <path
       fill="#bc1142"
       d="m 31.67735,25.496583 c -0.981798,-0.02507 -1.92404,0.715332 -1.926318,1.144778 -0.0027,0.521812 0.77624,1.056088 1.932994,1.069632 1.181284,0.0083 1.935062,-0.427647 1.938858,-0.966164 0.0043,-0.610116 -1.074368,-1.257678 -1.94556,-1.248272 z"
       id="path1447-7"
       style="stroke-width:0.0259385;fill:#8686bf;fill-opacity:1" />
    <path
       fill="#bc1142"
       d="m 31.737301,36.197014 c 0.855981,-0.03668 2.004567,0.270672 2.006819,0.678376 0.01421,0.395908 -1.041671,1.29042 -2.063602,1.273124 -1.058347,0.04482 -2.096142,-0.851079 -2.082555,-1.161612 -0.01584,-0.4553 1.288697,-0.810782 2.139338,-0.789888 z"
       id="path1449-0"
       style="stroke-width:0.0259385;fill:#8686bf;fill-opacity:1" />
    <path
       fill="#bc1142"
       d="m 28.575639,33.780705 c 0.609425,0.720781 0.887239,1.987094 0.378656,2.360386 -0.481148,0.284961 -1.649604,0.167605 -2.480113,-1.003634 -0.560104,-0.982818 -0.487928,-1.982932 -0.09466,-2.276733 0.588089,-0.351678 1.496743,0.123334 2.196146,0.919981 z"
       id="path1451-9"
       style="stroke-width:0.0259385;fill:#8686bf;fill-opacity:1" />
    <path
       fill="#bc1142"
       d="m 34.776968,33.552232 c -0.659376,0.7582 -1.026539,2.141063 -0.545523,2.586443 0.459917,0.346024 1.694554,0.297657 2.606559,-0.944627 0.662229,-0.834349 0.440334,-2.227723 0.06207,-2.597751 -0.56191,-0.426671 -1.36857,0.119374 -2.123107,0.95573 z"
       id="path1453-3"
       style="stroke-width:0.0259385;fill:#8686bf;fill-opacity:1" />
  </g>
</svg>
