<?xml version="1.0" encoding="UTF-8" standalone="no"?>
<svg
   width="48"
   height="48"
   version="1"
   id="svg4"
   sodipodi:docname="lock-screen.svg"
   inkscape:version="1.4 (e7c3feb100, 2024-10-09)"
   xmlns:inkscape="http://www.inkscape.org/namespaces/inkscape"
   xmlns:sodipodi="http://sodipodi.sourceforge.net/DTD/sodipodi-0.dtd"
   xmlns="http://www.w3.org/2000/svg"
   xmlns:svg="http://www.w3.org/2000/svg">
  <defs
     id="defs4" />
  <sodipodi:namedview
     id="namedview4"
     pagecolor="#ffffff"
     bordercolor="#000000"
     borderopacity="0.25"
     inkscape:showpageshadow="2"
     inkscape:pageopacity="0.0"
     inkscape:pagecheckerboard="0"
     inkscape:deskcolor="#d1d1d1"
     inkscape:zoom="2"
     inkscape:cx="24"
     inkscape:cy="24"
     inkscape:window-width="1253"
     inkscape:window-height="1049"
     inkscape:window-x="0"
     inkscape:window-y="0"
     inkscape:window-maximized="0"
     inkscape:current-layer="svg4" />
  <rect
     style="opacity:0.2;stroke-width:0.98773"
     width="40"
     height="39.024391"
     x="4"
     y="4.9756098"
     rx="12"
     ry="11.707317"
     id="rect1"
     inkscape:export-filename="lock-screen.tiff"
     inkscape:export-xdpi="307.20001"
     inkscape:export-ydpi="307.20001" />
  <rect
     style="fill:#ff5722;stroke-width:0.98773"
     width="40"
     height="39.024391"
     x="4"
     y="4"
     rx="12"
     ry="11.707317"
     id="rect2" />
  <path
     style="opacity:0.2;fill:#ffffff;stroke-width:0.98773"
     d="M 16,4 C 9.352,4 4,9.2214634 4,15.707317 v 0.97561 C 4,10.197073 9.352,4.9756098 16,4.9756098 h 16 c 6.648,0 12,5.2214632 12,11.7073172 v -0.97561 C 44,9.2214634 38.648,4 32,4 Z"
     id="path2" />
  <path
     style="opacity:0.2;stroke-width:0.98773"
     d="m 24,10.829268 c -4.432,0 -8,3.480976 -8,7.804878 v 3.902439 h -2 c -1.108,0 -2,0.870244 -2,1.95122 v 11.707317 c 0,1.080976 0.892,1.951219 2,1.951219 h 20 c 1.108,0 2,-0.870243 2,-1.951219 V 24.487805 c 0,-1.080976 -0.892,-1.95122 -2,-1.95122 h -2 v -3.902439 c 0,-4.323902 -3.568,-7.804878 -8,-7.804878 z m 0,3.902439 c 2.216,0 4,1.740488 4,3.902439 v 3.902439 h -8 v -3.902439 c 0,-2.161951 1.784,-3.902439 4,-3.902439 z"
     id="path3" />
  <path
     style="fill:#ffffff;stroke-width:0.98773"
     d="m 24,9.8536585 c -4.432,0 -8,3.4809755 -8,7.8048785 v 3.902439 h -2 c -1.108,0 -2,0.870244 -2,1.951219 v 11.707317 c 0,1.080976 0.892,1.95122 2,1.95122 h 20 c 1.108,0 2,-0.870244 2,-1.95122 V 23.512195 C 36,22.43122 35.108,21.560976 34,21.560976 H 32 V 17.658537 C 32,13.334634 28.432,9.8536585 24,9.8536585 Z m 0,3.9024395 c 2.216,0 4,1.740487 4,3.902439 v 3.902439 h -8 v -3.902439 c 0,-2.161952 1.784,-3.902439 4,-3.902439 z"
     id="path4" />
</svg>
