<?xml version="1.0" encoding="UTF-8" standalone="no"?>
<svg
   width="48"
   height="48"
   version="1.1"
   id="svg9"
   sodipodi:docname="netsurf.svg"
   inkscape:version="1.4 (e7c3feb100, 2024-10-09)"
   xmlns:inkscape="http://www.inkscape.org/namespaces/inkscape"
   xmlns:sodipodi="http://sodipodi.sourceforge.net/DTD/sodipodi-0.dtd"
   xmlns="http://www.w3.org/2000/svg"
   xmlns:svg="http://www.w3.org/2000/svg">
  <defs
     id="defs9" />
  <sodipodi:namedview
     id="namedview9"
     pagecolor="#ffffff"
     bordercolor="#000000"
     borderopacity="0.25"
     inkscape:showpageshadow="2"
     inkscape:pageopacity="0.0"
     inkscape:pagecheckerboard="0"
     inkscape:deskcolor="#d1d1d1"
     inkscape:zoom="17.583333"
     inkscape:cx="24.028436"
     inkscape:cy="24"
     inkscape:window-width="1253"
     inkscape:window-height="1047"
     inkscape:window-x="304"
     inkscape:window-y="0"
     inkscape:window-maximized="0"
     inkscape:current-layer="svg9" />
  <path
     opacity="0.2"
     d="M 4.0162753,24.856503 A 20.005103,19.58884 0 0 0 3.9947698,25.426538 20.005103,19.58884 0 0 0 23.999872,45.015379 20.005103,19.58884 0 0 0 44.004975,25.426538 20.005103,19.58884 0 0 0 43.98397,25.017132 20.005103,19.58884 0 0 1 23.999872,44.035937 20.005103,19.58884 0 0 1 4.0167754,24.856503 Z"
     id="path1"
     style="stroke-width:0.989794" />
  <path
     style="fill:#42b8fe;stroke-width:0.989794"
     d="M 34.002424,7.4826629 A 20.005103,19.58884 0 0 0 6.6749452,14.652676 20.005103,19.58884 0 0 0 13.997321,41.41153 20.005103,19.58884 0 0 0 41.324799,34.241517 20.005103,19.58884 0 0 0 34.002424,7.4826629 Z"
     id="path2" />
  <path
     fill="#ffffff"
     opacity="0.2"
     d="M 23.999872,4.858256 A 20.005103,19.58884 0 0 0 3.9947698,24.447096 20.005103,19.58884 0 0 0 4.0162753,24.856503 20.005103,19.58884 0 0 1 23.999372,5.8376981 20.005103,19.58884 0 0 1 43.98347,25.017132 20.005103,19.58884 0 0 0 44.004475,24.447096 20.005103,19.58884 0 0 0 23.999372,4.858256 Z"
     id="path3"
     style="stroke-width:0.989794" />
  <path
     style="opacity:0.2;stroke-width:0.990213"
     d="m 35.308403,13.091594 -1.246678,3.754864 3.94172,0.831816 -3.593046,1.791898 2.186536,3.317403 -3.834656,-1.220737 -0.849491,3.8597 -1.829976,-3.518282 -3.387898,2.141039 1.246678,-3.754865 -3.941719,-0.831815 3.593046,-1.791898 -2.186537,-3.317403 3.834656,1.220738 0.849492,-3.859702 1.829976,3.518283 z"
     id="path4" />
  <path
     style="fill:#ffffff;stroke-width:0.990213"
     d="m 35.308403,12.112151 -1.246678,3.754865 3.94172,0.831815 -3.593046,1.791899 2.186536,3.317403 -3.834656,-1.220738 -0.849491,3.859701 -1.829976,-3.518282 -3.387898,2.141039 1.246678,-3.754866 -3.941719,-0.831814 3.593046,-1.791899 -2.186537,-3.317403 3.834656,1.220738 0.849492,-3.859701 1.829976,3.518282 z"
     id="path5" />
  <path
     style="opacity:0.2;fill:none;stroke:#000000;stroke-width:1.97959;stroke-linecap:round;stroke-linejoin:round"
     d="M 13.997321,7.7964093 C 8.9960455,23.467482 14.056656,34.134322 25.000128,45.015207"
     id="path6" />
  <path
     style="fill:none;stroke:#3f3f3f;stroke-width:1.97959;stroke-linecap:round;stroke-linejoin:round"
     d="M 13.997321,6.8171401 C 8.9960455,22.488212 14.056656,33.155052 25.000128,44.035937"
     id="path7" />
  <path
     style="opacity:0.2;fill:none;stroke:#000000;stroke-width:1.97959;stroke-linecap:round;stroke-linejoin:round"
     d="M 44.004975,26.405808 C 32.73693,37.383324 20.999107,39.138554 5.9952801,35.220786"
     id="path8" />
  <path
     style="fill:none;stroke:#3f3f3f;stroke-width:1.97959;stroke-linecap:round;stroke-linejoin:round"
     d="M 44.004975,25.426538 C 32.73693,36.404054 20.999107,38.159285 5.9952801,34.241517"
     id="path9"
     inkscape:export-filename="/home/patrick/SOURCES/agnostep/AGNOSTEP_ART/AGNOSTEP/NetSurf.tiff"
     inkscape:export-xdpi="299.70731"
     inkscape:export-ydpi="299.70731" />
</svg>
