<?xml version="1.0" encoding="UTF-8" standalone="no"?>
<svg
   width="48"
   height="48"
   version="1"
   id="svg8"
   sodipodi:docname="printer.svg"
   inkscape:version="1.4 (e7c3feb100, 2024-10-09)"
   inkscape:export-filename="printer.tiff"
   inkscape:export-xdpi="256"
   inkscape:export-ydpi="256"
   xmlns:inkscape="http://www.inkscape.org/namespaces/inkscape"
   xmlns:sodipodi="http://sodipodi.sourceforge.net/DTD/sodipodi-0.dtd"
   xmlns="http://www.w3.org/2000/svg"
   xmlns:svg="http://www.w3.org/2000/svg">
  <defs
     id="defs8" />
  <sodipodi:namedview
     id="namedview8"
     pagecolor="#ffffff"
     bordercolor="#000000"
     borderopacity="0.25"
     inkscape:showpageshadow="2"
     inkscape:pageopacity="0.0"
     inkscape:pagecheckerboard="0"
     inkscape:deskcolor="#d1d1d1"
     inkscape:zoom="17.625"
     inkscape:cx="24"
     inkscape:cy="24"
     inkscape:window-width="1253"
     inkscape:window-height="1049"
     inkscape:window-x="334"
     inkscape:window-y="0"
     inkscape:window-maximized="0"
     inkscape:current-layer="svg8" />
  <rect
     style="opacity:0.2"
     width="17"
     height="40"
     x="-33"
     y="-44"
     rx="2"
     ry="2"
     transform="matrix(0,-1,-1,0,0,0)"
     id="rect1" />
  <path
     style="opacity:0.2"
     d="m 8,28 0,15 c 0,1.108 0.892,2 2,2 l 28,0 c 1.108,0 2,-0.892 2,-2 L 40,28 8,28 Z"
     id="path1" />
  <path
     style="fill:#e4e4e4"
     d="M 10 4 C 8.892 4 8 4.892 8 6 L 8 18 L 40 18 L 40 6 C 40 4.892 39.108 4 38 4 L 10 4 z"
     id="path2" />
  <rect
     fill="#4f4f4f"
     width="17"
     height="40"
     x="-32"
     y="-44"
     rx="2"
     ry="2"
     transform="matrix(0,-1,-1,0,0,0)"
     id="rect2" />
  <path
     fill="#fff"
     opacity=".1"
     d="m6 15.004c-1.108 0-2 0.892-2 2v1c0-1.108 0.892-2 2-2h36c1.108 0 2 0.892 2 2v-1c0-1.108-0.892-2-2-2h-36z"
     id="path3" />
  <rect
     style="opacity:0.2"
     width="36"
     height="4"
     x="6"
     y="25"
     id="rect3" />
  <rect
     style="opacity:0.2"
     width="4"
     height="4"
     x="6"
     y="18"
     rx="1.5"
     ry="1.5"
     id="rect4" />
  <rect
     style="fill:#76ff03"
     width="4"
     height="4"
     x="6"
     y="17"
     rx="1.5"
     ry="1.5"
     id="rect5" />
  <path
     style="fill:#e4e4e4"
     d="M 8 27 L 8 42 C 8 43.108 8.892 44 10 44 L 38 44 C 39.108 44 40 43.108 40 42 L 40 27 L 8 27 z"
     id="path5" />
  <path
     style="fill:#ffffff;opacity:0.2"
     d="M 10 4 C 8.892 4 8 4.892 8 6 L 8 7 C 8 5.892 8.892 5 10 5 L 38 5 C 39.108 5 40 5.892 40 7 L 40 6 C 40 4.892 39.108 4 38 4 L 10 4 z"
     id="path6" />
  <rect
     style="opacity:0.5"
     width="21"
     height="2"
     x="12"
     y="38"
     id="rect6" />
  <rect
     style="opacity:0.5"
     width="17"
     height="2"
     x="12"
     y="34"
     id="rect7" />
  <rect
     style="opacity:0.5"
     width="24"
     height="2"
     x="12"
     y="30"
     id="rect8" />
  <path
     style="fill:#ffffff;opacity:0.2"
     d="M 7.5 17 C 6.669 17 6 17.669 6 18.5 L 6 19.5 C 6 18.669 6.669 18 7.5 18 L 8.5 18 C 9.331 18 10 18.669 10 19.5 L 10 18.5 C 10 17.669 9.331 17 8.5 17 L 7.5 17 z"
     id="path8" />
</svg>
