<?xml version="1.0" encoding="UTF-8" standalone="no"?>
<svg
   width="48"
   height="48"
   version="1.1"
   id="svg5"
   sodipodi:docname="Root_PC.svg"
   xml:space="preserve"
   inkscape:version="1.4 (e7c3feb100, 2024-10-09)"
   xmlns:inkscape="http://www.inkscape.org/namespaces/inkscape"
   xmlns:sodipodi="http://sodipodi.sourceforge.net/DTD/sodipodi-0.dtd"
   xmlns="http://www.w3.org/2000/svg"
   xmlns:svg="http://www.w3.org/2000/svg"><defs
     id="defs5" /><sodipodi:namedview
     id="namedview5"
     pagecolor="#ffffff"
     bordercolor="#000000"
     borderopacity="0.25"
     inkscape:showpageshadow="2"
     inkscape:pageopacity="0.0"
     inkscape:pagecheckerboard="0"
     inkscape:deskcolor="#d1d1d1"
     inkscape:zoom="2"
     inkscape:cx="-215"
     inkscape:cy="24"
     inkscape:window-width="1240"
     inkscape:window-height="1047"
     inkscape:window-x="560"
     inkscape:window-y="0"
     inkscape:window-maximized="0"
     inkscape:current-layer="svg5" /><g
     id="g6"
     transform="matrix(0.99236641,0,0,1,-2.1221374,0)"
     inkscape:export-filename="TIFF/common_Root_PC.tiff"
     inkscape:export-xdpi="94.523079"
     inkscape:export-ydpi="94.523079"><rect
       style="opacity:0.2;stroke-width:3.39738"
       width="78.600006"
       height="112.77838"
       x="-251.79999"
       y="-23.078377"
       rx="6.5500002"
       ry="7.0486488"
       id="rect1" /><rect
       style="fill:#8e8e8e;stroke-width:3.39738"
       width="78.600006"
       height="112.77838"
       x="-251.79999"
       y="-26.602703"
       rx="6.5500002"
       ry="7.0486488"
       id="rect2" /><rect
       style="opacity:0.2;stroke-width:3.39738"
       width="131"
       height="112.77838"
       x="-278"
       y="-37.175674"
       rx="6.5500002"
       ry="7.0486488"
       id="rect3" /><path
       style="fill:#595959;stroke-width:3.39738"
       d="m -278,57.98108 v 7.04865 c 0,3.90495 2.9213,7.048648 6.55,7.048648 h 117.9 c 3.6287,0 6.55,-3.143698 6.55,-7.048648 v -7.04865 z"
       id="path3" /><path
       style="fill:#4f4f74;fill-opacity:1;stroke-width:3.39738"
       d="m -271.45,-40.7 c -3.6287,0 -6.55,3.143697 -6.55,7.048649 V 57.98108 h 131 v -91.632431 c 0,-3.904952 -2.9213,-7.048649 -6.55,-7.048649 z"
       id="path4" /><path
       style="opacity:0.1;fill:#ffffff;stroke-width:3.39738"
       d="m -271.45,-40.7 c -3.6287,0 -6.55,3.143697 -6.55,7.048649 v 3.524324 c 0,-3.904952 2.9213,-7.048649 6.55,-7.048649 h 117.9 c 3.6287,0 6.55,3.143697 6.55,7.048649 v -3.524324 c 0,-3.904952 -2.9213,-7.048649 -6.55,-7.048649 z"
       id="path5" /><rect
       style="opacity:0.1;fill:#ffffff;stroke-width:3.39738"
       width="131"
       height="3.5243244"
       x="-278"
       y="57.981079"
       id="rect5" /><g
       id="g5"
       transform="matrix(1.420832,0,0,1.4504631,-54.870777,-124.0563)"><path
         style="fill:#8686bf;fill-opacity:1;stroke-width:1.62115;stroke-dasharray:9.72697, 3.24231"
         d="m -129.17177,106.75435 c -1.00331,-1.16067 -2.17372,-2.96324 -2.99362,-4.61054 -5.03052,-10.107038 -2.04034,-22.193824 7.19292,-29.074961 8.6293,-6.431036 20.79944,-6.160454 29.297812,0.651387 0.697231,0.558865 1.550275,1.301757 1.895654,1.650874 l 0.627961,0.634759 h -4.725155 -4.725152 l -0.0932,4.806523 c -0.0513,2.64359 -0.0932,6.137892 -0.0932,7.76512 v 2.958593 h -8.02873 -8.02873 v 7.881663 7.881662 l -3.19199,0.0914 c -1.7556,0.0503 -3.93747,0.0915 -4.84861,0.0915 h -1.6566 z"
         id="path303" /><path
         style="fill:#8686bf;fill-opacity:1;stroke-width:1.62115;stroke-dasharray:9.72697, 3.24231"
         d="m -134.38732,113.68749 c -0.0505,-1.08677 -0.0921,-2.89632 -0.0923,-4.02122 l -5.7e-4,-2.04527 h 2.92626 2.92627 l 1.05288,1.05641 c 1.86471,1.87096 4.76238,3.82096 7.2505,4.87925 6.37419,2.71116 13.78978,2.56678 20.0161,-0.38971 1.726738,-0.81992 3.96197,-2.28241 5.464788,-3.57555 4.381471,-3.77016 7.409224,-9.53649 7.951399,-15.143374 0.09438,-0.976058 0.302027,11.618764 0.302332,18.338164 l 9.4e-5,2.87725 h -23.852953 -23.85299 z"
         id="path305" /><path
         style="fill:#8686bf;fill-opacity:1;stroke-width:1.62115;stroke-dasharray:9.72697, 3.24231"
         d="m -86.871421,89.698823 c -3.79e-4,-1.235496 -0.735964,-4.453032 -1.41856,-6.205162 -0.828655,-2.127039 -2.316112,-4.676915 -3.741024,-6.413055 l -0.76827,-0.936075 h 3.034451 3.034451 v 7.071805 c 0,3.889492 -0.03169,7.071804 -0.07043,7.071804 -0.03873,0 -0.07051,-0.265192 -0.07062,-0.589317 z"
         id="path307" /></g></g></svg>
