<?xml version="1.0" encoding="UTF-8" standalone="no"?>
<svg
   width="48"
   height="48"
   version="1"
   id="svg7"
   sodipodi:docname="SaveLink.svg"
   inkscape:version="1.4 (e7c3feb100, 2024-10-09)"
   xmlns:inkscape="http://www.inkscape.org/namespaces/inkscape"
   xmlns:sodipodi="http://sodipodi.sourceforge.net/DTD/sodipodi-0.dtd"
   xmlns="http://www.w3.org/2000/svg"
   xmlns:svg="http://www.w3.org/2000/svg">
  <defs
     id="defs7" />
  <sodipodi:namedview
     id="namedview7"
     pagecolor="#ffffff"
     bordercolor="#000000"
     borderopacity="0.25"
     inkscape:showpageshadow="2"
     inkscape:pageopacity="0.0"
     inkscape:pagecheckerboard="0"
     inkscape:deskcolor="#d1d1d1"
     inkscape:zoom="17.625"
     inkscape:cx="23.971631"
     inkscape:cy="24.283688"
     inkscape:window-width="1813"
     inkscape:window-height="1049"
     inkscape:window-x="13"
     inkscape:window-y="51"
     inkscape:window-maximized="0"
     inkscape:current-layer="layer1" />
  <path
     style="opacity:0.2;stroke-width:1.15355"
     d="M 44.240511,7.0874651 C 44.237546,5.6730002 43.305362,4.5360735 42.150415,4.5383022 L 4.625041,4.6107158 c -1.1549476,0.00223 -2.0823554,1.142744 -2.0793896,2.5572088 l 0.074946,35.7446084 c 0.00297,1.414465 0.9351487,2.551394 2.0900964,2.549165 l 27.1016582,-0.0523 1.012929,-14.044537 11.46341,-1.29872 z"
     id="path1"
     inkscape:export-filename="../TIFF/SaveLink.tiff"
     inkscape:export-xdpi="299.70999"
     inkscape:export-ydpi="299.70999" />
  <path
     fill="#2095f2"
     d="M 44.378723,6.1081785 C 44.377282,4.6937114 43.443677,3.5558579 42.285439,3.5569375 L 4.6531321,3.5920173 C 3.4948933,3.5930969 2.5636082,4.7326889 2.565049,6.1471559 L 2.601459,41.89182 c 0.00145,1.414467 0.9350457,2.552322 2.0932844,2.551242 L 31.873632,44.417732 32.90467,30.37421 44.40213,29.086896 Z"
     id="path2"
     style="stroke-width:1.15519" />
  <g
     id="g7"
     transform="matrix(1.0483146,0,0,1,-7.6173254,-14.581561)">
    <path
       style="opacity:0.2;stroke-width:0.999286"
       d="m 21.730496,21 c -5.515022,0 -9.985815,4.477143 -9.985815,10 0,5.522857 4.470793,10 9.985815,10 5.515023,0 9.985815,-4.477143 9.985815,-10 0,-5.522857 -4.470792,-10 -9.985815,-10 z m -0.93422,1.994141 c 0.108652,-0.01139 0.245337,0.0065 0.354965,0 0.01299,0.05204 -0.07697,0.238754 -0.200886,0.509765 -0.789096,1.726288 -0.835714,3.747528 -0.103369,4.828125 0.132528,0.195919 0.253547,0.38202 0.253547,0.40625 0,0.02424 -0.142656,0.05078 -0.304257,0.05078 -0.37936,1e-6 -0.739015,-0.230841 -1.472516,-0.8125 -0.325849,-0.25839 -0.748649,-0.474962 -0.912767,-0.507812 -0.257716,-0.05156 -0.325822,-0.02922 -0.65922,0.304688 -0.310194,0.310584 -0.405674,0.47934 -0.405674,0.763671 0,1.078223 1.27901,1.933145 3.654964,2.4375 3.226642,0.684838 4.020395,1.298953 4.109399,2.998047 0.111743,2.130617 -1.019882,3.736741 -3.500888,4.980469 -0.296125,0.148492 -0.484266,0.207879 -0.608511,0.255859 -0.05506,-0.0049 -0.09919,0.0049 -0.154077,0 -0.02111,-0.06587 -0.0507,-0.218244 -0.0507,-0.507812 0,-1.131635 -0.444437,-2.297836 -1.115603,-2.949219 -0.180161,-0.174873 -0.68362,-0.544709 -1.115603,-0.8125 -0.431967,-0.267775 -0.868303,-0.578221 -0.965426,-0.710937 -0.160912,-0.220234 -0.17242,-0.354868 -0.04876,-0.761719 0.225359,-0.743064 0.492711,-1.159404 1.014184,-1.628906 0.273387,-0.246141 0.547946,-0.450179 0.60851,-0.455079 0.06058,-0.0049 -0.348585,-0.129893 -0.963476,-0.255859 -0.614859,-0.12621 -1.516527,-0.390047 -1.98156,-0.558594 -0.850357,-0.308125 -1.998292,-0.955677 -2.435991,-1.423827 -0.01851,-0.01985 -0.03463,-0.03321 -0.05071,-0.05078 0.627122,-2.501606 2.38681,-4.551008 4.719858,-5.539062 0.488161,-0.206768 0.99201,-0.348223 1.523227,-0.457032 0.2646,-0.05416 0.538137,-0.0757 0.811348,-0.103515 z m 7.614185,3.8125 c 0.190754,0.118078 0.911954,1.680238 1.117553,2.441406 0.265442,0.982671 0.24623,2.682022 0,3.658203 -0.09372,0.37154 -0.215544,0.718459 -0.255497,0.761719 -0.03996,0.04326 -0.186476,-0.203394 -0.356914,-0.50586 -0.170451,-0.302419 -0.711899,-0.94574 -1.164362,-1.423828 -1.306019,-1.380072 -1.512493,-2.099756 -0.965425,-3.201172 0.27589,-0.555408 1.477012,-1.821708 1.624645,-1.730468 z"
       id="path6" />
    <path
       style="fill:#ffffff;stroke-width:0.993592"
       d="m 21.617021,20 c -5.452352,0 -9.87234,4.477143 -9.87234,10 0,5.522857 4.419988,10 9.87234,10 5.452353,0 9.87234,-4.477143 9.87234,-10 0,-5.522857 -4.419987,-10 -9.87234,-10 z m -0.923604,1.994141 c 0.107417,-0.01139 0.242549,0.0065 0.350931,0 0.01284,0.05204 -0.0761,0.238754 -0.198603,0.509765 -0.780129,1.726288 -0.826217,3.747528 -0.102195,4.828125 0.131022,0.195919 0.250666,0.38202 0.250666,0.40625 0,0.02424 -0.141035,0.05078 -0.300799,0.05078 -0.375049,1e-6 -0.730617,-0.230841 -1.455783,-0.8125 -0.322146,-0.25839 -0.740141,-0.474962 -0.902395,-0.507812 -0.254787,-0.05156 -0.322119,-0.02922 -0.651728,0.304688 -0.30667,0.310584 -0.401064,0.47934 -0.401064,0.763671 0,1.078223 1.264475,1.933145 3.61343,2.4375 3.189975,0.684838 3.974709,1.298953 4.062701,2.998047 0.110474,2.130617 -1.008292,3.736741 -3.461105,4.980469 -0.29276,0.148492 -0.478763,0.207879 -0.601596,0.255859 -0.05443,-0.0049 -0.09806,0.0049 -0.152327,0 -0.02087,-0.06587 -0.05013,-0.218244 -0.05013,-0.507812 0,-1.131635 -0.439387,-2.297836 -1.102926,-2.949219 -0.178114,-0.174873 -0.675851,-0.544709 -1.102926,-0.8125 -0.427058,-0.267775 -0.858436,-0.578221 -0.954454,-0.710937 -0.159084,-0.220234 -0.170462,-0.354868 -0.04821,-0.761719 0.222798,-0.743064 0.487113,-1.159404 1.00266,-1.628906 0.27028,-0.246141 0.541719,-0.450179 0.601595,-0.455079 0.05989,-0.0049 -0.344624,-0.129893 -0.952528,-0.255859 -0.607872,-0.12621 -1.499293,-0.390047 -1.959042,-0.558594 -0.840693,-0.308125 -1.975584,-0.955677 -2.40831,-1.423827 -0.0183,-0.01985 -0.03424,-0.03321 -0.05014,-0.05078 0.619995,-2.501606 2.359688,-4.551008 4.666223,-5.539062 0.482614,-0.206768 0.980738,-0.348223 1.505917,-0.457032 0.261594,-0.05416 0.532023,-0.0757 0.802129,-0.103515 z m 7.52766,3.8125 c 0.188587,0.118078 0.901591,1.680238 1.104854,2.441406 0.262425,0.982671 0.243431,2.682022 0,3.658203 -0.09265,0.37154 -0.213094,0.718459 -0.252594,0.761719 -0.0395,0.04326 -0.184357,-0.203394 -0.352858,-0.50586 -0.168514,-0.302419 -0.703809,-0.94574 -1.151131,-1.423828 -1.291178,-1.380072 -1.495305,-2.099756 -0.954454,-3.201172 0.272755,-0.555408 1.460228,-1.821708 1.606183,-1.730468 z"
       id="path7" />
  </g>
  <g
     inkscape:groupmode="layer"
     id="layer1"
     inkscape:label="Layer 1">
    <g
       id="g8"
       transform="matrix(1.0483146,0,0,1,-3.3943282,-0.68085109)">
      <path
         sodipodi:type="star"
         style="fill:#cccccc"
         id="path3"
         inkscape:flatsided="false"
         sodipodi:sides="6"
         sodipodi:cx="31.77305"
         sodipodi:cy="28.992908"
         sodipodi:r1="7.5204597"
         sodipodi:r2="3.5391581"
         sodipodi:arg1="-2.0943951"
         sodipodi:arg2="-2.0184452"
         inkscape:rounded="0"
         inkscape:randomized="0"
         d="m 28.01282,22.479999 2.228315,3.322474 5.292145,-3.322474 -1.763189,3.591015 5.523419,2.921894 -3.991504,0.268541 0.231274,6.244369 -2.228315,-3.322474 -5.292145,3.322474 1.76319,-3.591015 -5.523419,-2.921895 3.991504,-0.26854 z"
         transform="matrix(1.4828436,0,0,1.553184,-14.036449,-12.719262)" />
      <path
         id="path5"
         style="fill:#1a77c2;fill-opacity:1;stroke-width:1.51761"
         inkscape:transform-center-x="-4.1985816"
         inkscape:transform-center-y="-0.11347518"
         d="m 27.482505,22.184563 0.341797,9.697265 -5.91797,0.41797 8.189455,4.53711 -2.613282,5.578124 6.673828,-4.388673 0.318359,-8.095702 c 0.008,-0.20336 0.176743,-0.347667 0.378907,-0.324218 l 5.6875,0.660156 -4.521485,-2.505859 2.613282,-5.576173 -7.847656,5.160157 z" />
    </g>
    <path
       sodipodi:type="star"
       style="fill:#ffdd55"
       id="path4"
       inkscape:flatsided="false"
       sodipodi:sides="6"
       sodipodi:cx="31.77305"
       sodipodi:cy="28.992908"
       sodipodi:r1="7.5204597"
       sodipodi:r2="3.5391581"
       sodipodi:arg1="-2.0943951"
       sodipodi:arg2="-2.0184452"
       inkscape:rounded="0"
       inkscape:randomized="0"
       d="m 28.01282,22.479999 2.228315,3.322474 5.292145,-3.322474 -1.763189,3.591015 5.523419,2.921894 -3.991504,0.268541 0.231274,6.244369 -2.228315,-3.322474 -5.292145,3.322474 1.76319,-3.591015 -5.523419,-2.921895 3.991504,-0.26854 z"
       transform="matrix(1.5544866,0,0,1.553184,-18.525294,-14.761816)" />
  </g>
</svg>
