<?xml version="1.0" encoding="UTF-8" standalone="no"?>
<svg
   width="48"
   height="48"
   version="1"
   id="svg5"
   sodipodi:docname="sticky-notes.svg"
   inkscape:export-filename="/home/patrick/SOURCES/agnostep/build/agnostep-theme/AGNOSTEP_ART/TIFF/sticky-notes.tiff"
   inkscape:export-xdpi="256"
   inkscape:export-ydpi="256"
   inkscape:version="1.4 (e7c3feb100, 2024-10-09)"
   xmlns:inkscape="http://www.inkscape.org/namespaces/inkscape"
   xmlns:sodipodi="http://sodipodi.sourceforge.net/DTD/sodipodi-0.dtd"
   xmlns="http://www.w3.org/2000/svg"
   xmlns:svg="http://www.w3.org/2000/svg">
  <defs
     id="defs5" />
  <sodipodi:namedview
     id="namedview5"
     pagecolor="#ffffff"
     bordercolor="#000000"
     borderopacity="0.25"
     inkscape:showpageshadow="2"
     inkscape:pageopacity="0.0"
     inkscape:pagecheckerboard="0"
     inkscape:deskcolor="#d1d1d1"
     inkscape:zoom="18.270833"
     inkscape:cx="24"
     inkscape:cy="24.027366"
     inkscape:window-width="1253"
     inkscape:window-height="1049"
     inkscape:window-x="0"
     inkscape:window-y="0"
     inkscape:window-maximized="0"
     inkscape:current-layer="svg5" />
  <path
     style="opacity:0.2"
     d="m 9,5 h 30 c 1.662,0 3,1.338 3,3 V 29 L 26,45 H 9 C 7.338,45 6,43.662 6,42 V 8 C 6,6.338 7.338,5 9,5 Z"
     id="path1" />
  <path
     style="fill:#ffc107"
     d="m 9,4 h 30 c 1.662,0 3,1.338 3,3 V 28 L 26,44 H 9 C 7.338,44 6,42.662 6,41 V 7 C 6,5.338 7.338,4 9,4 Z"
     id="path2" />
  <path
     style="fill:#ffdd7a"
     d="M 42,28 H 28 c -1.105,0 -2,0.895 -2,2 v 14 z"
     id="path3" />
  <path
     style="opacity:0.2;fill:#ffffff"
     d="M 9 4 C 7.338 4 6 5.338 6 7 L 6 8 C 6 6.338 7.338 5 9 5 L 39 5 C 40.662 5 42 6.338 42 8 L 42 7 C 42 5.338 40.662 4 39 4 L 9 4 z"
     id="path4" />
  <path
     style="fill:#ffffff;opacity:0.2"
     d="M 28 28 C 26.895 28 26 28.895 26 30 L 26 31 C 26 29.895 26.895 29 28 29 L 41 29 L 42 28 L 28 28 z"
     id="path5" />
</svg>
