<?xml version="1.0" encoding="UTF-8" standalone="no"?>
<svg
   width="48"
   height="48"
   version="1.1"
   id="svg12"
   sodipodi:docname="system-installer.svg"
   inkscape:export-filename="/home/patrick/SOURCES/agnostep/AGNOSTEP_ART/AGNOSTEP/Updater.tiff"
   inkscape:export-xdpi="96"
   inkscape:export-ydpi="96"
   inkscape:version="1.4 (e7c3feb100, 2024-10-09)"
   xmlns:inkscape="http://www.inkscape.org/namespaces/inkscape"
   xmlns:sodipodi="http://sodipodi.sourceforge.net/DTD/sodipodi-0.dtd"
   xmlns="http://www.w3.org/2000/svg"
   xmlns:svg="http://www.w3.org/2000/svg">
  <defs
     id="defs12" />
  <sodipodi:namedview
     id="namedview12"
     pagecolor="#ffffff"
     bordercolor="#000000"
     borderopacity="0.25"
     inkscape:showpageshadow="2"
     inkscape:pageopacity="0.0"
     inkscape:pagecheckerboard="0"
     inkscape:deskcolor="#d1d1d1"
     inkscape:zoom="17.583333"
     inkscape:cx="24.028436"
     inkscape:cy="24"
     inkscape:window-width="1253"
     inkscape:window-height="1047"
     inkscape:window-x="147"
     inkscape:window-y="0"
     inkscape:window-maximized="0"
     inkscape:current-layer="svg12" />
  <rect
     style="opacity:0.2;stroke-width:0.988841"
     width="40"
     height="11.733672"
     x="4"
     y="33.266327"
     rx="2"
     ry="2.3467345"
     id="rect1" />
  <path
     style="fill:#e4e4e4;stroke-width:0.988841"
     d="m 14,4.9099526 h 20 c 3.324,0 6,2.616609 6,5.8668364 V 35.22194 c 0,3.250227 -2.676,5.866836 -6,5.866836 H 14 c -3.324,0 -6,-2.616609 -6,-5.866836 V 10.776789 C 8,7.5265616 10.676,4.9099526 14,4.9099526 Z"
     id="path1" />
  <path
     style="fill:#4caf50;stroke-width:1.19033"
     d="M 16.000001,20.554849 H 24 31.999999 L 28,24.466073 24,28.377298 20,24.466073 Z"
     id="path2" />
  <rect
     style="opacity:0.8;fill:#4caf50;stroke-width:0.988841"
     width="4"
     height="3.9112241"
     x="20"
     y="8.8211765"
     id="rect2" />
  <rect
     style="opacity:0.2;fill:#4caf50;stroke-width:0.988841"
     width="4"
     height="3.9112241"
     x="24"
     y="8.8211765"
     id="rect3" />
  <rect
     style="opacity:0.4;fill:#4caf50;stroke-width:0.988841"
     width="4"
     height="3.9112241"
     x="20"
     y="12.732401"
     id="rect4" />
  <rect
     style="opacity:0.9;fill:#4caf50;stroke-width:0.988841"
     width="4"
     height="3.9112241"
     x="24"
     y="12.732401"
     id="rect5" />
  <rect
     style="fill:#4caf50;stroke-width:0.988841"
     width="4"
     height="3.9112241"
     x="20"
     y="16.643625"
     id="rect6" />
  <rect
     style="opacity:0.6;fill:#4caf50;stroke-width:0.988841"
     width="4"
     height="3.9112241"
     x="24"
     y="16.643625"
     id="rect7" />
  <path
     style="opacity:0.1;stroke-width:0.988841"
     d="m 16,21.532655 4,3.911224 4,3.911224 4,-3.911224 4,-3.911224 h -1 l -3,2.933418 -4,3.911224 -4,-3.911224 -3,-2.933418 z"
     id="path7" />
  <rect
     style="fill:#4caf50;stroke-width:0.988841"
     width="40"
     height="11.733672"
     x="4"
     y="32.288521"
     rx="2"
     ry="2.3467345"
     id="rect8" />
  <rect
     style="opacity:0.2;stroke-width:0.988841"
     width="12"
     height="0.97780603"
     x="11"
     y="39.133163"
     id="rect9" />
  <ellipse
     style="opacity:0.2;stroke-width:0.988841"
     cx="10"
     cy="39.133163"
     id="circle9"
     rx="3"
     ry="2.933418" />
  <ellipse
     style="fill:#ffffff;stroke-width:0.988841"
     cx="10"
     cy="38.155357"
     id="circle10"
     rx="3"
     ry="2.933418" />
  <rect
     style="fill:#ffffff;stroke-width:0.988841"
     width="16"
     height="1.9556121"
     x="10"
     y="37.177551"
     id="rect10" />
  <path
     style="opacity:0.3;stroke-width:0.988841"
     d="m 38,35.22194 a 3,2.9334181 0 0 0 -2.820312,1.955612 H 26 v 1.955612 h 9.179688 A 3,2.9334181 0 0 0 38,41.088776 3,2.9334181 0 0 0 41,38.155358 3,2.9334181 0 0 0 38,35.22194 Z"
     id="path10" />
  <ellipse
     style="opacity:0.2;stroke-width:0.988841"
     cx="24"
     cy="39.133163"
     id="circle11"
     rx="3"
     ry="2.933418" />
  <ellipse
     style="fill:#ffffff;stroke-width:0.988841"
     cx="24"
     cy="38.155357"
     id="circle12"
     rx="3"
     ry="2.933418" />
  <path
     style="opacity:0.2;fill:#ffffff;stroke-width:0.988841"
     d="m 14,4.9099526 c -3.324,0 -6,2.616609 -6,5.8668364 v 0.977806 C 8,8.5043676 10.676,5.8877586 14,5.8877586 h 20 c 3.324,0 6,2.616609 6,5.8668364 V 10.776789 C 40,7.5265616 37.324,4.9099526 34,4.9099526 Z"
     id="path12"
     inkscape:export-filename="/home/patrick/SOURCES/agnostep/AGNOSTEP_ART/AGNOSTEP/Updater.tiff"
     inkscape:export-xdpi="307.20001"
     inkscape:export-ydpi="307.20001" />
</svg>
