<?xml version="1.0" encoding="UTF-8" standalone="no"?>
<svg
   width="48"
   height="48"
   version="1"
   id="svg7"
   sodipodi:docname="text-x-patch.svg"
   inkscape:export-filename="/home/patrick/SOURCES/agnostep/build/agnostep-theme/AGNOSTEP_ART/TIFF/text-x-patch.tiff"
   inkscape:export-xdpi="296"
   inkscape:export-ydpi="296"
   inkscape:version="1.4 (e7c3feb100, 2024-10-09)"
   xmlns:inkscape="http://www.inkscape.org/namespaces/inkscape"
   xmlns:sodipodi="http://sodipodi.sourceforge.net/DTD/sodipodi-0.dtd"
   xmlns="http://www.w3.org/2000/svg"
   xmlns:svg="http://www.w3.org/2000/svg">
  <defs
     id="defs7" />
  <sodipodi:namedview
     id="namedview7"
     pagecolor="#ffffff"
     bordercolor="#000000"
     borderopacity="0.25"
     inkscape:showpageshadow="2"
     inkscape:pageopacity="0.0"
     inkscape:pagecheckerboard="0"
     inkscape:deskcolor="#d1d1d1"
     inkscape:zoom="17.625"
     inkscape:cx="24.028369"
     inkscape:cy="24"
     inkscape:window-width="1713"
     inkscape:window-height="1049"
     inkscape:window-x="0"
     inkscape:window-y="0"
     inkscape:window-maximized="0"
     inkscape:current-layer="svg7" />
  <path
     style="opacity:0.2;stroke-width:1.10167"
     d="m 6.5212767,6.0517212 c -1.381071,0 -2.4929079,0.8685466 -2.4929079,1.9474139 V 43.052586 C 4.0283688,44.131453 5.1402057,45 6.5212767,45 H 41.421986 c 1.381071,0 2.492908,-0.868547 2.492908,-1.947414 V 17.736205 L 30.203901,16.762498 28.957448,6.0517212 Z"
     id="path1"
     inkscape:export-filename="../TIFF/File_patch.tiff"
     inkscape:export-xdpi="308.07397"
     inkscape:export-ydpi="308.07397" />
  <path
     fill="#4f4f4f"
     d="m 6.5212767,5.0780142 c -1.381071,0 -2.4929079,0.8685466 -2.4929079,1.9474139 V 42.078879 c 0,1.078867 1.1118369,1.947414 2.4929079,1.947414 H 41.421986 c 1.381071,0 2.492908,-0.868547 2.492908,-1.947414 V 16.762498 L 30.203901,15.788791 28.957448,5.0780142 Z"
     id="path2"
     style="stroke-width:1.10167" />
  <path
     fill="#ffffff"
     style="opacity:0.1;stroke-width:1.10167"
     d="m 6.5212767,5.0780142 c -1.381071,0 -2.4929079,0.8685466 -2.4929079,1.9474139 v 0.973707 c 0,-1.0788673 1.1118369,-1.9474139 2.4929079,-1.9474139 H 28.957448 L 42.66844,16.762498 h 1.246454 L 28.957448,5.0780142 Z"
     id="path3" />
  <path
     style="opacity:0.2;stroke-width:1.10167"
     d="m 28.957448,6.0517212 v 9.7370698 c 0,1.075557 1.116111,1.947414 2.492907,1.947414 h 12.464539 z"
     id="path4" />
  <path
     fill="#696969"
     d="m 28.957448,5.0780142 v 9.7370698 c 0,1.075557 1.116111,1.947414 2.492907,1.947414 h 12.464539 z"
     id="path5"
     style="stroke-width:1.10167" />
  <path
     style="opacity:0.2;stroke-width:1.10167"
     d="m 18.899811,23.583482 c -1.319123,-0.05437 -2.610948,0.286893 -3.568473,1.034855 -1.914927,1.495906 -1.743416,4.037963 0.384293,5.700081 l 1.343802,1.049754 -1.343802,1.049753 c -2.127696,1.662118 -2.299208,4.204175 -0.384293,5.700081 1.914915,1.495906 5.169044,1.361924 7.296741,-0.300204 l 1.343801,-1.049753 1.343802,1.049753 c 2.127697,1.662118 5.381814,1.7961 7.296741,0.300204 1.914928,-1.495897 1.743416,-4.037963 -0.384293,-5.700081 l -1.343803,-1.049753 1.343803,-1.049754 c 2.127697,-1.662118 2.299208,-4.204175 0.384293,-5.700081 -1.914914,-1.495906 -5.169044,-1.361923 -7.296741,0.300204 l -1.343802,1.049754 -1.343801,-1.049754 c -1.063874,-0.831078 -2.409147,-1.280717 -3.728394,-1.33505 z m 5.072194,3.734848 a 1.2220982,0.95468074 0 0 1 0,1.349947 1.2220982,0.95468074 0 0 1 0,-1.349947 z m -1.747529,1.744882 a 1.2220982,0.95468074 0 0 1 0.334176,0.03356 1.2220982,0.95468074 0 0 1 -0.315067,0.921117 1.2220982,0.95468074 0 0 1 -1.179133,0.246124 1.2220982,0.95468074 0 0 1 0.315066,-0.921117 1.2220982,0.95468074 0 0 1 0.844971,-0.279688 z m 3.494435,0 a 1.2220982,0.95468074 0 0 1 0.84497,0.279688 1.2220982,0.95468074 0 0 1 0.315079,0.921117 1.2220982,0.95468074 0 0 1 -1.179132,-0.246124 1.2220982,0.95468074 0 0 1 -0.315067,-0.921117 1.2220982,0.95468074 0 0 1 0.334162,-0.03356 z m -1.74728,1.349948 a 1.2220982,0.95468074 0 0 1 0.08832,0.0037 1.2220982,0.95468074 0 0 1 0.0167,0 1.2220982,0.95468074 0 0 1 0.0047,0 1.2220982,0.95468074 0 0 1 0.09548,0.01119 1.2220982,0.95468074 0 0 1 0.03102,0.0037 1.2220982,0.95468074 0 0 1 0.08116,0.01492 1.2220982,0.95468074 0 0 1 0.03342,0.0075 1.2220982,0.95468074 0 0 1 0.107404,0.02983 1.2220982,0.95468074 0 0 1 0.0907,0.03169 1.2220982,0.95468074 0 0 1 0.03342,0.01306 1.2220982,0.95468074 0 0 1 0.04535,0.02051 1.2220982,0.95468074 0 0 1 0.07399,0.03915 1.2220982,0.95468074 0 0 1 0.0024,0 1.2220982,0.95468074 0 0 1 0.06922,0.04102 1.2220982,0.95468074 0 0 1 0.0907,0.0634 1.2220982,0.95468074 0 0 1 0.08116,0.07086 1.2220982,0.95468074 0 0 1 0.05251,0.05594 1.2220982,0.95468074 0 0 1 0.05012,0.0578 1.2220982,0.95468074 0 0 1 0.02625,0.03543 1.2220982,0.95468074 0 0 1 0.01671,0.02611 1.2220982,0.95468074 0 0 1 0.04057,0.07086 1.2220982,0.95468074 0 0 1 0.03819,0.0839 1.2220982,0.95468074 0 0 1 0.0096,0.02611 1.2220982,0.95468074 0 0 1 0.01909,0.0634 1.2220982,0.95468074 0 0 1 0.0047,0.02423 1.2220982,0.95468074 0 0 1 0.01433,0.07459 1.2220982,0.95468074 0 0 1 0,0.01678 1.2220982,0.95468074 0 0 1 0.0047,0.06899 1.2220982,0.95468074 0 0 1 -0.0047,0.06899 1.2220982,0.95468074 0 0 1 0,0.01678 1.2220982,0.95468074 0 0 1 -0.01433,0.07459 1.2220982,0.95468074 0 0 1 -0.0047,0.02424 1.2220982,0.95468074 0 0 1 -0.01909,0.0634 1.2220982,0.95468074 0 0 1 -0.0096,0.02611 1.2220982,0.95468074 0 0 1 -0.03819,0.0839 1.2220982,0.95468074 0 0 1 -0.04057,0.07086 1.2220982,0.95468074 0 0 1 -0.01671,0.02611 1.2220982,0.95468074 0 0 1 -0.02625,0.03542 1.2220982,0.95468074 0 0 1 -0.05012,0.0578 1.2220982,0.95468074 0 0 1 -0.05251,0.05594 1.2220982,0.95468074 0 0 1 -0.08116,0.07086 1.2220982,0.95468074 0 0 1 -0.0907,0.0634 1.2220982,0.95468074 0 0 1 -0.06922,0.04102 1.2220982,0.95468074 0 0 1 -0.0024,0 1.2220982,0.95468074 0 0 1 -0.07399,0.03915 1.2220982,0.95468074 0 0 1 -0.04535,0.02051 1.2220982,0.95468074 0 0 1 -0.03342,0.01305 1.2220982,0.95468074 0 0 1 -0.0907,0.03169 1.2220982,0.95468074 0 0 1 -0.107404,0.02983 1.2220982,0.95468074 0 0 1 -0.03342,0.0075 1.2220982,0.95468074 0 0 1 -0.08116,0.01492 1.2220982,0.95468074 0 0 1 -0.03102,0.0037 1.2220982,0.95468074 0 0 1 -0.09548,0.01119 1.2220982,0.95468074 0 0 1 -0.0047,0 1.2220982,0.95468074 0 0 1 -0.0167,0 1.2220982,0.95468074 0 0 1 -0.08832,0.0037 1.2220982,0.95468074 0 0 1 -0.08831,-0.0037 1.2220982,0.95468074 0 0 1 -0.02148,0 1.2220982,0.95468074 0 0 1 -0.09547,-0.01119 1.2220982,0.95468074 0 0 1 -0.03102,-0.0037 1.2220982,0.95468074 0 0 1 -0.08116,-0.01492 1.2220982,0.95468074 0 0 1 -0.03342,-0.0075 1.2220982,0.95468074 0 0 1 -0.107404,-0.02983 1.2220982,0.95468074 0 0 1 -0.0907,-0.03169 1.2220982,0.95468074 0 0 1 -0.03342,-0.01305 1.2220982,0.95468074 0 0 1 -0.04534,-0.02051 1.2220982,0.95468074 0 0 1 -0.07399,-0.03915 1.2220982,0.95468074 0 0 1 -0.0024,0 1.2220982,0.95468074 0 0 1 -0.06922,-0.04102 1.2220982,0.95468074 0 0 1 -0.0907,-0.0634 1.2220982,0.95468074 0 0 1 -0.08116,-0.07086 1.2220982,0.95468074 0 0 1 -0.05251,-0.05407 1.2220982,0.95468074 0 0 1 0,-0.0018 1.2220982,0.95468074 0 0 1 -0.05012,-0.0578 1.2220982,0.95468074 0 0 1 -0.02626,-0.03542 1.2220982,0.95468074 0 0 1 -0.0167,-0.02611 1.2220982,0.95468074 0 0 1 -0.04057,-0.07086 1.2220982,0.95468074 0 0 1 -0.03819,-0.0839 1.2220982,0.95468074 0 0 1 -0.0096,-0.02611 1.2220982,0.95468074 0 0 1 -0.01909,-0.0634 1.2220982,0.95468074 0 0 1 -0.0047,-0.02424 1.2220982,0.95468074 0 0 1 -0.01433,-0.07459 1.2220982,0.95468074 0 0 1 0,-0.01678 1.2220982,0.95468074 0 0 1 -0.0047,-0.06899 1.2220982,0.95468074 0 0 1 0.0047,-0.06899 1.2220982,0.95468074 0 0 1 0,-0.01678 1.2220982,0.95468074 0 0 1 0.01433,-0.07459 1.2220982,0.95468074 0 0 1 0.0047,-0.02424 1.2220982,0.95468074 0 0 1 0.01909,-0.0634 1.2220982,0.95468074 0 0 1 0.0096,-0.02611 1.2220982,0.95468074 0 0 1 0.03819,-0.0839 1.2220982,0.95468074 0 0 1 0.04057,-0.07086 1.2220982,0.95468074 0 0 1 0.0167,-0.0261 1.2220982,0.95468074 0 0 1 0.02626,-0.03543 1.2220982,0.95468074 0 0 1 0.05012,-0.0578 1.2220982,0.95468074 0 0 1 0.05251,-0.05594 1.2220982,0.95468074 0 0 1 0.08116,-0.07086 1.2220982,0.95468074 0 0 1 0.0907,-0.0634 1.2220982,0.95468074 0 0 1 0.07161,-0.04102 1.2220982,0.95468074 0 0 1 0.07399,-0.03915 1.2220982,0.95468074 0 0 1 0.04534,-0.02051 1.2220982,0.95468074 0 0 1 0.03342,-0.01306 1.2220982,0.95468074 0 0 1 0.0907,-0.03169 1.2220982,0.95468074 0 0 1 0.107404,-0.02983 1.2220982,0.95468074 0 0 1 0.03342,-0.0075 1.2220982,0.95468074 0 0 1 0.08115,-0.01492 1.2220982,0.95468074 0 0 1 0.03103,-0.0037 1.2220982,0.95468074 0 0 1 0.09547,-0.01119 1.2220982,0.95468074 0 0 1 0.02148,0 1.2220982,0.95468074 0 0 1 0.08832,-0.0037 z m -4.339404,0.674993 a 1.2220982,0.95468074 0 0 1 0.88315,0.279687 1.2220982,0.95468074 0 0 1 -1.728084,0 1.2220982,0.95468074 0 0 1 0.844972,-0.279687 z m 8.678809,0 a 1.2220982,0.95468074 0 0 1 0.844971,0.279687 1.2220982,0.95468074 0 0 1 -1.728083,0 1.2220982,0.95468074 0 0 1 0.883162,-0.279687 z M 21.360311,32.4381 a 1.2220982,0.95468074 0 0 1 0.883162,0.279688 1.2220982,0.95468074 0 0 1 0.315066,0.921117 1.2220982,0.95468074 0 0 1 -1.179133,-0.246124 1.2220982,0.95468074 0 0 1 -0.315066,-0.921117 1.2220982,0.95468074 0 0 1 0.295983,-0.03356 z m 5.222517,0 a 1.2220982,0.95468074 0 0 1 0.295983,0.03356 1.2220982,0.95468074 0 0 1 -0.315078,0.921117 1.2220982,0.95468074 0 0 1 -1.179134,0.246124 1.2220982,0.95468074 0 0 1 0.315066,-0.921117 1.2220982,0.95468074 0 0 1 0.883163,-0.279688 z m -2.611321,1.629694 a 1.2220982,0.95468074 0 0 1 0,1.349947 1.2220982,0.95468074 0 0 1 0,-1.349947 z"
     id="path6" />
  <path
     style="fill:#ffc510;stroke-width:1.10167"
     d="m 18.899811,22.609608 c -1.319123,-0.05437 -2.610948,0.286893 -3.568473,1.034856 -1.914927,1.495906 -1.743416,4.037963 0.384293,5.700081 l 1.343802,1.049753 -1.343802,1.049754 c -2.127696,1.662117 -2.299208,4.204174 -0.384293,5.70008 1.914915,1.495906 5.169044,1.361924 7.296741,-0.300203 l 1.343801,-1.049754 1.343802,1.049754 c 2.127697,1.662117 5.381814,1.796099 7.296741,0.300203 1.914928,-1.495896 1.743416,-4.037963 -0.384293,-5.70008 l -1.343803,-1.049754 1.343803,-1.049753 c 2.127697,-1.662118 2.299208,-4.204175 0.384293,-5.700081 -1.914914,-1.495906 -5.169044,-1.361924 -7.296741,0.300204 l -1.343802,1.049753 -1.343801,-1.049753 c -1.063874,-0.831079 -2.409147,-1.280717 -3.728394,-1.33505 z m 5.072194,3.734848 a 1.2220982,0.95468074 0 0 1 0,1.349947 1.2220982,0.95468074 0 0 1 0,-1.349947 z m -1.747529,1.744883 a 1.2220982,0.95468074 0 0 1 0.334176,0.03356 1.2220982,0.95468074 0 0 1 -0.315067,0.921117 1.2220982,0.95468074 0 0 1 -1.179133,0.246124 1.2220982,0.95468074 0 0 1 0.315066,-0.921117 1.2220982,0.95468074 0 0 1 0.844971,-0.279688 z m 3.494435,0 a 1.2220982,0.95468074 0 0 1 0.84497,0.279688 1.2220982,0.95468074 0 0 1 0.315079,0.921117 1.2220982,0.95468074 0 0 1 -1.179132,-0.246124 1.2220982,0.95468074 0 0 1 -0.315067,-0.921117 1.2220982,0.95468074 0 0 1 0.334162,-0.03356 z m -1.74728,1.349947 a 1.2220982,0.95468074 0 0 1 0.08832,0.0037 1.2220982,0.95468074 0 0 1 0.0167,0 1.2220982,0.95468074 0 0 1 0.0047,0 1.2220982,0.95468074 0 0 1 0.09548,0.01119 1.2220982,0.95468074 0 0 1 0.03102,0.0037 1.2220982,0.95468074 0 0 1 0.08116,0.01492 1.2220982,0.95468074 0 0 1 0.03342,0.0075 1.2220982,0.95468074 0 0 1 0.107404,0.02983 1.2220982,0.95468074 0 0 1 0.0907,0.03169 1.2220982,0.95468074 0 0 1 0.03342,0.01306 1.2220982,0.95468074 0 0 1 0.04535,0.02051 1.2220982,0.95468074 0 0 1 0.07399,0.03915 1.2220982,0.95468074 0 0 1 0.0024,0 1.2220982,0.95468074 0 0 1 0.06922,0.04102 1.2220982,0.95468074 0 0 1 0.0907,0.0634 1.2220982,0.95468074 0 0 1 0.08116,0.07086 1.2220982,0.95468074 0 0 1 0.05251,0.05594 1.2220982,0.95468074 0 0 1 0.05012,0.0578 1.2220982,0.95468074 0 0 1 0.02625,0.03543 1.2220982,0.95468074 0 0 1 0.01671,0.02611 1.2220982,0.95468074 0 0 1 0.04057,0.07086 1.2220982,0.95468074 0 0 1 0.03819,0.0839 1.2220982,0.95468074 0 0 1 0.0096,0.02611 1.2220982,0.95468074 0 0 1 0.01909,0.0634 1.2220982,0.95468074 0 0 1 0.0047,0.02424 1.2220982,0.95468074 0 0 1 0.01433,0.07459 1.2220982,0.95468074 0 0 1 0,0.01678 1.2220982,0.95468074 0 0 1 0.0047,0.06899 1.2220982,0.95468074 0 0 1 -0.0047,0.06899 1.2220982,0.95468074 0 0 1 0,0.01678 1.2220982,0.95468074 0 0 1 -0.01433,0.07459 1.2220982,0.95468074 0 0 1 -0.0047,0.02424 1.2220982,0.95468074 0 0 1 -0.01909,0.0634 1.2220982,0.95468074 0 0 1 -0.0096,0.02611 1.2220982,0.95468074 0 0 1 -0.03819,0.0839 1.2220982,0.95468074 0 0 1 -0.04057,0.07086 1.2220982,0.95468074 0 0 1 -0.01671,0.02611 1.2220982,0.95468074 0 0 1 -0.02625,0.03542 1.2220982,0.95468074 0 0 1 -0.05012,0.0578 1.2220982,0.95468074 0 0 1 -0.05251,0.05594 1.2220982,0.95468074 0 0 1 -0.08116,0.07086 1.2220982,0.95468074 0 0 1 -0.0907,0.0634 1.2220982,0.95468074 0 0 1 -0.06922,0.04102 1.2220982,0.95468074 0 0 1 -0.0024,0 1.2220982,0.95468074 0 0 1 -0.07399,0.03915 1.2220982,0.95468074 0 0 1 -0.04535,0.02051 1.2220982,0.95468074 0 0 1 -0.03342,0.01305 1.2220982,0.95468074 0 0 1 -0.0907,0.0317 1.2220982,0.95468074 0 0 1 -0.107404,0.02983 1.2220982,0.95468074 0 0 1 -0.03342,0.0075 1.2220982,0.95468074 0 0 1 -0.08116,0.01492 1.2220982,0.95468074 0 0 1 -0.03102,0.0037 1.2220982,0.95468074 0 0 1 -0.09548,0.01119 1.2220982,0.95468074 0 0 1 -0.0047,0 1.2220982,0.95468074 0 0 1 -0.0167,0 1.2220982,0.95468074 0 0 1 -0.08832,0.0037 1.2220982,0.95468074 0 0 1 -0.08831,-0.0037 1.2220982,0.95468074 0 0 1 -0.02148,0 1.2220982,0.95468074 0 0 1 -0.09547,-0.01119 1.2220982,0.95468074 0 0 1 -0.03102,-0.0037 1.2220982,0.95468074 0 0 1 -0.08116,-0.01492 1.2220982,0.95468074 0 0 1 -0.03342,-0.0075 1.2220982,0.95468074 0 0 1 -0.107404,-0.02983 1.2220982,0.95468074 0 0 1 -0.0907,-0.0317 1.2220982,0.95468074 0 0 1 -0.03342,-0.01305 1.2220982,0.95468074 0 0 1 -0.04534,-0.02051 1.2220982,0.95468074 0 0 1 -0.07399,-0.03915 1.2220982,0.95468074 0 0 1 -0.0024,0 1.2220982,0.95468074 0 0 1 -0.06922,-0.04102 1.2220982,0.95468074 0 0 1 -0.0907,-0.0634 1.2220982,0.95468074 0 0 1 -0.08116,-0.07086 1.2220982,0.95468074 0 0 1 -0.05251,-0.05407 1.2220982,0.95468074 0 0 1 0,-0.0019 1.2220982,0.95468074 0 0 1 -0.05012,-0.0578 1.2220982,0.95468074 0 0 1 -0.02626,-0.03542 1.2220982,0.95468074 0 0 1 -0.0167,-0.0261 1.2220982,0.95468074 0 0 1 -0.04057,-0.07086 1.2220982,0.95468074 0 0 1 -0.03819,-0.0839 1.2220982,0.95468074 0 0 1 -0.0096,-0.02611 1.2220982,0.95468074 0 0 1 -0.01909,-0.0634 1.2220982,0.95468074 0 0 1 -0.0047,-0.02424 1.2220982,0.95468074 0 0 1 -0.01433,-0.07459 1.2220982,0.95468074 0 0 1 0,-0.01678 1.2220982,0.95468074 0 0 1 -0.0047,-0.06899 1.2220982,0.95468074 0 0 1 0.0047,-0.06899 1.2220982,0.95468074 0 0 1 0,-0.01678 1.2220982,0.95468074 0 0 1 0.01433,-0.07459 1.2220982,0.95468074 0 0 1 0.0047,-0.02424 1.2220982,0.95468074 0 0 1 0.01909,-0.0634 1.2220982,0.95468074 0 0 1 0.0096,-0.02611 1.2220982,0.95468074 0 0 1 0.03819,-0.0839 1.2220982,0.95468074 0 0 1 0.04057,-0.07086 1.2220982,0.95468074 0 0 1 0.0167,-0.02611 1.2220982,0.95468074 0 0 1 0.02626,-0.03543 1.2220982,0.95468074 0 0 1 0.05012,-0.0578 1.2220982,0.95468074 0 0 1 0.05251,-0.05594 1.2220982,0.95468074 0 0 1 0.08116,-0.07086 1.2220982,0.95468074 0 0 1 0.0907,-0.0634 1.2220982,0.95468074 0 0 1 0.07161,-0.04102 1.2220982,0.95468074 0 0 1 0.07399,-0.03915 1.2220982,0.95468074 0 0 1 0.04534,-0.02051 1.2220982,0.95468074 0 0 1 0.03342,-0.01306 1.2220982,0.95468074 0 0 1 0.0907,-0.03169 1.2220982,0.95468074 0 0 1 0.107404,-0.02983 1.2220982,0.95468074 0 0 1 0.03342,-0.0075 1.2220982,0.95468074 0 0 1 0.08115,-0.01492 1.2220982,0.95468074 0 0 1 0.03103,-0.0037 1.2220982,0.95468074 0 0 1 0.09547,-0.01119 1.2220982,0.95468074 0 0 1 0.02148,0 1.2220982,0.95468074 0 0 1 0.08832,-0.0037 z m -4.339404,0.674993 a 1.2220982,0.95468074 0 0 1 0.88315,0.279688 1.2220982,0.95468074 0 0 1 -1.728084,0 1.2220982,0.95468074 0 0 1 0.844972,-0.279688 z m 8.678809,0 a 1.2220982,0.95468074 0 0 1 0.844971,0.279688 1.2220982,0.95468074 0 0 1 -1.728083,0 1.2220982,0.95468074 0 0 1 0.883162,-0.279688 z m -6.950725,1.349948 a 1.2220982,0.95468074 0 0 1 0.883162,0.279687 1.2220982,0.95468074 0 0 1 0.315066,0.921117 1.2220982,0.95468074 0 0 1 -1.179133,-0.246124 1.2220982,0.95468074 0 0 1 -0.315066,-0.921117 1.2220982,0.95468074 0 0 1 0.295983,-0.03356 z m 5.222517,0 a 1.2220982,0.95468074 0 0 1 0.295983,0.03356 1.2220982,0.95468074 0 0 1 -0.315078,0.921117 1.2220982,0.95468074 0 0 1 -1.179134,0.246124 1.2220982,0.95468074 0 0 1 0.315066,-0.921117 1.2220982,0.95468074 0 0 1 0.883163,-0.279687 z m -2.611321,1.629693 a 1.2220982,0.95468074 0 0 1 0,1.349947 1.2220982,0.95468074 0 0 1 0,-1.349947 z"
     id="path7" />
</svg>
