<?xml version="1.0" encoding="UTF-8" standalone="no"?>
<svg
   width="48"
   height="48"
   version="1.1"
   id="svg7"
   sodipodi:docname="text-markdown.svg"
   inkscape:export-filename="/home/patrick/SOURCES/agnostep/build/agnostep-theme/AGNOSTEP_ART/TIFF/File-markdown.tiff"
   inkscape:export-xdpi="256"
   inkscape:export-ydpi="256"
   inkscape:version="1.4 (e7c3feb100, 2024-10-09)"
   xmlns:inkscape="http://www.inkscape.org/namespaces/inkscape"
   xmlns:sodipodi="http://sodipodi.sourceforge.net/DTD/sodipodi-0.dtd"
   xmlns="http://www.w3.org/2000/svg"
   xmlns:svg="http://www.w3.org/2000/svg">
  <defs
     id="defs7" />
  <sodipodi:namedview
     id="namedview7"
     pagecolor="#ffffff"
     bordercolor="#000000"
     borderopacity="0.25"
     inkscape:showpageshadow="2"
     inkscape:pageopacity="0.0"
     inkscape:pagecheckerboard="0"
     inkscape:deskcolor="#d1d1d1"
     inkscape:zoom="17.625"
     inkscape:cx="24.028369"
     inkscape:cy="24"
     inkscape:window-width="1253"
     inkscape:window-height="1049"
     inkscape:window-x="605"
     inkscape:window-y="0"
     inkscape:window-maximized="0"
     inkscape:current-layer="svg7" />
  <path
     style="opacity:0.2"
     d="M 10,5 C 8.892,5 8,5.892 8,7 v 36 c 0,1.108 0.892,2 2,2 h 28 c 1.108,0 2,-0.892 2,-2 V 17 L 29,16 28,5 Z"
     id="path1" />
  <path
     fill="#e4e4e4"
     d="m10 4c-1.108 0-2 0.892-2 2v36c0 1.108 0.892 2 2 2h28c1.108 0 2-0.892 2-2v-26l-11-1-1-11z"
     id="path2" />
  <path
     style="fill:#ffffff;opacity:0.2"
     d="M 10 4 C 8.892 4 8 4.892 8 6 L 8 7 C 8 5.892 8.892 5 10 5 L 28 5 L 28 4 L 10 4 z"
     id="path3" />
  <path
     style="opacity:0.2"
     d="m 28,5 v 10 c 0,1.1046 0.89543,2 2,2 h 10 z"
     id="path4" />
  <path
     fill="#fafafa"
     d="m28 4v10c0 1.1046 0.89543 2 2 2h10l-12-12z"
     id="path5" />
  <path
     style="fill:#d74c4c"
     d="M 17,35 H 19 V 30.8 L 21,32.8 23,30.8 V 35 H 25 V 28 H 23 L 21,30 19,28 H 17"
     id="path6" />
  <path
     style="fill:#d74c4c"
     d="M 28,28 V 32 H 26 L 28.5,35 H 29.5 L 32,32 H 30 V 28 Z"
     id="path7" />
  <rect
     style="fill:none;stroke:#d74c4c;stroke-width:2;stroke-linecap:round"
     width="20"
     height="11"
     x="14"
     y="26"
     rx=".5"
     ry=".5"
     id="rect7" />
</svg>
